<svg xmlns="http://www.w3.org/2000/svg"  viewBox="0 0 100 100" width="48px" height="48px"><circle cx="50" cy="50" r="35" fill="#fdfcee"/><path fill="#b1b0c1" d="M29.211,35.702c0,0-14.636,8.936-6.402,28.979s35.181,18.127,41.394,2.649 c0,0-7.234,2.95-15.606,0.989C38.427,65.937,26.935,57.012,29.211,35.702z"/><path fill="#444445" d="M80.485,32.792c0,0-6.988-12.92-17.472-14.835l0.409,2.207l-3.975,4.974L41.621,28.89l-12.302,5.599 c0,0-2.146,8.149-0.391,16.009c2.633,11.789,18.455,24.69,34.605,17.388l6.545-15.165l3.577-17.317l2.173-3.19 c0.087,0.166,0.181,0.318,0.266,0.488L80.485,32.792z"/><path fill="#78a1d1" d="M63.883,21.053c-0.319,1.014-2.051,3.705-4.383,5.447c-3.013,2.25-7.309,4.539-10.99,5.308 C41.658,33.24,36.5,39.497,36.5,47c0,8.56,6.716,15.5,15,15.5c8.284,0,14-7,16-15c0.907-3.629,4.399-11.324,8.399-15.324 c0,0-2.499-4.324-5.33-6.83C66.404,21.66,63.883,21.053,63.883,21.053z"/><path fill="#212121" d="M50,14c-19.851,0-36,16.149-36,36s16.149,36,36,36s36-16.149,36-36S69.851,14,50,14z M78.901,32.119c-1.172-0.307-2.198-0.333-3.091-0.074c-1.248-2.204-2.73-4.189-4.418-5.895c-0.194-0.195-0.511-0.199-0.707-0.004 c-0.196,0.194-0.198,0.511-0.004,0.707c1.601,1.618,3.008,3.501,4.201,5.589c-0.734,0.427-1.312,1.056-1.778,1.858 c-3.458,4.129-5.283,9.855-6.089,13.08C65.329,54.124,60.253,62,51.5,62C43.505,62,37,55.271,37,47 c0-7.112,4.884-13.296,11.612-14.703c4.054-0.847,8.437-3.343,11.187-5.396c1.462-1.091,2.626-2.517,3.362-3.979 c0.171-0.246,0.326-0.499,0.45-0.766c0.02-0.044,0.032-0.09,0.051-0.134c0.88,0.35,2.762,1.218,4.922,2.944 c0.092,0.073,0.202,0.109,0.312,0.109c0.147,0,0.292-0.064,0.391-0.188c0.172-0.216,0.137-0.531-0.079-0.703 c-2.327-1.859-4.327-2.765-5.25-3.123c0.131-0.663,0.118-1.353-0.039-2.069C70.121,21.787,75.34,26.384,78.901,32.119z M63.243,67.439C60.445,68.461,57.511,69,54.5,69c-0.276,0-0.5,0.224-0.5,0.5s0.224,0.5,0.5,0.5c2.718,0,5.379-0.414,7.938-1.217 c-3.944,6.253-9.567,10.688-18.035,10.167C31.868,78.172,21.828,68.133,21.05,55.598c-0.501-8.078,2.79-14.406,7.84-18.897 C28.305,38.909,28,41.187,28,43.5c0,2.421,0.327,4.82,0.971,7.133c0.062,0.222,0.262,0.366,0.481,0.366 c0.044,0,0.09-0.006,0.135-0.019c0.266-0.074,0.421-0.35,0.347-0.615C29.314,48.14,29,45.83,29,43.5 c0-2.727,0.44-5.402,1.283-7.965c4.556-3.543,10.258-5.745,15.859-6.545c3.941-0.563,9.708-1.388,13.626-3.362 c-0.186,0.161-0.37,0.324-0.567,0.471c-3.348,2.5-7.584,4.549-10.793,5.219C41.218,32.821,36,39.417,36,47 c0,8.822,6.953,16,15.5,16c9.33,0,14.711-8.284,16.485-15.379c0.604-2.415,1.792-6.27,3.822-9.729 c-0.369,1.59-0.64,3.422-0.934,5.41c-0.431,2.915-0.92,6.22-1.835,9.424C67.615,57.707,65.809,62.953,63.243,67.439z M50,84 c-18.748,0-34-15.252-34-34s15.252-34,34-34c4.001,0,7.84,0.7,11.408,1.975c0.702,1.288,0.832,2.384,0.389,3.338 c-1.704,3.664-10.964,4.987-15.939,5.697C29.175,29.394,18.152,41.2,19.054,55.721c0.84,13.541,11.685,24.385,25.225,25.226 c0.52,0.032,1.027,0.048,1.527,0.048c15.232,0,21.444-14.729,25.155-27.72c0.952-3.33,1.451-6.703,1.891-9.68 c0.675-4.567,1.259-8.513,3.121-9.482c0.957-0.499,2.454-0.253,4.442,0.718C82.704,39.4,84,44.55,84,50C84,68.748,68.748,84,50,84 z"/><path fill="#212121" d="M51.167,68.784c-8.859-1.157-16.562-6.987-20.102-15.215c-0.109-0.255-0.405-0.372-0.657-0.262 c-0.253,0.108-0.371,0.403-0.262,0.656c3.679,8.551,11.684,14.609,20.891,15.813c0.022,0.003,0.044,0.004,0.065,0.004 c0.248,0,0.462-0.184,0.495-0.436C51.633,69.071,51.44,68.82,51.167,68.784z"/></svg>