<svg transform="scale(1)" id="_0395_dream" xmlns="http://www.w3.org/2000/svg" xmlns:xlink="http://www.w3.org/1999/xlink" viewBox="0 0 500 500" class="show_show__wrapper__graphic__5Waiy "><title>React</title><defs><style>.cls-1{fill:url(#linear-gradient);}.cls-1,.cls-2,.cls-3,.cls-4,.cls-5,.cls-6,.cls-7,.cls-8,.cls-9,.cls-10,.cls-11,.cls-12,.cls-13,.cls-14,.cls-15,.cls-16,.cls-17{stroke-width:0px;}.cls-2{fill:url(#linear-gradient-11);}.cls-3{fill:url(#linear-gradient-12);}.cls-4{fill:url(#linear-gradient-13);}.cls-5{fill:url(#linear-gradient-10);}.cls-6{fill:url(#linear-gradient-4);}.cls-7{fill:url(#linear-gradient-2);}.cls-8{fill:url(#linear-gradient-3);}.cls-9{fill:url(#linear-gradient-8);}.cls-10{fill:url(#linear-gradient-9);}.cls-11{fill:url(#linear-gradient-7);}.cls-12{fill:url(#linear-gradient-5);}.cls-13{fill:url(#linear-gradient-6);}.cls-14{fill:#755a3f;}.cls-15{fill:#fff;}.cls-16{fill:#ffb4a3;}.cls-17{fill:#24a3ff;}</style><linearGradient id="linear-gradient" x1="-1055.88" y1="2856.71" x2="-988.19" y2="3286.52" gradientTransform="translate(1284.19 3304.37) scale(1 -1)" gradientUnits="userSpaceOnUse"><stop offset="0" stop-color="#231f20" stop-opacity="0"></stop><stop offset="1" stop-color="#231f20"></stop></linearGradient><linearGradient id="linear-gradient-2" x1="-1124.49" y1="3163.78" x2="-1085.03" y2="3233.65" gradientTransform="translate(1284.19 3304.37) scale(1 -1)" gradientUnits="userSpaceOnUse"><stop offset=".02" stop-color="#fff" stop-opacity="0"></stop><stop offset=".58" stop-color="#fff" stop-opacity=".39"></stop><stop offset=".68" stop-color="#fff" stop-opacity=".68"></stop><stop offset="1" stop-color="#fff"></stop></linearGradient><linearGradient id="linear-gradient-3" x1="-1128.29" y1="3151.44" x2="-1097.28" y2="3206.33" xlink:href="#linear-gradient-2"></linearGradient><linearGradient id="linear-gradient-4" x1="1209.98" y1="2933.05" x2="1249.44" y2="3002.91" gradientTransform="translate(1276.99 3288.65) rotate(-174.23)" xlink:href="#linear-gradient-2"></linearGradient><linearGradient id="linear-gradient-5" x1="-874.52" y1="2984" x2="-881.49" y2="3081.72" xlink:href="#linear-gradient-2"></linearGradient><linearGradient id="linear-gradient-6" x1="-818.33" y1="2867.2" x2="-778.87" y2="2937.07" gradientTransform="translate(657.37 3246.19) rotate(4.72) scale(1 -1)" xlink:href="#linear-gradient-2"></linearGradient><linearGradient id="linear-gradient-7" x1="-822.15" y1="2854.88" x2="-791.14" y2="2909.77" gradientTransform="translate(657.37 3246.19) rotate(4.72) scale(1 -1)" xlink:href="#linear-gradient-2"></linearGradient><linearGradient id="linear-gradient-8" x1="-1160.69" y1="3205.89" x2="-1166.17" y2="3282.63" gradientTransform="translate(1289 3367.76) scale(1 -1)" xlink:href="#linear-gradient-2"></linearGradient><linearGradient id="linear-gradient-9" x1="-1100.73" y1="3137.79" x2="-1158.48" y2="3100.98" xlink:href="#linear-gradient-2"></linearGradient><linearGradient id="linear-gradient-10" x1="-1052.09" y1="3031.48" x2="-1078.89" y2="3063.35" xlink:href="#linear-gradient"></linearGradient><linearGradient id="linear-gradient-11" x1="-973.64" y1="2992.62" x2="-915.26" y2="3006.15" xlink:href="#linear-gradient"></linearGradient><linearGradient id="linear-gradient-12" x1="-1002.44" y1="2965.77" x2="-937.58" y2="3004.4" xlink:href="#linear-gradient"></linearGradient><linearGradient id="linear-gradient-13" x1="-1045.44" y1="3059.32" x2="-1014.15" y2="2984.3" xlink:href="#linear-gradient"></linearGradient></defs><g id="background"><path class="cls-17" d="M208.76,54.4c-34.43,2.44-69.46,14.92-92.44,40.67-17.72,19.86-27.03,45.86-43.16,67.08-16.6,21.76-40.41,38.51-51.16,63.65-6.42,14.98-7.53,31.66-7.52,47.97,0,23.6,2.33,47.8,12.47,69.13,4.73,9.98,11.35,19.37,20.67,25.34,8.71,5.53,19.13,7.69,29.37,9.11,45.37,6.28,92.17.39,136.82,10.58,23.26,5.3,45.31,14.84,68.14,21.76,37.27,11.28,76.31,15.52,115.13,12.49,15.17-1.19,30.55-3.58,44.17-10.36,32.69-16.25,49.07-55.83,46.26-92.24-2.81-36.41-21.56-69.79-43.99-98.57-14.36-18.45-30.55-35.79-40.9-56.73-7.32-14.81-11.53-31.07-19.45-45.56-31.02-56.72-116.33-68.42-174.41-64.31Z"></path><path class="cls-1" d="M442.1,412.22c-13.62,6.77-29,9.16-44.17,10.36-38.82,3.03-77.87-1.2-115.14-12.49-22.77-6.92-44.87-16.42-68.13-21.77-44.66-10.15-91.46-4.29-136.83-10.57-10.23-1.42-20.65-3.56-29.36-9.12-9.32-5.93-15.94-15.35-20.68-25.33-10.15-21.33-12.46-45.51-12.47-69.13,0-16.31,1.13-32.99,7.53-47.97,10.74-25.15,34.57-41.91,51.15-63.65,16.13-21.17,25.43-47.19,43.17-67.04,22.99-25.77,57.99-38.26,92.44-40.7,58.11-4.1,143.4,7.59,174.41,64.31,7.93,14.49,12.14,30.74,19.45,45.55,10.37,20.95,26.55,38.31,40.9,56.74,11.99,15.36,22.9,32.04,30.91,49.76,3.88,8.51,7.01,17.34,9.35,26.39,1.87,7.35,3.11,14.84,3.69,22.41,2.85,36.41-13.52,75.99-46.21,92.24Z"></path></g><g id="star"><path class="cls-17" d="M287.59,320.28l-.36.07c.32-.34.7-.62,1.13-.83.42-.19.9-.21,1.34-.05.46.18-.67.5-2.1.8Z"></path><path class="cls-15" d="M280.61,326.15s0-.05.07-.06l.2.21c.24.14-.35.32-.34,0,0-.05.03-.1.06-.15Z"></path><polygon class="cls-15" points="240.97 70.88 239.14 76.1 230.4 78.35 236.75 81.6 233.36 91.9 241.68 85.13 249.29 90.63 245.77 81.32 251.27 75.39 243.09 75.82 240.97 70.88"></polygon><polygon class="cls-15" points="297.79 114.11 296.96 116.48 293 117.49 295.88 118.97 294.35 123.63 298.11 120.56 301.56 123.05 299.97 118.84 302.45 116.16 298.75 116.35 297.79 114.11"></polygon><polygon class="cls-15" points="283.07 72.86 281.23 78.08 272.49 80.33 278.84 83.58 275.45 93.87 283.77 87.1 291.38 92.61 287.86 83.3 293.35 77.37 285.18 77.79 283.07 72.86"></polygon><polygon class="cls-15" points="164.91 120.24 163.84 123.29 158.73 124.6 162.44 126.5 160.46 132.51 165.32 128.56 169.77 131.77 167.7 126.34 170.91 122.88 166.14 123.13 164.91 120.24"></polygon><polygon class="cls-15" points="339.89 116.09 339.06 118.45 335.09 119.47 337.97 120.94 336.44 125.6 340.2 122.54 343.65 125.02 342.06 120.81 344.55 118.13 340.84 118.32 339.89 116.09"></polygon><polygon class="cls-15" points="176.54 174.05 175.71 176.41 171.75 177.43 174.63 178.9 173.09 183.57 176.86 180.49 180.31 182.98 178.71 178.77 181.2 176.09 177.5 176.29 176.54 174.05"></polygon><polygon class="cls-15" points="278.64 116.22 277.81 118.58 273.86 119.6 276.72 121.07 275.19 125.73 278.96 122.67 282.41 125.16 280.81 120.94 283.3 118.27 279.59 118.45 278.64 116.22"></polygon><polygon class="cls-15" points="403.9 195.65 400.59 197.27 395.37 194.26 396.88 198.77 390.45 202.07 397.57 202.75 398.61 208.92 401.3 202.85 406.68 202.61 402.6 198.99 403.9 195.65"></polygon><polygon class="cls-15" points="325.58 162.88 323.65 163.83 320.61 162.06 321.48 164.7 317.73 166.63 321.89 167.03 322.5 170.63 324.06 167.08 327.21 166.94 324.82 164.83 325.58 162.88"></polygon><polygon class="cls-15" points="410.67 242.77 409.17 243.51 406.81 242.15 407.49 244.19 404.59 245.68 407.81 245.99 408.28 248.79 409.5 246.04 411.93 245.93 410.09 244.29 410.67 242.77"></polygon><polygon class="cls-15" points="305.94 193.89 304.43 194.62 302.08 193.26 302.75 195.3 299.85 196.79 303.07 197.11 303.55 199.9 304.76 197.15 307.19 197.04 305.35 195.4 305.94 193.89"></polygon><polygon class="cls-15" points="381.51 214.18 380.01 214.92 377.64 213.55 378.33 215.59 375.42 217.09 378.64 217.4 379.11 220.19 380.33 217.45 382.76 217.33 380.92 215.69 381.51 214.18"></polygon><polygon class="cls-15" points="70.74 188.28 71.24 191.93 66.75 195.93 71.5 195.93 72.64 203.06 75.5 196.51 81.7 197.45 76.76 193 78.22 187.81 73.5 190.56 70.74 188.28"></polygon><polygon class="cls-15" points="41.37 241.74 41.67 243.87 39.04 246.22 41.81 246.21 42.48 250.38 44.15 246.55 47.76 247.09 44.88 244.5 45.73 241.47 42.97 243.07 41.37 241.74"></polygon><polygon class="cls-15" points="130.64 170.15 130.86 171.8 128.83 173.62 130.98 173.61 131.5 176.84 132.79 173.88 135.6 174.3 133.36 172.29 134.03 169.94 131.89 171.19 130.64 170.15"></polygon><polygon class="cls-15" points="64.69 270.1 64.92 271.75 62.88 273.56 65.03 273.56 65.55 276.78 66.85 273.82 69.65 274.24 67.42 272.24 68.07 269.88 65.93 271.13 64.69 270.1"></polygon><polygon class="cls-15" points="89.15 215.08 89.37 216.73 87.34 218.55 89.49 218.54 90.01 221.77 91.3 218.81 94.1 219.23 91.87 217.21 92.54 214.87 90.4 216.12 89.15 215.08"></polygon><polygon class="cls-15" points="91.77 306.24 92.1 308.64 89.16 311.26 92.27 311.25 93.02 315.93 94.9 311.63 98.96 312.25 95.73 309.34 96.68 305.93 93.58 307.74 91.77 306.24"></polygon><polygon class="cls-15" points="72.52 341.29 72.71 342.68 71 344.22 72.82 344.21 73.25 346.94 74.35 344.43 76.72 344.79 74.83 343.1 75.39 341.1 73.58 342.16 72.52 341.29"></polygon><polygon class="cls-15" points="125.72 295.7 125.87 296.78 124.53 297.97 125.95 297.97 126.29 300.08 127.14 298.14 128.97 298.42 127.51 297.1 127.94 295.56 126.54 296.38 125.72 295.7"></polygon><polygon class="cls-15" points="87.8 359.87 87.96 360.95 86.62 362.14 88.03 362.13 88.38 364.26 89.22 362.31 91.06 362.59 89.59 361.27 90.03 359.73 88.63 360.55 87.8 359.87"></polygon><polygon class="cls-15" points="103.85 323.81 103.99 324.9 102.66 326.09 104.07 326.08 104.41 328.2 105.26 326.25 107.09 326.53 105.63 325.21 106.06 323.67 104.66 324.49 103.85 323.81"></polygon><polygon class="cls-15" points="215.98 341.32 215.34 342.13 213.64 341.99 214.57 342.96 213.34 344.58 215.24 343.89 216.25 345.33 216.19 343.47 217.53 342.75 216.06 342.32 215.98 341.32"></polygon><polygon class="cls-15" points="267.36 346.44 266.86 347.07 265.54 346.97 266.26 347.72 265.31 348.98 266.78 348.44 267.57 349.56 267.53 348.11 268.57 347.56 267.42 347.23 267.36 346.44"></polygon><polygon class="cls-15" points="213.86 358.92 213.36 359.55 212.05 359.45 212.77 360.2 211.81 361.45 213.28 360.92 214.07 362.03 214.03 360.59 215.07 360.03 213.93 359.7 213.86 358.92"></polygon><polygon class="cls-15" points="241.24 349.1 240.74 349.73 239.43 349.63 240.15 350.37 239.19 351.64 240.66 351.09 241.45 352.22 241.4 350.77 242.45 350.21 241.3 349.88 241.24 349.1"></polygon><polygon class="cls-15" points="456.62 332.31 455.52 333.72 452.62 333.48 454.21 335.14 452.09 337.91 455.34 336.73 457.08 339.2 456.99 335.99 459.29 334.78 456.75 334.04 456.62 332.31"></polygon><polygon class="cls-15" points="428.15 339.9 427.5 340.72 425.81 340.59 426.74 341.55 425.51 343.17 427.4 342.48 428.41 343.93 428.36 342.05 429.7 341.34 428.22 340.91 428.15 339.9"></polygon><polygon class="cls-15" points="479.53 345.03 479.03 345.67 477.72 345.56 478.44 346.32 477.48 347.57 478.94 347.04 479.74 348.15 479.69 346.7 480.73 346.15 479.58 345.82 479.53 345.03"></polygon><polygon class="cls-15" points="426.03 357.51 425.53 358.15 424.22 358.04 424.94 358.79 423.98 360.05 425.45 359.51 426.24 360.63 426.2 359.18 427.23 358.63 426.09 358.3 426.03 357.51"></polygon><polygon class="cls-15" points="453.41 347.69 452.9 348.33 451.59 348.22 452.31 348.97 451.35 350.23 452.83 349.69 453.61 350.81 453.57 349.36 454.61 348.81 453.47 348.47 453.41 347.69"></polygon><polygon class="cls-15" points="435.42 281.38 434.31 282.78 431.41 282.55 433 284.2 430.89 286.98 434.13 285.8 435.88 288.27 435.78 285.07 438.08 283.84 435.54 283.11 435.42 281.38"></polygon><polygon class="cls-15" points="406.94 288.97 406.3 289.79 404.61 289.65 405.53 290.61 404.29 292.23 406.19 291.54 407.21 292.99 407.15 291.12 408.49 290.41 407.01 289.97 406.94 288.97"></polygon><polygon class="cls-15" points="458.32 294.11 457.82 294.73 456.51 294.63 457.23 295.38 456.27 296.63 457.74 296.1 458.53 297.22 458.49 295.77 459.53 295.21 458.37 294.88 458.32 294.11"></polygon><polygon class="cls-15" points="404.83 306.58 404.32 307.21 403.01 307.1 403.73 307.85 402.77 309.11 404.25 308.58 405.03 309.7 404.99 308.25 406.03 307.69 404.88 307.36 404.83 306.58"></polygon><polygon class="cls-15" points="432.21 296.75 431.7 297.39 430.39 297.29 431.11 298.04 430.15 299.29 431.62 298.76 432.41 299.87 432.36 298.42 433.4 297.87 432.26 297.54 432.21 296.75"></polygon><polygon class="cls-15" points="168.55 323.53 167.59 324.75 165.06 324.55 166.45 325.99 164.6 328.42 167.44 327.39 168.96 329.56 168.88 326.75 170.89 325.68 168.66 325.04 168.55 323.53"></polygon><polygon class="cls-15" points="143.67 330.16 143.1 330.87 141.63 330.75 142.44 331.6 141.36 333.02 143.01 332.41 143.91 333.68 143.85 332.05 145.03 331.42 143.73 331.04 143.67 330.16"></polygon><polygon class="cls-15" points="141.82 345.55 141.38 346.1 140.23 346.01 140.86 346.67 140.03 347.76 141.31 347.29 142.01 348.28 141.97 347.01 142.87 346.53 141.87 346.23 141.82 345.55"></polygon><polygon class="cls-15" points="165.75 336.97 165.31 337.52 164.16 337.43 164.79 338.09 163.96 339.19 165.24 338.71 165.92 339.69 165.89 338.43 166.8 337.94 165.79 337.65 165.75 336.97"></polygon><polygon class="cls-15" points="357.47 243.79 355.93 243.97 354.27 242.06 354.24 244.06 351.22 244.49 353.97 245.74 353.52 248.35 355.43 246.3 357.62 246.95 356.49 244.94 357.47 243.79"></polygon><polygon class="cls-15" points="335.11 231.01 334.21 231.12 333.24 230 333.22 231.17 331.46 231.42 333.06 232.16 332.81 233.68 333.92 232.48 335.2 232.86 334.53 231.69 335.11 231.01"></polygon><polygon class="cls-15" points="363.9 265.77 363.2 265.85 362.44 264.98 362.43 265.89 361.07 266.08 362.31 266.66 362.11 267.84 362.98 266.91 363.97 267.2 363.45 266.29 363.9 265.77"></polygon><polygon class="cls-15" points="322.97 240.66 322.28 240.75 321.53 239.88 321.52 240.78 320.15 240.98 321.39 241.55 321.19 242.73 322.05 241.8 323.04 242.09 322.53 241.18 322.97 240.66"></polygon><polygon class="cls-15" points="346.02 251.37 345.33 251.45 344.58 250.59 344.57 251.49 343.2 251.69 344.44 252.26 344.24 253.44 345.11 252.51 346.09 252.8 345.58 251.9 346.02 251.37"></polygon><polygon class="cls-15" points="251.67 152.69 250.35 153.52 248.03 152.48 248.86 154.31 246.3 155.98 249.32 155.95 250.03 158.49 250.9 155.83 253.15 155.5 251.27 154.15 251.67 152.69"></polygon><polygon class="cls-15" points="226 150.62 225.23 151.1 223.87 150.49 224.36 151.56 222.86 152.53 224.63 152.52 225.04 154 225.55 152.44 226.86 152.25 225.77 151.47 226 150.62"></polygon><polygon class="cls-15" points="266.81 169.87 266.22 170.25 265.17 169.77 265.53 170.61 264.38 171.35 265.75 171.34 266.07 172.5 266.46 171.29 267.48 171.14 266.63 170.53 266.81 169.87"></polygon><polygon class="cls-15" points="219.11 164.49 218.51 164.87 217.46 164.4 217.83 165.23 216.67 165.98 218.04 165.97 218.36 167.12 218.75 165.91 219.77 165.76 218.93 165.15 219.11 164.49"></polygon><polygon class="cls-15" points="244.52 164.42 243.92 164.78 242.88 164.31 243.25 165.14 242.1 165.9 243.46 165.89 243.78 167.04 244.17 165.84 245.19 165.68 244.34 165.07 244.52 164.42"></polygon><path class="cls-7" d="M154.6,99.89c-1.48,1.58-2.77,3.37-4.61,4.54-4.61,3.01-10.79,1.06-16.23,2.08-2.77.52-5.39,1.84-8.02,2.96-9.22,3.93-19.21,5.53-29.1,7.11,12.02,8.17,26.63,11.63,41.04,9.71l-1.71,5.91c11.15,6.08,24.56,6.38,35.97.8-.16,8.21,11.12,13.94,17.65,8.97,1.21-.92,2.3-2.13,3.77-2.5,1.77-.44,3.56.44,5.26,1.12,8.73,3.43,18.53,1.41,27.67-.65,4.66-1.05,9.56-2.23,13.01-5.53,3.45-3.3,4.61-9.46,1.16-12.74,6.57-1.62,6.94-11.93,1.84-16.4-5.09-4.47-12.54-4.61-19.31-4.22-2.88-7.38-6.32-15.39-13.4-18.92-9.13-4.55-15.84,5.36-23.59,7.49-11.47,3.18-22.15.35-31.43,10.27Z"></path><path class="cls-8" d="M151.88,120.95c-1.05,1.33-2.26,2.52-3.6,3.56-3.69,2.36-8.49.84-12.75,1.63-2.18.55-4.29,1.32-6.3,2.32-7.24,3.09-15.1,4.35-22.87,5.6,9.44,6.42,20.92,9.13,32.24,7.63l-1.34,4.61c8.77,4.78,19.31,5.02,28.28.64-.13,6.46,8.74,10.95,13.84,7.04.92-.72,1.84-1.67,2.96-1.96,1.39-.34,2.77.35,4.13.88,6.85,2.7,14.56,1.12,21.74-.51,3.69-.82,7.51-1.74,10.22-4.34,2.71-2.59,3.64-7.44.92-10.01,5.16-1.28,5.45-9.37,1.46-12.91-3.99-3.54-9.86-3.62-15.16-3.31-2.27-5.79-4.97-12.09-10.54-14.87-7.17-3.57-12.43,4.22-18.52,5.88-9.03,2.56-17.42.33-24.71,8.12Z"></path><path class="cls-6" d="M381.42,223.52c1.31,1.72,2.42,3.63,4.1,4.99,4.3,3.46,10.63,2.17,15.92,3.69,2.77.81,5.17,2.39,7.67,3.77,8.75,4.85,18.54,7.48,28.22,10.07-12.8,6.89-27.69,8.83-41.82,5.43l1.09,6.06c-11.72,4.91-25.1,3.83-35.88-2.9-.69,8.18-12.5,12.71-18.45,7.09-1.11-1.04-2.07-2.35-3.5-2.87-1.72-.63-3.59.07-5.35.56-9.02,2.52-18.57-.5-27.45-3.49-4.53-1.52-9.28-3.2-12.37-6.84-3.09-3.63-3.63-9.89.16-12.78-6.36-2.3-5.67-12.57-.17-16.5,5.51-3.93,12.91-3.28,19.64-2.21,3.63-7.04,7.87-14.66,15.28-17.43,9.55-3.59,15.2,6.95,22.68,9.87,11.1,4.38,22.01,2.67,30.23,13.48Z"></path><path class="cls-12" d="M466.1,295.47c.47,2.6.92,5.19,1.4,7.79-15.08,6.33-32.29,4.96-46.18-3.69-.88,10.53-16.08,16.37-23.77,9.14-1.43-1.34-2.67-3.03-4.5-3.69-2.21-.8-4.61.1-6.89.73-11.61,3.25-23.9-.64-35.32-4.48-5.83-1.96-11.95-4.12-15.92-8.8-3.98-4.68-4.69-12.73.2-16.46-8.19-2.95-7.31-16.18-.21-21.22,7.09-5.04,16.67-4.22,25.26-2.84,4.67-9.06,10.15-18.86,19.67-22.44,12.29-4.61,19.56,8.95,29.19,12.71,14.33,5.59,28.36,3.38,38.94,17.3,1.68,2.2,3.1,4.67,5.27,6.41,5.53,4.46,13.67,2.77,20.49,4.8.52.16,1.03.33,1.54.53,3.88,8.51,7.01,17.34,9.35,26.39-6.24.05-12.47-.68-18.53-2.17Z"></path><path class="cls-13" d="M75.97,280.34c-1.6,1.45-3.04,3.12-4.94,4.14-4.86,2.61-10.84.18-16.34.74-2.84.29-5.53,1.38-8.24,2.29-9.5,3.15-19.6,3.94-29.58,4.7,11.3,9.14,25.58,13.78,40.1,13.04l-2.18,5.76c10.62,6.98,23.96,8.39,35.8,3.76-.84,8.17,9.93,14.76,16.85,10.39,1.28-.82,2.46-1.94,3.97-2.19,1.84-.3,3.51.74,5.16,1.54,8.4,4.15,18.35,2.94,27.67,1.63,4.72-.66,9.71-1.43,13.42-4.44,3.71-3.01,5.39-9.05,2.2-12.59,6.68-1.08,7.9-11.32,3.21-16.19-4.69-4.87-12.14-5.62-18.9-5.79-2.26-7.59-5.04-15.86-11.81-19.96-8.72-5.29-16.23,4.04-24.12,5.53-11.79,2.2-22.19-1.49-32.27,7.63Z"></path><path class="cls-11" d="M71.53,301.11c-1.16,1.24-2.46,2.33-3.87,3.26-3.82,2.05-8.52.14-12.84.57-2.21.37-4.37.97-6.46,1.8-7.46,2.48-15.4,3.1-23.24,3.69,8.88,7.18,20.1,10.83,31.51,10.25l-1.72,4.52c8.33,5.49,18.81,6.61,28.12,2.99-.66,6.46,7.8,11.63,13.24,8.15,1.01-.64,1.94-1.51,3.12-1.71,1.42-.23,2.77.57,4.05,1.21,6.6,3.26,14.42,2.31,21.7,1.28,3.69-.52,7.63-1.13,10.54-3.49,2.91-2.36,4.24-7.11,1.73-9.9,5.25-.85,6.2-8.88,2.52-12.72-3.68-3.84-9.53-4.41-14.85-4.55-1.77-5.96-3.96-12.46-9.28-15.68-6.84-4.15-12.74,3.17-18.95,4.34-9.22,1.69-17.41-1.19-25.32,5.98Z"></path></g><g id="character"><path class="cls-16" d="M249.61,250.9c-6.76,1.84-13.53,3.54-20.29,5.07-2.4.54-4.87,1.06-7.28.59-1.74-.43-3.4-1.13-4.93-2.07-16.39-9.02-31.51-20.16-44.98-33.15-.77-4.24-2.32-8.31-4.56-11.99-1.16,1.82-1.31,4.1-.39,6.05-2.01-.35-3.49-2.01-4.93-3.46-2.99-3.01-6.49-5.45-10.35-7.21-.66.28-1,1-.8,1.69.23.65.61,1.24,1.12,1.71l3.43,3.69-10.03-3.86c-.97-.44-2-.7-3.06-.77-1.08-.06-2.1.47-2.68,1.38l11.58,7.94-11.19-2.57c-.92.99.38,2.45,1.53,3.15l6.73,4.03c-1.41.24-2.77-.51-4.2-.7-1.43-.19-3.25.74-2.96,2.14s2.03,1.55,3.37,1.79c4.91.92,8.64,6.04,13.61,5.66,1.04-.2,2.1-.28,3.15-.25,1.17.3,2.25.91,3.1,1.77,12.07,10.2,24.12,20.45,36.24,30.61,15.32,12.86,26.19,11.14,33.75,11s15.07-1.47,22.53-2.77c.74-.08,1.45-.32,2.08-.71,1.84-1.35.92-4.21-.16-6.19-2.51-4.56-6.36-8.39-9.45-12.57Z"></path><polygon class="cls-9" points="124.78 85.9 124.78 162.12 126.5 161.96 126.35 84.88 124.78 85.9"></polygon><path class="cls-10" d="M130.88,148.65s-27.92,19.45-22.84,50.34c4.22,25.63,18.33,34.98,58.8,29.62,0,0-28.55-7.78-38.5-33.42-4.57-11.66-4.65-25.12,2.54-46.54Z"></path><path class="cls-16" d="M340.14,333.3c4.06,1.19,8.36,1.32,12.49.38,4.1-.94,8.11-2.23,11.99-3.86l19-7.31c3.77-1.45,8.06-2.2,11.99-3.09,1.78-.4,3.69-.78,5.36,0,1.38.65,2.29,1.99,3.47,2.95,1.18.95,2.63,1.53,4.14,1.64.59.09,1.19-.03,1.71-.32,1.27-.87.73-2.83.05-4.21l-5.83-11.78c-.68-1.38-1.58-2.93-3.1-3.18-1.07-.04-2.13.26-3.03.85-7.08,3.55-14.98,5.12-22.77,6.61-10.05,1.93-20.19,3.81-30.44,3.43-.66-.07-1.33-.01-1.97.17-.42.17-.81.4-1.15.69-1.53,1.23-2.68,2.86-3.31,4.71-.88,2.56-.7,5.33-.53,8.03,0,1.2.23,2.39.71,3.49.61,1.04.05.94,1.23.78Z"></path><path class="cls-16" d="M316.33,354.93c2.86,3.12,6.48,5.45,10.5,6.77,4,1.32,8.12,2.29,12.29,2.91l20.03,3.56c3.98.7,8.04,2.28,11.88,3.55,1.73.57,3.59,1.25,4.61,2.77.85,1.26.92,2.88,1.44,4.31.52,1.43,1.46,2.67,2.7,3.55.46.38,1.03.59,1.62.6,1.54-.08,2.08-2.05,2.21-3.58l1.1-13.1c.13-1.53.16-3.32-1.01-4.32-.9-.59-1.96-.89-3.03-.85-7.91-.62-15.48-3.35-22.91-6.1-9.59-3.53-19.25-7.16-27.8-12.76-.53-.4-1.14-.7-1.78-.88-.45-.08-.9-.08-1.35,0-1.94.26-3.77,1.06-5.27,2.32-2.07,1.74-3.36,4.21-4.61,6.61-.62,1.02-1.02,2.16-1.19,3.35-.08,1.21-.52.84.58,1.28Z"></path><path class="cls-16" d="M233.09,267.43c-6.76,1.84-13.53,3.54-20.29,5.07-2.39.53-4.87,1.06-7.28.58-1.74-.42-3.4-1.12-4.93-2.06-16.39-9.02-31.51-20.17-44.98-33.15-.77-4.24-2.31-8.31-4.56-11.99-1.16,1.81-1.31,4.1-.38,6.04-2.01-.34-3.49-2.01-4.93-3.46-3-3-6.5-5.45-10.36-7.21-.66.28-1,1.01-.79,1.69.22.66.6,1.25,1.12,1.71l3.42,3.69-9.98-3.84c-.97-.44-2.01-.7-3.07-.77-1.08-.05-2.1.48-2.68,1.38l11.58,7.94-11.19-2.58c-.92.99.38,2.46,1.54,3.15l6.72,4.03c-1.4.24-2.77-.52-4.19-.7s-3.26.74-2.97,2.13c.29,1.39,2.03,1.55,3.38,1.84,4.9.92,8.63,6.04,13.61,5.66,1.04-.21,2.09-.29,3.15-.25,1.17.3,2.25.91,3.1,1.77,12.08,10.2,24.13,20.45,36.24,30.61,15.32,12.85,26.19,11.14,33.76,11s15.06-1.47,22.53-2.77c.74-.07,1.45-.32,2.08-.71,1.84-1.35.92-4.2-.16-6.18-2.56-4.62-6.4-8.47-9.48-12.64Z"></path><path class="cls-17" d="M216.39,252.14c-.48-.35-1.09-.48-1.68-.35-.25.13-.47.31-.65.53-2.98,3.34-5.21,7.27-6.56,11.54-.42,1.36-.74,2.9,0,4.14.31.5.71.94,1.17,1.31,4.79,4.12,11.04,6.14,17.34,5.61,1.1-.07,2.18-.31,3.21-.71,1.11-.52,2.11-1.24,2.95-2.12,4.12-4.17,5.91-10.11,4.78-15.86-.3-1.47-.92-4.31-2.64-4.26-.77,0-1.98.92-2.77,1.16-4.99,1.69-10.45,1.32-15.17-1.02v.03Z"></path><path class="cls-5" d="M216.39,252.14c-.48-.35-1.09-.48-1.68-.35-.25.13-.47.31-.65.53-2.98,3.34-5.21,7.27-6.56,11.54-.42,1.36-.74,2.9,0,4.14.31.5.71.94,1.17,1.31,4.79,4.12,11.04,6.14,17.34,5.61,1.1-.07,2.18-.31,3.21-.71,1.11-.52,2.11-1.24,2.95-2.12,4.12-4.17,5.91-10.11,4.78-15.86-.3-1.47-.92-4.31-2.64-4.26-.77,0-1.98.92-2.77,1.16-4.99,1.69-10.45,1.32-15.17-1.02v.03Z"></path><path class="cls-16" d="M209.21,228.9c-.36,3.49-.5,6.9-.59,9.85-.06,2.22,0,4.57,1.13,6.46,1.19,1.7,2.85,3.03,4.77,3.83,4.5,2.24,9.53,3.69,14.55,3.23,5.9-.65,11.22-3.83,14.59-8.72,3.36-4.84,6.72-10.15,7.48-16.08.81-5.87-.43-11.83-3.5-16.9-3.13-5.06-8.28-8.55-14.14-9.58-7.48-1.16-15.14,4.51-19.18,10.5-3.09,4.59-4.46,11.13-5.11,17.42Z"></path><path class="cls-16" d="M229.68,251.92c.2,3.03.71,6.03,1.52,8.96.19.8.6,1.54,1.18,2.12,1.36,1.19,3.42.64,5.23.57.76.05,1.52-.03,2.26-.22.64-.29,1.21-.71,1.68-1.24,1.38-1.18,2.49-2.64,3.26-4.28.35-1.01.55-2.06.61-3.12.44-5,.28-10.03-.49-14.99-.13-.84-.38-1.84-1.15-2.14-.42-.16-.88-.18-1.31-.06-1.74.44-3.41,1.14-4.94,2.08-1.48.79-2.98,1.51-4.51,2.17-1.05.46-2.86.79-3.63,1.71s-.31,2.35-.21,3.39c.18,1.69.34,3.38.52,5.06Z"></path><path class="cls-14" d="M217.43,196.97c-1.64.78-3.12,1.85-4.38,3.15-1.4,1.13-2.57,2.53-3.44,4.1-.86,1.63-.7,3.62.42,5.08.87.92,2.36,1.46,3.43,2.18,1.42.97,3.15,1.36,4.84,1.1.3-.09.62-.09.92,0,.24.14.44.33.58.56.62.75,1.47,1.26,2.43,1.45.39.01.77.16,1.07.42.17.28.25.6.23.92.26,3,2.53,5.41,3.46,8.3.44,1.59.67,3.24.69,4.89l.18,3.2c0-.65,2.71-3.23,3.32-3.62,2.39,1.42,2.28,5.53-.18,6.86.45,4.2,3.56,7.63,7.69,8.48,1.42.2,2.87.24,4.3.12l3.69-.18c.78.09,1.48-.47,1.57-1.25,1.26-3.59,3.69-6.46,4.79-10.15,1.1-3.69,1.05-7.26,1.05-11.07-.52-6.85-2.81-13.76-7.53-18.75-1.24-1.35-2.69-2.5-4.29-3.39-2.61-1.4-5.59-1.91-8.51-2.39-2.75-.45-5.52-.71-8.3-.78-2.6-.08-5.58-.23-8.03.75Z"></path><path class="cls-17" d="M303.97,293.49c-.82,2.67-1.74,5.41-2.83,8.11l-.06.13c-.24.61-.49,1.21-.75,1.77h0c-.25.54-.5,1.1-.76,1.64-.03.07-.06.13-.09.19-.13.28-.28.55-.42.82l-.44.88c-.3.57-.62,1.14-.92,1.71-.22.4-.46.77-.71,1.16v.06c-1.94,3.2-4.44,6.03-7.38,8.36h0c-.48.37-.98.73-1.49,1.07-1.29.97-2.82,1.56-4.43,1.72-1.21-.02-2.4-.28-3.51-.77-3.13-1.2-6.19-2.6-9.16-4.17-1.22-1.2-2.45-2.39-3.69-3.56-1.6-1.53-3.23-3.04-4.94-4.45-6.02-4.88-13.12-8.19-20.14-11.47l-7.87-3.56c-1.61-.75-3.26-1.84-5-2.22-.07-.05-.14-.08-.21-.11-.62-.15-1.28-.15-1.9,0-4.61.8-8.56,2.11-13.26,2.44-.69.1-1.39.03-2.05-.2-.68-.3-1.9-3.92-2.32-4.53-2.8-4.08-4.46-8.83-4.81-13.77-.08-.56-.02-1.14.18-1.67.43-.68,1.08-1.2,1.84-1.47,8.1-3.98,16.15-8.42,22.48-14.86l.71-.71c.4-.4.8-.8,1.25-1.22l.8-.77c.73-.7,1.49-1.41,2.24-2.12l.92-.83.5-.46h0c1.66-1.56,3.57-2.84,5.65-3.78.58-.27,1.18-.51,1.79-.73.3-.1.6-.2.92-.29.61-.19,1.22-.34,1.84-.46,1.26-.25,2.54-.38,3.82-.38h1.6c.15,0,.31,0,.46,0,.2,0,.4.05.6.08h.14l.63.11c.46.08.92.18,1.37.3l.4.11.28.08.27.08c.26.07.53.17.79.26,4.04,1.44,7.54,4.07,10.97,6.66l21,15.87,12.42,9.4c.9.62,1.72,1.36,2.42,2.2.85,1.26,1.39,2.71,1.56,4.22.47,3.06.22,6.18-.72,9.12Z"></path><path class="cls-17" d="M303.97,293.49c-.82,2.67-1.74,5.41-2.83,8.11-.52,1.27-1.07,2.53-1.67,3.77-.13.28-.28.55-.42.82l-.44.88c-.3.57-.62,1.14-.92,1.71-.24.42-.49.82-.75,1.22-1.95,3.21-4.44,6.04-7.38,8.38-.48.37-.98.73-1.49,1.07-.69.47-1.42.87-2.19,1.2.44-.08.92-.18,1.36-.29-.46.49-.88,1.02-1.25,1.58h0c-1.65,2.36-3.22,5.36-5.08,4.36l-.28-.15s0-.05.07-.06c-4.35-4.59-8.82-9.06-13.4-13.43-1.6-1.53-3.23-3.04-4.94-4.45-6.02-4.88-13.12-8.19-20.14-11.47l-7.82-3.61c-1.61-.75-3.26-1.84-5-2.22-.07-.05-.14-.08-.21-.11-.62-.15-1.28-.15-1.9,0-4.61.8-8.56,2.11-13.26,2.44-.69.1-1.39.03-2.05-.2-.68-.3-1.9-3.92-2.32-4.53-2.8-4.08-4.46-8.83-4.81-13.77-.08-.56-.02-1.14.18-1.67.43-.68,1.08-1.2,1.84-1.47,8.1-3.98,16.15-8.42,22.48-14.86l.71-.71c.4-.4.8-.8,1.25-1.22l.8-.77c.73-.7,1.49-1.41,2.24-2.12l.92-.83.5-.46h0l.35-.33c4.52-4.33,10.86-6.2,17.01-5.03.49.09.92.2,1.46.33l.4.11.54.17c.26.07.53.17.79.26,4.04,1.44,7.54,4.07,10.97,6.66l21,15.87,12.42,9.4c.9.62,1.72,1.36,2.42,2.2.85,1.26,1.39,2.71,1.56,4.22.45,3.02.2,6.1-.73,9Z"></path><path class="cls-17" d="M304.65,284.5c.46,3.01.23,6.08-.67,8.98,0,2.42-1.93,5.88-2.83,8.1l-.06.13c-.24.6-.49,1.19-.75,1.78h0l-.76,1.64c-.03.06-.06.12-.09.18-.13.28-.28.56-.42.83l-.44.87c-.3.58-.62,1.15-.92,1.72l-.51.85c-.06.11-.12.21-.2.3,0,.02,0,.04,0,.06-.5.8-1.04,1.57-1.63,2.31-1.76,2.14-3.67,4.17-5.71,6.05h0l-1.2,1.16-.77.76c-.55.54-1.08,1.09-1.61,1.64h0c-.3.3-.58.63-.87.92-1.12,1.25-2.32,2.56-3.94,3-.17.03-.34.11-.48.21-3.18-3.36-6.42-6.65-9.72-9.88-1.21-1.19-2.44-2.38-3.69-3.55-1.6-1.53-3.23-3.05-4.94-4.45-6.02-4.88-13.12-8.2-20.14-11.47l-7.91-3.53c-1.61-.75-3.26-1.84-5-2.22-.69-.17-1.41-.19-2.11-.07-4.61.8-8.56,2.11-13.26,2.44-.69.11-1.39.04-2.05-.19-.68-.3-1.9-3.92-2.32-4.53-2.81-4.08-4.47-8.84-4.81-13.78-.08-.56-.02-1.13.18-1.66.43-.68,1.08-1.2,1.84-1.47,8.1-3.98,16.15-8.42,22.48-14.86l.7-.71,1.25-1.23.8-.77,2.24-2.11.92-.83.5-.46h0c1.66-1.56,3.57-2.84,5.65-3.79.58-.27,1.18-.51,1.78-.72l.92-.3c.62-.18,1.23-.33,1.84-.45,1.26-.25,2.54-.38,3.82-.38h2.06l.6.07h.14l.63.1c.46.08.92.18,1.37.3l.4.1.28.08.27.08.78.27c4.05,1.43,7.55,4.06,10.98,6.65l21,15.87c4.13,3.14,8.27,6.27,12.42,9.4.87.65,5.71,3.58,6.36,4.45.91,1.33-2.67.57-2.43,2.09Z"></path><path class="cls-17" d="M328.42,298.66c2.08,2.67,3.96,5.6,6.78,7.46,3.1,2.15,6.34,4.11,9.68,5.88,1.38.69-2.84,18.61-3.98,21.52-.18.64-.54,1.21-1.05,1.63-.64.34-1.37.45-2.08.32-15.05-1.12-29.47-6.51-41.56-15.54-1.84-1.41-3.86-3.23-3.9-5.59.09-1.3.48-2.57,1.14-3.69l5.24-10.53c2.05-4.13,4.1-8.4,4.88-12.99.84-4.88,1.62-5.71,6.46-3.38,7.2,3.49,13.5,8.59,18.41,14.91Z"></path><path class="cls-2" d="M328.42,298.66c2.08,2.67,3.96,5.6,6.78,7.46,3.1,2.15,6.34,4.11,9.68,5.88,1.38.69-2.84,18.61-3.98,21.52-.18.64-.54,1.21-1.05,1.63-.64.34-1.37.45-2.08.32-15.05-1.12-29.47-6.51-41.56-15.54-1.84-1.41-3.86-3.23-3.9-5.59.09-1.3.48-2.57,1.14-3.69l5.24-10.53c2.05-4.13,4.1-8.4,4.88-12.99.84-4.88,1.62-5.71,6.46-3.38,7.2,3.49,13.5,8.59,18.41,14.91Z"></path><path class="cls-17" d="M309.61,353.03c1.36,1.33,2.84,2.69,4.7,3.08,1.8.22,3.63-.08,5.28-.86,4.07-1.53,7.99-3.44,11.71-5.7,1.27-.61,2.3-1.62,2.91-2.89.32-1.2.26-2.47-.19-3.63-1.45-4.94-4.17-9.46-5.38-14.47-.99-4.12-.92-8.46-1.94-12.57-1.17-4.16-3.04-8.08-5.53-11.61-4.81-7.25-10.57-13.82-17.11-19.56-2.56,10.53-7.67,20.26-14.89,28.34-4.07,4.42-6.99,6.65-3.09,11.99,3.41,4.67,6.8,9.33,10.51,13.78,4.1,4.89,8.45,9.59,13.03,14.09Z"></path><path class="cls-3" d="M309.61,353.03c1.36,1.33,2.84,2.69,4.7,3.08,1.8.22,3.63-.08,5.28-.86,4.07-1.53,7.99-3.44,11.71-5.7,1.27-.61,2.3-1.62,2.91-2.89.32-1.2.26-2.47-.19-3.63-1.45-4.94-4.17-9.46-5.38-14.47-.99-4.12-.92-8.46-1.94-12.57-1.17-4.16-3.04-8.08-5.53-11.61-4.81-7.25-10.57-13.82-17.11-19.56-2.56,10.53-7.67,20.26-14.89,28.34-4.07,4.42-6.99,6.65-3.09,11.99,3.41,4.67,6.8,9.33,10.51,13.78,4.1,4.89,8.45,9.59,13.03,14.09Z"></path><polygon class="cls-15" points="244.46 333.72 243.35 335.12 240.45 334.89 242.04 336.54 239.93 339.32 243.18 338.13 244.91 340.61 244.82 337.41 247.11 336.18 244.59 335.45 244.46 333.72"></polygon><polygon class="cls-15" points="188.58 334.65 188.14 335.2 186.99 335.11 187.62 335.76 186.78 336.86 188.07 336.39 188.75 337.38 188.72 336.1 189.63 335.62 188.62 335.33 188.58 334.65"></polygon><path class="cls-4" d="M295.28,312.3c-1.76,2.14-3.67,4.17-5.71,6.05h0l-1.2,1.16-.77.76c-.55.54-1.08,1.09-1.61,1.64h0c-.3.3-.58.63-.87.92-1.12,1.25-2.32,2.56-3.94,3-.17.03-.34.11-.48.21-3.18-3.36-6.42-6.65-9.72-9.88-1.21-1.19-2.44-2.38-3.69-3.55-1.6-1.53-3.23-3.05-4.94-4.45-6.02-4.88-13.12-8.2-20.14-11.47l-7.82-3.57c-1.61-.75-3.26-1.84-5-2.22,0,0,12.78-7.51,18.7-7.79,5.92-.29,31.02,18.33,33.27,19.74,1.21.75,7.91,5.32,13.92,9.45Z"></path></g></svg>