<svg xmlns="http://www.w3.org/2000/svg" fill="none" viewBox="-0.5 -0.5 100 100" id="Designer-Creative--Streamline-Brooklyn.svg" height="100" width="100"><desc>Designer Creative Streamline Illustration: https://streamlinehq.com</desc><g id="designer-creative--work-job-office-company-designer-creative"><g id="table"><path id="Subtract" fill="#191919" fill-rule="evenodd" d="M59.115375 69.729165c0.032175 0 0.063855 0 0.09603 -0.000495 -0.249975 0.21879 -0.47420999999999996 0.425205 -0.67617 0.620235 -5.58261 0.019305 -11.358170999999999 0.035144999999999996 -16.9149915 0.04653 -0.0764775 -0.19107 -0.153747 -0.38412 -0.23121450000000002 -0.57717 4.0460804999999995 -0.021779999999999997 8.184231 -0.04257 12.262536 -0.062865 0.14156999999999997 0.001485 0.28115999999999997 0.00297 0.418275 0.004455 2.18097 0.02376 3.86991 0.04158 5.045535 -0.03069Zm21.6117 0.50985c0.11187 -0.19899 0.218295 -0.40095000000000003 0.31977 -0.60588 6.186509999999999 -0.024255000000000002 10.192545 -0.037125 10.371735 -0.032175 1.103355 0.028710000000000003 1.22859 0.256905 1.31769 0.41975999999999997 0.006435 0.011385 0.012375 0.02277 0.01881 0.03366 0.041085 0.0693 -4.73319 0.13167 -12.028005 0.184635Zm-71.725995 -0.19602c2.1562694999999996 -0.02673 5.450742 -0.05544 9.503406 -0.08514l0.188991 0.45837c-5.000589 -0.00396 -8.555827500000001 -0.01683 -9.774072 -0.03861 -1.548855 -0.02772 -1.521135 -0.31482 0.081675 -0.33462000000000003Z" clip-rule="evenodd" stroke-width="1"></path></g><g id="window"><g id="group"><path id="vector" fill="#38a1ff" d="M67.09923 15.681303c6.29739 -0.010395 6.27165 -0.114345 6.3003599999999995 0.30789 0.029699999999999997 0.43163999999999997 -0.03465 0.41035499999999997 -5.275215 0.42372 -8.355105 0.021285 -8.316 0.00594 -8.29719 -0.403425 0.018314999999999998 -0.35095499999999996 0.051975 -0.31779 7.272045 -0.328185Z" stroke-width="1"></path><g id="vector_2"><path fill="#191919" d="M18.9882 13.678434c-0.00495 -0.5172749999999999 57.451185 -0.87516 57.4695 -0.87516 0.48262499999999997 -0.00297 0.460845 6.349117499999999 0.3762 13.864851l-0.7019099999999999 0.1236015c0.01188 -7.167451499999999 0.05643 -13.3810875 0.036135 -13.3810875 -58.745115000000006 0.16533 -56.70225 0.6034050000000001 -56.691855 1.0489050000000002 0.011286000000000001 0.48925799999999997 0.021483 1.6290449999999999 0.03069 3.205818h-0.495792c-0.00297 -1.6334505 -0.0098505 -3.0043035000000002 -0.022968 -3.986928Z" stroke-width="1"></path><path fill="#191919" d="M19.750401 47.778093c0.031531500000000004 0.012275999999999999 0.065241 0.018166500000000002 0.09909899999999999 0.017225999999999998 1.2712094999999999 -0.0288585 3.008115 -0.048609 5.085531 -0.061578l0.37238849999999996 0.764973c-3.76002 -0.0280665 -6.109983000000001 -0.081279 -6.1395345 -0.17028 -0.07093350000000001 -0.2135925 -0.1138995 -1.7784855000000002 -0.1391445 -4.1487435h0.5509845c0.003564 1.6541415 0.006633 2.852586 0.009405 3.3621885 0 0.0339075 0.0067815 0.06741899999999999 0.0199485 0.0986535 0.013167 0.031185 0.0324225 0.059449499999999995 0.056727 0.083061 0.024255000000000002 0.0236115 0.0530145 0.042173999999999996 0.0845955 0.0544995Z" stroke-width="1"></path><path fill="#191919" d="m42.136874999999996 48.5125245 0.728442 -0.788931c-4.3388729999999995 -0.0087615 -8.557163999999998 -0.0142065 -12.268179 -0.009157499999999999l1.2995235 0.8087804999999999c3.1110255 0.0034154999999999997 6.6000825 -0.00099 10.2402135 -0.010692Z" stroke-width="1"></path></g><path id="vector_3" fill="#38a1ff" d="M66.563145 19.0160685c0.6400349999999999 -0.059895 2.19087 0 5.936535 0.01782 0.24007499999999998 0 0.587565 0.076725 0.56529 0.31927500000000003 -0.034155000000000005 0.375705 -1.0929600000000002 0.329175 -2.094345 0.33115500000000003 -2.739825 0.005444999999999999 -3.93228 0.0495 -4.45203 0 -0.5103449999999999 -0.04653 -0.5935050000000001 -0.60885 0.04455 -0.66825Z" stroke-width="1"></path></g></g><g id="picture"><path id="vector_4" fill="#38a1ff" d="M29.678715 22.2963345c3.338775 -0.020295 2.950695 4.572315 -0.23166 4.53915 -3.168495 -0.032670000000000005 -2.951685 -4.519845 0.23166 -4.53915Zm-0.03366 0.49896c-2.480445 0 -2.6111250000000004 3.53727 -0.130185 3.5352900000000003 2.48094 -0.00198 2.6774549999999997 -3.5352900000000003 0.130185 -3.5352900000000003Z" stroke-width="1"></path><path id="Subtract_2" fill="#38a1ff" fill-rule="evenodd" d="M24.973146 38.2085055c7.174827 -0.1953765 11.480931 -0.1774575 14.0620095 -0.166716 3.6755235 0.0152955 3.8531294999999997 0.016038 3.8358045 -0.634491 -0.11479049999999999 -4.229082 -0.015642 -7.9323749999999995 0.06237 -10.8476775 0.115434 -4.3135785 0.18473399999999998 -6.9020325 -0.5534100000000001 -6.9158925 -1.408968 -0.027323999999999998 -13.685858999999999 0.065538 -17.521416 0.250371 -0.00029699999999999996 0.1608255 -0.0007920000000000001 0.338679 -0.001386 0.5365305 0.670824 -0.013661999999999999 1.7306685000000002 -0.018414 3.0949875000000002 -0.0245025 3.2735835 -0.0146025 8.300259 -0.0369765 13.9130145 -0.209484 0.096129 -0.0029205 0.1684485 -0.031085999999999996 0.2225025 -0.0107415 0.2493315 0.09385199999999999 0.1097415 1.220769 0.1239975 10.628491499999999 0 0.18612 -0.072765 0.473715 -0.18018 0.369765 -1.6464195 -1.588554 -2.432628 -2.3912955 -3.2520015 -2.4267374999999998 -0.8759520000000001 -0.037917 -1.7898705 0.8011575 -3.8334285 2.4945525 -0.3942675 0.326403 -0.537273 0.19517849999999998 -1.036035 -0.26249849999999997 -0.3597165 -0.33016500000000004 -0.9045629999999999 -0.830115 -1.86219 -1.4506964999999998 -1.3599629999999998 -0.8806544999999999 -2.17503 -0.29056499999999996 -3.5440515 0.7005735 -0.101475 0.073458 -0.2059695 0.1491435 -0.3139785 0.2265615 -1.7267085 1.2375495 -2.7375975 2.1693375 -3.2741279999999997 2.7975915 0.002475 0.24779700000000002 0.0050490000000000005 0.4999005 0.0076725 0.756459 0.005742 -0.004850999999999999 0.011484 -0.009801 0.0172755 -0.0148005 0.5055930000000001 -0.4393125 0.9652995 -0.843282 1.385505 -1.2126014999999999 4.3717904999999995 -3.841992 4.4747505 -3.932478 7.58439 -1.0134135 0.1983465 0.186813 0.13256099999999998 0.24037199999999997 -0.7630425000000001 0.9699525 -0.1035045 0.08434799999999999 -0.2181465 0.177705 -0.3447675 0.2814075 -2.607165 2.136915 -3.89466 3.28383 -4.585878 3.899511 -0.5434110000000001 0.4840605 -0.7181955 0.6397875 -0.8759520000000001 0.690129 -0.100782 0.032373 -0.760221 0.039946499999999996 -1.427679 0.047618999999999995 -0.338085 0.003861 -0.6781995000000001 0.007771499999999999 -0.948816 0.014949 0.0000495 0.004653 0.00009900000000000001 0.0092565 0.00019800000000000002 0.0139095 0.0011385 0.097812 0.003465 0.2274525 0.0062864999999999996 0.3825855 0.0007425 0.0413325 0.0015344999999999998 0.084447 0.0023265 0.129294ZM37.957094999999995 29.5833285c-0.010395 0.00693 -10.00197 8.01999 -9.365895 8.001674999999999l-0.002475 0.00099c5.6349314999999995 -0.1639935 8.9862795 -0.082467 10.9596465 -0.034451999999999997 2.2920974999999997 0.055737 2.7251235 0.06628049999999999 2.7181935 -0.405603 -0.032373 -1.877139 -0.0284625 -3.0105405 -0.026037 -3.7107675 0.0036135 -1.0562805 0.003861 -1.1267189999999998 -0.128898 -1.2773474999999999 -0.827442 -0.958914 -1.7473005 -1.833975 -2.74626 -2.6126099999999997 -0.200178 -0.1637955 -0.4526775 -0.25007399999999996 -0.7112160000000001 -0.2430945 -0.258588 0.0069795 -0.505989 0.106821 -0.697059 0.2812095Z" clip-rule="evenodd" stroke-width="1"></path></g><g id="text box"><path id="vector_5" fill="#38a1ff" d="M77.27989500000001 42.1740495c-0.37224 -0.11682 -0.3069 -0.50292 0.013365 -0.540045 1.219185 -0.14107499999999998 1.4236199999999999 0.018314999999999998 1.2459149999999999 -0.382635 -1.32561 -2.9898 -1.134045 -3.009105 -1.5661800000000001 -2.99673 -3.2511599999999996 0.091575 -3.417975 -0.36432 -3.680325 0.22077 -1.230075 2.7467550000000003 -1.6335 2.936835 -0.994455 2.8947599999999998 0.41184 -0.02673 0.86427 -0.03168 0.873675 0.36333 0.00891 0.38214 -0.13266 0.368775 -2.67795 0.28214999999999996 -0.669735 -0.02277 -0.531135 -0.7142850000000001 0.02376 -0.62766 0.45787500000000003 0.07128 0.6435 0.10296 1.052865 -0.634095 0.44946 -0.809325 3.06207 -6.80031 3.94218 -8.62785 0.4059 -0.8415 0.5242049999999999 -0.882585 1.06128 -0.93753 1.19394 -0.12177 1.082565 0.239085 3.94614 6.875055 1.5320250000000002 3.55113 1.287 3.451635 1.683 3.480345 0.7424999999999999 0.05346 1.14741 -0.00297 1.1384999999999998 0.37966500000000003 -0.010889999999999999 0.41035499999999997 -0.5445 0.36530999999999997 -1.0147499999999998 0.36927 -0.164835 0.00198 -5.02821 -0.112365 -5.04702 -0.11879999999999999Zm-1.84734 -8.37144 -1.73646 3.797145c1.043955 0 2.01168 -0.00297 2.980395 0 0.432135 0.00495 0.31284 0.04257 -1.243935 -3.79665v-0.000495Z" stroke-width="1"></path><path id="vector_6" fill="#191919" d="M76.686885 28.480815c-0.13662000000000002 0.0134145 -0.274725 -0.0016335 -0.40540499999999996 -0.0442035 -0.130185 -0.04257 -0.25047 -0.1117215 -0.352935 -0.203148 -0.102465 -0.0914265 -0.18513 -0.203049 -0.242055 -0.3279375 -0.057420000000000006 -0.12488850000000001 -0.08811 -0.2602215 -0.09009 -0.3975345 -0.002475 -0.137313 0.024255000000000002 -0.27358649999999995 0.07722 -0.4002075s0.13167 -0.240867 0.231165 -0.335511c0.099495 -0.094644 0.2178 -0.167607 0.346995 -0.214335 0.129195 -0.046728 0.26631 -0.0661815 0.403425 -0.057123 0.13662000000000002 -0.013463999999999999 0.274725 0.0015840000000000001 0.40540499999999996 0.044154 0.130185 0.04257 0.25047 0.111771 0.352935 0.203148 0.102465 0.0914265 0.18513 0.2030985 0.242055 0.3279375 0.057420000000000006 0.12488850000000001 0.08811 0.26027100000000003 0.09009 0.3975345 0.002475 0.137313 -0.024255000000000002 0.27358649999999995 -0.07722 0.4002075 -0.052965 0.12667050000000002 -0.13167 0.240867 -0.231165 0.335511 -0.099495 0.094644 -0.2178 0.16765649999999999 -0.346995 0.21438449999999998 -0.129195 0.046728 -0.26631 0.0661815 -0.403425 0.057123Zm-0.007424999999999999 -0.3465c0.08811 0.0010394999999999998 0.175725 -0.0160875 0.256905 -0.0502425 0.08118 -0.034155000000000005 0.15444 -0.08464500000000001 0.21581999999999998 -0.1483515 0.060885 -0.0637065 0.10790999999999999 -0.139293 0.1386 -0.2220075 0.030195 -0.0827145 0.043559999999999995 -0.17082450000000002 0.03861 -0.2588355 -0.00495 -0.088011 -0.02772 -0.1740915 -0.06732 -0.2528955 -0.0396 -0.078804 -0.09504 -0.148599 -0.162855 -0.205128 -0.06732 -0.056479499999999995 -0.146025 -0.09850500000000001 -0.23067000000000001 -0.123354 -0.08464500000000001 -0.024898499999999997 -0.17325 -0.0321255 -0.260865 -0.0212355 -0.0891 -0.0024254999999999997 -0.177705 0.013661999999999999 -0.259875 0.047223 -0.082665 0.033561 -0.156915 0.0838035 -0.219285 0.1476585 -0.061875 0.063855 -0.10989 0.13983749999999998 -0.14107499999999998 0.223245 -0.031185 0.083358 -0.04455 0.17226 -0.0396 0.26116199999999995 0.00495 0.0888525 0.028215 0.17567549999999998 0.068805 0.2550735 0.040095 0.0793485 0.096525 0.1495395 0.16533 0.206019 0.06831000000000001 0.056528999999999996 0.148005 0.0981585 0.23413499999999998 0.122265 0.08563499999999999 0.024156 0.17523 0.0302445 0.26334 0.017919v0.001485Z" stroke-width="1"></path><path id="vector_7" fill="#191919" d="M77.65559999999999 46.431099c0.007424999999999999 0.1338975 -0.012375 0.267894 -0.057915 0.3939705 -0.04554 0.12607649999999998 -0.116325 0.24160949999999998 -0.2079 0.3396195 -0.091575 0.09801 -0.20195999999999997 0.17651699999999998 -0.32472 0.230769 -0.12276 0.0542025 -0.254925 0.083061 -0.38907 0.08479350000000001 -0.13414500000000001 0.0017325 -0.26730000000000004 -0.023661 -0.39105 -0.0746955 -0.124245 -0.0510345 -0.23661 -0.126621 -0.33066 -0.222255 -0.09405 -0.09563400000000001 -0.16731000000000001 -0.209286 -0.216315 -0.334125 -0.049005 -0.12483899999999999 -0.07227 -0.258291 -0.06831000000000001 -0.392337 -0.007424999999999999 -0.1338975 0.012375 -0.2679435 0.057915 -0.39402000000000004 0.04554 -0.12607649999999998 0.116325 -0.24160949999999998 0.2079 -0.3396195 0.091575 -0.09801 0.20195999999999997 -0.17651699999999998 0.32472 -0.2307195 0.12276 -0.054252 0.254925 -0.08311049999999999 0.38907 -0.084843 0.13414500000000001 -0.0017325 0.26730000000000004 0.023661 0.39105 0.0746955 0.124245 0.0510345 0.23661 0.12667050000000002 0.33066 0.222255 0.09405 0.09563400000000001 0.16731000000000001 0.209286 0.216315 0.334125 0.049005 0.12483899999999999 0.07227 0.25834050000000003 0.06831000000000001 0.39238649999999997Zm-0.34996499999999997 0.009405c0.010395 -0.9405 -1.303335 -0.8108099999999999 -1.28403 0.059399999999999994 -0.000495 0.08721899999999999 0.01683 0.17359650000000001 0.050984999999999996 0.2538855 0.034155000000000005 0.0803385 0.08415 0.15285600000000002 0.14701499999999998 0.21324600000000002 0.062865 0.06039 0.13761 0.1073655 0.219285 0.138006 0.081675 0.03069 0.168795 0.044451000000000004 0.255915 0.0404415 0.08711999999999999 -0.0040095 0.17226 -0.025641 0.250965 -0.06365699999999999 0.07821 -0.038065499999999995 0.1485 -0.0916245 0.205425 -0.15750899999999998 0.057420000000000006 -0.0658845 0.100485 -0.1427085 0.12672 -0.225819 0.02673 -0.083061 0.036135 -0.170676 0.02772 -0.257499v-0.000495Z" stroke-width="1"></path><path id="vector_8" fill="#191919" d="M86.995755 37.199745c0.008415 0.13345200000000002 -0.010395 0.26720099999999997 -0.054945 0.39322799999999997 -0.04455 0.126027 -0.114345 0.24180749999999998 -0.20443499999999998 0.340362 -0.090585 0.09850500000000001 -0.19948500000000002 0.1778535 -0.321255 0.2331945 -0.12177 0.055340999999999994 -0.25344 0.0855855 -0.38709 0.0889515 -0.13365000000000002 0.0033165 -0.266805 -0.020344499999999998 -0.39105 -0.06954750000000001 -0.124245 -0.049252500000000005 -0.23710499999999998 -0.12300749999999999 -0.33264 -0.2169585 -0.09504 -0.0939015 -0.17028 -0.2060685 -0.22077 -0.3297195 -0.050984999999999996 -0.1237005 -0.07622999999999999 -0.256311 -0.07474499999999999 -0.39001050000000004 -0.008415 -0.1334025 0.010395 -0.2671515 0.054945 -0.3931785 0.04455 -0.12607649999999998 0.114345 -0.24180749999999998 0.20443499999999998 -0.340362 0.090585 -0.0985545 0.19998000000000002 -0.1778535 0.321255 -0.233244 0.12177 -0.055340999999999994 0.25344 -0.0855855 0.38709 -0.08890200000000001 0.13365000000000002 -0.0033165 0.266805 0.020344499999999998 0.39105 0.06954750000000001 0.124245 0.049203000000000004 0.23710499999999998 0.12300749999999999 0.33264 0.216909 0.09504 0.09395099999999999 0.17028 0.206118 0.22077 0.329769 0.050984999999999996 0.123651 0.07622999999999999 0.256311 0.07474499999999999 0.38996099999999995Zm-0.35095499999999996 0.01782c0.010395 -0.929115 -1.3003649999999998 -0.827145 -1.287 0.06336 0.008415 0.170676 0.08415 0.3310065 0.21087 0.44574749999999996s0.293535 0.1744875 0.46430999999999994 0.1660725c0.17077499999999998 -0.0083655 0.33115500000000003 -0.08424899999999999 0.44599500000000003 -0.21087 0.114345 -0.126621 0.17423999999999998 -0.29363399999999995 0.165825 -0.46430999999999994Z" stroke-width="1"></path><path id="vector_9" fill="#191919" d="M68.36445 27.7027245c-0.012375 1.322145 -2.0666249999999997 1.29096 -2.079 -0.010395 -0.012375 -1.301355 2.0913749999999998 -1.2998699999999999 2.079 0.010395Zm-1.028115 0.632115c0.0891 0.002574 0.1782 -0.013513500000000001 0.260865 -0.047124000000000006 0.082665 -0.03366 0.15741 -0.08415 0.21978 -0.148302 0.06237 -0.064152 0.110385 -0.14057999999999998 0.14107499999999998 -0.224334 0.031185 -0.083754 0.04455 -0.1731015 0.039105 -0.262251 -0.005444999999999999 -0.0891495 -0.029205 -0.17622 -0.07028999999999999 -0.2556675 -0.04059 -0.0794475 -0.097515 -0.14948999999999998 -0.16731000000000001 -0.20567249999999998 -0.0693 -0.056232000000000004 -0.14948999999999998 -0.09736650000000001 -0.23562 -0.1208295s-0.17671499999999998 -0.028710000000000003 -0.26482500000000003 -0.0153945c-0.0891 -0.002574 -0.1782 0.013463999999999999 -0.260865 0.047124000000000006 -0.082665 0.03366 -0.15741 0.08415 -0.21978 0.148302 -0.06237 0.064152 -0.110385 0.1405305 -0.14107499999999998 0.224334 -0.031185 0.083754 -0.04455 0.173052 -0.039105 0.262251 0.005444999999999999 0.0891495 0.029205 0.17622 0.07028999999999999 0.2556675 0.04059 0.079398 0.097515 0.1494405 0.16731000000000001 0.20567249999999998 0.0693 0.056232000000000004 0.14948999999999998 0.09736650000000001 0.23562 0.12078 0.08613 0.023462999999999998 0.17671499999999998 0.028710000000000003 0.26482500000000003 0.015444Z" stroke-width="1"></path><path id="vector_10" fill="#191919" d="M86.89725 27.6705495c0.02574 1.35333 -2.0294999999999996 1.333035 -2.07603 0.06138 -0.05048999999999999 -1.323135 2.05128 -1.36521 2.07603 -0.06138Zm-1.0692000000000002 -0.61083c-0.08514 -0.0011385 -0.16978500000000002 0.0148005 -0.24849 0.0468765 -0.0792 0.032076 -0.150975 0.0796455 -0.211365 0.13983749999999998 -0.059895 0.0602415 -0.10790999999999999 0.1319175 -0.13959 0.2108205 -0.032175 0.07890299999999999 -0.048510000000000005 0.16344899999999998 -0.04752 0.24863849999999998 0.00099 0.0851895 0.019305 0.1693395 0.05346 0.2474505 0.03366 0.078111 0.08316 0.148599 0.145035 0.2073555 0.06138 0.058756499999999996 0.13464 0.104544 0.21384 0.1346895 0.079695 0.030195 0.164835 0.0441045 0.249975 0.0409365 0.08415 -0.00099 0.16681500000000002 -0.0185625 0.244035 -0.0516285 0.07722 -0.033066 0.14751 -0.0810315 0.20592 -0.1411245 0.058905 -0.060092999999999994 0.10493999999999999 -0.131175 0.136125 -0.2091375 0.031185 -0.0779625 0.047025 -0.1613205 0.046035 -0.24532199999999998 -0.00099 -0.08400149999999999 -0.01881 -0.1669635 -0.051975 -0.2441835 -0.033165 -0.0771705 -0.080685 -0.147114 -0.14107499999999998 -0.205821 -0.059895 -0.058657499999999994 -0.131175 -0.1048905 -0.20889 -0.136125 -0.07821 -0.031185 -0.16137 -0.046728 -0.24552 -0.045738v0.002475Z" stroke-width="1"></path><path id="vector_11" fill="#191919" d="M78.99408 27.7629165c-0.25146 -0.0693 -0.7019099999999999 0.089595 -0.705375 -0.193545 -0.00396 -0.35441999999999996 0.4455 -0.198 0.6969599999999999 -0.228195 0.25146 -0.030195 0.693 -0.107415 0.693 0.17176499999999997 0.006435 0.40491 -0.44649 0.159885 -0.684585 0.249975Z" stroke-width="1"></path><path id="vector_12" fill="#191919" d="M85.85477999999999 33.307065c-0.18909 -0.00594 -0.18562499999999998 -0.159885 -0.18513 -1.2835349999999999 0 -0.30888 0.38808000000000004 -0.312345 0.39204 0.00891 0.003465 0.25047 0.039105 1.28106 -0.20690999999999998 1.2746250000000001Z" stroke-width="1"></path><path id="vector_13" fill="#191919" d="M86.11712999999999 42.124401c-0.046035 0.50391 -0.02673 0.72765 -0.20295 0.72765s-0.190575 -0.19206 -0.198 -1.2345300000000001c0 -0.122265 0.02772 -0.26977500000000004 0.20393999999999998 -0.26977500000000004 0.238095 -0.001485 0.19701000000000002 0.16137 0.19701000000000002 0.776655Z" stroke-width="1"></path><path id="vector_14" fill="#191919" d="M82.02149999999999 46.270075500000004c0.35936999999999997 0.035144999999999996 0.381645 0.396 -0.006435 0.403425 -1.900305 0.034155000000000005 -1.3884750000000001 -0.5395500000000001 0.006435 -0.403425Z" stroke-width="1"></path><path id="vector_15" fill="#191919" d="M80.55679500000001 27.5373945c0.00495 -0.1485 0.092565 -0.17968499999999998 1.25136 -0.180675 0.33957000000000004 0 0.39055500000000004 0.396 -0.021779999999999997 0.396 -1.01376 -0.002475 -1.2360149999999999 -0.020295 -1.22958 -0.215325Z" stroke-width="1"></path><path id="vector_16" fill="#191919" d="M85.841415 34.1624745c0.33957000000000004 0 0.214335 1.058805 0.1782 1.2899699999999998 -0.036629999999999996 0.239085 -0.31878 0.217305 -0.34056 -0.034155000000000005 -0.02673 -0.31086 -0.14057999999999998 -1.257795 0.16236 -1.255815Z" stroke-width="1"></path><path id="vector_17" fill="#191919" d="M85.71519 43.906599c0.036629999999999996 -0.297 0.33709500000000003 -0.25542 0.37323 -0.016335000000000002 0.24453 1.6176599999999999 -0.59202 1.770615 -0.37323 0.016335000000000002Z" stroke-width="1"></path><path id="vector_18" fill="#191919" d="M67.225455 31.5215505c0.32521500000000003 0.012375 0.17919 1.089 0.124245 1.389465 -0.001485 0.037322999999999995 -0.01782 0.07241850000000001 -0.04554 0.09761399999999999 -0.02772 0.0251955 -0.063855 0.0384615 -0.101475 0.0367785 -0.037125 -0.0016335 -0.07227 -0.018018 -0.097515 -0.04554 -0.025244999999999997 -0.027521999999999998 -0.038114999999999996 -0.06390449999999999 -0.036629999999999996 -0.1012275 -0.04554 -0.354915 -0.20146499999999998 -1.390455 0.156915 -1.37709Z" stroke-width="1"></path><path id="vector_19" fill="#191919" d="M86.031 30.6633195c-0.009405 0.12276 -0.05544 0.213345 -0.218295 0.21581999999999998 -0.26928 0.00396 -0.16434 -0.45045 -0.16731000000000001 -0.7019099999999999 -0.00297 -0.233145 -0.10692 -0.6435 0.198 -0.6435 0.1485 0 0.190575 0.078705 0.198 0.18414 0.00297 0.08118 -0.00594 0.895455 -0.010395 0.9454499999999999Z" stroke-width="1"></path><path id="vector_20" fill="#191919" d="M66.98934 34.542189c0.067815 -0.20047500000000001 -0.130185 -0.614295 0.19107 -0.622215 0.353925 -0.008415 0.21581999999999998 0.408375 0.23413499999999998 0.651915 0.00495 0.069795 0.03564 0.75438 -0.18612 0.774675 -0.26482500000000003 0.02475 -0.216315 -0.42471 -0.239085 -0.804375Z" stroke-width="1"></path><path id="vector_21" fill="#191919" d="M67.20615000000001 29.229650999999997c0.28313999999999995 -0.00396 0.18513 0.891 0.15147 1.1825549999999998 -0.037125 0.327195 -0.33264 0.28313999999999995 -0.34996499999999997 -0.009405 -0.021779999999999997 -0.36927 -0.09405 -1.168695 0.198495 -1.1731500000000001Z" stroke-width="1"></path><path id="vector_22" fill="#191919" d="M68.35455 36.9413055c0.002475 0.129987 -0.02079 0.25918199999999997 -0.068805 0.3802095 -0.04752 0.120978 -0.118305 0.23141250000000002 -0.20889 0.32496749999999996 -0.09009 0.093555 -0.198 0.168399 -0.317295 0.2203245 -0.119295 0.051876 -0.2475 0.0797445 -0.37719 0.082071 -0.130185 0.002277 -0.25938 -0.0210375 -0.380655 -0.0686565 -0.12078 -0.047618999999999995 -0.231165 -0.118602 -0.32472 -0.20889 -0.093555 -0.09028800000000001 -0.1683 -0.1981485 -0.220275 -0.317394 -0.051975 -0.119196 -0.079695 -0.2475 -0.08217 -0.37748699999999996 -0.004455 -0.2625975 0.09504 -0.5162355 0.277695 -0.705177 0.18216 -0.188991 0.432135 -0.2977425 0.6949799999999999 -0.3023955 0.26235 -0.004653 0.51579 0.095139 0.70488 0.2775465 0.18909 0.182358 0.29799 0.4322835 0.30244499999999996 0.694881Zm-1.00683 0.662805c0.792 0.003465 0.914265 -1.3365 0.06237 -1.358775 -0.8637750000000001 -0.02376 -0.912285 1.35531 -0.06237 1.358775Z" stroke-width="1"></path><path id="vector_23" fill="#191919" d="M67.50661500000001 42.364129500000004c-0.32521500000000003 -0.01188 -0.17919 -1.089 -0.124245 -1.389465 0.001485 -0.0372735 0.01782 -0.072369 0.04554 -0.0975645s0.063855 -0.0384615 0.10097999999999999 -0.036828c0.03762 0.0016829999999999998 0.072765 0.0180675 0.09801 0.0455895 0.025244999999999997 0.027521999999999998 0.038114999999999996 0.06390449999999999 0.036629999999999996 0.101178 0.04554 0.354915 0.20097 1.39095 -0.156915 1.37709Z" stroke-width="1"></path><path id="vector_24" fill="#191919" d="M67.74273000000001 39.3440355c-0.067815 0.198 0.130185 0.6138 -0.19107 0.62172 -0.353925 0.008415 -0.21581999999999998 -0.408375 -0.23364 -0.651915 -0.005444999999999999 -0.0693 -0.036135 -0.7538849999999999 0.18562499999999998 -0.774675 0.26482500000000003 -0.024255000000000002 0.216315 0.425205 0.239085 0.80487Z" stroke-width="1"></path><path id="vector_25" fill="#191919" d="M84.360375 46.274629499999996c0.292545 0.044055 0.328185 0.33115500000000003 -0.035144999999999996 0.36927 -1.5741 0.16533 -1.504305 -0.60192 0.035144999999999996 -0.36927Z" stroke-width="1"></path><path id="vector_26" fill="#191919" d="M85.72014 39.2618655c0.057420000000000006 -0.320265 0.35095499999999996 -0.26482500000000003 0.36432 0.015345 0.09504 1.93743 -0.583605 1.20879 -0.36432 -0.015345Z" stroke-width="1"></path><path id="vector_27" fill="#191919" d="M79.17327 46.680876c-0.22869 -0.059895 -0.6350849999999999 0.099 -0.6400349999999999 -0.21879 -0.00495 -0.31779 0.396 -0.16978500000000002 0.62172 -0.20097 0.25047 -0.035144999999999996 0.78903 -0.04653 0.774675 0.20592 -0.014355000000000001 0.25245 -0.42273 0.198495 -0.75636 0.21384Z" stroke-width="1"></path><path id="vector_28" fill="#191919" d="M84.144555 27.358055999999998c0.340065 0.0693 0.281655 0.35342999999999997 -0.0396 0.36432 -1.9245599999999998 0.06336 -1.129095 -0.604395 0.0396 -0.36432Z" stroke-width="1"></path><path id="vector_29" fill="#191919" d="M69.75738 27.7629165c-0.25146 -0.0693 -0.7019099999999999 0.089595 -0.70488 -0.193545 -0.004455 -0.35441999999999996 0.4455 -0.198 0.696465 -0.228195s0.693 -0.107415 0.693 0.17176499999999997c0.00693 0.40491 -0.44649 0.159885 -0.684585 0.249975Z" stroke-width="1"></path><path id="vector_30" fill="#191919" d="M71.320095 27.5373945c0.00495 -0.1485 0.092565 -0.17968499999999998 1.25136 -0.180675 0.33957000000000004 0 0.39105 0.396 -0.021779999999999997 0.396 -1.01376 -0.002475 -1.2360149999999999 -0.020295 -1.22958 -0.215325Z" stroke-width="1"></path><path id="vector_31" fill="#191919" d="M74.90835 27.358055999999998c0.33957000000000004 0.0693 0.28115999999999997 0.35342999999999997 -0.040095 0.36432 -1.9245599999999998 0.06336 -1.129095 -0.604395 0.040095 -0.36432Z" stroke-width="1"></path><path id="vector_32" fill="#191919" d="M86.994765 46.534059c0.007424999999999999 0.1338975 -0.012375 0.267894 -0.057915 0.3939705 -0.04554 0.12607649999999998 -0.116325 0.24160949999999998 -0.2079 0.3396195 -0.091575 0.09801 -0.20195999999999997 0.17651699999999998 -0.32472 0.230769 -0.12276 0.0542025 -0.254925 0.083061 -0.38907 0.08479350000000001 -0.13414500000000001 0.001782 -0.26730000000000004 -0.023661 -0.39105 -0.0746955 -0.124245 -0.0510345 -0.23661 -0.126621 -0.33066 -0.222255 -0.09405 -0.09563400000000001 -0.16731000000000001 -0.209286 -0.216315 -0.334125 -0.049005 -0.12483899999999999 -0.07227 -0.258291 -0.06831000000000001 -0.392337 -0.007424999999999999 -0.1338975 0.012375 -0.2679435 0.057915 -0.39402000000000004 0.04554 -0.12607649999999998 0.116325 -0.24160949999999998 0.2079 -0.3396195 0.091575 -0.09801 0.20195999999999997 -0.17651699999999998 0.32472 -0.2307195 0.12276 -0.054252 0.254925 -0.08311049999999999 0.38907 -0.084843 0.13414500000000001 -0.0017325 0.26730000000000004 0.023661 0.39105 0.0746955 0.124245 0.0510345 0.23661 0.12667050000000002 0.33066 0.222255 0.09405 0.09563400000000001 0.167805 0.209286 0.216315 0.334125 0.049005 0.12488850000000001 0.07227 0.25834050000000003 0.06831000000000001 0.39238649999999997Zm-0.34996499999999997 0.009405c0.010395 -0.9405 -1.303335 -0.8108099999999999 -1.28403 0.059399999999999994 -0.000495 0.0871695 0.017325 0.173547 0.050984999999999996 0.253836 0.034155000000000005 0.08023949999999999 0.08415 0.152757 0.14751 0.2130975 0.062865 0.060291000000000004 0.13711500000000001 0.10721699999999999 0.21879 0.13785750000000002 0.081675 0.030640499999999998 0.168795 0.044352 0.255915 0.040293 0.08711999999999999 -0.0040095 0.172755 -0.0256905 0.250965 -0.063756 0.078705 -0.038015999999999994 0.1485 -0.0916245 0.205425 -0.15750899999999998 0.057420000000000006 -0.0658845 0.100485 -0.1427085 0.12672 -0.2257695 0.02673 -0.083061 0.036135 -0.170676 0.02772 -0.2574495Z" stroke-width="1"></path></g><g id="color plate"><path id="vector_33" fill="#38a1ff" d="M17.320545 36.418040999999995c4.724775 -0.06336 4.87674 -0.3465 4.90347 0.28214999999999996 0.21186 4.9836599999999995 0.158895 5.01831 -0.3465 5.031675 -5.026725 0.13266 -5.01831 0.3465 -4.999499999999999 -0.33264 0.11979 -4.592115 -0.322245 -4.971285 0.44253 -4.981185Z" stroke-width="1"></path><path id="vector_34" fill="#191919" d="M21.5642295 28.274300999999998c-1.4236199999999999 0.07622999999999999 -2.85021 0.075735 -4.274819999999999 0.08811 -0.36184499999999997 0.003465 -0.5484600000000001 -0.124245 -0.56331 -0.551925 -0.1683 -4.907925 -0.1485 -4.81239 0.6034050000000001 -4.8237749999999995 4.58271 -0.06831000000000001 4.6530000000000005 -0.213345 4.6480500000000005 0.46925999999999995 -0.043559999999999995 4.61043 0.30195 4.780215 -0.413325 4.81833Z" stroke-width="1"></path><path id="vector_35" fill="#191919" d="M17.089380000000002 29.699851499999998c4.860405 -0.121275 4.952475000000001 -0.33759 4.959899999999999 0.2475 0.063855 4.987620000000001 0.2475 4.990094999999999 -0.2574 5.003955 -4.905945 0.13365000000000002 -5.0707305 0.380655 -5.058355499999999 -0.24007499999999998 0.096525 -4.801995 -0.2559645 -4.995044999999999 0.3558555 -5.01138Zm4.5619695 0.5841c0.00792 -0.5172749999999999 0.012375 -0.23265 -4.14117 -0.205425 -0.6138 0.00396 -0.38115 -0.02376 -0.28512 4.410945 0.00693 0.326205 0 0.17919 4.20354 0.08019 0.523215 -0.012375 0.16335 -0.41480999999999996 0.22275 -4.28571Z" stroke-width="1"></path><path id="vector_36" fill="#191919" d="M15.618735000000001 19.902811500000002c0.72072 -0.71082 -0.40986 -0.7227 -0.075735 -1.09791 0.3465 -0.39154500000000003 0.533115 0.721215 1.053855 -0.013365 0.27076500000000003 -0.38214 0.61083 0.03366 0.297 0.27571500000000004 -0.665775 0.51876 0.375705 0.732105 0.11731499999999999 1.066725 -0.297 0.381645 -0.5741999999999999 -0.71082 -1.06425 0.00297 -0.13414500000000001 0.19899 -0.578655 0.01287 -0.328185 -0.23413499999999998Z" stroke-width="1"></path><path id="vector_37" fill="#191919" d="M24.9643845 37.697616000000004c-0.2277 -18.841185 -0.00594 -18.435285 -0.17671499999999998 -19.763370000000002 -0.08217 -0.637065 -0.18562499999999998 -0.491535 -2.96505 -0.523215 -7.821000000000001 -0.08860499999999999 -7.79922 -0.036629999999999996 -7.835355 0.7142850000000001 -0.162855 3.3684749999999997 0.01386 8.270954999999999 0.0396 11.544885 0.116325 14.691104999999999 -0.03861 14.558445 1.097415 14.632695 0.833085 0.053954999999999996 8.471924999999999 0.42075 9.392625 -0.3465 0.6083550000000001 -0.506385 0.459855 -5.209875 0.44748 -6.25878Zm-1.8315000000000001 -19.700999999999997c1.560735 -0.039105 1.25037 -0.5049 1.230075 2.41065 -0.00297 0.44055 0 0.05544 -9.491625 0.1485 -0.399465 0.00396 -0.396 0.057420000000000006 -0.430155 -1.96218 -0.020295 -1.076625 0.29997 -0.38560500000000003 8.689229999999998 -0.595485l0.002475 -0.001485Zm1.057815 25.56477c-0.64647 0.53856 -8.67735 0.28709999999999997 -8.68725 0.28611 -1.089 -0.047025 -0.61776 0.02772 -0.97911 -22.593285 -0.009405 -0.5697450000000001 -0.004455 -0.19008 9.46836 -0.23413499999999998 0.6548849999999999 -0.00297 0.3564 -0.00396 0.371745 14.348564999999999 -0.000495 2.14335 0.27423000000000003 7.6467600000000004 -0.17622 8.19423l0.002475 -0.001485Z" stroke-width="1"></path></g><g id="person"><path id="vector_38" fill="#191919" d="M51.857685000000004 69.467805c-1.30878 -5.7850649999999995 0.43461 -20.5425495 1.0786049999999998 -26.0712045 0.10395 -0.891 0.750915 -2.376 0.13959 2.90664 -1.584 13.6882845 -0.6232049999999999 21.442459500000002 -0.80289 23.1378345 -0.02574 0.24156 -0.38313 0.16929000000000002 -0.415305 0.02673Z" stroke-width="1"></path><path id="vector_39" fill="#191919" d="M45.1183095 54.810855c0.233145 1.2746250000000001 -0.198 5.748435 0.099 13.365 0.04257 1.0756350000000001 -0.00495 1.27314 -0.2475 1.279575 -0.61776 0.01584 -0.761805 -13.889205 0.1485 -14.644575Z" stroke-width="1"></path><path id="vector_40" fill="#191919" d="M62.224470000000004 56.91906c-0.16978500000000002 -0.02475 -0.33016500000000004 -0.09306 -0.46579499999999996 -0.198 -0.135135 -0.10493999999999999 -0.241065 -0.24354 -0.307395 -0.401445 -0.06633 -0.1584 -0.09009 -0.33115500000000003 -0.069795 -0.501435 0.020295 -0.17028 0.08464500000000001 -0.332145 0.18612 -0.47025 0.2277 -0.34947 0.03069 0 5.76378 -0.228195 0.716265 -0.028710000000000003 0.53262 0.320265 -0.12969 0.373725 -1.6434 0.205425 -3.302145 0.26482500000000003 -4.95594 0.17671499999999998 -0.128205 -0.012375 -0.37224 -0.19107 -0.38560500000000003 0.130185 -0.016335000000000002 0.3861 -0.38412 0.792 1.32165 0.847935 1.354815 0.059399999999999994 2.712105 0.0099 4.058999999999999 -0.1485 1.609245 -0.20393999999999998 -0.9553499999999999 1.1761199999999998 -5.01633 0.419265Z" stroke-width="1"></path><path id="vector_41" fill="#191919" d="M51.408225 75.933c-0.90486 -0.8464499999999999 0.89397 -2.2849199999999996 2.01168 -2.1666149999999997 0.36729 0.039105 0.372735 0.32521500000000003 0.08316 0.43857 -0.515295 0.20195999999999997 -1.65429 0.41134499999999996 -2.09484 1.728045Z" stroke-width="1"></path><path id="vector_42" fill="#191919" d="M24.8317245 43.7465655c0.121275 -1.3647150000000001 1.801305 -0.26532 0.9320849999999999 -0.297 -0.9999 -0.03564 -0.315315 1.2305700000000002 0.39996000000000004 1.9304999999999999 1.3647150000000001 1.332045 -1.475595 -0.021285 -1.332045 -1.6335Z" stroke-width="1"></path><path id="vector_43" fill="#191919" d="M24.73119 46.681965c-1.611225 0.28115999999999997 -2.48688 -2.37105 -1.449855 -3.104145 0.122265 -0.08613 0.33858000000000005 -0.062865 0.20493 0.191565 -0.12607649999999998 0.2217105 -0.2048805 0.4671315 -0.23136299999999999 0.7207695 -0.026532 0.253638 -0.00014849999999999998 0.510048 0.07736849999999999 0.752994 0.07751699999999999 0.242946 0.2045835 0.4672305 0.3730815 0.658647 0.16854750000000002 0.1914165 0.374913 0.345807 0.606078 0.4534695 0.14454 0.075735 0.31927500000000003 0.11731499999999999 0.41975999999999997 0.3267Z" stroke-width="1"></path><path id="vector_44" fill="#191919" d="M52.161615 76.02210000000001c0.12078 -0.39798 0.367785 -0.745965 0.7038899999999999 -0.9909899999999999 0.33610500000000004 -0.245025 0.742995 -0.373725 1.158795 -0.366795 0.44847000000000004 0.016335000000000002 0.52866 0.41679 0.05346 0.490545 -1.435995 0.22374 -1.9151550000000002 2.1186000000000003 -1.916145 0.86724Z" stroke-width="1"></path><path id="vector_45" fill="#191919" d="M54.878175 75.47958c0.21879 0.028710000000000003 0.548955 0.045045 0.53064 0.329175 -0.02574 0.396 -0.809325 -0.018314999999999998 -1.7676450000000001 0.891 -0.540045 0.51183 -0.40194 -1.19889 1.2370050000000001 -1.220175Z" stroke-width="1"></path><path id="vector_46" fill="#191919" d="M25.112834999999997 46.001241c-0.963765 -0.3465 -1.700325 -1.93347 -0.9405 -2.706165 0.090585 -0.092565 0.216315 -0.25542 0.353925 -0.125235 0.13761 0.130185 -0.067815 0.212355 -0.125235 0.30491999999999997 -0.565785 0.90684 0.48014999999999997 2.007225 0.7118099999999999 2.52648Z" stroke-width="1"></path><path id="vector_47" fill="#191919" d="M54.89055 35.7039045c-0.17028 -0.0495 -0.4455 -0.090585 -0.39303 -0.27423000000000003 0.010395 -0.034848000000000004 0.033165 -0.064845 0.063855 -0.084447 0.03069 -0.019602 0.06732 -0.0275715 0.10345499999999999 -0.022473 0.191565 0.0106425 0.38313 -0.026037 0.556875 -0.10672200000000001 0.17423999999999998 -0.0807345 0.32571 -0.2029995 0.44154 -0.356103 0.452925 -0.441045 0.259875 0.8518950000000001 -0.7726949999999999 0.843975Z" stroke-width="1"></path><path id="vector_48" fill="#191919" d="M53.469405 33.7545945c-0.1089 -0.23462999999999998 0.0495 -0.437085 0.13909500000000002 -0.6435 0.003465 -0.0142065 0.009405 -0.027621 0.018314999999999998 -0.039303 0.008415 -0.011682 0.0198 -0.0213345 0.032670000000000005 -0.028413 0.012375 -0.0070785 0.02673 -0.011385 0.041085 -0.012622499999999998 0.014849999999999999 -0.0012375 0.029205 0.0005939999999999999 0.043065 0.0053955 0.01386 0.0048015 0.026234999999999998 0.012474 0.037125 0.0225225 0.010395 0.009999 0.01881 0.022176 0.024255000000000002 0.03564 0.005444999999999999 0.013513500000000001 0.008415 0.028017 0.00792 0.04257 -0.000495 0.0146025 -0.00396 0.028908 -0.010395 0.0420255 -0.316305 0.826155 0.693 0.42174 0.537075 0.74646 -0.100485 0.20592 -0.7073550000000001 0.18018 -0.87021 -0.17077499999999998Z" stroke-width="1"></path><path id="vector_49" fill="#191919" d="M55.954800000000006 31.731975000000002c-0.037125 0.7192350000000001 -0.7306199999999999 0.6034050000000001 -0.7424999999999999 0.018314999999999998 -0.00396 -0.22671 0.052469999999999996 -0.46480499999999997 0.36530999999999997 -0.469755 0.31284 -0.00495 0.3465 0.22968000000000002 0.37719 0.45144Z" stroke-width="1"></path><path id="vector_50" fill="#191919" d="M51.822045 31.958685c-0.08613 0.7424999999999999 -0.7424999999999999 0.58311 -0.75141 0.015345 -0.00297 -0.24007499999999998 0.05544 -0.479655 0.341055 -0.49846499999999994 0.324225 -0.022275 0.353925 0.253935 0.41035499999999997 0.48312Z" stroke-width="1"></path><path id="vector_51" fill="#191919" d="M56.46069 29.046996c-0.7880400000000001 -0.48856499999999997 -2.073555 -0.08860499999999999 -1.881 0.33165 0.08365500000000001 0.18265499999999998 0.028710000000000003 0.027225 1.5750899999999999 -0.08811 0.33165 -0.02475 0.35838 -0.181665 0.30591 -0.24354Z" stroke-width="1"></path><path id="vector_52" fill="#191919" d="M68.34663 42.6689505c-6.256304999999999 -2.25225 -8.49024 -0.533115 -9.076815 -2.563605 -0.00495 -0.017225999999999998 -0.005444999999999999 -0.035343 -0.001485 -0.0528165 0.003465 -0.017523 0.011385 -0.0338085 0.023265 -0.0474705 0.011385 -0.0137115 0.026234999999999998 -0.024354 0.04257 -0.0310365 0.01683 -0.006633 0.03465 -0.009157499999999999 0.052469999999999996 -0.0072765 5.2965 0.560835 6.62904 -5.0742449999999995 3.04524 -7.683885 -0.145035 -0.105435 -0.24354 -0.14156999999999997 -0.122265 -0.376695 1.8315000000000001 -3.5550900000000003 -0.800415 -5.7192300000000005 -0.322245 -6.165719999999999 0.33165 -0.3465 0.550935 -0.7849215 0.629145 -1.2580425 0.07821 -0.4730715 0.01188 -0.958815 -0.19008 -1.3936725 -0.72765 -1.416195 -2.7225 -2.1215699999999997 -4.0525649999999995 -1.24146 -0.198 0.129195 -0.38808000000000004 0.257895 -0.7994249999999999 -0.30244499999999996 -0.827145 -1.1246399999999999 -2.056725 -1.399365 -1.9859399999999998 -1.0444499999999999 0.219285 1.100385 -0.15345 0.76428 1.4513399999999999 2.6037 0.20740499999999998 0.238095 -0.008415 0.42471 -0.04455 0.629145 -0.032670000000000005 0.188595 -0.160875 0.038114999999999996 -0.22572 0.011385 -3.155625 -1.31868 -6.77457 0.6633 -7.3437705 3.111075 -0.803385 3.454605 1.0547955 3.354615 0.6271154999999999 3.905055 -0.19404000000000002 0.211167 -0.343035 0.4599045 -0.43758 0.7309169999999999 -0.09405 0.270963 -0.1320165 0.5584095 -0.11088 0.844569 0.021285 0.28615949999999996 0.10097999999999999 0.5649434999999999 0.23413499999999998 0.8190765 0.133155 0.2541825 0.3168 0.47831850000000004 0.540045 0.6585975 0.028710000000000003 0.0180675 0.05346 0.0416295 0.072765 0.0693 0.019305 0.027670499999999997 0.033165 0.058905 0.040095 0.0919215 0.007424999999999999 0.0330165 0.00792 0.067122 0.00198 0.100386 -0.00594 0.033263999999999995 -0.01881 0.0649935 -0.037125 0.0933075 -1.0211355 2.1512700000000002 -0.28313999999999995 4.87278 1.96119 5.5489500000000005 2.63142 0.792 2.37006 -0.58707 2.31759 1.3365 -0.017325 0.6380549999999999 -1.4914349999999998 -0.30591 -5.9770755 2.04336 -3.75012 1.96614 -8.508059999999999 6.30333 -10.05543 10.0812195 -0.293535 0.716265 -0.437085 -0.697455 -4.856445 -3.677355 -1.9116900000000001 -1.2870495 -3.469455 -2.4621795 -4.16493 -2.1008295 -0.0141075 0.006731999999999999 -0.0295515 0.010197 -0.045144000000000004 0.010296 -0.015642 0.0000495 -0.031085999999999996 -0.0033165 -0.045243 -0.0098505 -0.0142065 -0.0065835 -0.02673 -0.0161865 -0.0367785 -0.0281655 -0.010048499999999998 -0.011929499999999999 -0.017325 -0.0259875 -0.0213345 -0.041085 -1.745865 -6.039 -6.99831 -7.692795 -5.6489400000000005 -6.701805 0.5258385 0.343134 1.0320255 0.715473 1.5161850000000001 1.115235 1.704681 1.6369155 2.977128 3.6707715 3.70359 5.9197049999999996 0.095535 0.271755 -0.7726949999999999 0.6618149999999999 -1.40184 0.963765 -1.64736 0.792 -1.6928999999999998 0.099 -2.6972549999999997 -1.25928 -0.047025 -0.063855 -0.040095 -0.21879 -0.22572 -0.15939 0.19404000000000002 1.6290449999999999 1.217205 1.9151550000000002 0.9503999999999999 2.1082050000000003 -1.1469150000000001 0.8286794999999999 -0.806355 9.4357395 3.13434 14.5579995 4.77675 6.208785 16.168184999999998 5.531625 16.168184999999998 5.17671 0 -0.1485 0.028710000000000003 -0.309375 -0.1089 -0.30195 -9.74358 0.511335 -15.612795 -3.9105000000000003 -16.94484 -6.958215 -0.043065 0.018314999999999998 -1.15137 -1.9304999999999999 -1.796355 -5.01039 -0.292545 -1.39887 -1.26819 -6.85872 0.15939 -7.13889 0.887238 -0.21621600000000002 1.736262 -0.566775 2.51757 -1.0395495 0.42867 -0.23265 0.7241850000000001 -0.8231850000000001 1.1983949999999999 -0.766755 0.80982 0.096525 6.18453 3.3848594999999997 12.417075 10.8727245 0.67122 0.806355 0.7821 0.41134499999999996 0.19206 -0.455895 -2.881395 -4.232745 -3.7912049999999997 -3.86793 -3.396195 -4.632705 2.687355 -5.2044795 8.19522 -10.6197795 15.004390500000001 -11.9161845 0.6618149999999999 -0.12573 -0.017325 1.12068 1.37709 1.968615 0.32571 0.1694385 0.6850799999999999 0.264429 1.05237 0.27823950000000003 0.366795 0.013760999999999999 0.7326 -0.054054000000000005 1.07019 -0.1985445 0.33759 -0.1444905 0.639045 -0.36209250000000004 0.882585 -0.6371144999999999 0.24354 -0.275022 0.42273 -0.6005835 0.525195 -0.9533205 0.23215499999999997 -0.97416 -0.516285 0.98604 -2.01564 1.332045 -0.287595 0.060687 -0.585585 0.0506385 -0.868725 -0.0292545 -0.282645 -0.07989299999999999 -0.542025 -0.2272545 -0.75537 -0.42941250000000003 -0.213345 -0.20220749999999998 -0.37422 -0.4531725 -0.46925999999999995 -0.731313 -0.09504 -0.27819000000000005 -0.121275 -0.5752889999999999 -0.07622999999999999 -0.865755 0.14354999999999998 -0.8413515 0.19948500000000002 -1.6953255 0.16731000000000001 -2.54826 -0.012375 -0.766755 0.655875 0.02277 1.92654 -1.0182149999999999 0.16434 -0.13414500000000001 0.458865 -0.29056499999999996 0.327195 -0.51282 -0.078705 -0.13365000000000002 -0.29205 0.037125 -0.62766 0.208395 -4.094145 2.0888999999999998 -5.84397 -3.246705 -5.408865 -3.27492 2.863575 -0.18513 1.76715 -2.4255 2.527965 -2.48391 0.17622 -0.013365 0.213345 0.07524 0.217305 0.229185 0.030195 0.3489255 0.145035 0.6851790000000001 0.33462000000000003 0.979704 0.18909 0.2944755 0.447975 0.5383125 0.752895 0.7102755000000001 0.30491999999999997 0.171963 0.64746 0.26690400000000003 0.997425 0.2765565 0.34996499999999997 0.0096525 0.697455 -0.06628049999999999 1.011285 -0.22116599999999997 0.43461 -0.2024055 0.78606 -0.548955 0.9949499999999999 -0.9808425000000001 0.208395 -0.431937 0.26136000000000004 -0.9226800000000001 0.14948999999999998 -1.389069 -0.112365 -0.466389 -0.381645 -0.8797139999999999 -0.7637849999999999 -1.1699325 -0.381645 -0.290268 -0.85239 -0.43956 -1.33155 -0.422631 -0.43263 -0.0189585 -0.86031 0.1003365 -1.220175 0.340659 -0.36036 0.2403225 -0.6350849999999999 0.5890995 -0.783585 0.995841 -0.12177 0.28957499999999997 -0.3168 0.25443 -0.528165 0.304425 -0.4455 0.10593 -0.50292 -1.578555 -2.4111450000000003 -1.34541 -0.31185 0.038114999999999996 -0.30195 -0.08711999999999999 -0.249975 -0.297 0.16434 -0.6741900000000001 1.59192 -0.0495 1.693395 -0.42669 0.091575 -0.343035 -1.012275 -0.484605 -1.1731500000000001 -0.341055 -0.4455 0.396 0.35244 -1.3741199999999998 3.123945 -2.27304 0.40441499999999997 -0.131175 -0.07128 0.099 1.6038000000000001 1.804275 0.010395 0.010395 0.51876 0.48708 0.52866 0.495 3.26997 2.656665 1.945845 3.1284 3.43728 2.6324099999999997 0.31482 -0.10493999999999999 0.75735 -0.36828 0.94941 -0.09207 0.37422 0.53757 -0.7424999999999999 0.90189 -1.6335 2.475 -1.17414 2.084445 -1.1429550000000002 5.3286750000000005 -0.6385500000000001 6.26175 1.1785949999999998 2.178 2.21265 0.73854 1.995345 1.65231 -2.5626149999999996 10.7623395 -2.15622 23.6249145 -1.287 26.2746495 0.00792 0.024255000000000002 0.024255000000000002 0.045045 0.046035 0.05841 0.021779999999999997 0.013365 0.04752 0.01881 0.07325999999999999 0.014849999999999999 0.025244999999999997 -0.00396 0.048015 -0.016335000000000002 0.06534000000000001 -0.03564 0.01683 -0.019305 0.026234999999999998 -0.043559999999999995 0.02673 -0.0693 0.008415 -0.44946 -0.075735 -1.31472 -0.1485 -3.91545 -0.369765 -13.52835 0.7424999999999999 -16.640959499999997 1.683 -22.3933545 0.215325 -1.31868 24.799500000000002 3.83328 20.545965 22.898254499999997 -0.801405 3.593205 -2.3562 6.71319 -5.38461 9.01197 -6.800805 5.161860000000001 -12.66606 4.556475 -18.308069999999997 3.264525 -0.8207099999999999 -0.1881 0.22473 -1.423125 -1.1820599999999999 -3.8689199999999997 -0.11533500000000001 -0.198 -0.015345 -0.28214999999999996 0.08514 -0.39006 7.750215 -8.325405 16.50132 -9.334215 18.496665 -9.809415 0.025244999999999997 -0.006435 0.047025 -0.021285 0.061875 -0.04257 0.015345 -0.021285 0.022275 -0.047025 0.0198 -0.072765 -0.002475 -0.02574 -0.01386 -0.0495 -0.032670000000000005 -0.067815 -0.018314999999999998 -0.01782 -0.043065 -0.028710000000000003 -0.068805 -0.030195 -1.169685 -0.07722 -3.03138 0.374715 -3.98178 0.6311249999999999 -0.31581 0.08514 -0.414315 0.007424999999999999 -0.51084 -0.27918 -1.244925 -3.68874 -1.7993249999999998 -9.548055000000002 -2.1666149999999997 -10.997415 -0.00594 -0.02376 -0.41233499999999995 -0.7424999999999999 -0.1089 2.0884050000000003 1.0355400000000001 9.668835000000001 2.222055 9.332235 1.18008 9.6525 -4.759425 1.4622300000000001 -10.918215 4.83615 -13.30461 8.688735000000001 -0.25443 0.41035499999999997 -0.426195 0.425205 -0.8415 0.26730000000000004 -3.892185 -1.473615 -6.786400499999999 2.076525 -6.7670955 3.79665 0.0000495 0.024255000000000002 0.0080685 0.04752 0.0228195 0.06633 0.014751 0.019305 0.03539249999999999 0.032670000000000005 0.058706999999999995 0.03861 0.023314500000000002 0.006435 0.0479655 0.004455 0.070092 -0.00495 0.022176 -0.009405 0.0405405 -0.026234999999999998 0.0523215 -0.047025 0.236115 -0.42569999999999997 0.45287550000000004 -0.82566 0.7003755 -1.207305 1.396395 -2.153745 3.6134999999999997 -2.73735 6.075629999999999 -2.0096999999999996 0.17523 0.03861 0.33759 0.122265 0.47124 0.24255 0.133155 0.12028499999999999 0.233145 0.272745 0.29007 0.443025 0.253935 0.6667649999999999 0.418275 1.3647150000000001 0.48856499999999997 2.07504 0.112365 0.9702 0.08365500000000001 0.65934 -2.18295 0.282645 -0.13414500000000001 -0.02277 -0.340065 -0.052469999999999996 -0.389565 0.08711999999999999 -0.057420000000000006 0.160875 0.1485 0.20690999999999998 0.263835 0.26977500000000004 1.47411 0.815265 2.2487850000000003 0.51183 2.5403399999999996 0.61974 9.2268 3.418965 20.743965 -0.720225 23.958 -8.8803 5.042565 -12.796244999999999 -2.523015 -22.1710995 -13.128885 -25.9900245Zm-12.157695 -12.4641c2.376 0.053954999999999996 2.29581 3.504105 -0.03069 3.47391 -2.36907 -0.03069 -2.337885 -3.527865 0.03069 -3.47391Zm-2.99475 2.027025c0.00396 0.22314599999999998 -0.037125 0.44480699999999995 -0.12028499999999999 0.6518655 -0.08316 0.207108 -0.20690999999999998 0.3953565 -0.36432 0.5537070000000001 -0.15741 0.1583505 -0.34501499999999996 0.2835855 -0.5514300000000001 0.3682305 -0.206415 0.0846945 -0.42768 0.12711599999999998 -0.650925 0.12474 -0.223245 -0.0023265 -0.44352 -0.049401 -0.64845 -0.138402 -0.20443499999999998 -0.089001 -0.38907 -0.2181465 -0.543015 -0.379764 -0.153945 -0.1616175 -0.273735 -0.35248949999999996 -0.352935 -0.5612309999999999 -0.078705 -0.208791 -0.11484000000000001 -0.43124399999999996 -0.10642499999999999 -0.6542910000000001 0.013365 -2.3047199999999997 3.3377850000000002 -2.2349249999999996 3.3377850000000002 0.035144999999999996Zm2.7165600000000003 -11.205315c0.15741 -0.4851 0.8316 -0.20393999999999998 0.657855 0.01782 -0.45243 0.576675 -0.771705 0.33264 -0.657855 -0.01782Zm2.841795 2.8378349999999997c-0.05346 0.04653 -0.26482500000000003 0.3465 -0.63756 -0.05346 -2.079 -2.245815 -1.9404 -2.0666249999999997 -1.8216 -2.205225 0.233145 -0.271755 1.56717 1.5750899999999999 2.142855 2.0294999999999996 0.10989 0.08711999999999999 0.253935 -0.036135 0.16335 -0.14256 -0.26433 -0.311355 -2.37996 -2.260665 -1.806255 -2.34531 0.14454 -0.021285 0.208395 0.11682 0.28611 0.198 1.91763 2.034945 2.22156 2.04237 1.6731 2.5190550000000003Z" stroke-width="1"></path></g><g id="laptop"><path id="vector_53" fill="#38a1ff" d="M23.234805 64.220805c15.64695 -0.268785 15.583095 -0.5172749999999999 16.192935000000002 0.826155 0.601425 1.3261049999999999 3.010095 7.38936 3.653595 9.029295 1.3775849999999998 3.512025 1.18404 3.6630000000000003 1.8913950000000002 3.6179550000000003 3.768435 -0.23017500000000002 8.779815 0 11.25531 0.068805 0.39055500000000004 0.010889999999999999 0.382635 0.28115999999999997 0.40292999999999995 0.5242049999999999 0.02277 0.26482500000000003 -0.00891 0.5346000000000001 -0.37224 0.5445 -34.11342 1.180575 -33.759 0.567765 -34.420815000000005 -0.9503999999999999 -1.562715 -3.578355 -3.267 -7.775955 -4.7619 -11.385 -1.0355400000000001 -2.4967799999999998 -0.574695 -2.159685 6.15879 -2.2755150000000004Zm6.60429 10.122255000000001c1.1924549999999998 0.02475 1.9691100000000001 -1.032075 1.858725 -1.308285 -0.1287 -0.321255 -1.14741 0.043065 -1.386 -0.69894 -0.071577 -0.263835 -0.0551925 -0.54351 0.0466785 -0.796455 0.1018215 -0.25344 0.2835855 -0.46678499999999995 0.5176215000000001 -0.607365 0.75636 -0.56133 -1.6597350000000002 -1.39491 -2.735865 -0.13464 -0.2730915 0.31581 -0.448074 0.704385 -0.5034645 1.118205 -0.0553905 0.413325 0.0111375 0.8345699999999999 0.1915155 1.2107700000000001 0.180378 0.376695 0.46673549999999997 0.692505 0.8239275 0.9083249999999999 0.357192 0.216315 0.7696755 0.323235 1.1868615 0.308385Zm0.5573699999999999 -6.772094999999999c-1.7666549999999999 0 -2.3071949999999997 2.673 -1.0395 2.232945 0.3778335 -0.11385 0.71775 -0.32769000000000004 0.9836145000000001 -0.6192449999999999 0.2658645 -0.291555 0.44767799999999996 -0.64944 0.5261355 -1.036035 0.09702000000000001 -0.437085 -0.025244999999999997 -0.577665 -0.47025 -0.577665Z" stroke-width="1"></path></g></g></svg>