<svg xmlns="http://www.w3.org/2000/svg" xmlns:xlink="http://www.w3.org/1999/xlink" viewBox="533.64 211.58 1004.19 289.33">
	<path fill="#C4D2D7" fill-opacity="0.98823529" transform="scale(1.0127 1.0127)" d="M1402.74 487.853C1420.73 487.439 1478.71 487.204 1492.53 491.546C1471.9 492.93 1451.29 492.819 1430.62 493.048C1415.02 493.222 1399.53 494.053 1383.95 492.774L1384.2 491.127C1382.45 488.937 1379.57 489.051 1376.89 488.371C1384.83 488.459 1394.39 489.566 1402.12 487.994C1402.33 487.951 1402.53 487.9 1402.74 487.853Z"/>
	<path fill="#203047" transform="scale(1.0127 1.0127)" d="M1382.79 380.499C1386.23 380.303 1389.71 380.622 1393.15 380.825C1396.96 393.137 1397.26 434.987 1395.74 449.049C1395.3 453.091 1394.54 454.973 1391.36 457.502C1388.19 459.735 1381.51 458.711 1377.7 458.617C1388.75 447.415 1377.47 390.128 1382.79 380.499Z"/>
	<path fill="#203047" transform="scale(1.0127 1.0127)" d="M746.397 381.049C765.051 380.631 783.8 381.016 802.464 381.007L803.059 393.11C795.427 393.842 787.533 393.506 779.861 393.534C780.908 407.787 780.208 422.448 780.138 436.75C780.105 444.093 780.467 451.467 780.682 458.808C776.416 458.977 772.11 458.881 767.839 458.901L767.338 393.302C762.152 393.549 753.702 394.995 749.488 391.326C746.347 388.592 746.571 384.894 746.397 381.049Z"/>
	<path fill="#203047" transform="scale(1.0127 1.0127)" d="M1130.29 379.497Q1132.92 379.303 1135.56 379.255C1144.71 379.102 1161.22 377.404 1168.08 383.995C1169.1 386.912 1169 387.421 1168.29 390.457C1164.03 394.487 1152.51 393.082 1146.67 393.076C1155.13 409.324 1144.63 431.475 1149.16 448.64C1149.52 450.008 1148.85 451.172 1148.42 452.504C1148.67 454.66 1148.48 454.879 1147.42 456.804C1144.81 458.545 1141.65 458.971 1138.56 458.526C1138.14 458.465 1136.41 458.303 1136.06 458.053C1136.02 458.023 1135.78 457.106 1135.76 457.037C1134.78 453.102 1135.94 447.18 1136.14 442.973C1136.61 432.767 1138.76 400.979 1133.05 393.338C1129.26 393.29 1124.25 394.133 1120.69 393.302C1118.76 392.852 1117.44 391.686 1116.59 389.919C1115.47 387.583 1115.69 384.69 1116.56 382.354C1120.39 379.567 1125.62 379.917 1130.29 379.497Z"/>
	<path fill="#ABC4CD" transform="scale(1.0127 1.0127)" d="M1100.5 489.674C1178.79 484.539 1258.1 485.49 1336.5 486.671C1353.09 486.921 1388.61 485.324 1402.74 487.853C1402.53 487.9 1402.33 487.951 1402.12 487.994C1394.39 489.566 1384.83 488.459 1376.89 488.371C1379.57 489.051 1382.45 488.937 1384.2 491.127L1383.95 492.774C1350.9 496.057 1316.85 493.968 1283.6 494.079Q1234.87 494.128 1186.14 493.446C1157.41 493.112 1129.07 493.249 1100.5 489.674Z"/>
	<path fill="#203047" transform="scale(1.0127 1.0127)" d="M1261.85 380.499C1267.55 379.853 1273.21 379.378 1278.94 380.114C1286.03 381.025 1290.61 382.943 1295.01 388.844C1296.27 390.531 1296.98 391.401 1296.65 393.535C1291.09 396.966 1280.56 393.355 1274.33 392.977C1267.14 392.54 1259.77 394.839 1254.44 399.772C1249.46 404.384 1247.47 410.969 1247.2 417.598C1246.86 425.701 1248.36 433.441 1254.04 439.536C1259.09 444.943 1266.61 448.075 1273.98 448.17C1277.12 448.21 1280.96 447.606 1283.25 445.302C1284.95 444.729 1286.8 444.01 1288.57 443.736C1290.98 443.364 1292.14 444.411 1293.95 445.725C1294.43 447.185 1294.87 447.965 1294.54 449.51C1293.87 452.65 1291.45 455.029 1288.76 456.609C1281.29 460.999 1271.43 461.284 1263.21 459.193Q1262.24 458.944 1261.29 458.648Q1260.33 458.352 1259.39 458.009Q1258.45 457.667 1257.53 457.278Q1256.61 456.89 1255.7 456.457Q1254.8 456.023 1253.92 455.546Q1253.04 455.069 1252.19 454.55Q1251.33 454.03 1250.5 453.469Q1249.68 452.909 1248.88 452.308Q1248.08 451.707 1247.31 451.067Q1246.54 450.428 1245.8 449.751Q1245.06 449.075 1244.36 448.363Q1243.66 447.651 1242.99 446.906Q1242.32 446.16 1241.69 445.383Q1241.06 444.606 1240.47 443.798Q1239.88 442.991 1239.33 442.156Q1238.78 441.32 1238.27 440.459C1232.62 430.726 1231.57 417.96 1234.65 407.211C1238.38 394.166 1250.75 386.781 1261.85 380.499Z"/>
	<path fill="#203047" transform="scale(1.0127 1.0127)" d="M883.792 381.142C895.736 381.104 909.874 379.231 921.519 381.22C925.233 381.854 927.768 382.927 929.98 386.064C930.069 387.741 930.309 388.675 929.028 390.004C923.579 395.659 904.352 393.347 896.423 393.321L896.362 413.127C903.524 413.224 910.709 412.998 917.871 412.893L917.785 424.632L896.473 424.736L896.513 438.25C896.439 440.94 896.3 442.798 897.909 445.129C905.233 450.236 914.437 446.867 922.711 447.688C925.749 447.989 926.972 449.044 928.783 451.353C929.41 454.062 929.179 455.701 928.524 458.333C927.709 457.483 927.133 457.646 926.001 457.47L925.391 459.554C921.894 457.663 890.619 458.735 884.156 458.7C883.393 432.893 883.819 406.964 883.792 381.142Z"/>
	<path fill="#203047" transform="scale(1.0127 1.0127)" d="M1482.54 380.499C1483.4 380.37 1484.22 380.261 1485.09 380.191C1492.15 379.616 1502.32 379.419 1507.88 384.497C1510.24 386.66 1512.17 389.964 1512.37 393.185C1506.75 400.886 1491.67 388.902 1483.43 394.024C1481.16 395.439 1481.05 396.886 1480.52 399.289C1483.67 412.851 1503.26 414.916 1512.17 423.768C1515.83 427.4 1518.66 432.398 1518.54 437.676C1518.41 443.159 1515.54 448.104 1511.6 451.779C1504.49 458.414 1497.23 460.124 1487.76 459.955C1479.26 458.094 1471.16 453.434 1463.04 450.248C1466.96 447.273 1469.19 444.645 1469.98 439.686C1475.45 442.554 1480.92 445.7 1487.15 446.403C1493.08 447.072 1498.27 446.656 1503.02 442.832C1504 440.799 1504.59 440.109 1504.02 437.803C1502.13 430.114 1485.34 423.37 1478.91 419.325C1475.1 416.931 1471.67 413.998 1467.94 411.467C1468.87 408.692 1467.25 399.142 1467.2 395.501C1469.29 389.861 1477.33 383.334 1482.54 380.499Z"/>
	<path fill="#203047" transform="scale(1.0127 1.0127)" d="M1194.56 379.499C1201.47 379.215 1211 378.604 1217.62 380.509C1220.46 381.324 1221.25 382.509 1222.56 384.958C1222.68 387.891 1222.34 389.313 1221.08 391.962C1215.26 396.046 1198.74 392.689 1191.26 392.619C1191.76 393.395 1192.1 394.158 1192.34 395.057C1193.49 399.446 1193.07 409.056 1190.87 413C1197.88 412.805 1207.38 411.448 1213.47 415.749C1215.41 417.116 1215.66 417.667 1216.05 419.838C1215.6 420.703 1215.09 421.408 1214.34 422.052C1208.49 427.079 1199.08 425.762 1192.02 425.537C1193.4 431.37 1190.64 438.708 1192.95 443.684C1193.89 445.696 1196.24 446.031 1198.21 446.765C1206.43 448.268 1217.61 445.424 1224.82 450.418C1225.53 450.915 1225.36 451.415 1225.48 452.232C1225.12 452.799 1224.84 453.221 1224.34 453.675C1213.95 463 1191.99 459.274 1178.75 458.899C1184.8 442.718 1174.45 391.225 1180.87 382.948C1183.42 379.666 1190.7 379.846 1194.56 379.499Z"/>
	<path fill="#203047" transform="scale(1.0127 1.0127)" d="M1412.33 380.5C1423.06 380.65 1448.11 376.824 1456.09 383.544C1457.13 385.726 1457.07 386.929 1456.56 389.265C1450.61 398.394 1433.79 390.355 1425.39 393.802Q1425.73 395.17 1426.02 396.551C1427.24 402.571 1427.44 408.884 1423.91 414.161C1430.19 413.689 1437.27 412.669 1443.51 413.43C1447.03 413.86 1448.68 414.774 1450.86 417.526C1451.05 420.343 1450.99 421.655 1449.34 424.085C1443.13 428.808 1433.47 425.282 1426.15 426.439C1425.8 428.604 1425.4 430.484 1424.53 432.501C1424.59 432.632 1424.67 432.758 1424.72 432.893C1426.38 437 1426.27 443.533 1424.49 447.523C1432.91 447.428 1441.8 445.651 1450.16 446.562C1453.47 446.921 1456.03 447.611 1458.18 450.337C1458.83 452.836 1458.61 454.162 1457.71 456.564C1451.09 461.356 1419.33 458.845 1410.02 458.745C1410.09 458.563 1410.15 458.38 1410.23 458.2C1415.85 444.828 1408.32 388.334 1412.33 380.5Z"/>
	<path fill="#203047" transform="scale(1.0127 1.0127)" d="M1353.64 380.498C1355.02 380.31 1356.76 379.935 1358.15 380.072C1359.74 380.229 1360.78 380.676 1361.77 381.894C1364.06 384.681 1364.75 388.959 1365.13 392.45C1366.19 402.424 1365.05 413.097 1365.1 423.158C1365.14 431.311 1366.4 440.089 1365.41 448.153C1364.91 452.294 1363.96 455.256 1360.61 457.897C1357.48 459.041 1355.68 458.699 1352.53 457.957C1346.71 451.456 1354.76 436.85 1350.33 428.181C1345.87 423.882 1328.16 425.572 1321.76 425.549C1321.84 425.664 1321.92 425.776 1321.99 425.894C1325.72 431.943 1324.89 444.516 1323.25 451.291C1322.58 454.036 1321.84 456.362 1319.32 457.936C1318.69 458.377 1318.93 458.311 1318.29 458.436C1317.34 458.619 1316.57 458.749 1315.67 459.147C1314.66 459.597 1313.79 460.123 1312.65 460.132C1311 460.146 1310.78 459.847 1309.59 458.726C1307.92 453.544 1310.91 442.322 1311.02 436.315Q1311.24 420.405 1310.95 404.497C1310.75 397.1 1309.72 389.173 1310.69 381.846C1313.82 380.586 1317.2 380.919 1320.51 380.976C1322.64 382.595 1323.38 383.443 1324.03 386.096C1325.7 393.035 1325.32 407.404 1321.37 413.459C1321.24 413.648 1321.11 413.831 1320.98 414.017C1328.71 414.225 1338.16 415.373 1345.69 413.776C1359.22 410.907 1346.76 390.56 1353.22 381.07C1353.35 380.875 1353.5 380.689 1353.64 380.498Z"/>
	<path fill="#203047" transform="scale(1.0127 1.0127)" d="M811.904 381.135L825.059 381.062Q825.528 397.128 825.296 413.2L854.716 413.177C854.468 402.526 854.518 391.847 854.425 381.192L867.631 381.125C868.166 398.012 870.134 444.197 866.03 458.875C862.374 459.02 858.131 459.644 855.333 456.743C849.65 450.851 853.121 431.663 853.247 423.88L825.632 423.944C825.566 435.524 826.031 447.129 826.312 458.706L813 458.936Q812.244 420.039 811.904 381.135Z"/>
	<path fill="#203047" transform="scale(1.0127 1.0127)" d="M1007.56 380.26C1009.49 381.16 1011.37 382.173 1013.1 383.406C1022.28 389.929 1044.38 417.49 1046.11 427.864C1053.73 417.762 1045.05 393.881 1048.42 382.399C1049.32 382.072 1050.26 381.758 1051.23 381.651C1053.24 381.427 1055.56 381.737 1057.17 383.032C1059.88 385.2 1060.85 389.031 1061.36 392.291C1063.18 403.866 1061.54 416.973 1061.43 428.704C1061.37 435.283 1062.24 442.399 1061.54 448.898C1061.25 451.507 1060.54 453.461 1058.97 455.588L1059.33 457.852L1058.1 458.752C1053.85 457.661 1024.86 420.414 1019.85 414.24C1020.32 428.954 1019.85 443.79 1019.75 458.515C1015.32 459.002 1010.73 458.95 1006.26 459.118C1006.66 434.033 1004.61 404.621 1007.56 380.26Z"/>
	<defs>
		<linearGradient id="gradient_0" gradientUnits="userSpaceOnUse" x1="721.03998" y1="569.47656" x2="812.96002" y2="409.52341">
			<stop offset="0" stop-color="#E4DAE5" stop-opacity="0.98431373"/>
			<stop offset="1" stop-color="#99CBCF"/>
		</linearGradient>
	</defs>
	<path fill="url(#gradient_0)" transform="scale(1.0127 1.0127)" d="M818.854 485.51C848.903 485.03 879.245 485.806 909.292 486.611C932.137 487.223 955.269 487.372 977.967 490.146C939.747 495.277 900.412 493.644 861.942 493.596L687.5 492.907C633.819 493.018 580.512 493.293 526.943 489.293C545.372 484.501 595.184 487.259 616.4 487.107L818.854 485.51Z"/>
	<path fill="#203047" transform="scale(1.0127 1.0127)" d="M533.892 377.521C548.39 383.142 569.942 414.458 580.935 427.183L579.965 381.44C584.466 381.149 589.052 381.433 593.56 381.536C593.497 394.609 597.094 451.985 591.95 459.704C584.521 457.483 555.069 420.568 547.884 412.413C547.96 426.16 549.884 443.933 546.389 457.119C545.764 459.479 545.337 459.672 543.344 460.825C540.733 460.649 538.894 459.947 537.007 458.063C535.353 456.412 534.117 453.963 533.711 451.663C532.62 445.502 533.492 438.058 533.482 431.737Q533.344 404.626 533.892 377.521Z"/>
	<path fill="#203047" transform="scale(1.0127 1.0127)" d="M942.775 381.323C953.322 380.731 964.468 379.557 974.73 382.72C980.774 384.583 986.688 387.999 989.631 393.825C993.181 400.851 991.555 407.752 989.287 414.818C984.793 419.668 979.341 422.823 973.625 425.972C982.669 435.938 990.038 448.14 998.311 458.846C992.975 458.891 987.62 458.749 982.283 458.691C972.383 448.079 965.896 434.611 955.621 424.063L956.543 458.52C951.779 458.824 946.937 458.706 942.161 458.757Q942.897 420.043 942.775 381.323ZM956.91 392.321C955.603 395.678 955.809 410.892 957.17 414.367C962.31 416.396 968.634 415.362 973.659 413.364C976.369 411.005 978.258 408.943 978.552 405.183C978.742 402.746 977.609 400.35 975.905 398.656C970.554 393.335 964.1 392.456 956.91 392.321Z"/>
	<path fill="#203047" transform="scale(1.0127 1.0127)" d="M690.17 381.38C699.705 381.003 709.659 380.22 719.11 381.947C725.891 383.186 733.054 385.871 737.031 391.842C740.178 396.566 740.732 403.223 739.473 408.655C737.434 417.452 730.091 421.434 722.997 425.821Q734.226 443.052 746.076 459.862C741.022 459.966 736.174 459.877 731.133 459.376C724.831 450.125 719.473 439.538 712.47 430.886C710.891 428.936 709.807 427.989 707.292 427.657C706.782 428.034 706.56 428.139 706.182 428.6C701.775 433.967 703.969 451.921 704.255 459.044L690.109 459.239C691.099 433.431 690.136 407.235 690.17 381.38ZM703.876 392.641C703.957 400.692 703.852 408.661 703.405 416.701C710.034 416.044 717.026 415.755 722.969 412.43C725.105 408.902 726.459 405.529 725.312 401.359C724.447 398.21 722.061 396.296 719.266 394.907C714.339 392.46 709.234 392.673 703.876 392.641Z"/>
	<path fill="#203047" transform="scale(1.0127 1.0127)" d="M632.683 380.321C642.78 379.695 651.56 381.075 660.303 386.506C669.442 392.183 676.163 400.955 678.563 411.51Q678.776 412.434 678.942 413.367Q679.108 414.301 679.228 415.241Q679.348 416.182 679.421 417.127Q679.494 418.073 679.52 419.02Q679.546 419.968 679.524 420.916Q679.503 421.864 679.434 422.81Q679.366 423.755 679.251 424.696Q679.135 425.637 678.973 426.572Q678.811 427.506 678.603 428.431Q678.394 429.356 678.14 430.269Q677.886 431.183 677.587 432.082Q677.288 432.982 676.945 433.866Q676.601 434.749 676.214 435.615Q675.827 436.481 675.397 437.326Q674.968 438.171 674.496 438.994Q674.025 439.817 673.514 440.615C666.212 451.999 654.773 456.939 642.086 459.733C632.622 460.447 623.342 458.694 615.178 453.69C606.002 448.068 598.949 438.572 596.54 428.043Q596.342 427.14 596.189 426.229Q596.036 425.318 595.927 424.4Q595.818 423.482 595.755 422.56Q595.691 421.638 595.673 420.714Q595.654 419.79 595.681 418.867Q595.708 417.943 595.78 417.022Q595.852 416.1 595.969 415.184Q596.086 414.267 596.248 413.357Q596.41 412.447 596.616 411.546Q596.822 410.645 597.071 409.756Q597.321 408.866 597.614 407.99Q597.907 407.113 598.243 406.252Q598.579 405.391 598.956 404.548Q599.333 403.704 599.751 402.88Q600.169 402.056 600.627 401.253Q601.085 400.45 601.582 399.671C608.734 388.583 620.195 383.01 632.683 380.321ZM633.743 393.061C625.148 395.668 617.849 399.777 613.421 407.929C610.12 414.007 609.296 421.009 611.297 427.65Q611.489 428.28 611.712 428.9Q611.935 429.519 612.188 430.127Q612.44 430.736 612.722 431.331Q613.004 431.926 613.315 432.506Q613.626 433.087 613.965 433.652Q614.303 434.216 614.669 434.764Q615.035 435.312 615.427 435.841Q615.819 436.37 616.237 436.879Q616.654 437.388 617.096 437.877Q617.538 438.365 618.003 438.831Q618.468 439.297 618.956 439.74Q619.443 440.183 619.951 440.602Q620.459 441.021 620.988 441.414Q621.516 441.807 622.062 442.175Q622.609 442.542 623.173 442.882Q623.737 443.222 624.317 443.534C629.74 446.389 635.297 447.749 641.398 447.24C650.103 444.387 657.107 440.773 661.552 432.252Q661.848 431.685 662.116 431.105Q662.384 430.524 662.622 429.931Q662.861 429.338 663.07 428.734Q663.279 428.13 663.458 427.516Q663.636 426.902 663.785 426.281Q663.933 425.659 664.05 425.03Q664.167 424.402 664.253 423.768Q664.339 423.135 664.393 422.498Q664.448 421.861 664.471 421.222Q664.493 420.583 664.485 419.944Q664.476 419.305 664.435 418.667Q664.395 418.029 664.323 417.393Q664.25 416.758 664.147 416.127Q664.044 415.497 663.909 414.872Q663.774 414.247 663.609 413.629Q663.444 413.012 663.248 412.403Q663.037 411.754 662.793 411.117Q662.55 410.48 662.275 409.856Q662 409.232 661.694 408.622Q661.388 408.013 661.052 407.419Q660.716 406.826 660.35 406.25Q659.985 405.674 659.591 405.117Q659.198 404.56 658.776 404.023Q658.355 403.487 657.908 402.972Q657.461 402.457 656.988 401.965Q656.515 401.473 656.019 401.006Q655.522 400.538 655.003 400.096Q654.484 399.654 653.943 399.238Q653.402 398.823 652.841 398.435Q652.28 398.047 651.7 397.687Q651.121 397.328 650.524 396.998Q649.927 396.668 649.314 396.368C644.363 393.934 639.264 392.603 633.743 393.061Z"/>
	<path fill="#3C8DB3" transform="scale(1.0127 1.0127)" d="M1036.54 209.41C1037.9 209.133 1039.61 208.754 1040.99 209.02C1047.34 210.248 1146.96 280.597 1152.15 288.817C1164.08 285.4 1178.65 276.025 1188.3 268.269C1190.65 266.381 1193.76 264.187 1194.11 260.982C1207.16 264.75 1263.94 299.81 1271.51 310.628C1275.27 309.6 1278.84 308.106 1281.88 305.642C1306.33 312.67 1324.27 334.766 1349.29 341.339C1377.77 348.823 1483.99 354.927 1499.29 363.749C1473.34 364.704 1354.72 356.726 1331.76 348.899C1315.25 343.272 1302.89 329.09 1286.39 323.551L1285.43 323.236C1279.29 329.642 1262.95 331.352 1254.4 333.297C1267.8 333.286 1292.65 331.05 1303.68 339.479C1278.15 347.813 1199.9 344.073 1168.41 343.663C1178.15 341.672 1188.49 340.048 1197.71 336.261C1202.57 334.262 1208.16 331.144 1210.17 325.97C1211.05 323.709 1211.26 320.722 1210.14 318.521C1208.24 314.784 1202.05 313.558 1198.3 312.373C1210.14 314.064 1223.13 314.721 1232.58 322.813L1232.32 318.892C1225.65 307.636 1206.53 294.282 1194.76 289.29C1206.07 291.836 1235.06 303.125 1241.75 311.991C1241.69 311.778 1241.62 311.566 1241.57 311.351C1241.26 310.043 1241 308.783 1240.28 307.621C1234.64 298.513 1206.65 282.867 1195.97 279.734C1187.54 288.649 1114.01 328.636 1100.37 331.555C1107.96 327.816 1117.41 317.728 1122.15 310.717C1123.74 308.371 1124.48 306.895 1123.95 304.109C1119.34 299.49 1110.61 298.849 1104.44 297.706C1115.2 297.348 1126.4 297.616 1136.98 295.487C1136.83 295.24 1136.7 294.988 1136.55 294.747C1133.39 289.785 1122.44 286.769 1116.95 285.373C1109.1 288.996 1099.31 290.408 1090.85 291.933C1092.22 295.966 1090.17 303.069 1088.29 306.842C1078.05 327.376 1042.95 339.381 1022.75 346.162C1035.57 336.39 1055.79 323.91 1061.78 308.675C1063.82 303.506 1063.98 297.137 1061.83 292C1050.98 294.564 1039.52 296.012 1028.49 297.591C1035.69 295.696 1053.15 291.008 1057.04 284.519C1060.58 282.935 1066.82 279.085 1068.53 275.536C1065.4 268.837 1049.83 259.597 1043.09 256.807C1040.1 263.284 1026.97 270.968 1021.2 275.015C1025.58 268.236 1031.14 262.189 1035.83 255.612C1039.22 250.868 1043.12 244.356 1042.13 238.323C1057.98 243.023 1078.46 262.042 1090.8 264.694C1083.13 255.866 1050.38 232.725 1039.5 228.758C1033.76 238.276 887.474 329.659 872.176 336.91Q893.406 317.59 915.7 299.508L902.416 286.468C907.015 287.904 911.502 290.03 916.147 291.258C918.595 291.906 921.719 292.408 923.968 291.063L923.559 288.968C918.08 282.313 910.645 277.45 903.449 272.839C894.561 279.073 886.495 286.83 878.268 293.904C855.963 313.084 832.911 332.212 805.777 344.004C812.846 338.079 820.264 332.793 826.904 326.339C815.066 327.313 803.943 330.566 792.348 332.888C798.751 330.295 804.995 327.601 811.157 324.475C806.818 323.099 802.342 322.013 797.952 320.798C804.57 320.069 811.261 320.007 817.911 319.789L801.82 308.427C776.706 321.336 744.233 340.383 717.892 348.635C692.229 356.675 659.445 354.428 632.544 356.044C606.213 357.626 579.693 360.653 553.31 360.573C584.604 353.517 617.157 351.02 649.043 348.028C668.693 346.185 689.408 345.328 708.355 339.493C723.422 334.852 737.377 327.025 751.307 319.784Q777.241 306.031 803.535 292.98C812.912 296.922 821.286 303.655 830.278 308.491C838.15 303.374 845.611 297.355 853.27 291.903L904.45 255.652Q922.807 266.885 940.665 278.895C953.764 270.426 1030.21 217.839 1036.54 209.41Z"/>
</svg>