<svg xmlns="http://www.w3.org/2000/svg" version="1.1" xmlns:xlink="http://www.w3.org/1999/xlink" width="1500" height="571" viewBox="0 0 1500 571"><g transform="matrix(1,0,0,1,-0.9090909090909918,-0.7472782938290834)"><svg viewBox="0 0 396 151" data-background-color="#8dbdff" preserveAspectRatio="xMidYMid meet" height="571" width="1500" xmlns="http://www.w3.org/2000/svg" xmlns:xlink="http://www.w3.org/1999/xlink"><g id="tight-bounds" transform="matrix(1,0,0,1,0.2400000000000091,0.1976165015204714)"><svg viewBox="0 0 395.52 150.60476699695906" height="150.60476699695906" width="395.52"><g><svg viewBox="0 0 680.9812473571665 259.3017346468563" height="150.60476699695906" width="395.52"><g><rect width="6.579939954004024" height="199.02539314396117" x="261.6563337015812" y="30.13817075144756" fill="#0ea5e9" opacity="1" stroke-width="0" stroke="transparent" fill-opacity="1" class="rect-yte-0" data-fill-palette-color="primary" rx="1%" id="yte-0" data-palette-color="#0ea5e9"></rect></g><g transform="matrix(1,0,0,1,285.4612473571665,30.633258794094218)"><svg viewBox="0 0 395.52 198.03521705866785" height="198.03521705866785" width="395.52"><g id="textblocktransform"><svg viewBox="0 0 395.52 198.03521705866785" height="198.03521705866785" width="395.52" id="textblock"><g><svg viewBox="0 0 395.52 157.29832295160514" height="157.29832295160514" width="395.52"><g transform="matrix(1,0,0,1,0,0)"><svg width="395.52" viewBox="0.4999999999999982 -38 213.04999999999998 80" height="157.29832295160514" data-palette-color="#0ea5e9"><svg></svg><svg></svg><g class="wordmark-text-0" data-fill-palette-color="primary" id="text-0"><path d="M33.15-35.7v35.7h-5.25l-19.1-29.65h-0.2c0.067 0.767 0.127 1.673 0.18 2.72 0.047 1.053 0.097 2.17 0.15 3.35 0.047 1.187 0.07 2.397 0.07 3.63v0 19.95h-4.15v-35.7h5.2l19.05 29.55h0.2c-0.033-0.533-0.073-1.333-0.12-2.4-0.053-1.067-0.103-2.233-0.15-3.5-0.053-1.267-0.08-2.433-0.08-3.5v0-20.15zM65.55-13.45v0c0 2.233-0.293 4.207-0.88 5.92-0.58 1.72-1.413 3.18-2.5 4.38-1.08 1.2-2.393 2.107-3.94 2.72-1.553 0.62-3.28 0.93-5.18 0.93v0c-1.767 0-3.4-0.31-4.9-0.93-1.5-0.613-2.8-1.52-3.9-2.72-1.1-1.2-1.96-2.66-2.58-4.38-0.613-1.713-0.92-3.687-0.92-5.92v0c0-2.967 0.5-5.477 1.5-7.53 1-2.047 2.433-3.613 4.3-4.7 1.867-1.08 4.083-1.62 6.65-1.62v0c2.433 0 4.577 0.54 6.43 1.62 1.847 1.087 3.297 2.653 4.35 4.7 1.047 2.053 1.57 4.563 1.57 7.53zM45.3-13.45v0c0 2.1 0.277 3.923 0.83 5.47 0.547 1.553 1.403 2.747 2.57 3.58 1.167 0.833 2.65 1.25 4.45 1.25v0c1.8 0 3.283-0.417 4.45-1.25 1.167-0.833 2.023-2.027 2.57-3.58 0.553-1.547 0.83-3.37 0.83-5.47v0c0-2.133-0.283-3.95-0.85-5.45-0.567-1.5-1.423-2.66-2.57-3.48-1.153-0.813-2.647-1.22-4.48-1.22v0c-2.733 0-4.717 0.9-5.95 2.7-1.233 1.8-1.85 4.283-1.85 7.45zM85-27.3v0c0.5 0 1.043 0.023 1.63 0.07 0.58 0.053 1.087 0.13 1.52 0.23v0l-0.55 4.05c-0.433-0.1-0.91-0.183-1.43-0.25-0.513-0.067-1.003-0.1-1.47-0.1v0c-1.033 0-2.017 0.217-2.95 0.65-0.933 0.433-1.767 1.04-2.5 1.82-0.733 0.787-1.307 1.73-1.72 2.83-0.42 1.1-0.63 2.333-0.63 3.7v0 14.3h-4.4v-26.8h3.6l0.5 4.9h0.2c0.567-1 1.25-1.91 2.05-2.73 0.8-0.813 1.717-1.463 2.75-1.95 1.033-0.48 2.167-0.72 3.4-0.72zM102.1-3.1v0c0.667 0 1.35-0.06 2.05-0.18 0.7-0.113 1.267-0.237 1.7-0.37v0 3.35c-0.467 0.233-1.133 0.427-2 0.58-0.867 0.147-1.7 0.22-2.5 0.22v0c-1.4 0-2.69-0.243-3.87-0.73-1.187-0.48-2.147-1.32-2.88-2.52-0.733-1.2-1.1-2.883-1.1-5.05v0-15.6h-3.8v-2.1l3.85-1.75 1.75-5.7h2.6v6.15h7.75v3.4h-7.75v15.5c0 1.633 0.393 2.84 1.18 3.62 0.78 0.787 1.787 1.18 3.02 1.18zM115.6-38v11.15c0 0.633-0.023 1.283-0.07 1.95-0.053 0.667-0.113 1.267-0.18 1.8v0h0.3c0.567-0.933 1.283-1.7 2.15-2.3 0.867-0.6 1.833-1.06 2.9-1.38 1.067-0.313 2.167-0.47 3.3-0.47v0c2.167 0 3.977 0.34 5.43 1.02 1.447 0.687 2.537 1.747 3.27 3.18 0.733 1.433 1.1 3.3 1.1 5.6v0 17.45h-4.35v-17.15c0-2.167-0.483-3.783-1.45-4.85-0.967-1.067-2.483-1.6-4.55-1.6v0c-2 0-3.567 0.373-4.7 1.12-1.133 0.753-1.94 1.853-2.42 3.3-0.487 1.453-0.73 3.23-0.73 5.33v0 13.85h-4.4v-38zM152.45-27.3v0c2.3 0 4.277 0.5 5.93 1.5 1.647 1 2.913 2.407 3.8 4.22 0.88 1.82 1.32 3.947 1.32 6.38v0 2.65h-18.35c0.067 3.033 0.84 5.34 2.32 6.92 1.487 1.587 3.563 2.38 6.23 2.38v0c1.7 0 3.207-0.16 4.52-0.48 1.32-0.313 2.68-0.77 4.08-1.37v0 3.85c-1.367 0.6-2.717 1.043-4.05 1.33-1.333 0.28-2.917 0.42-4.75 0.42v0c-2.533 0-4.773-0.517-6.72-1.55-1.953-1.033-3.473-2.577-4.56-4.63-1.08-2.047-1.62-4.553-1.62-7.52v0c0-2.933 0.49-5.45 1.47-7.55 0.987-2.1 2.37-3.717 4.15-4.85 1.787-1.133 3.863-1.7 6.23-1.7zM152.4-23.7v0c-2.1 0-3.76 0.673-4.98 2.02-1.213 1.353-1.937 3.23-2.17 5.63v0h13.65c0-1.533-0.233-2.867-0.7-4-0.467-1.133-1.177-2.027-2.13-2.68-0.947-0.647-2.17-0.97-3.67-0.97zM182.8-27.3v0c0.5 0 1.043 0.023 1.63 0.07 0.58 0.053 1.087 0.13 1.52 0.23v0l-0.55 4.05c-0.433-0.1-0.907-0.183-1.42-0.25-0.52-0.067-1.013-0.1-1.48-0.1v0c-1.033 0-2.017 0.217-2.95 0.65-0.933 0.433-1.767 1.04-2.5 1.82-0.733 0.787-1.307 1.73-1.72 2.83-0.42 1.1-0.63 2.333-0.63 3.7v0 14.3h-4.4v-26.8h3.6l0.5 4.9h0.2c0.567-1 1.25-1.91 2.05-2.73 0.8-0.813 1.717-1.463 2.75-1.95 1.033-0.48 2.167-0.72 3.4-0.72zM203.85-27.3v0c3.2 0 5.617 0.773 7.25 2.32 1.633 1.553 2.45 4.063 2.45 7.53v0 17.45h-4.35v-17.15c0-2.167-0.483-3.783-1.45-4.85-0.967-1.067-2.483-1.6-4.55-1.6v0c-2.967 0-5.017 0.833-6.15 2.5-1.133 1.667-1.7 4.067-1.7 7.2v0 13.9h-4.4v-26.8h3.55l0.65 3.65h0.25c0.6-0.933 1.343-1.71 2.23-2.33 0.88-0.613 1.853-1.07 2.92-1.37 1.067-0.3 2.167-0.45 3.3-0.45z" fill="#0ea5e9" fill-rule="nonzero" stroke="none" stroke-width="1" stroke-linecap="butt" stroke-linejoin="miter" stroke-miterlimit="10" stroke-dasharray="" stroke-dashoffset="0" font-family="none" font-weight="none" font-size="none" text-anchor="none" style="mix-blend-mode: normal" data-fill-palette-color="primary" opacity="1"></path><path transform="translate(0,41.5)" d="M16.15-31.75v31.75h-4.5v-31.75h-11.15v-3.95h26.75v3.95zM38.9-27.3v0c2.3 0 4.277 0.5 5.93 1.5 1.647 1 2.913 2.407 3.8 4.22 0.88 1.82 1.32 3.947 1.32 6.38v0 2.65h-18.35c0.067 3.033 0.84 5.34 2.32 6.92 1.487 1.587 3.563 2.38 6.23 2.38v0c1.7 0 3.207-0.16 4.52-0.48 1.32-0.313 2.68-0.77 4.08-1.37v0 3.85c-1.367 0.6-2.717 1.043-4.05 1.33-1.333 0.28-2.917 0.42-4.75 0.42v0c-2.533 0-4.773-0.517-6.72-1.55-1.953-1.033-3.47-2.577-4.55-4.63-1.087-2.047-1.63-4.553-1.63-7.52v0c0-2.933 0.493-5.45 1.48-7.55 0.98-2.1 2.36-3.717 4.14-4.85 1.787-1.133 3.863-1.7 6.23-1.7zM38.85-23.7v0c-2.1 0-3.757 0.673-4.97 2.02-1.22 1.353-1.947 3.23-2.18 5.63v0h13.65c0-1.533-0.233-2.867-0.7-4-0.467-1.133-1.173-2.027-2.12-2.68-0.953-0.647-2.18-0.97-3.68-0.97zM67.5 0.5v0c-2.367 0-4.477-0.483-6.33-1.45-1.847-0.967-3.293-2.467-4.34-4.5-1.053-2.033-1.58-4.633-1.58-7.8v0c0-3.3 0.55-5.983 1.65-8.05 1.1-2.067 2.593-3.583 4.48-4.55 1.88-0.967 4.02-1.45 6.42-1.45v0c1.367 0 2.683 0.14 3.95 0.42 1.267 0.287 2.3 0.63 3.1 1.03v0l-1.35 3.65c-0.8-0.3-1.733-0.583-2.8-0.85-1.067-0.267-2.067-0.4-3-0.4v0c-1.8 0-3.283 0.383-4.45 1.15-1.167 0.767-2.033 1.9-2.6 3.4-0.567 1.5-0.85 3.367-0.85 5.6v0c0 2.133 0.283 3.95 0.85 5.45 0.567 1.5 1.417 2.633 2.55 3.4 1.133 0.767 2.55 1.15 4.25 1.15v0c1.467 0 2.76-0.15 3.88-0.45 1.113-0.3 2.137-0.667 3.07-1.1v0 3.9c-0.9 0.467-1.893 0.827-2.98 1.08-1.08 0.247-2.387 0.37-3.92 0.37zM85.15-38v11.15c0 0.633-0.023 1.283-0.07 1.95-0.053 0.667-0.113 1.267-0.18 1.8v0h0.3c0.567-0.933 1.283-1.7 2.15-2.3 0.867-0.6 1.833-1.06 2.9-1.38 1.067-0.313 2.167-0.47 3.3-0.47v0c2.167 0 3.973 0.34 5.42 1.02 1.453 0.687 2.547 1.747 3.28 3.18 0.733 1.433 1.1 3.3 1.1 5.6v0 17.45h-4.35v-17.15c0-2.167-0.483-3.783-1.45-4.85-0.967-1.067-2.483-1.6-4.55-1.6v0c-2 0-3.567 0.373-4.7 1.12-1.133 0.753-1.94 1.853-2.42 3.3-0.487 1.453-0.73 3.23-0.73 5.33v0 13.85h-4.4v-38zM111.65-26.8h4.4v26.8h-4.4zM113.9-36.85v0c0.667 0 1.26 0.223 1.78 0.67 0.513 0.453 0.77 1.163 0.77 2.13v0c0 0.933-0.257 1.633-0.77 2.1-0.52 0.467-1.113 0.7-1.78 0.7v0c-0.733 0-1.35-0.233-1.85-0.7-0.5-0.467-0.75-1.167-0.75-2.1v0c0-0.967 0.25-1.677 0.75-2.13 0.5-0.447 1.117-0.67 1.85-0.67zM134.9-27.3v0c2.3 0 4.277 0.5 5.93 1.5 1.647 1 2.913 2.407 3.8 4.22 0.88 1.82 1.32 3.947 1.32 6.38v0 2.65h-18.35c0.067 3.033 0.843 5.34 2.33 6.92 1.48 1.587 3.553 2.38 6.22 2.38v0c1.7 0 3.21-0.16 4.53-0.48 1.313-0.313 2.67-0.77 4.07-1.37v0 3.85c-1.367 0.6-2.717 1.043-4.05 1.33-1.333 0.28-2.917 0.42-4.75 0.42v0c-2.533 0-4.773-0.517-6.72-1.55-1.953-1.033-3.47-2.577-4.55-4.63-1.087-2.047-1.63-4.553-1.63-7.52v0c0-2.933 0.493-5.45 1.48-7.55 0.98-2.1 2.363-3.717 4.15-4.85 1.78-1.133 3.853-1.7 6.22-1.7zM134.85-23.7v0c-2.1 0-3.757 0.673-4.97 2.02-1.22 1.353-1.947 3.23-2.18 5.63v0h13.65c0-1.533-0.233-2.867-0.7-4-0.467-1.133-1.173-2.027-2.12-2.68-0.953-0.647-2.18-0.97-3.68-0.97zM170.2-7.4v0c0 1.733-0.433 3.183-1.3 4.35-0.867 1.167-2.1 2.05-3.7 2.65-1.6 0.6-3.5 0.9-5.7 0.9v0c-1.867 0-3.473-0.15-4.82-0.45-1.353-0.3-2.547-0.717-3.58-1.25v0-4c1.067 0.533 2.357 1.023 3.87 1.47 1.52 0.453 3.063 0.68 4.63 0.68v0c2.233 0 3.85-0.36 4.85-1.08 1-0.713 1.5-1.67 1.5-2.87v0c0-0.667-0.183-1.267-0.55-1.8-0.367-0.533-1.023-1.067-1.97-1.6-0.953-0.533-2.313-1.133-4.08-1.8v0c-1.733-0.667-3.217-1.333-4.45-2-1.233-0.667-2.183-1.467-2.85-2.4-0.667-0.933-1-2.133-1-3.6v0c0-2.267 0.923-4.017 2.77-5.25 1.853-1.233 4.28-1.85 7.28-1.85v0c1.633 0 3.16 0.157 4.58 0.47 1.413 0.32 2.737 0.763 3.97 1.33v0l-1.5 3.5c-1.133-0.467-2.317-0.867-3.55-1.2-1.233-0.333-2.5-0.5-3.8-0.5v0c-1.8 0-3.173 0.29-4.12 0.87-0.953 0.587-1.43 1.38-1.43 2.38v0c0 0.733 0.217 1.36 0.65 1.88 0.433 0.513 1.157 1.013 2.17 1.5 1.02 0.48 2.38 1.053 4.08 1.72v0c1.7 0.633 3.15 1.283 4.35 1.95 1.2 0.667 2.117 1.473 2.75 2.42 0.633 0.953 0.95 2.147 0.95 3.58z" fill="#374151" fill-rule="nonzero" stroke="none" stroke-width="1" stroke-linecap="butt" stroke-linejoin="miter" stroke-miterlimit="10" stroke-dasharray="" stroke-dashoffset="0" font-family="none" font-weight="none" font-size="none" text-anchor="none" style="mix-blend-mode: normal" data-fill-palette-color="secondary" opacity="1"></path></g></svg></g></svg></g><g transform="matrix(1,0,0,1,0,174.52329665318635)"><svg viewBox="0 0 375.74399999999997 23.511920405481508" height="23.511920405481508" width="375.74399999999997"><g transform="matrix(1,0,0,1,0,0)"><svg width="375.74399999999997" viewBox="4.85 -38 798.9599999999999 50" height="23.511920405481508" data-palette-color="#374151"><path d="M33.45-18.2L33.45-18.2Q33.45-9.15 28.53-4.58 23.6 0 14.8 0L14.8 0 4.85 0 4.85-35.7 15.85-35.7Q21.25-35.7 25.2-33.7 29.15-31.7 31.3-27.83 33.45-23.95 33.45-18.2ZM28.7-18.05L28.7-18.05Q28.7-25.2 25.18-28.53 21.65-31.85 15.2-31.85L15.2-31.85 9.35-31.85 9.35-3.85 14.2-3.85Q28.7-3.85 28.7-18.05ZM43-36.85L43-36.85Q44-36.85 44.77-36.18 45.55-35.5 45.55-34.05L45.55-34.05Q45.55-32.65 44.77-31.95 44-31.25 43-31.25L43-31.25Q41.9-31.25 41.15-31.95 40.4-32.65 40.4-34.05L40.4-34.05Q40.4-35.5 41.15-36.18 41.9-36.85 43-36.85ZM40.75-26.8L45.15-26.8 45.15 0 40.75 0 40.75-26.8ZM63.15-27.3L63.15-27.3Q65.8-27.3 67.92-26.3 70.05-25.3 71.55-23.25L71.55-23.25 71.8-23.25 72.4-26.8 75.9-26.8 75.9 0.45Q75.9 6.2 72.97 9.1 70.05 12 63.9 12L63.9 12Q58 12 54.25 10.3L54.25 10.3 54.25 6.25Q58.2 8.35 64.15 8.35L64.15 8.35Q67.59 8.35 69.57 6.33 71.55 4.3 71.55 0.8L71.55 0.8 71.55-0.25Q71.55-0.85 71.59-1.98 71.65-3.1 71.7-3.55L71.7-3.55 71.5-3.55Q68.8 0.5 63.2 0.5L63.2 0.5Q58 0.5 55.07-3.15 52.15-6.8 52.15-13.35L52.15-13.35Q52.15-19.75 55.07-23.53 58-27.3 63.15-27.3ZM63.75-23.6L63.75-23.6Q60.4-23.6 58.55-20.93 56.7-18.25 56.7-13.3L56.7-13.3Q56.7-8.35 58.52-5.73 60.35-3.1 63.85-3.1L63.85-3.1Q67.9-3.1 69.75-5.28 71.59-7.45 71.59-12.3L71.59-12.3 71.59-13.35Q71.59-18.85 69.7-21.23 67.8-23.6 63.75-23.6ZM86.64-36.85L86.64-36.85Q87.64-36.85 88.42-36.18 89.19-35.5 89.19-34.05L89.19-34.05Q89.19-32.65 88.42-31.95 87.64-31.25 86.64-31.25L86.64-31.25Q85.54-31.25 84.79-31.95 84.04-32.65 84.04-34.05L84.04-34.05Q84.04-35.5 84.79-36.18 85.54-36.85 86.64-36.85ZM84.39-26.8L88.79-26.8 88.79 0 84.39 0 84.39-26.8ZM106.24-3.1L106.24-3.1Q107.24-3.1 108.29-3.28 109.34-3.45 109.99-3.65L109.99-3.65 109.99-0.3Q109.29 0.05 107.99 0.28 106.69 0.5 105.49 0.5L105.49 0.5Q103.39 0.5 101.62-0.23 99.84-0.95 98.74-2.75 97.64-4.55 97.64-7.8L97.64-7.8 97.64-23.4 93.84-23.4 93.84-25.5 97.69-27.25 99.44-32.95 102.04-32.95 102.04-26.8 109.79-26.8 109.79-23.4 102.04-23.4 102.04-7.9Q102.04-5.45 103.22-4.28 104.39-3.1 106.24-3.1ZM125.49-27.25L125.49-27.25Q130.39-27.25 132.74-25.1 135.09-22.95 135.09-18.25L135.09-18.25 135.09 0 131.89 0 131.04-3.8 130.84-3.8Q129.09-1.6 127.16-0.55 125.24 0.5 121.84 0.5L121.84 0.5Q118.19 0.5 115.79-1.43 113.39-3.35 113.39-7.45L113.39-7.45Q113.39-11.45 116.54-13.63 119.69-15.8 126.24-16L126.24-16 130.79-16.15 130.79-17.75Q130.79-21.1 129.34-22.4 127.89-23.7 125.24-23.7L125.24-23.7Q123.14-23.7 121.24-23.08 119.34-22.45 117.69-21.65L117.69-21.65 116.34-24.95Q118.09-25.9 120.49-26.58 122.89-27.25 125.49-27.25ZM130.74-13.1L126.79-12.95Q121.79-12.75 119.86-11.35 117.94-9.95 117.94-7.4L117.94-7.4Q117.94-5.15 119.31-4.1 120.69-3.05 122.84-3.05L122.84-3.05Q126.24-3.05 128.49-4.93 130.74-6.8 130.74-10.7L130.74-10.7 130.74-13.1ZM147.79-38L147.79 0 143.39 0 143.39-38 147.79-38ZM190.13-9.55L190.13-9.55Q190.13-4.8 186.68-2.15 183.23 0.5 177.38 0.5L177.38 0.5Q174.38 0.5 171.83 0.05 169.28-0.4 167.58-1.2L167.58-1.2 167.58-5.5Q169.38-4.7 172.06-4.05 174.73-3.4 177.58-3.4L177.58-3.4Q181.58-3.4 183.61-4.95 185.63-6.5 185.63-9.15L185.63-9.15Q185.63-10.9 184.88-12.1 184.13-13.3 182.31-14.33 180.48-15.35 177.23-16.5L177.23-16.5Q172.68-18.15 170.36-20.55 168.03-22.95 168.03-27.1L168.03-27.1Q168.03-29.95 169.48-31.98 170.93-34 173.51-35.1 176.08-36.2 179.43-36.2L179.43-36.2Q182.38-36.2 184.83-35.65 187.28-35.1 189.28-34.2L189.28-34.2 187.88-30.35Q186.03-31.15 183.86-31.7 181.68-32.25 179.33-32.25L179.33-32.25Q175.98-32.25 174.28-30.83 172.58-29.4 172.58-27.05L172.58-27.05Q172.58-25.25 173.33-24.05 174.08-22.85 175.78-21.9 177.48-20.95 180.38-19.85L180.38-19.85Q183.53-18.7 185.71-17.38 187.88-16.05 189.01-14.2 190.13-12.35 190.13-9.55ZM220.03-13.45L220.03-13.45Q220.03-6.8 216.65-3.15 213.28 0.5 207.53 0.5L207.53 0.5Q203.98 0.5 201.2-1.13 198.43-2.75 196.83-5.88 195.23-9 195.23-13.45L195.23-13.45Q195.23-20.1 198.58-23.7 201.93-27.3 207.68-27.3L207.68-27.3Q211.33-27.3 214.1-25.68 216.88-24.05 218.45-20.98 220.03-17.9 220.03-13.45ZM199.78-13.45L199.78-13.45Q199.78-8.7 201.65-5.93 203.53-3.15 207.63-3.15L207.63-3.15Q211.68-3.15 213.58-5.93 215.48-8.7 215.48-13.45L215.48-13.45Q215.48-18.2 213.58-20.9 211.68-23.6 207.58-23.6L207.58-23.6Q203.48-23.6 201.63-20.9 199.78-18.2 199.78-13.45ZM231.38-38L231.38 0 226.98 0 226.98-38 231.38-38ZM257.87-26.8L262.27-26.8 262.27 0 258.67 0 258.02-3.55 257.82-3.55Q256.52-1.45 254.22-0.48 251.92 0.5 249.32 0.5L249.32 0.5Q244.47 0.5 242.02-1.83 239.57-4.15 239.57-9.25L239.57-9.25 239.57-26.8 244.02-26.8 244.02-9.55Q244.02-3.15 249.97-3.15L249.97-3.15Q254.42-3.15 256.15-5.65 257.87-8.15 257.87-12.85L257.87-12.85 257.87-26.8ZM279.72-3.1L279.72-3.1Q280.72-3.1 281.77-3.28 282.82-3.45 283.47-3.65L283.47-3.65 283.47-0.3Q282.77 0.05 281.47 0.28 280.17 0.5 278.97 0.5L278.97 0.5Q276.87 0.5 275.1-0.23 273.32-0.95 272.22-2.75 271.12-4.55 271.12-7.8L271.12-7.8 271.12-23.4 267.32-23.4 267.32-25.5 271.17-27.25 272.92-32.95 275.52-32.95 275.52-26.8 283.27-26.8 283.27-23.4 275.52-23.4 275.52-7.9Q275.52-5.45 276.7-4.28 277.87-3.1 279.72-3.1ZM291.07-36.85L291.07-36.85Q292.07-36.85 292.84-36.18 293.62-35.5 293.62-34.05L293.62-34.05Q293.62-32.65 292.84-31.95 292.07-31.25 291.07-31.25L291.07-31.25Q289.97-31.25 289.22-31.95 288.47-32.65 288.47-34.05L288.47-34.05Q288.47-35.5 289.22-36.18 289.97-36.85 291.07-36.85ZM288.82-26.8L293.22-26.8 293.22 0 288.82 0 288.82-26.8ZM325.02-13.45L325.02-13.45Q325.02-6.8 321.64-3.15 318.27 0.5 312.52 0.5L312.52 0.5Q308.97 0.5 306.19-1.13 303.42-2.75 301.82-5.88 300.22-9 300.22-13.45L300.22-13.45Q300.22-20.1 303.57-23.7 306.92-27.3 312.67-27.3L312.67-27.3Q316.32-27.3 319.09-25.68 321.87-24.05 323.44-20.98 325.02-17.9 325.02-13.45ZM304.77-13.45L304.77-13.45Q304.77-8.7 306.64-5.93 308.52-3.15 312.62-3.15L312.62-3.15Q316.67-3.15 318.57-5.93 320.47-8.7 320.47-13.45L320.47-13.45Q320.47-18.2 318.57-20.9 316.67-23.6 312.57-23.6L312.57-23.6Q308.47-23.6 306.62-20.9 304.77-18.2 304.77-13.45ZM344.86-27.3L344.86-27.3Q349.66-27.3 352.11-24.98 354.56-22.65 354.56-17.45L354.56-17.45 354.56 0 350.21 0 350.21-17.15Q350.21-23.6 344.21-23.6L344.21-23.6Q339.76-23.6 338.06-21.1 336.36-18.6 336.36-13.9L336.36-13.9 336.36 0 331.96 0 331.96-26.8 335.51-26.8 336.16-23.15 336.41-23.15Q337.71-25.25 340.01-26.28 342.31-27.3 344.86-27.3ZM380.31-7.4L380.31-7.4Q380.31-3.5 377.41-1.5 374.51 0.5 369.61 0.5L369.61 0.5Q366.81 0.5 364.79 0.05 362.76-0.4 361.21-1.2L361.21-1.2 361.21-5.2Q362.81-4.4 365.09-3.73 367.36-3.05 369.71-3.05L369.71-3.05Q373.06-3.05 374.56-4.13 376.06-5.2 376.06-7L376.06-7Q376.06-8 375.51-8.8 374.96-9.6 373.54-10.4 372.11-11.2 369.46-12.2L369.46-12.2Q366.86-13.2 365.01-14.2 363.16-15.2 362.16-16.6 361.16-18 361.16-20.2L361.16-20.2Q361.16-23.6 363.94-25.45 366.71-27.3 371.21-27.3L371.21-27.3Q373.66-27.3 375.79-26.83 377.91-26.35 379.76-25.5L379.76-25.5 378.26-22Q376.56-22.7 374.71-23.2 372.86-23.7 370.91-23.7L370.91-23.7Q368.21-23.7 366.79-22.83 365.36-21.95 365.36-20.45L365.36-20.45Q365.36-19.35 366.01-18.57 366.66-17.8 368.19-17.07 369.71-16.35 372.26-15.35L372.26-15.35Q374.81-14.4 376.61-13.4 378.41-12.4 379.36-10.98 380.31-9.55 380.31-7.4ZM409.66-11.45L397.56-11.45 397.56-15.35 409.66-15.35 409.66-11.45ZM439.55-2.6L439.55 0 426.65 0 426.65-2.6 430.85-3.55 430.85-32.1 426.65-33.1 426.65-35.7 439.55-35.7 439.55-33.1 435.35-32.1 435.35-3.55 439.55-2.6ZM458.75-27.3L458.75-27.3Q463.55-27.3 466-24.98 468.45-22.65 468.45-17.45L468.45-17.45 468.45 0 464.1 0 464.1-17.15Q464.1-23.6 458.1-23.6L458.1-23.6Q453.65-23.6 451.95-21.1 450.25-18.6 450.25-13.9L450.25-13.9 450.25 0 445.85 0 445.85-26.8 449.4-26.8 450.05-23.15 450.3-23.15Q451.6-25.25 453.9-26.28 456.2-27.3 458.75-27.3ZM485.29 9.5L485.29 9.5Q484.09 9.5 483.19 9.33 482.29 9.15 481.59 8.85L481.59 8.85 481.59 5.05Q482.39 5.25 483.29 5.4 484.19 5.55 485.19 5.55L485.19 5.55Q486.44 5.55 487.57 5.05 488.69 4.55 489.39 3.3 490.09 2.05 490.09-0.2L490.09-0.2 490.09-35.7 494.59-35.7 494.59-0.55Q494.59 4.6 492.04 7.05 489.49 9.5 485.29 9.5ZM521.39-26.8L525.79-26.8 525.79 0 522.19 0 521.54-3.55 521.34-3.55Q520.04-1.45 517.74-0.48 515.44 0.5 512.84 0.5L512.84 0.5Q507.99 0.5 505.54-1.83 503.09-4.15 503.09-9.25L503.09-9.25 503.09-26.8 507.54-26.8 507.54-9.55Q507.54-3.15 513.49-3.15L513.49-3.15Q517.94-3.15 519.66-5.65 521.39-8.15 521.39-12.85L521.39-12.85 521.39-26.8ZM551.74-7.4L551.74-7.4Q551.74-3.5 548.84-1.5 545.94 0.5 541.04 0.5L541.04 0.5Q538.24 0.5 536.21 0.05 534.19-0.4 532.64-1.2L532.64-1.2 532.64-5.2Q534.24-4.4 536.51-3.73 538.79-3.05 541.14-3.05L541.14-3.05Q544.49-3.05 545.99-4.13 547.49-5.2 547.49-7L547.49-7Q547.49-8 546.94-8.8 546.39-9.6 544.96-10.4 543.54-11.2 540.89-12.2L540.89-12.2Q538.29-13.2 536.44-14.2 534.59-15.2 533.59-16.6 532.59-18 532.59-20.2L532.59-20.2Q532.59-23.6 535.36-25.45 538.14-27.3 542.64-27.3L542.64-27.3Q545.09-27.3 547.21-26.83 549.34-26.35 551.19-25.5L551.19-25.5 549.69-22Q547.99-22.7 546.14-23.2 544.29-23.7 542.34-23.7L542.34-23.7Q539.64-23.7 538.21-22.83 536.79-21.95 536.79-20.45L536.79-20.45Q536.79-19.35 537.44-18.57 538.09-17.8 539.61-17.07 541.14-16.35 543.69-15.35L543.69-15.35Q546.24-14.4 548.04-13.4 549.84-12.4 550.79-10.98 551.74-9.55 551.74-7.4ZM567.18-3.1L567.18-3.1Q568.18-3.1 569.23-3.28 570.28-3.45 570.93-3.65L570.93-3.65 570.93-0.3Q570.23 0.05 568.93 0.28 567.63 0.5 566.43 0.5L566.43 0.5Q564.33 0.5 562.56-0.23 560.78-0.95 559.68-2.75 558.58-4.55 558.58-7.8L558.58-7.8 558.58-23.4 554.78-23.4 554.78-25.5 558.63-27.25 560.38-32.95 562.98-32.95 562.98-26.8 570.73-26.8 570.73-23.4 562.98-23.4 562.98-7.9Q562.98-5.45 564.16-4.28 565.33-3.1 567.18-3.1ZM621.03-17.9L621.03-17.9Q621.03-12.35 619.15-8.22 617.28-4.1 613.63-1.8 609.98 0.5 604.58 0.5L604.58 0.5Q599.03 0.5 595.35-1.8 591.68-4.1 589.88-8.25 588.08-12.4 588.08-17.95L588.08-17.95Q588.08-23.45 589.88-27.55 591.68-31.65 595.35-33.95 599.03-36.25 604.63-36.25L604.63-36.25Q609.98-36.25 613.63-33.98 617.28-31.7 619.15-27.58 621.03-23.45 621.03-17.9ZM592.83-17.9L592.83-17.9Q592.83-11.15 595.68-7.28 598.53-3.4 604.58-3.4L604.58-3.4Q610.68-3.4 613.48-7.28 616.28-11.15 616.28-17.9L616.28-17.9Q616.28-24.65 613.48-28.48 610.68-32.3 604.63-32.3L604.63-32.3Q598.58-32.3 595.7-28.48 592.83-24.65 592.83-17.9ZM641.23-27.3L641.23-27.3Q646.03-27.3 648.48-24.98 650.93-22.65 650.93-17.45L650.93-17.45 650.93 0 646.58 0 646.58-17.15Q646.58-23.6 640.58-23.6L640.58-23.6Q636.13-23.6 634.43-21.1 632.73-18.6 632.73-13.9L632.73-13.9 632.73 0 628.33 0 628.33-26.8 631.88-26.8 632.53-23.15 632.78-23.15Q634.08-25.25 636.38-26.28 638.68-27.3 641.23-27.3ZM669.57-27.3L669.57-27.3Q673.02-27.3 675.5-25.8 677.97-24.3 679.3-21.58 680.62-18.85 680.62-15.2L680.62-15.2 680.62-12.55 662.27-12.55Q662.37-8 664.6-5.63 666.82-3.25 670.82-3.25L670.82-3.25Q673.37-3.25 675.35-3.73 677.32-4.2 679.42-5.1L679.42-5.1 679.42-1.25Q677.37-0.35 675.37 0.08 673.37 0.5 670.62 0.5L670.62 0.5Q666.82 0.5 663.9-1.05 660.97-2.6 659.35-5.68 657.72-8.75 657.72-13.2L657.72-13.2Q657.72-17.6 659.2-20.75 660.67-23.9 663.35-25.6 666.02-27.3 669.57-27.3ZM669.52-23.7L669.52-23.7Q666.37-23.7 664.55-21.68 662.72-19.65 662.37-16.05L662.37-16.05 676.02-16.05Q675.97-19.45 674.42-21.58 672.87-23.7 669.52-23.7ZM716.32-32.25L716.32-32.25Q710.57-32.25 707.27-28.4 703.97-24.55 703.97-17.85L703.97-17.85Q703.97-11.2 707.04-7.33 710.12-3.45 716.27-3.45L716.27-3.45Q718.62-3.45 720.72-3.85 722.82-4.25 724.82-4.85L724.82-4.85 724.82-0.95Q722.82-0.2 720.69 0.15 718.57 0.5 715.62 0.5L715.62 0.5Q710.17 0.5 706.52-1.75 702.87-4 701.04-8.15 699.22-12.3 699.22-17.9L699.22-17.9Q699.22-23.3 701.19-27.43 703.17-31.55 707.02-33.88 710.87-36.2 716.37-36.2L716.37-36.2Q722.02-36.2 726.22-34.1L726.22-34.1 724.42-30.3Q722.77-31.05 720.74-31.65 718.72-32.25 716.32-32.25ZM736.42-38L736.42 0 732.02 0 732.02-38 736.42-38ZM747.16-36.85L747.16-36.85Q748.16-36.85 748.94-36.18 749.71-35.5 749.71-34.05L749.71-34.05Q749.71-32.65 748.94-31.95 748.16-31.25 747.16-31.25L747.16-31.25Q746.06-31.25 745.31-31.95 744.56-32.65 744.56-34.05L744.56-34.05Q744.56-35.5 745.31-36.18 746.06-36.85 747.16-36.85ZM744.91-26.8L749.31-26.8 749.31 0 744.91 0 744.91-26.8ZM768.56 0.5L768.56 0.5Q765.01 0.5 762.24-0.95 759.46-2.4 757.89-5.45 756.31-8.5 756.31-13.25L756.31-13.25Q756.31-18.2 757.96-21.3 759.61-24.4 762.44-25.85 765.26-27.3 768.86-27.3L768.86-27.3Q770.91-27.3 772.81-26.88 774.71-26.45 775.91-25.85L775.91-25.85 774.56-22.2Q773.36-22.65 771.76-23.05 770.16-23.45 768.76-23.45L768.76-23.45Q760.86-23.45 760.86-13.3L760.86-13.3Q760.86-8.45 762.79-5.88 764.71-3.3 768.51-3.3L768.51-3.3Q770.71-3.3 772.39-3.75 774.06-4.2 775.46-4.85L775.46-4.85 775.46-0.95Q774.11-0.25 772.49 0.13 770.86 0.5 768.56 0.5ZM786.16-38L786.16-18.15Q786.16-17.35 786.08-16.05 786.01-14.75 785.96-13.8L785.96-13.8 786.16-13.8Q786.46-14.2 787.06-14.95 787.66-15.7 788.28-16.48 788.91-17.25 789.36-17.75L789.36-17.75 797.91-26.8 803.06-26.8 792.21-15.35 803.81 0 798.51 0 789.21-12.5 786.16-9.85 786.16 0 781.81 0 781.81-38 786.16-38Z" opacity="1" transform="matrix(1,0,0,1,0,0)" fill="#374151" class="slogan-text-1" data-fill-palette-color="secondary" id="text-1"></path></svg></g></svg></g></svg></g></svg></g><g><svg viewBox="0 0 244.43135999999998 259.3017346468563" height="259.3017346468563" width="244.43135999999998"><g><svg xmlns="http://www.w3.org/2000/svg" xmlns:xlink="http://www.w3.org/1999/xlink" version="1.1" x="0" y="0" viewBox="2.8668190289675386 0 94.2652236140617 100" enable-background="new 0 0 100 100" xml:space="preserve" height="259.3017346468563" width="244.43135999999998" class="icon-icon-0" data-fill-palette-color="accent" id="icon-0"><path d="M78.234 70.829C83.191 70.608 88.654 69.819 91.297 65.014 92.286 63.896 97.409 55.826 96.98 54.68 98.94 51.12 81.332 54.701 79.712 54.964 84.041 50.124 83.712 40.96 84.506 34.929 85.777 25.263 84.476 24.667 93.871 21.983 103.053 19.36 90.053 15.595 87.075 14.689 83.233 13.52 77.384 2.662 76.187 2.662 74.061 2.662 78.588 10.306 76.463 10.306 72.2 10.306 72.277 1.127 69.532 1.127 68.034 1.127 69.919 5.484 69.919 6.054 69.921 9.061 63.039 0 63.395 0 59.605 0 67.607 8.973 68.398 9.425L78.235 15.047 69.93 15.559C71.594 17.873 73.85 19.068 76.701 19.141 73.43 30.358 71.662 40.08 59.109 43.877 49.815 46.689 38.73 48.377 30.283 53.325 23.814 57.113 25.523 59.079 25.523 65.2 25.523 73.43 19.013 74.041 14.775 79.018 12.046 82.224 10.409 87.373 8.453 91.118 6.281 95.27 2.05 93.273 3.005 100 13.008 96.708 15.712 85.056 26.187 81.465 32.158 79.418 37.358 76.61 40.48 70.802 43.893 64.457 64.877 64.453 73.064 61.084L73.628 63.152C79.257 61.616 84.887 60.081 90.517 58.547 87.757 66.492 80.3 63.194 78.234 70.829" fill="#374151" data-fill-palette-color="accent"></path></svg></g></svg></g></svg></g><defs></defs></svg><rect width="395.52" height="150.60476699695906" fill="none" stroke="none" visibility="hidden"></rect></g></svg></g></svg>