<svg xmlns="http://www.w3.org/2000/svg" version="1.1" xmlns:xlink="http://www.w3.org/1999/xlink"  width="1500" height="412" viewBox="0 0 1500 412"><g transform="matrix(1,0,0,1,-0.9090909090909918,-1.3698082559386648)"><svg viewBox="0 0 396 109" data-background-color="#ffffff" preserveAspectRatio="xMidYMid meet" height="412" width="1500" xmlns="http://www.w3.org/2000/svg" xmlns:xlink="http://www.w3.org/1999/xlink"><g id="tight-bounds" transform="matrix(1,0,0,1,0.2400000000000091,0.3624007279061061)"><svg viewBox="0 0 395.52 108.27519854418776" height="108.27519854418776" width="395.52"><g><svg viewBox="0 0 395.52 108.27519854418776" height="108.27519854418776" width="395.52"><g><svg viewBox="0 0 395.52 108.27519854418776" height="108.27519854418776" width="395.52"><g id="textblocktransform"><svg viewBox="0 0 395.52 108.27519854418776" height="108.27519854418776" width="395.52" id="textblock"><g><rect width="395.52" height="84.95314718429404" fill="none" stroke-width="9.018103199999999" stroke="#000000" data-fill-palette-color="none" data-stroke-palette-color="tertiary"></rect><rect width="395.52" height="23.32205135989372" y="84.95314718429404" fill="#000000" data-fill-palette-color="tertiary"></rect></g><g><svg viewBox="0 0 395.52 84.95314718429404" height="84.95314718429404" width="395.52"><g transform="matrix(1,0,0,1,23.607599999999998,23.607599999999998)"><svg width="348.3048" viewBox="1.98 -35.35 329.87 35.84" height="37.73794718429404" data-palette-color="#000000"><g className="wordmark-text-0" data-fill-palette-color="primary" id="text-0"><path d="M7.42 0L7.42 0 2.42 0Q2.03 0 2.03-0.34L2.03-0.34 1.98-34.4Q1.98-34.79 2.37-34.79L2.37-34.79 6.88-34.79 15.33-15.09 15.09-34.4Q15.09-34.79 15.53-34.79L15.53-34.79 20.48-34.79Q20.78-34.79 20.78-34.4L20.78-34.4 20.83-0.29Q20.83 0 20.58 0L20.58 0 16.19 0 7.52-18.41 7.89-0.39Q7.89 0 7.42 0ZM34.42 0.49L34.42 0.49Q31.76 0.49 29.51-0.88L29.51-0.88Q27.29-2.25 25.94-4.53 24.58-6.81 24.58-9.55L24.58-9.55 24.63-25.39Q24.63-28.17 25.97-30.4L25.97-30.4Q27.29-32.64 29.54-34 31.78-35.35 34.42-35.35L34.42-35.35Q37.16-35.35 39.33-34.01L39.33-34.01Q41.53-32.67 42.86-30.41 44.19-28.15 44.19-25.39L44.19-25.39 44.24-9.55Q44.24-6.81 42.92-4.54L42.92-4.54Q41.57-2.25 39.35-0.88 37.13 0.49 34.42 0.49ZM34.42-5.54L34.42-5.54Q35.94-5.54 37.06-6.77 38.18-8.01 38.18-9.55L38.18-9.55 38.13-25.39Q38.13-27.05 37.08-28.2 36.03-29.35 34.42-29.35L34.42-29.35Q32.88-29.35 31.78-28.22 30.69-27.1 30.69-25.39L30.69-25.39 30.69-9.55Q30.69-7.91 31.78-6.73 32.88-5.54 34.42-5.54ZM53.85 0L53.85 0 48.19 0Q47.99 0 47.99-0.24L47.99-0.24 48.09-34.59Q48.09-34.79 48.29-34.79L48.29-34.79 58.39-34.79Q61.1-34.79 63.37-33.47L63.37-33.47Q65.64-32.15 67-29.93 68.35-27.71 68.35-24.9L68.35-24.9Q68.35-23.07 67.79-21.58L67.79-21.58Q67.23-20.09 66.49-19.07 65.74-18.04 65.13-17.55L65.13-17.55Q67.84-14.55 67.84-10.5L67.84-10.5 67.89-0.24Q67.89 0 67.65 0L67.65 0 61.98 0Q61.79 0 61.79-0.15L61.79-0.15 61.79-10.5Q61.79-12.3 60.52-13.62 59.25-14.94 57.39-14.94L57.39-14.94 54.1-14.94 54.05-0.24Q54.05 0 53.85 0ZM58.39-28.81L58.39-28.81 54.1-28.81 54.1-20.95 58.39-20.95Q59.93-20.95 61.14-22.09 62.35-23.24 62.35-24.9L62.35-24.9Q62.35-26.49 61.18-27.65 60-28.81 58.39-28.81ZM82.76 0L82.76 0 77.12 0Q76.9 0 76.9-0.24L76.9-0.24 76.9-28.76 70.4-28.76Q70.16-28.76 70.16-29L70.16-29 70.21-34.59Q70.21-34.79 70.4-34.79L70.4-34.79 89.4-34.79Q89.67-34.79 89.67-34.59L89.67-34.59 89.67-29Q89.67-28.76 89.47-28.76L89.47-28.76 82.9-28.76 82.95-0.24Q82.95 0 82.76 0ZM97.94 0L97.94 0 92.28 0Q92.08 0 92.08-0.24L92.08-0.24 92.13-34.59Q92.13-34.79 92.37-34.79L92.37-34.79 97.94-34.79Q98.18-34.79 98.18-34.59L98.18-34.59 98.13-21 105.63-21 105.63-34.59Q105.63-34.79 105.82-34.79L105.82-34.79 111.39-34.79Q111.64-34.79 111.64-34.59L111.64-34.59 111.73-0.24Q111.73 0 111.49 0L111.49 0 105.87 0Q105.63 0 105.63-0.24L105.63-0.24 105.63-14.94 98.13-14.94 98.13-0.24Q98.13 0 97.94 0ZM132.17 0L132.17 0 116 0Q115.81 0 115.81-0.24L115.81-0.24 115.86-34.59Q115.86-34.79 116.05-34.79L116.05-34.79 132.12-34.79Q132.31-34.79 132.31-34.55L132.31-34.55 132.31-28.96Q132.31-28.76 132.12-28.76L132.12-28.76 121.86-28.76 121.86-20.95 132.12-20.95Q132.31-20.95 132.31-20.75L132.31-20.75 132.36-15.09Q132.36-14.89 132.17-14.89L132.17-14.89 121.86-14.89 121.86-6.15 132.17-6.15Q132.36-6.15 132.36-5.91L132.36-5.91 132.36-0.2Q132.36 0 132.17 0ZM142.66 0L142.66 0 137 0Q136.8 0 136.8-0.24L136.8-0.24 136.9-34.59Q136.9-34.79 137.09-34.79L137.09-34.79 147.2-34.79Q149.91-34.79 152.18-33.47L152.18-33.47Q154.45-32.15 155.81-29.93 157.16-27.71 157.16-24.9L157.16-24.9Q157.16-23.07 156.6-21.58L156.6-21.58Q156.04-20.09 155.3-19.07 154.55-18.04 153.94-17.55L153.94-17.55Q156.65-14.55 156.65-10.5L156.65-10.5 156.7-0.24Q156.7 0 156.45 0L156.45 0 150.79 0Q150.6 0 150.6-0.15L150.6-0.15 150.6-10.5Q150.6-12.3 149.33-13.62 148.06-14.94 146.2-14.94L146.2-14.94 142.9-14.94 142.86-0.24Q142.86 0 142.66 0ZM147.2-28.81L147.2-28.81 142.9-28.81 142.9-20.95 147.2-20.95Q148.74-20.95 149.95-22.09 151.16-23.24 151.16-24.9L151.16-24.9Q151.16-26.49 149.99-27.65 148.81-28.81 147.2-28.81ZM166.34 0L166.34 0 161.34 0Q160.94 0 160.94-0.34L160.94-0.34 160.9-34.4Q160.9-34.79 161.29-34.79L161.29-34.79 165.8-34.79 174.25-15.09 174.01-34.4Q174.01-34.79 174.45-34.79L174.45-34.79 179.4-34.79Q179.69-34.79 179.69-34.4L179.69-34.4 179.74-0.29Q179.74 0 179.5 0L179.5 0 175.1 0 166.44-18.41 166.8-0.39Q166.8 0 166.34 0Z" fill="#000000" data-fill-palette-color="primary"></path><path d="M205.37 0L205.37 0 199.73 0Q199.51 0 199.51-0.24L199.51-0.24 199.51-28.76 193.02-28.76Q192.77-28.76 192.77-29L192.77-29 192.82-34.59Q192.82-34.79 193.02-34.79L193.02-34.79 212.01-34.79Q212.28-34.79 212.28-34.59L212.28-34.59 212.28-29Q212.28-28.76 212.09-28.76L212.09-28.76 205.52-28.76 205.57-0.24Q205.57 0 205.37 0ZM231.05 0L231.05 0 214.89 0Q214.7 0 214.7-0.24L214.7-0.24 214.74-34.59Q214.74-34.79 214.94-34.79L214.94-34.79 231-34.79Q231.2-34.79 231.2-34.55L231.2-34.55 231.2-28.96Q231.2-28.76 231-28.76L231-28.76 220.75-28.76 220.75-20.95 231-20.95Q231.2-20.95 231.2-20.75L231.2-20.75 231.25-15.09Q231.25-14.89 231.05-14.89L231.05-14.89 220.75-14.89 220.75-6.15 231.05-6.15Q231.25-6.15 231.25-5.91L231.25-5.91 231.25-0.2Q231.25 0 231.05 0ZM244.89 0.49L244.89 0.49Q242.18 0.49 239.94-0.88L239.94-0.88Q237.72-2.25 236.41-4.55 235.1-6.86 235.1-9.69L235.1-9.69 235.15-25.29Q235.15-28.08 236.42-30.32L236.42-30.32Q237.69-32.59 239.93-33.97 242.16-35.35 244.89-35.35L244.89-35.35Q247.68-35.35 249.85-34.01L249.85-34.01Q252.05-32.67 253.35-30.38 254.66-28.1 254.66-25.29L254.66-25.29 254.66-23Q254.66-22.8 254.46-22.8L254.46-22.8 248.85-22.8Q248.65-22.8 248.65-23L248.65-23 248.65-25.29Q248.65-26.95 247.58-28.15 246.5-29.35 244.89-29.35L244.89-29.35Q243.11-29.35 242.16-28.13 241.21-26.9 241.21-25.29L241.21-25.29 241.21-9.69Q241.21-7.86 242.28-6.7 243.36-5.54 244.89-5.54L244.89-5.54Q246.5-5.54 247.58-6.82 248.65-8.11 248.65-9.69L248.65-9.69 248.65-12.01Q248.65-12.21 248.85-12.21L248.85-12.21 254.51-12.21Q254.71-12.21 254.71-12.01L254.71-12.01 254.71-9.69Q254.71-6.88 253.39-4.57L253.39-4.57Q252.05-2.27 249.85-0.89 247.65 0.49 244.89 0.49ZM264.18 0L264.18 0 258.51 0Q258.32 0 258.32-0.24L258.32-0.24 258.37-34.59Q258.37-34.79 258.61-34.79L258.61-34.79 264.18-34.79Q264.42-34.79 264.42-34.59L264.42-34.59 264.37-21 271.87-21 271.87-34.59Q271.87-34.79 272.06-34.79L272.06-34.79 277.63-34.79Q277.87-34.79 277.87-34.59L277.87-34.59 277.97-0.24Q277.97 0 277.73 0L277.73 0 272.11 0Q271.87 0 271.87-0.24L271.87-0.24 271.87-14.94 264.37-14.94 264.37-0.24Q264.37 0 264.18 0ZM287.96 0L287.96 0 282.29 0Q282.05 0 282.05-0.24L282.05-0.24 282.1-34.59Q282.1-34.79 282.29-34.79L282.29-34.79 287.91-34.79Q288.1-34.79 288.1-34.59L288.1-34.59 288.15-0.24Q288.15 0 287.96 0ZM308.9 0L308.9 0 292.74 0Q292.54 0 292.54-0.24L292.54-0.24 292.59-34.59Q292.59-34.79 292.79-34.79L292.79-34.79 308.85-34.79Q309.05-34.79 309.05-34.55L309.05-34.55 309.05-28.96Q309.05-28.76 308.85-28.76L308.85-28.76 298.6-28.76 298.6-20.95 308.85-20.95Q309.05-20.95 309.05-20.75L309.05-20.75 309.1-15.09Q309.1-14.89 308.9-14.89L308.9-14.89 298.6-14.89 298.6-6.15 308.9-6.15Q309.1-6.15 309.1-5.91L309.1-5.91 309.1-0.2Q309.1 0 308.9 0ZM322.03 0.49L322.03 0.49Q319.37 0.49 317.12-0.88L317.12-0.88Q314.9-2.25 313.57-4.53 312.24-6.81 312.24-9.55L312.24-9.55 312.24-11.84Q312.24-12.11 312.49-12.11L312.49-12.11 318.1-12.11Q318.3-12.11 318.3-11.84L318.3-11.84 318.3-9.55Q318.3-7.91 319.4-6.73 320.49-5.54 322.03-5.54L322.03-5.54Q323.59-5.54 324.69-6.75 325.79-7.96 325.79-9.55L325.79-9.55Q325.79-11.38 323.4-12.74L323.4-12.74Q323.01-12.99 322.39-13.34 321.76-13.7 320.91-14.16L320.91-14.16Q320.05-14.62 319.25-15.08 318.44-15.53 317.69-15.94L317.69-15.94Q314.95-17.55 313.62-19.98 312.29-22.41 312.29-25.44L312.29-25.44Q312.29-28.22 313.66-30.47L313.66-30.47Q315.03-32.69 317.23-34 319.44-35.3 322.03-35.3L322.03-35.3Q324.69-35.3 326.91-33.98L326.91-33.98Q329.14-32.64 330.47-30.42 331.8-28.2 331.8-25.44L331.8-25.44 331.8-21.34Q331.8-21.14 331.6-21.14L331.6-21.14 325.99-21.14Q325.79-21.14 325.79-21.34L325.79-21.34 325.74-25.44Q325.74-27.2 324.64-28.3 323.55-29.39 322.03-29.39L322.03-29.39Q320.49-29.39 319.4-28.22 318.3-27.05 318.3-25.44L318.3-25.44Q318.3-23.8 318.99-22.71 319.69-21.61 321.54-20.61L321.54-20.61Q321.74-20.51 322.45-20.12 323.16-19.73 324.02-19.25 324.89-18.77 325.6-18.4 326.3-18.02 326.45-17.94L326.45-17.94Q328.94-16.55 330.39-14.53 331.85-12.5 331.85-9.55L331.85-9.55Q331.85-6.69 330.53-4.42L330.53-4.42Q329.19-2.15 326.96-0.83 324.74 0.49 322.03 0.49Z" fill="#0191da" data-fill-palette-color="accent"></path></g></svg></g></svg></g></svg></g></svg></g><g></g></svg></g><defs></defs></svg><rect width="395.52" height="108.27519854418776" fill="none" stroke="none" visibility="hidden"></rect></g></svg></g></svg>