<svg transform="scale(1)" id="Layer_24" xmlns="http://www.w3.org/2000/svg" xmlns:xlink="http://www.w3.org/1999/xlink" viewBox="0 0 500 500" class="show_show__wrapper__graphic__5Waiy "><title>React</title><defs><style>.cls-1,.cls-2,.cls-3,.cls-4,.cls-5,.cls-6,.cls-7,.cls-8,.cls-9,.cls-10,.cls-11{stroke-width:0px;}.cls-1,.cls-9{fill:#24a3ff;}.cls-2{fill:url(#linear-gradient);}.cls-12{opacity:.5;}.cls-3{fill:#fcb8a8;}.cls-4{fill:url(#linear-gradient-4);}.cls-5{fill:url(#linear-gradient-2);}.cls-6{fill:url(#linear-gradient-3);}.cls-7{fill:url(#linear-gradient-5);}.cls-8{fill:url(#linear-gradient-6);}.cls-9{isolation:isolate;opacity:.18;}.cls-10{fill:#fff;}.cls-11{fill:#231f20;}</style><linearGradient id="linear-gradient" x1="128.3" y1="270.99" x2="327.84" y2="501.1" gradientUnits="userSpaceOnUse"><stop offset="0" stop-color="#000"></stop><stop offset=".2" stop-color="#000" stop-opacity=".69"></stop><stop offset=".32" stop-color="rgba(0,0,0,.32)" stop-opacity=".32"></stop><stop offset="1" stop-color="#000" stop-opacity="0"></stop></linearGradient><linearGradient id="linear-gradient-2" x1="239.5" y1="473.84" x2="238.59" y2="110.42" xlink:href="#linear-gradient"></linearGradient><linearGradient id="linear-gradient-3" x1="185.36" y1="224.74" x2="264.59" y2="320.18" xlink:href="#linear-gradient"></linearGradient><linearGradient id="linear-gradient-4" x1="262.25" y1="286.13" x2="577.95" y2="255.84" xlink:href="#linear-gradient"></linearGradient><linearGradient id="linear-gradient-5" x1="223.07" y1="175.22" x2="172.9" y2="116.79" xlink:href="#linear-gradient"></linearGradient><linearGradient id="linear-gradient-6" x1="299.29" y1="208.17" x2="145.52" y2="170.23" xlink:href="#linear-gradient"></linearGradient></defs><path class="cls-9" d="M483.26,324.24c-3.42,12.8-8.29,25.16-14.88,36.66-13.71,23.89-35.27,43.8-61.35,52.65-38.09,12.92-80.55,1.47-119.72,10.6-42.77,9.97-78.38,43.69-122.12,47.53-17.9,1.57-35.81-2.06-53.39-5.76-11.21-2.36-22.67-4.85-32.37-10.93-9.38-5.88-16.5-14.74-22.74-23.88-43.41-63.56-63.32-187.32,2.01-243.11,39.54-33.77,93.93-46.26,133.18-80.37,19.46-16.93,34.61-38.71,55.62-53.67,19.68-14.01,41.65-19.72,65.12-22.83,23.46-3.11,44.26-9.85,67.61.03,20.64,8.73,37.02,26.97,43.51,48.42,5.56,18.37,4.1,38.33,9.88,56.63,7.98,25.24,28.62,44.29,40.99,67.7,12.51,23.67,16.15,51.2,14.96,77.94-.63,14.28-2.62,28.6-6.31,42.41Z"></path><rect class="cls-1" x="361.19" y="76.24" width="73.42" height="54.41" rx="10.64" ry="10.64"></rect><g id="megaphone"><path class="cls-1" d="M249.64,418.72c-16.4,2.12-32.8,4.23-49.2,6.35-2.88.38-6.19.61-8.39-1.23-.08-.07-.15-.13-.23-.21-1.39-1.33-1.92-3.29-2.37-5.15-5.46-22.56-8.77-45.58-11.25-68.64-1.14-10.63-3.55-23.57-4.35-36.52-1.11-18.03.91-36.09,13.82-48.02.75-.69,1.48-1.29,2.21-1.83,12.56-9.27,23.12,2.7,28.99,14.77,8.2,16.86,10.55,32.89,9.68,51.47-1.44,30.86,5.95,62.09,21.07,89.03Z"></path><path class="cls-2" d="M231.76,418.72c-13.23,1.71-26.47,3.42-39.7,5.12-.08-.07-.15-.13-.23-.21-1.39-1.33-1.92-3.29-2.37-5.15-5.46-22.56-8.77-45.58-11.25-68.64-1.14-10.63-3.55-23.57-4.35-36.52-1.11-18.03.91-36.09,13.82-48.02.75-.69,1.48-1.29,2.21-1.83,4.55,3.43,8.35,9.09,11.12,14.77,8.2,16.86,10.55,32.89,9.68,51.47-1.44,30.86,5.95,62.09,21.07,89.03Z"></path><path class="cls-11" d="M214.52,318.33c-1.47,3.76.21,10.21.33,14.26.17,5.78.94,11.55,2.31,17.18.48,1.95,1.03,3.9,2.04,5.64,5.06,8.74,16.62,5.59,24.09,2.23,4.07-1.84,7.26-5.23,9.8-8.91,2.19-3.17,4-6.67,4.7-10.46,1.34-7.29-2.38-10.66-6.2-16-3.04-4.25-6.89-7.46-11.84-9.27-4.51-1.65-9.54-2.06-14.25-1.05-3.05.66-7.04,1.83-9.35,4.02-.78.74-1.3,1.53-1.62,2.36Z"></path><path class="cls-1" d="M385.75,384.52c-80.65-50.33-195.31-62.77-248.85-62.96-44.89-.18-49.09-32.97-41.06-53.84,1.55-4.02,3.55-7.61,5.81-10.42,13.93-17.41,58.66-16.97,58.66-16.97,137.72-2.67,203.81-78.53,203.81-78.53l1.29,13.35,20.35,209.38Z"></path><path class="cls-5" d="M385.75,384.52c-80.65-50.33-195.31-62.77-248.85-62.96-44.89-.18-49.09-32.97-41.06-53.84,6.75,12.22,19.25,21.81,32.66,26.7,19.81,7.22,41.48,6.54,62.58,6.85,52.68.79,105.98,8.63,154.02,30.27-7.17-24.36-11.6-49.51-13.15-74.86-1.19-19.3-.62-39.24,6.82-57.09,4.46-10.68,12.24-21.01,23.45-23.87,1.09-.27,2.16-.47,3.2-.57l20.35,209.38Z"></path><path class="cls-6" d="M265.52,223.57c-5.79,6.08-14.41,8.57-20.94,13.85-5.54,4.48-9.32,10.77-14.37,15.8-4.09,4.07-9.01,7.29-14.37,9.41-4.4,1.74-9.14,2.77-13.07,5.41-7.15,4.8-10.03,13.72-12.87,21.85s-6.85,16.92-14.83,20.17c-2.38-2.53-2.87-6.38-2.16-9.78s2.44-6.48,4.07-9.55c3.52-6.62,6.64-13.45,9.35-20.44,3.8-9.8,7.18-20.48,15.34-27.11,4.42-3.59,9.81-5.58,15.12-7.44,5-1.76,9.99-4.6,15.04-6.02,4.58-1.29,9.95-.88,14.69-1.67,3.33-.56,6.64-1.23,9.93-2.01,2-.48,7.67-.97,9.08-2.45Z"></path><ellipse class="cls-11" cx="391.76" cy="271.86" rx="49.99" ry="118.84" transform="translate(-25.48 41) rotate(-5.8)"></ellipse><path class="cls-1" d="M340.92,235.82s34.15-1.01,57.38-1.7l7.46,73.41s-30.89,6.33-55.73,12.95c0,0-12.67-25.13-9.11-84.67h0Z"></path><g class="cls-12"><path class="cls-1" d="M340.92,235.82s34.15-1.01,57.38-1.7l7.46,73.41s-30.89,6.33-55.73,12.95c0,0-12.67-25.13-9.11-84.67h0Z"></path></g><path class="cls-4" d="M340.92,235.82s34.15-1.01,57.38-1.7l7.46,73.41s-30.89,6.33-55.73,12.95c0,0-12.67-25.13-9.11-84.67h0Z"></path><ellipse class="cls-1" cx="402.03" cy="270.81" rx="15.52" ry="36.9" transform="translate(-25.32 42.03) rotate(-5.8)"></ellipse></g><path class="cls-3" d="M190.1,139.32c-2.15.06-4.3.11-6.45.17-.33,0-4.72.01-4.7-.03,2.02-3.83,4.75-7.29,8-10.16.62-.55,1.27-1.08,2.04-1.37.81-.3,1.7-.32,2.55-.43,3.71-.48,6.92-2.74,9.95-4.92.37-.27.79-.63.72-1.08-.08-.58-.84-.74-1.42-.76-.55-.02-2.01.21-2.47-.06-.57-.34-.39-1.28-.25-1.81.78-3.04,2.21-5.91,4.15-8.37.47-.6,1-1.22,1.08-1.98-1.34-.34-2.86.13-3.75,1.18.43-.78.93-1.51,1.51-2.18-.47-.66-1.42-.81-2.19-.56s-1.39.8-1.99,1.35c.3-.36.55-.99.13-1.2-.13-.06-.28-.05-.42-.02-1.13.22-1.93,1.19-2.64,2.09.08-.31-.16-.66-.48-.7-.49-.07-1.36,1.29-1.66,1.65-.7.85-1.28,1.79-1.79,2.76-.86,1.62-1.59,3.36-2.85,4.7-.99,1.06-2.26,1.82-3.47,2.62-1.86,1.24-3.61,2.64-5.35,4.06-5.32,4.34-10.5,8.86-15.52,13.54-3.52,3.29-2.32,11.84.82,15.1,2.75,2.85,7.1,3.26,11.06,3.36,7.42.17,14.85-.17,21.72-1.08.98-3.91.91-8.08-.2-11.96-.31-1.07-.73-2.17-1.57-2.9-1.22-1.04-2.98-1.05-4.57-1.01Z"></path><path class="cls-1" d="M189.05,136.92c-.89.09-1.88.25-2.4.97-.29.39-.38.89-.46,1.37-1.19,6.92-1.63,13.98-1.31,20.99,6.41-.59,12.85-1.18,19.06-2.84,2.59-.69,5.2-1.6,7.3-3.27,2.88-2.28,4.44-5.76,4.98-9.33.37-2.45.96-7.13-1.55-8.7-2.74-1.71-9.05-.35-12.16-.21-4.49.21-8.98.55-13.46,1.02Z"></path><path class="cls-7" d="M189.05,136.92c-.89.09-1.88.25-2.4.97-.29.39-.38.89-.46,1.37-1.19,6.92-1.63,13.98-1.31,20.99,6.41-.59,12.85-1.18,19.06-2.84,2.59-.69,5.2-1.6,7.3-3.27,2.88-2.28,4.44-5.76,4.98-9.33.37-2.45.96-7.13-1.55-8.7-2.74-1.71-9.05-.35-12.16-.21-4.49.21-8.98.55-13.46,1.02Z"></path><path class="cls-11" d="M163.67,315.42c.22,3.18.45,6.35.67,9.53.05.73.07,1.56-.46,2.07-.3.29-.71.41-1.1.53-4.21,1.3-8.15,3.33-12.3,4.79-4.15,1.46-8.68,2.36-12.95,1.28-.86-.22-1.81-.62-2.09-1.46-.46-1.37,1.13-2.48,2.44-3.1,3.01-1.43,5.89-3.11,8.76-4.79.93-.55,1.88-1.1,2.65-1.86.98-.96,1.63-2.2,2.26-3.42.74-1.43,2.32-6.32,3.79-6.86.56-.21,2.92.82,3.64.92,2.27.34,4.5-.46,4.69,2.35Z"></path><path class="cls-11" d="M158.93,260.87c.36,5.4.43,10.82.21,16.23-.03.82-.13,1.75-.8,2.23-.43.31-1,.34-1.53.36-5.98.21-11.95.43-17.93.64-2.6.09-5.2.19-7.8,0-1.25-.09-2.88-.66-2.77-1.91.08-.93,1.1-1.43,1.98-1.74,4.3-1.55,8.6-3.09,12.9-4.64.76-.27,1.58-.59,2.02-1.27.34-.53.39-1.18.43-1.81.21-3.21.43-6.42.64-9.63,4.29-1.26,9.1-.65,12.64,1.53Z"></path><path class="cls-11" d="M160.17,263.08c.51-.03,2.13-18.81,2.33-20.59.67-5.88,1.08-11.82,1.54-17.72,1-.77,2.42-.55,3.66-.28,9.78,2.13,19.41,4.97,29.29,6.53,1.63.26,3.33.48,4.91-.01,1.88-.58,3.32-2.08,4.61-3.58,3.18-3.69,6.08-7.89,6.89-12.7.54-3.2-.04-6.74-1.85-9.46-2.18-3.27-4.59-2.63-8.12-3.07-8.94-1.12-17.89-2.14-26.84-3.07-8.58-.89-17.21-1.7-25.83-1.23-4.03.22-8.71,1.16-10.47,4.79-.66,1.36-.79,2.92-.85,4.43-.24,5.28.04,10.66.28,15.94.6,13.27,2.78,26.49,2.16,39.76,6.08.52,12.2.61,18.3.27Z"></path><path class="cls-11" d="M217.62,202.08c-12.35,5.42-23.82,12.83-33.82,21.87-2.17,1.96-4.3,4.03-5.86,6.51-1.55,2.47-2.48,5.27-3.39,8.04-8.27,25.16-16.02,50.49-23.23,75.98,5.38,1.88,10.76,3.76,16.15,5.64.79.27,1.69.54,2.41.12.54-.32.82-.94,1.06-1.52,6.37-15.43,12.73-30.85,19.1-46.28,1.21-2.94,2.45-5.92,4.43-8.41,2.88-3.62,7.08-5.89,11.16-8.07,5.08-2.71,10.82-5.05,15.29-8.64,4.79-3.84,9.28-8.78,12.92-13.69,1.92-2.58,3.63-5.38,4.51-8.47s.86-6.54-.58-9.41c-.86-1.72-2.17-3.16-3.54-4.51-2.23-2.22-4.73-4.3-7.56-5.72-3.09-1.54-6.21-1.57-9.05-3.45Z"></path><path class="cls-3" d="M208.47,101.54c-.84,2.89-1.69,5.86-1.53,8.87.04.78.15,1.59-.13,2.32-.35.91-1.21,1.5-1.9,2.19s-1.23,1.76-.76,2.62c.49.88,1.76.99,2.44,1.73.79.87.52,2.22.63,3.39.25,2.74,3.24,4.87,5.91,4.22.51-.12,1.03-.33,1.55-.22,1.29.28,1.34,2.09,1.08,3.38-.3,1.5-.59,2.99-.89,4.49,4.81,1.15,10.12.04,14.07-2.94-1.51-4.02-1.29-8.47-.71-12.73.57-4.26,1.47-8.51,1.23-12.8-.06-1.06-.19-2.14-.64-3.11-.49-1.07-1.34-1.94-2.26-2.68-3.35-2.74-7.8-4.09-12.1-3.69-1.55.15-3.13.53-4.34,1.5s-1.97,2.62-1.64,3.46Z"></path><path class="cls-11" d="M228.27,94.02c-1-1.68-2.09-3.43-3.82-4.34-1.61-.85-3.53-.83-5.33-.65-2.67.27-5.54.98-7.15,3.12-.42.56-.87,1.27-1.57,1.24-.3-.01-.57-.17-.83-.31-2.11-1.12-4.83-1.11-6.82.21s-3.08,3.95-2.4,6.24c.7,2.35,3.01,3.93,5.39,4.46s4.88.21,7.3-.12c.09,2.14,2.66,3.76,4.63,2.92.49-.21,1.1-.53,1.5-.17.2.18.25.46.3.72.28,1.67.55,3.34.83,5.01.26-1.43.86-2.79,1.74-3.95.56-.73,1.46-1.44,2.32-1.1.37.15.65.47.88.79.97,1.34,1.55,3.01,1.32,4.64s-1.41,3.17-3.01,3.56c.63.77,1.3,1.57,2.21,1.99s2.12.34,2.74-.44c.27-.34.39-.77.47-1.2.29-1.49.22-3.2,1.27-4.31.41-.43.94-.72,1.36-1.14.66-.67.96-1.61,1.15-2.53.93-4.59-1.21-9.2-4.47-14.63Z"></path><path class="cls-1" d="M247.05,159.68c-.21,3.85-1.17,7.56-2.34,11.26-1.23,3.96-2.67,7.88-3.65,11.9-2.01,8.23-1.99,16.8-2.32,25.28-.1,2.6-.3,5.38-1.87,7.45-.96,1.26-2.31,2.09-3.81,2.67-1.17.47-2.43.79-3.66,1.04-7.02,1.46-14.25,1.92-21.41,1.36-1.22-.1-2.39-.16-3.49-.29-4.31-.45-7.42-1.56-7.36-7.33.12-11.99.92-23.96,1.72-35.93.35-5.28.71-10.58,1.59-15.8.78-4.66,1.98-9.25,3.6-13.69,1.37-3.81,3.18-7.72,6.09-10.61.62-.93,1.87-1.2,2.6-1.94.65-.65.8-1.38,1.1-2.32.05-.16.1-.32.23-.42.16-.14.4-.14.61-.13,3.68.11,7.38-.28,10.95-1.15,1.11-.27,2.28-.59,3.37-.24,1.08.34,1.85,1.27,2.76,1.94,1.98,1.47,4.26,2.03,6.01,3.83,1.87,1.93,3.61,4.04,5.01,6.37,3.01,5.01,4.61,10.89,4.28,16.73Z"></path><path class="cls-8" d="M244.71,170.94c-1.23,3.96-2.67,7.88-3.65,11.9-2.01,8.23-1.99,16.8-2.32,25.28-.1,2.6-.3,5.38-1.87,7.45-1.05,1.06-2.35,1.94-3.81,2.67-10.32,5.11-29.08,2.63-29.08,2.63l.53-.52,18.73-18.28s7.34-13.88,8.69-20.61c1.34-6.73-2.43-26.31-2.43-26.31,0,0,16.2,0,15.23,15.77Z"></path><path class="cls-3" d="M298.48,124.97c-2.78,13.18-3.06,24.93-5.86,38.11-.98,4.58-2.8,9.55-7.01,11.61-3.87,1.9-8.49.71-12.58-.67-7.67-2.58-15.16-5.69-21.87-9.18.45-4.38,2.07-8.63,4.65-12.2.71-.99,1.55-1.96,2.69-2.39,1.63-.62,3.44.02,5.07.66,5.06,1.98,10.12,3.96,15.18,5.94-.29.3-.84.09-1.02-.29s-.11-.81-.03-1.22c2.05-10.69,5.04-21.19,8.93-31.35,2.39-6.26,4.63-12.58,7.12-18.81.64-.08,1.23.46,1.44,1.07s.14,1.28.06,1.92c-.16,1.31-.31,2.63-.47,3.94,5.3-1.54,10.3-4.12,14.64-7.53.85-.67,2.23-1.32,2.86-.44-.4,1.71-1.36,3.29-2.71,4.41-.32.27-.68.52-.87.9-.22.43-.19.95-.19,1.44,0,2.85-1.39,5.56-3.29,7.68-2.22,2.48-5.34,3.89-7.25,6.57"></path><path class="cls-1" d="M223.56,136.21c3.28-1.31,6.95-1.1,10.44-.54,10.22,1.62,19.97,6.08,27.88,12.75.21.17.42.37.49.63.07.27-.04.55-.14.81-2.78,6.85-5.56,13.71-8.34,20.56-5.89-4.56-13.2-6.81-19.71-10.42s-12.68-9.46-13.13-16.89c-.09-1.52.08-3.1.82-4.42s2.15-2.34,1.69-2.48Z"></path><path class="cls-1" d="M181.68,87.62c-6.44-7.61-12-15.95-16.54-24.82-2.87,3.68-5.3,7.7-7.23,11.95,7.58,7.55,18.31,11.44,25.51,19.37,1.12,1.24,1.39-2.35,1.35-2.55-.21-1.25-2.29-3.01-3.09-3.95Z"></path><path class="cls-1" d="M171.63,97.2c-9.41-3.28-18.44-7.64-26.86-12.97-.6,4.63-.65,9.33-.16,13.97,10.37,2.65,21.59.55,31.81,3.72,1.6.49,0-2.73-.13-2.88-.81-.97-3.5-1.43-4.67-1.84Z"></path><path class="cls-1" d="M171.91,109.64c-6.6,2.79-13.52,4.83-20.58,6.05,1.91,2.76,4.15,5.29,6.66,7.52,6.81-3.59,11.78-10.13,18.76-13.38,1.09-.51-1.32-1.46-1.46-1.47-.9-.12-2.55.93-3.38,1.27Z"></path><path class="cls-1" d="M312.25,38.31v25.1c0,5.28-4.28,9.56-9.56,9.56h-14.61l-4.94,11.26-4.87-11.26h-14.69c-5.27,0-9.56-4.28-9.56-9.56v-25.1c0-5.27,4.29-9.56,9.56-9.56h39.11c5.28,0,9.56,4.29,9.56,9.56Z"></path><path class="cls-10" d="M296.64,48.55c0-4.05-3.29-7.34-7.34-7.34-2.61,0-4.9,1.37-6.2,3.42-1.3-2.06-3.59-3.42-6.2-3.42-4.05,0-7.34,3.28-7.34,7.34,0,2.99,1.79,5.56,4.36,6.7h0l8.78,7.24,10.69-7.85c1.96-1.32,3.25-3.55,3.25-6.09Z"></path><path class="cls-1" d="M146.96,167.98c-2.09-3.47-6.6-4.6-10.07-2.51-2.24,1.35-3.49,3.7-3.55,6.13-2.17-1.09-4.84-1.09-7.08.26-3.47,2.09-4.6,6.6-2.51,10.07,1.54,2.56,4.4,3.84,7.19,3.5h0s11.25,1.68,11.25,1.68l5.11-12.23c1-2.14.95-4.72-.35-6.9Z"></path><path class="cls-10" d="M403.19,111.97s-.1.01-.15.02c-6.49.78-12.42,4.57-18.95,4.83-1.51.07-3.1-.09-4.38-.91-.92-.59-1.62-1.46-2.28-2.33-.86-1.11-1.74-2.7-.89-3.81-.81-.61-1.64-1.24-2.15-2.12-.52-.89-.63-2.07.01-2.87.32-.39.8-.67,1.06-1.11.83-1.4-1.03-3.05-.77-4.64.16-1.03,1.18-1.73,2.21-1.89,1.03-.17,2.07.06,3.09.18,1.49.19,3.02.16,4.51-.07.33-.05.72-.15.86-.45.11-.26,0-.56-.1-.83-.74-1.83-1.39-3.73-1.44-5.7s.57-4.03,2.03-5.36c.46-.41,1.06-.76,1.67-.66.78.12,1.26.89,1.6,1.62,1.62,3.49,2.22,7.59,4.88,10.34,2.47,2.53,5.34,2.01,8.2,2.78l.98,12.98Z"></path><path class="cls-10" d="M418.73,115.09l-8.25.62c-1.85.14-3.47-1.25-3.62-3.1l-.1-1.33-.98-12.98-.15-2.05c-.14-1.86,1.26-3.48,3.1-3.62l8.24-.62c1.86-.14,3.48,1.24,3.62,3.1l1.24,16.37c.14,1.86-1.25,3.47-3.1,3.62Z"></path><path class="cls-1" d="M67.72,340.21s.09.01.13.01c5.67.68,10.84,3.99,16.55,4.22,1.32.06,2.71-.08,3.82-.79.81-.51,1.41-1.28,1.99-2.04.75-.97,1.52-2.35.78-3.33.7-.53,1.43-1.09,1.88-1.85.45-.77.55-1.81-.01-2.51-.28-.34-.7-.58-.93-.97-.72-1.22.9-2.66.67-4.05-.14-.9-1.03-1.51-1.93-1.65-.9-.15-1.81.05-2.7.16-1.31.16-2.64.14-3.94-.06-.29-.04-.63-.13-.75-.4-.09-.23,0-.49.09-.72.65-1.59,1.21-3.26,1.26-4.98s-.5-3.52-1.78-4.68c-.4-.36-.92-.66-1.46-.58-.68.11-1.1.78-1.4,1.41-1.41,3.05-1.94,6.63-4.27,9.03-2.16,2.21-4.67,1.75-7.16,2.43l-.86,11.34Z"></path><path class="cls-1" d="M54.15,342.93l7.21.54c1.62.13,3.03-1.09,3.16-2.71l.09-1.16.86-11.34.13-1.79c.12-1.63-1.1-3.04-2.71-3.16l-7.2-.54c-1.63-.12-3.04,1.09-3.16,2.71l-1.09,14.3c-.12,1.63,1.09,3.03,2.71,3.16Z"></path></svg>