<svg xmlns="http://www.w3.org/2000/svg" xmlns:xlink="http://www.w3.org/1999/xlink" viewBox="0,0,256,256" width="50px" height="50px" fill-rule="nonzero"><g fill="#fcfcfc" fill-rule="nonzero" stroke="none" stroke-width="1" stroke-linecap="butt" stroke-linejoin="miter" stroke-miterlimit="10" stroke-dasharray="" stroke-dashoffset="0" font-family="none" font-weight="none" font-size="none" text-anchor="none" style="mix-blend-mode: normal"><g transform="scale(5.12,5.12)"><path d="M5,5v40h40v-40zM7,7h36v36h-36zM11.80664,11.06445c-0.32245,0.00684 -0.63386,0.16842 -0.81836,0.45117c-0.246,0.375 -0.21297,0.86708 0.08203,1.20508c5.193,5.934 1.08692,14.96373 1.04492,15.05273c-0.193,0.416 -0.07961,0.91022 0.27539,1.19922c0.184,0.148 0.40686,0.22461 0.63086,0.22461c0.21,0 0.42161,-0.06717 0.59961,-0.20117c4.513,-3.384 11.38708,-0.52895 11.45508,-0.50195c0.357,0.153 0.76864,0.08317 1.05664,-0.17383c0.289,-0.258 0.40392,-0.6583 0.29492,-1.0293c-3.745,-12.682 -13.86883,-16.04364 -14.29883,-16.18164c-0.10575,-0.03325 -0.21478,-0.0472 -0.32226,-0.04492zM22.12109,13.36328c-0.33047,0.00952 -0.64422,0.18422 -0.82422,0.48047c-0.239,0.394 -0.18047,0.89956 0.14453,1.22656c0.056,0.053 5.60509,5.67342 6.74609,11.85742c0.05,0.271 0.21231,0.5092 0.44531,0.6582c0.232,0.15 0.52111,0.19591 0.78711,0.12891c0.021,-0.006 2.22055,-0.54027 5.18555,0.42773c0.102,0.033 0.20555,0.04883 0.31055,0.04883c0.251,0 0.49755,-0.09353 0.68555,-0.26953c0.267,-0.25 0.3752,-0.62647 0.2832,-0.98047c-0.107,-0.412 -2.75259,-10.14725 -13.43359,-13.53125c-0.1095,-0.0355 -0.21992,-0.05005 -0.33008,-0.04687zM14.58203,14.54492c2.829,1.753 6.93978,5.22027 9.30078,11.44727c-2.154,-0.585 -5.72734,-1.16778 -9.02734,0.07422c0.808,-2.762 1.58156,-7.32348 -0.27344,-11.52148zM25.67578,17.01953c4.437,2.625 6.67453,6.53219 7.64453,8.74219c-0.855,-0.151 -1.61967,-0.20117 -2.26367,-0.20117c-0.427,0 -0.79937,0.02173 -1.10937,0.05273c-0.828,-3.348 -2.67149,-6.40675 -4.27148,-8.59375zM36.88867,28.93945l-25.0625,1.94727c-0.356,0.027 -0.67022,0.24245 -0.82422,0.56445c-0.154,0.322 -0.12483,0.70109 0.07617,0.99609l1.57031,2.28906c-0.232,0.208 -0.42303,0.42823 -0.58203,0.61523c-0.418,0.491 -0.58336,0.64844 -0.94336,0.64844c-0.553,0 -1,0.447 -1,1c0,0.553 0.447,1 1,1c1.313,0 2.0088,-0.81256 2.4668,-1.35156c0.418,-0.49 0.58336,-0.64844 0.94336,-0.64844c0.358,0 0.52245,0.15844 0.93945,0.64844c0.46,0.539 1.15184,1.35156 2.46484,1.35156c1.313,0 2.00684,-0.81256 2.46484,-1.35156c0.418,-0.49 0.58431,-0.64844 0.94531,-0.64844c0.361,0 0.52731,0.15844 0.94531,0.64844c0.458,0.539 1.14984,1.35156 2.46484,1.35156c1.315,0 2.0088,-0.81256 2.4668,-1.35156c0.418,-0.49 0.58336,-0.64844 0.94336,-0.64844c0.362,0 0.52827,0.15744 0.94727,0.64844c0.46,0.539 1.15375,1.35156 2.46875,1.35156c0.081,0 0.15252,-0.01158 0.22852,-0.01758c0.031,0.003 0.05689,0.01758 0.08789,0.01758c1.313,0 2.00684,-0.81256 2.46484,-1.35156c0.418,-0.49 0.58431,-0.64844 0.94531,-0.64844c0.359,0 0.52441,0.15844 0.94141,0.64844c0.459,0.539 1.15184,1.35156 2.46484,1.35156c0.553,0 1,-0.447 1,-1c0,-0.553 -0.447,-1 -1,-1c-0.358,0 -0.52441,-0.15844 -0.94141,-0.64844c-0.46,-0.539 -1.15184,-1.35156 -2.46484,-1.35156c-0.079,0 -0.14766,0.01258 -0.22266,0.01758c-0.031,-0.002 -0.05689,-0.01758 -0.08789,-0.01758c-1.315,0 -2.00875,0.81256 -2.46875,1.35156c-0.419,0.491 -0.58527,0.64844 -0.94727,0.64844c-0.332,0 -0.50842,-0.14587 -0.85742,-0.54687c2.716,-1.513 6.66252,-4.57756 6.85352,-4.72656c0.349,-0.271 0.47836,-0.73939 0.31836,-1.15039c-0.16,-0.411 -0.57777,-0.66572 -1.00977,-0.63672zM33.58789,31.20117c-1.562,1.117 -3.42877,2.37111 -4.63477,2.91211c-0.236,-0.068 -0.49316,-0.11328 -0.78516,-0.11328c-1.314,0 -2.0088,0.81256 -2.4668,1.35156c-0.418,0.49 -0.58336,0.64844 -0.94336,0.64844c-0.36,0 -0.52536,-0.15844 -0.94336,-0.64844c-0.459,-0.539 -1.1528,-1.35156 -2.4668,-1.35156c-1.314,0 -2.00684,0.81256 -2.46484,1.35156c-0.418,0.49 -0.58431,0.64844 -0.94531,0.64844c-0.359,0 -0.52441,-0.15844 -0.94141,-0.64844c-0.454,-0.533 -1.13978,-1.33166 -2.42578,-1.34766l-0.86328,-1.25781z"></path></g></g></svg>