<svg transform="scale(1)" id="_0230_designer" xmlns="http://www.w3.org/2000/svg" xmlns:xlink="http://www.w3.org/1999/xlink" viewBox="0 0 500 500" class="show_show__wrapper__graphic__5Waiy "><title>React</title><defs><style>.cls-1{fill:url(#linear-gradient);}.cls-1,.cls-2,.cls-3,.cls-4,.cls-5,.cls-6,.cls-7,.cls-8,.cls-9,.cls-10,.cls-11,.cls-12,.cls-13,.cls-14,.cls-15,.cls-16,.cls-17,.cls-18,.cls-19,.cls-20,.cls-21,.cls-22,.cls-23,.cls-24,.cls-25,.cls-26,.cls-27,.cls-28,.cls-29,.cls-30,.cls-31,.cls-32,.cls-33,.cls-34,.cls-35,.cls-36,.cls-37,.cls-38,.cls-39,.cls-40,.cls-41,.cls-42,.cls-43,.cls-44,.cls-45,.cls-46,.cls-47,.cls-48,.cls-49,.cls-50,.cls-51,.cls-52,.cls-53,.cls-54,.cls-55,.cls-56,.cls-57,.cls-58,.cls-59,.cls-60,.cls-61,.cls-62,.cls-63,.cls-64,.cls-65,.cls-66,.cls-67,.cls-68,.cls-69,.cls-70,.cls-71,.cls-72,.cls-73,.cls-74,.cls-75,.cls-76,.cls-77,.cls-78,.cls-79,.cls-80,.cls-81,.cls-82,.cls-83,.cls-84,.cls-85,.cls-86,.cls-87,.cls-88{stroke-width:0px;}.cls-2{fill:url(#linear-gradient-48);}.cls-3{fill:url(#linear-gradient-49);}.cls-4{fill:url(#linear-gradient-47);}.cls-5{fill:url(#linear-gradient-59);}.cls-6{fill:url(#linear-gradient-57);}.cls-7{fill:url(#linear-gradient-58);}.cls-8{fill:url(#linear-gradient-55);}.cls-9{fill:url(#linear-gradient-56);}.cls-10{fill:url(#linear-gradient-53);}.cls-11{fill:url(#linear-gradient-51);}.cls-12{fill:url(#linear-gradient-52);}.cls-13{fill:url(#linear-gradient-50);}.cls-14{fill:url(#linear-gradient-54);}.cls-15{fill:url(#linear-gradient-60);}.cls-16{fill:url(#linear-gradient-61);}.cls-17{fill:url(#linear-gradient-62);}.cls-18{fill:url(#linear-gradient-65);}.cls-19{fill:url(#linear-gradient-78);}.cls-20{fill:url(#linear-gradient-77);}.cls-21{fill:url(#linear-gradient-75);}.cls-22{fill:url(#linear-gradient-76);}.cls-23{fill:url(#linear-gradient-74);}.cls-24{fill:url(#linear-gradient-67);}.cls-25{fill:url(#linear-gradient-68);}.cls-26{fill:url(#linear-gradient-66);}.cls-27{fill:url(#linear-gradient-69);}.cls-28{fill:url(#linear-gradient-64);}.cls-29{fill:url(#linear-gradient-71);}.cls-30{fill:url(#linear-gradient-72);}.cls-31{fill:url(#linear-gradient-70);}.cls-32{fill:url(#linear-gradient-73);}.cls-33{fill:url(#linear-gradient-80);}.cls-34{fill:url(#linear-gradient-81);}.cls-35{fill:url(#linear-gradient-79);}.cls-35,.cls-36,.cls-37,.cls-38,.cls-39,.cls-40,.cls-41,.cls-42,.cls-43,.cls-44,.cls-45,.cls-46,.cls-47,.cls-48,.cls-49,.cls-50,.cls-51,.cls-52,.cls-53,.cls-54,.cls-55,.cls-56,.cls-57,.cls-58,.cls-59,.cls-60,.cls-61,.cls-62,.cls-63,.cls-64,.cls-65,.cls-66,.cls-67,.cls-68,.cls-69,.cls-70,.cls-71,.cls-72,.cls-73,.cls-74,.cls-75,.cls-76,.cls-77{opacity:.65;}.cls-35,.cls-36,.cls-37,.cls-38,.cls-39,.cls-40,.cls-41,.cls-42,.cls-43,.cls-44,.cls-45,.cls-46,.cls-47,.cls-48,.cls-49,.cls-50,.cls-51,.cls-52,.cls-53,.cls-54,.cls-55,.cls-56,.cls-57,.cls-58,.cls-59,.cls-60,.cls-61,.cls-62,.cls-63,.cls-64,.cls-65,.cls-66,.cls-67,.cls-68,.cls-69,.cls-70,.cls-71,.cls-72,.cls-73,.cls-74,.cls-75,.cls-76,.cls-77,.cls-82{isolation:isolate;}.cls-36{fill:url(#linear-gradient-63);}.cls-37{fill:url(#linear-gradient-43);}.cls-38{fill:url(#linear-gradient-42);}.cls-39{fill:url(#linear-gradient-41);}.cls-40{fill:url(#linear-gradient-40);}.cls-41{fill:url(#linear-gradient-20);}.cls-42{fill:url(#linear-gradient-14);}.cls-43{fill:url(#linear-gradient-18);}.cls-44{fill:url(#linear-gradient-22);}.cls-45{fill:url(#linear-gradient-21);}.cls-46{fill:url(#linear-gradient-23);}.cls-47{fill:url(#linear-gradient-13);}.cls-48{fill:url(#linear-gradient-12);}.cls-49{fill:url(#linear-gradient-10);}.cls-50{fill:url(#linear-gradient-15);}.cls-51{fill:url(#linear-gradient-19);}.cls-52{fill:url(#linear-gradient-11);}.cls-53{fill:url(#linear-gradient-17);}.cls-54{fill:url(#linear-gradient-16);}.cls-55{fill:url(#linear-gradient-25);}.cls-56{fill:url(#linear-gradient-33);}.cls-57{fill:url(#linear-gradient-32);}.cls-58{fill:url(#linear-gradient-30);}.cls-59{fill:url(#linear-gradient-29);}.cls-60{fill:url(#linear-gradient-28);}.cls-61{fill:url(#linear-gradient-35);}.cls-62{fill:url(#linear-gradient-37);}.cls-63{fill:url(#linear-gradient-34);}.cls-64{fill:url(#linear-gradient-39);}.cls-65{fill:url(#linear-gradient-36);}.cls-66{fill:url(#linear-gradient-31);}.cls-67{fill:url(#linear-gradient-38);}.cls-68{fill:url(#linear-gradient-27);}.cls-69{fill:url(#linear-gradient-24);}.cls-70{fill:url(#linear-gradient-26);}.cls-71{fill:url(#linear-gradient-44);}.cls-72{fill:url(#linear-gradient-46);}.cls-73{fill:url(#linear-gradient-45);}.cls-74{fill:url(#linear-gradient-7);}.cls-75{fill:url(#linear-gradient-2);}.cls-76{fill:url(#linear-gradient-9);}.cls-77{fill:url(#linear-gradient-8);}.cls-78{fill:url(#linear-gradient-4);}.cls-79{fill:url(#linear-gradient-3);}.cls-80{fill:url(#linear-gradient-5);}.cls-81{fill:url(#linear-gradient-6);}.cls-82{opacity:.24;}.cls-82,.cls-88{fill:#24a3ff;}.cls-83{fill:#f4ac7d;}.cls-84{fill:#231f20;}.cls-85{fill:#c14834;}.cls-86{fill:#fff;}.cls-87{fill:#ffcc9c;}</style><linearGradient id="linear-gradient" x1="701.29" y1="605.96" x2="825.96" y2="616.04" gradientTransform="translate(-322.49 -329.58)" gradientUnits="userSpaceOnUse"><stop offset="0" stop-color="#010101" stop-opacity="0"></stop><stop offset=".95" stop-color="#010101"></stop></linearGradient><linearGradient id="linear-gradient-2" x1="704.93" y1="501.08" x2="717.64" y2="502.01" gradientTransform="translate(-322.49 -329.58)" gradientUnits="userSpaceOnUse"><stop offset="0" stop-color="#fff" stop-opacity="0"></stop><stop offset=".07" stop-color="#fff" stop-opacity=".22"></stop><stop offset=".16" stop-color="#fff" stop-opacity=".45"></stop><stop offset=".25" stop-color="#fff" stop-opacity=".65"></stop><stop offset=".33" stop-color="#fff" stop-opacity=".8"></stop><stop offset=".4" stop-color="#fff" stop-opacity=".91"></stop><stop offset=".46" stop-color="#fff" stop-opacity=".98"></stop><stop offset=".51" stop-color="#fff"></stop></linearGradient><linearGradient id="linear-gradient-3" x1="708.14" y1="494.68" x2="712.53" y2="494.99" xlink:href="#linear-gradient"></linearGradient><linearGradient id="linear-gradient-4" x1="709.79" y1="691.76" x2="710.49" y2="719.25" xlink:href="#linear-gradient"></linearGradient><linearGradient id="linear-gradient-5" x1="722.76" y1="726.84" x2="695.03" y2="753.42" gradientTransform="translate(-325.06 -356.09)" xlink:href="#linear-gradient"></linearGradient><linearGradient id="linear-gradient-6" x1="703.96" y1="592.83" x2="925.34" y2="585.94" xlink:href="#linear-gradient"></linearGradient><linearGradient id="linear-gradient-7" x1="718.15" y1="469.69" x2="805.44" y2="466.98" xlink:href="#linear-gradient-2"></linearGradient><linearGradient id="linear-gradient-8" x1="718.15" y1="475.99" x2="805.44" y2="473.28" xlink:href="#linear-gradient-2"></linearGradient><linearGradient id="linear-gradient-9" x1="718.15" y1="482.29" x2="805.44" y2="479.58" xlink:href="#linear-gradient-2"></linearGradient><linearGradient id="linear-gradient-10" x1="718.15" y1="488.59" x2="805.44" y2="485.88" xlink:href="#linear-gradient-2"></linearGradient><linearGradient id="linear-gradient-11" x1="718.15" y1="494.89" x2="805.44" y2="492.18" xlink:href="#linear-gradient-2"></linearGradient><linearGradient id="linear-gradient-12" x1="718.15" y1="501.2" x2="805.44" y2="498.51" xlink:href="#linear-gradient-2"></linearGradient><linearGradient id="linear-gradient-13" x1="718.15" y1="507.5" x2="805.44" y2="504.8" xlink:href="#linear-gradient-2"></linearGradient><linearGradient id="linear-gradient-14" x1="718.15" y1="513.8" x2="805.44" y2="511.1" xlink:href="#linear-gradient-2"></linearGradient><linearGradient id="linear-gradient-15" x1="718.15" y1="520.1" x2="805.44" y2="517.4" xlink:href="#linear-gradient-2"></linearGradient><linearGradient id="linear-gradient-16" x1="718.15" y1="526.4" x2="805.44" y2="523.7" xlink:href="#linear-gradient-2"></linearGradient><linearGradient id="linear-gradient-17" x1="718.15" y1="532.72" x2="805.44" y2="530" xlink:href="#linear-gradient-2"></linearGradient><linearGradient id="linear-gradient-18" x1="718.15" y1="539.02" x2="805.44" y2="536.3" xlink:href="#linear-gradient-2"></linearGradient><linearGradient id="linear-gradient-19" x1="718.15" y1="545.32" x2="805.44" y2="542.61" xlink:href="#linear-gradient-2"></linearGradient><linearGradient id="linear-gradient-20" x1="718.15" y1="551.62" x2="805.44" y2="548.91" xlink:href="#linear-gradient-2"></linearGradient><linearGradient id="linear-gradient-21" x1="718.15" y1="557.92" x2="805.44" y2="555.21" xlink:href="#linear-gradient-2"></linearGradient><linearGradient id="linear-gradient-22" x1="718.15" y1="564.22" x2="805.44" y2="561.51" xlink:href="#linear-gradient-2"></linearGradient><linearGradient id="linear-gradient-23" x1="718.15" y1="570.52" x2="805.44" y2="567.81" xlink:href="#linear-gradient-2"></linearGradient><linearGradient id="linear-gradient-24" x1="718.15" y1="576.82" x2="805.44" y2="574.11" xlink:href="#linear-gradient-2"></linearGradient><linearGradient id="linear-gradient-25" x1="718.15" y1="583.12" x2="805.44" y2="580.42" xlink:href="#linear-gradient-2"></linearGradient><linearGradient id="linear-gradient-26" x1="718.15" y1="589.44" x2="805.44" y2="586.73" xlink:href="#linear-gradient-2"></linearGradient><linearGradient id="linear-gradient-27" x1="718.15" y1="595.74" x2="805.44" y2="593.03" xlink:href="#linear-gradient-2"></linearGradient><linearGradient id="linear-gradient-28" x1="718.15" y1="602.04" x2="805.44" y2="599.33" xlink:href="#linear-gradient-2"></linearGradient><linearGradient id="linear-gradient-29" x1="718.15" y1="608.34" x2="805.44" y2="605.63" xlink:href="#linear-gradient-2"></linearGradient><linearGradient id="linear-gradient-30" x1="718.15" y1="614.64" x2="805.44" y2="611.93" xlink:href="#linear-gradient-2"></linearGradient><linearGradient id="linear-gradient-31" x1="718.15" y1="620.95" x2="805.44" y2="618.23" xlink:href="#linear-gradient-2"></linearGradient><linearGradient id="linear-gradient-32" x1="718.15" y1="627.25" x2="805.44" y2="624.54" xlink:href="#linear-gradient-2"></linearGradient><linearGradient id="linear-gradient-33" x1="718.15" y1="633.55" x2="805.44" y2="630.84" xlink:href="#linear-gradient-2"></linearGradient><linearGradient id="linear-gradient-34" x1="718.15" y1="639.85" x2="805.44" y2="637.14" xlink:href="#linear-gradient-2"></linearGradient><linearGradient id="linear-gradient-35" x1="718.15" y1="646.15" x2="805.44" y2="643.44" xlink:href="#linear-gradient-2"></linearGradient><linearGradient id="linear-gradient-36" x1="718.15" y1="652.47" x2="805.44" y2="649.74" xlink:href="#linear-gradient-2"></linearGradient><linearGradient id="linear-gradient-37" x1="718.15" y1="658.75" x2="805.44" y2="656.04" xlink:href="#linear-gradient-2"></linearGradient><linearGradient id="linear-gradient-38" x1="718.15" y1="665.05" x2="805.44" y2="662.34" xlink:href="#linear-gradient-2"></linearGradient><linearGradient id="linear-gradient-39" x1="718.15" y1="671.37" x2="805.44" y2="668.66" xlink:href="#linear-gradient-2"></linearGradient><linearGradient id="linear-gradient-40" x1="718.15" y1="677.67" x2="805.44" y2="674.96" xlink:href="#linear-gradient-2"></linearGradient><linearGradient id="linear-gradient-41" x1="718.15" y1="683.97" x2="805.44" y2="681.26" xlink:href="#linear-gradient-2"></linearGradient><linearGradient id="linear-gradient-42" x1="718.15" y1="690.27" x2="805.44" y2="687.56" xlink:href="#linear-gradient-2"></linearGradient><linearGradient id="linear-gradient-43" x1="718.15" y1="696.56" x2="805.44" y2="693.87" xlink:href="#linear-gradient-2"></linearGradient><linearGradient id="linear-gradient-44" x1="718.15" y1="702.88" x2="805.44" y2="700.16" xlink:href="#linear-gradient-2"></linearGradient><linearGradient id="linear-gradient-45" x1="718.15" y1="709.18" x2="805.44" y2="706.46" xlink:href="#linear-gradient-2"></linearGradient><linearGradient id="linear-gradient-46" x1="718.15" y1="715.48" x2="805.44" y2="712.77" xlink:href="#linear-gradient-2"></linearGradient><linearGradient id="linear-gradient-47" x1="-226.81" y1="2133.78" x2="-179.29" y2="2097.88" gradientTransform="translate(1602.44 -1324.39) rotate(38.93)" xlink:href="#linear-gradient"></linearGradient><linearGradient id="linear-gradient-48" x1="-217.45" y1="2126.04" x2="-149.31" y2="2076.23" gradientTransform="translate(1595.08 -1336.27) rotate(38.93)" xlink:href="#linear-gradient"></linearGradient><linearGradient id="linear-gradient-49" x1="-206.71" y1="2119.27" x2="-106.34" y2="2020.88" gradientTransform="translate(1587.7 -1348.16) rotate(38.93)" xlink:href="#linear-gradient"></linearGradient><linearGradient id="linear-gradient-50" x1="-193.56" y1="2107.94" x2="-43.52" y2="1970.15" gradientTransform="translate(1580.35 -1360.04) rotate(38.93)" gradientUnits="userSpaceOnUse"><stop offset="0" stop-color="#010101" stop-opacity="0"></stop><stop offset=".36" stop-color="#010101" stop-opacity=".36"></stop><stop offset=".95" stop-color="#010101"></stop></linearGradient><linearGradient id="linear-gradient-51" x1="-181.15" y1="2097.74" x2="-95.21" y2="2027.37" gradientTransform="translate(1566.58 -1382.41) rotate(38.93)" xlink:href="#linear-gradient-2"></linearGradient><linearGradient id="linear-gradient-52" x1="-176.74" y1="2095.08" x2="-129.68" y2="2054.43" gradientTransform="translate(1559.2 -1394.3) rotate(38.93)" xlink:href="#linear-gradient-2"></linearGradient><linearGradient id="linear-gradient-53" x1="407.71" y1="558.76" x2="455.23" y2="522.85" gradientTransform="translate(125.55 -495.81) rotate(38.93)" xlink:href="#linear-gradient"></linearGradient><linearGradient id="linear-gradient-54" x1="420.09" y1="541.91" x2="488.25" y2="492.1" gradientTransform="translate(118.46 -500.67) rotate(38.93)" xlink:href="#linear-gradient"></linearGradient><linearGradient id="linear-gradient-55" x1="436.22" y1="535.99" x2="536.6" y2="437.59" gradientTransform="translate(111.47 -511.65) rotate(38.93)" xlink:href="#linear-gradient"></linearGradient><linearGradient id="linear-gradient-56" x1="449.44" y1="524.8" x2="599.48" y2="386.99" gradientTransform="translate(108.58 -519.93) rotate(38.93)" xlink:href="#linear-gradient-50"></linearGradient><linearGradient id="linear-gradient-57" x1="462.73" y1="493.86" x2="535.7" y2="434.11" xlink:href="#linear-gradient-2"></linearGradient><linearGradient id="linear-gradient-58" x1="466.31" y1="512.09" x2="513.37" y2="471.46" gradientTransform="translate(100.29 -543.82) rotate(38.93)" xlink:href="#linear-gradient-2"></linearGradient><linearGradient id="linear-gradient-59" x1="443.83" y1="570.53" x2="460.11" y2="571" gradientTransform="translate(-325.06 -356.09)" xlink:href="#linear-gradient-2"></linearGradient><linearGradient id="linear-gradient-60" x1="423.49" y1="556.28" x2="465.66" y2="561.09" xlink:href="#linear-gradient"></linearGradient><linearGradient id="linear-gradient-61" x1="424.53" y1="599.47" x2="466.2" y2="604.22" gradientTransform="translate(-325.06 -356.09)" xlink:href="#linear-gradient"></linearGradient><linearGradient id="linear-gradient-62" x1="577.82" y1="688.18" x2="583.93" y2="636.85" xlink:href="#linear-gradient"></linearGradient><linearGradient id="linear-gradient-63" x1="582.88" y1="527.41" x2="580.44" y2="713.2" gradientTransform="translate(-325.06 -356.09)" xlink:href="#linear-gradient-2"></linearGradient><linearGradient id="linear-gradient-64" x1="578.42" y1="681.52" x2="581.17" y2="737.22" xlink:href="#linear-gradient"></linearGradient><linearGradient id="linear-gradient-65" x1="368.65" y1="564.69" x2="1841.07" y2="518.95" gradientTransform="translate(-325.06 -356.09)" xlink:href="#linear-gradient-2"></linearGradient><linearGradient id="linear-gradient-66" x1="490.72" y1="523.22" x2="493.47" y2="696.03" xlink:href="#linear-gradient-2"></linearGradient><linearGradient id="linear-gradient-67" x1="577.17" y1="539.81" x2="575.63" y2="657.21" xlink:href="#linear-gradient-2"></linearGradient><linearGradient id="linear-gradient-68" x1="552.66" y1="615.49" x2="558.47" y2="379.9" xlink:href="#linear-gradient"></linearGradient><linearGradient id="linear-gradient-69" x1="552.24" y1="615.47" x2="558.04" y2="379.88" xlink:href="#linear-gradient"></linearGradient><linearGradient id="linear-gradient-70" x1="513.66" y1="614.51" x2="519.47" y2="378.92" xlink:href="#linear-gradient"></linearGradient><linearGradient id="linear-gradient-71" x1="513.24" y1="614.51" x2="519.04" y2="378.92" xlink:href="#linear-gradient"></linearGradient><linearGradient id="linear-gradient-72" x1="551.77" y1="615.47" x2="557.57" y2="379.87" xlink:href="#linear-gradient"></linearGradient><linearGradient id="linear-gradient-73" x1="513.76" y1="614.53" x2="519.57" y2="378.94" xlink:href="#linear-gradient"></linearGradient><linearGradient id="linear-gradient-74" x1="533.08" y1="614.99" x2="538.9" y2="379.42" xlink:href="#linear-gradient"></linearGradient><linearGradient id="linear-gradient-75" x1="533.98" y1="615.03" x2="539.79" y2="379.43" xlink:href="#linear-gradient"></linearGradient><linearGradient id="linear-gradient-76" x1="531.34" y1="602.87" x2="633.34" y2="687.67" gradientTransform="translate(-325.06 -356.09)" xlink:href="#linear-gradient-2"></linearGradient><linearGradient id="linear-gradient-77" x1="656.36" y1="533.65" x2="655.63" y2="589.41" xlink:href="#linear-gradient-2"></linearGradient><linearGradient id="linear-gradient-78" x1="656.36" y1="578.57" x2="655.63" y2="634.33" xlink:href="#linear-gradient-2"></linearGradient><linearGradient id="linear-gradient-79" x1="491.82" y1="548.14" x2="491.73" y2="555.35" xlink:href="#linear-gradient-2"></linearGradient><linearGradient id="linear-gradient-80" x1="565.31" y1="727.64" x2="547.88" y2="646.67" gradientTransform="translate(-325.06 -356.09)" xlink:href="#linear-gradient"></linearGradient><linearGradient id="linear-gradient-81" x1="595.72" y1="712.47" x2="525.6" y2="770.69" gradientTransform="translate(-325.06 -356.09)" xlink:href="#linear-gradient"></linearGradient></defs><g id="background"><path class="cls-82" d="M115.87,81.12c-39.27,32.99-45.35,95.37-71.96,141.39-9.29,16.01-21.22,30.34-27.46,48.11-14.33,40.65,5.39,86.82,31.79,119.08,12.58,15.4,27.29,29.52,45.08,36,13.68,5,28.36,5.2,42.75,5.34l252.31,2.6c28.17.28,59.47-.74,79.72-22.55,13.93-15,19.63-36.92,24.44-57.85,5.91-25.7,11.27-53.62,2.07-78.09-10.51-28.02-37.15-43.9-53.59-68.11-26.79-39.16-26.18-98.4-60.29-129.65-15.93-14.6-36.95-20.32-57.41-23.22-38.62-5.4-75.18,4.8-113.09,3.37-32.43-1.13-67.47.98-94.36,23.57Z"></path><path class="cls-82" d="M141.24,380.66c-19.21,1.92-39.01,4.02-55.93,13.4-2.36,1.1-4.37,2.83-5.8,5-2.51,4.55.34,10.54,4.75,13.28,4.41,2.74,9.86,3.1,15.05,3.28,92.47,3.99,185.08,2.43,277.63.87,26.89-.45,54.18-.98,79.95-8.71,4.64-1.38,9.71-3.47,11.45-8,2.28-5.93-2.93-12.49-8.99-14.35-6.07-1.86-12.54-.46-18.82.34-21.79,2.8-43.78-1.55-65.48-4.91-42.49-6.69-86.56-12.14-129.59-13.16-14.67-.33-27.2,4.64-41.56,6.7-20.73,2.93-41.82,4.21-62.66,6.25Z"></path></g><g id="gear"><path class="cls-88" d="M300.35,128.61v-8.47h-5.62c-.65-2.97-1.86-5.78-3.56-8.3l4.33-4.33-5.94-6.02-4.33,4.27c-2.85-2.06-6.1-3.48-9.55-4.16v-5.96h-8.45v5.82c-3.41.49-6.67,1.75-9.54,3.67l-3.47-3.62-6.19,5.9,3.39,3.51c-2.1,2.74-3.58,5.91-4.33,9.29h-5.97v8.47h5.87c.51,3.91,1.97,7.63,4.26,10.84l-3.65,3.58,5.91,6.05,3.67-3.65c3.01,2.07,6.45,3.42,10.06,3.95v5.37h8.47v-5.5c3.22-.65,6.28-1.93,8.99-3.78l4.41,4.49,6.19-5.84-4.46-4.64c2.32-3.2,3.81-6.92,4.33-10.84l5.19-.09ZM270.94,139.79c-7.89,0-14.28-6.41-14.27-14.3,0-7.89,6.41-14.28,14.3-14.27,7.89,0,14.28,6.41,14.27,14.3,0,7.88-6.39,14.27-14.27,14.27-.01,0-.02,0-.03,0Z"></path><path class="cls-88" d="M331.39,139.94l.39-5-3.34-.25c-.25-1.79-.84-3.51-1.73-5.08l2.77-2.37-3.22-3.82-2.76,2.34c-1.57-1.34-3.42-2.33-5.42-2.88l.26-3.53-5.03-.29-.26,3.47c-2.03.14-4.01.73-5.79,1.73l-1.87-2.29-3.9,3.13,1.84,2.23c-1.35,1.53-2.36,3.34-2.96,5.29l-3.53-.26-.37,5,3.37.26c.12,2.34.81,4.61,2.03,6.61l-2.31,1.97,3.24,3.82,2.34-2c1.69,1.36,3.66,2.31,5.77,2.79l-.25,3.1,5.02.37.25-3.25c1.93-.24,3.8-.86,5.48-1.84l2.38,2.89,3.89-3.2-2.43-2.94c1.54-1.77,2.6-3.9,3.1-6.19l3.05.2ZM313.51,145.22c-4.66-.36-8.15-4.43-7.79-9.09.36-4.66,4.43-8.15,9.09-7.79,4.66.36,8.15,4.43,7.79,9.09,0,.02,0,.04,0,.05-.39,4.64-4.44,8.1-9.09,7.74Z"></path></g><g id="tool"><path class="cls-88" d="M395.69,181.52v200.27c0,4.15-3.37,7.51-7.52,7.52h-.87c-4.14-.02-7.49-3.38-7.49-7.52v-200.27l7.55-19.86,8.33,19.86Z"></path><rect class="cls-1" x="387.11" y="181.5" width="8.56" height="191.79"></rect><polygon class="cls-75" points="395.75 181.81 379.81 181.52 384.71 168.59 387.36 161.66 390.26 168.59 395.75 181.81"></polygon><polygon class="cls-79" points="390.26 168.59 384.71 168.59 387.36 161.66 390.26 168.59"></polygon><rect class="cls-78" x="379.45" y="370.08" width="16.27" height="6.87"></rect><path class="cls-80" d="M395.69,375.6v6.19c-.02,4.15-3.38,7.51-7.52,7.52h-.87c-4.14-.02-7.49-3.38-7.49-7.52v-6.19h15.88Z"></path><rect class="cls-88" x="402.25" y="135.05" width="42.78" height="254.85"></rect><rect class="cls-81" x="402.25" y="134.6" width="22.46" height="255.3"></rect><rect class="cls-74" x="402.33" y="138.69" width="11.92" height="2.06"></rect><rect class="cls-77" x="402.33" y="144.99" width="11.92" height="2.06"></rect><rect class="cls-76" x="402.33" y="151.29" width="11.92" height="2.06"></rect><rect class="cls-49" x="402.33" y="157.59" width="11.92" height="2.06"></rect><rect class="cls-52" x="402.33" y="163.89" width="11.92" height="2.06"></rect><rect class="cls-48" x="402.33" y="170.2" width="11.92" height="2.06"></rect><rect class="cls-47" x="402.33" y="176.5" width="11.92" height="2.06"></rect><rect class="cls-42" x="402.33" y="182.8" width="11.92" height="2.06"></rect><rect class="cls-50" x="402.33" y="189.1" width="11.92" height="2.06"></rect><rect class="cls-54" x="402.33" y="195.4" width="11.92" height="2.06"></rect><rect class="cls-53" x="402.33" y="201.72" width="11.92" height="2.06"></rect><rect class="cls-43" x="402.33" y="208.02" width="11.92" height="2.06"></rect><rect class="cls-51" x="402.33" y="214.32" width="11.92" height="2.06"></rect><rect class="cls-41" x="402.33" y="220.62" width="11.92" height="2.06"></rect><rect class="cls-45" x="402.33" y="226.92" width="11.92" height="2.06"></rect><rect class="cls-44" x="402.33" y="233.22" width="11.92" height="2.06"></rect><rect class="cls-46" x="402.33" y="239.52" width="11.92" height="2.06"></rect><rect class="cls-69" x="402.33" y="245.82" width="11.92" height="2.06"></rect><rect class="cls-55" x="402.33" y="252.12" width="11.92" height="2.06"></rect><rect class="cls-70" x="402.33" y="258.43" width="11.92" height="2.06"></rect><rect class="cls-68" x="402.33" y="264.73" width="11.92" height="2.06"></rect><rect class="cls-60" x="402.33" y="271.03" width="11.92" height="2.06"></rect><rect class="cls-59" x="402.33" y="277.33" width="11.92" height="2.06"></rect><rect class="cls-58" x="402.33" y="283.63" width="11.92" height="2.06"></rect><rect class="cls-66" x="402.33" y="289.95" width="11.92" height="2.06"></rect><rect class="cls-57" x="402.33" y="296.25" width="11.92" height="2.06"></rect><rect class="cls-56" x="402.33" y="302.55" width="11.92" height="2.06"></rect><rect class="cls-63" x="402.33" y="308.85" width="11.92" height="2.06"></rect><rect class="cls-61" x="402.33" y="315.15" width="11.92" height="2.06"></rect><rect class="cls-65" x="402.33" y="321.46" width="11.92" height="2.06"></rect><rect class="cls-62" x="402.33" y="327.75" width="11.92" height="2.06"></rect><rect class="cls-67" x="402.33" y="334.05" width="11.92" height="2.06"></rect><rect class="cls-64" x="402.33" y="340.37" width="11.92" height="2.06"></rect><rect class="cls-40" x="402.33" y="346.67" width="11.92" height="2.06"></rect><rect class="cls-39" x="402.33" y="352.97" width="11.92" height="2.06"></rect><rect class="cls-38" x="402.33" y="359.27" width="11.92" height="2.06"></rect><rect class="cls-37" x="402.33" y="365.57" width="11.92" height="2.06"></rect><rect class="cls-71" x="402.33" y="371.88" width="11.92" height="2.06"></rect><rect class="cls-73" x="402.33" y="378.18" width="11.92" height="2.06"></rect><rect class="cls-72" x="402.33" y="384.48" width="11.92" height="2.06"></rect></g><g id="color"><rect class="cls-86" x="50.11" y="143.91" width="108.8" height="31.78" transform="translate(-84.98 183.29) rotate(-63.88)"></rect><rect class="cls-88" x="83.29" y="186.65" width="13.3" height="21.39" transform="translate(-126.86 191.48) rotate(-63.95)"></rect><rect class="cls-4" x="83.29" y="186.65" width="13.3" height="21.39" transform="translate(-126.86 191.48) rotate(-63.95)"></rect><rect class="cls-88" x="89.13" y="174.82" width="13.3" height="21.39" transform="translate(-112.95 190.09) rotate(-63.95)"></rect><rect class="cls-2" x="89.13" y="174.82" width="13.3" height="21.39" transform="translate(-112.95 190.09) rotate(-63.95)"></rect><rect class="cls-88" x="94.95" y="162.96" width="13.3" height="21.39" transform="translate(-99.03 188.67) rotate(-63.95)"></rect><rect class="cls-3" x="94.95" y="162.96" width="13.3" height="21.39" transform="translate(-99.03 188.67) rotate(-63.95)"></rect><rect class="cls-88" x="100.81" y="151.13" width="13.3" height="21.39" transform="translate(-85.12 187.3) rotate(-63.95)"></rect><rect class="cls-13" x="100.81" y="151.13" width="13.3" height="21.39" transform="translate(-85.12 187.3) rotate(-63.95)"></rect><rect class="cls-88" x="106.63" y="139.26" width="13.3" height="21.39" transform="translate(-71.19 185.88) rotate(-63.95)"></rect><rect class="cls-88" x="112.47" y="127.44" width="13.3" height="21.39" transform="translate(-57.29 184.49) rotate(-63.95)"></rect><rect class="cls-88" x="118.3" y="115.58" width="13.3" height="21.39" transform="translate(-43.37 183.07) rotate(-63.95)"></rect><rect class="cls-11" x="111.82" y="128.9" width="13.3" height="21.39" transform="translate(-58.98 184.73) rotate(-63.95)"></rect><rect class="cls-12" x="117.66" y="117.06" width="13.3" height="21.39" transform="translate(-45.06 183.33) rotate(-63.95)"></rect><rect class="cls-86" x="73.49" y="153.52" width="108.8" height="31.78" transform="translate(-77.9 117.41) rotate(-38.77)"></rect><rect class="cls-88" x="92.67" y="186.42" width="13.33" height="21.44" transform="translate(-101.81 106.2) rotate(-38.93)"></rect><rect class="cls-10" x="92.67" y="186.42" width="13.33" height="21.44" transform="translate(-101.81 106.2) rotate(-38.93)"></rect><rect class="cls-88" x="103.08" y="178.02" width="13.33" height="21.45" transform="translate(-94.23 110.87) rotate(-38.93)"></rect><rect class="cls-14" x="103.08" y="178.02" width="13.33" height="21.45" transform="translate(-94.23 110.87) rotate(-38.93)"></rect><rect class="cls-88" x="112.73" y="170.03" width="13.3" height="21.39" transform="translate(-86.95 114.83) rotate(-38.84)"></rect><rect class="cls-8" x="112.73" y="170.03" width="13.3" height="21.39" transform="translate(-86.95 114.83) rotate(-38.84)"></rect><rect class="cls-88" x="123.04" y="161.78" width="13.3" height="21.39" transform="translate(-79.5 119.47) rotate(-38.84)"></rect><rect class="cls-9" x="123.04" y="161.78" width="13.3" height="21.39" transform="translate(-79.5 119.47) rotate(-38.84)"></rect><rect class="cls-88" x="133.85" y="153.25" width="13.33" height="21.44" transform="translate(-71.83 124.71) rotate(-38.93)"></rect><rect class="cls-88" x="144.23" y="144.82" width="13.33" height="21.44" transform="translate(-64.22 129.36) rotate(-38.93)"></rect><rect class="cls-88" x="153.97" y="137.01" width="13.3" height="21.39" transform="translate(-57.12 133.39) rotate(-38.84)"></rect><polygon class="cls-6" points="160.92 161.32 152.06 168.27 138.66 151.6 147.51 144.65 160.92 161.32"></polygon><rect class="cls-7" x="152.75" y="138.1" width="13.3" height="21.39" transform="translate(-58.07 132.87) rotate(-38.84)"></rect><path class="cls-88" d="M126.8,194.32v51.24h-8.96v-51.24c0-1.9,1.21-3.58,3-4.19v-5.12c0-.88.71-1.59,1.59-1.59s1.59.71,1.59,1.59v5.26c1.65.68,2.74,2.27,2.77,4.06Z"></path><path class="cls-5" d="M126.8,194.32v51.24h-8.96v-51.24c0-1.9,1.21-3.58,3-4.19v-5.12c0-.88.71-1.59,1.59-1.59s1.59.71,1.59,1.59v5.26c1.65.68,2.74,2.27,2.77,4.06Z"></path><path class="cls-88" d="M114.06,227.18h16.5c1.08,0,1.95.87,1.95,1.95h0c0,1.08-.87,1.95-1.95,1.95h-16.5c-1.07,0-1.93-.87-1.93-1.93h0c0-1.08.87-1.95,1.95-1.95l-.02-.02Z"></path><path class="cls-88" d="M122.51,261.72h0c-3.54,0-6.5-5.31-6.5-8.85v-23.5h12.83v23.5c0,3.54-2.8,8.85-6.33,8.85Z"></path><path class="cls-15" d="M114.06,227.18h16.5c1.08,0,1.95.87,1.95,1.95h0c0,1.08-.87,1.95-1.95,1.95h-16.5c-1.07,0-1.93-.87-1.93-1.93h0c0-1.08.87-1.95,1.95-1.95l-.02-.02Z"></path><path class="cls-16" d="M122.51,261.72h0c-3.54,0-6.5-5.31-6.5-8.85v-21.86h12.83v21.86c0,3.54-2.8,8.85-6.33,8.85Z"></path></g><g id="monitor"><rect class="cls-88" x="236.18" y="333.37" width="40.34" height="33.31"></rect><rect class="cls-17" x="236.18" y="333.37" width="40.34" height="33.31"></rect><rect class="cls-88" x="150.07" y="191.39" width="214.01" height="147.18" rx="8.13" ry="8.13"></rect><path class="cls-36" d="M357.59,204.35v121.56c.02,4.2-3.37,7.61-7.57,7.63h-186.86c-4.2,0-7.59-3.42-7.58-7.62,0,0,0-.01,0-.02h0v-121.56c0-4.2,3.38-7.61,7.58-7.63h186.85c4.2,0,7.59,3.42,7.58,7.62h0v.02Z"></path><rect class="cls-88" x="217.23" y="363.32" width="85.24" height="8.85"></rect><rect class="cls-28" x="236.21" y="358.72" width="40.34" height="4.71"></rect><path class="cls-18" d="M357.59,204.35v2.66h-202v-2.66c0-4.2,3.38-7.61,7.58-7.63h186.83c4.2,0,7.59,3.42,7.58,7.62h0v.02Z"></path><rect class="cls-26" x="159.77" y="219.86" width="19.24" height="93.96"></rect><rect class="cls-24" x="208.07" y="226.11" width="91.67" height="86.79"></rect><rect class="cls-25" x="228.84" y="267.07" width="3.5" height="3.67"></rect><rect class="cls-27" x="228.84" y="249.8" width="3.5" height="3.67"></rect><rect class="cls-31" x="189.82" y="267.07" width="3.5" height="3.67"></rect><rect class="cls-29" x="189.82" y="249.8" width="3.5" height="3.67"></rect><rect class="cls-30" x="228.84" y="230.85" width="3.5" height="3.67"></rect><rect class="cls-32" x="190.81" y="230.85" width="3.5" height="3.67"></rect><rect class="cls-23" x="210.14" y="230.85" width="3.5" height="3.67"></rect><rect class="cls-21" x="210.14" y="267.37" width="3.5" height="3.67"></rect><path class="cls-88" d="M227.71,266.56h-32.27v-30.76h32.27v30.76ZM198.69,263.29h25.77v-24.27h-25.77v24.27Z"></path><path class="cls-22" d="M227.71,266.56h-32.27v-30.76h32.27v30.76ZM198.69,263.29h25.77v-24.27h-25.77v24.27Z"></path><rect class="cls-20" x="312.88" y="211.61" width="41.25" height="41.25"></rect><rect class="cls-19" x="312.88" y="256.51" width="41.25" height="41.25"></rect><rect class="cls-35" x="159.43" y="219.63" width="19.7" height="5.15"></rect></g><g id="character"><path class="cls-85" d="M205.33,286.57c-.33-1.69-.53-4.07.09-4.24,1.35-.37-.09,4.24-.09,4.24Z"></path><path class="cls-84" d="M264.13,366.73c-.2,5.2-4.21,24.32-4.33,29.53,0,1.73.45,4.4-.09,6.07-1.15,3.54-5.2,3.1-5.74.98l-.19-1.05c-1.89-10.12,1.13-21.67,0-34.83-.7-8.08-3.89-23.64-5.97-23.75-1.1,0-26.24,53.34-28.42,56.62-1.07,1.66-4.1,1.41-5.56,2.74-1.46,1.33,12.2-40.49,18-62.63,1.34-4.54,2.21-9.21,2.6-13.93.17-2.72-.71-3.65,1.8-4.46,1.97-.4,3.98-.57,5.99-.53,2.01-.15,20.8-.19,20.8,1.15-.23,7.28,1.59,32.03,1.11,44.08Z"></path><path class="cls-33" d="M264.13,366.73c-.2,5.2-4.21,24.32-4.33,29.53,0,1.73.45,4.4-.09,6.07-1.15,3.54-5.2,3.1-5.74.98l-.19-1.05c-1.89-10.12,1.13-21.67,0-34.83-.7-8.08-3.89-23.64-5.97-23.75-1.1,0-26.24,53.34-28.42,56.62-1.07,1.66-4.1,1.41-5.56,2.74-1.46,1.33,12.2-40.49,18-62.63,1.34-4.54,2.21-9.21,2.6-13.93.17-2.72-.71-3.65,1.8-4.46,1.97-.4,3.98-.57,5.99-.53,2.01-.15,20.8-.19,20.8,1.15-.23,7.28,1.59,32.03,1.11,44.08Z"></path><path class="cls-87" d="M242.1,255.71c-.15-1.63-.91-2.51-1.66-2.51s-1.21.87-1.05,2.51c.03,1.22.94,2.23,2.15,2.4.76,0,.73-.76.56-2.4Z"></path><path class="cls-87" d="M255.94,255.82c.11-1.64.87-2.52,1.66-2.52s1.3.87,1.18,2.52c-.02,1.23-.95,2.25-2.17,2.38-.77,0-.79-.76-.67-2.38Z"></path><path class="cls-83" d="M257.03,262.72c-.11.88-3.68,4.64-7.74,4.64-3.33-.24-6.35-2.04-8.14-4.86-.71-1.38,2.15-19.23,3.81-20.71,1.66-1.49,8.36-.53,8.93.26,1.32,1.9,3.58,17.21,3.14,20.66Z"></path><path class="cls-83" d="M244.78,262.32h9.19l1.38,8.13c-5.02,2.51-7.93,2.23-11.84-.56l1.27-7.57Z"></path><path class="cls-83" d="M248.42,263.87c0-.17.33-.31.73-.31s.73.14.73.31-.33.19-.73.19-.73-.02-.73-.19Z"></path><path class="cls-84" d="M257.43,259.78c.34-2,.87-16.28-.45-18.17-1.32-1.89-9.19-3.1-10.4-2.82-2.68.67-2.21,2.6-2.21,2.6-.8.01-1.57.23-2.26.63-.91.62-2.85,9.63-1.3,16.42.68,3.1,3.42,5.73,8.14,5.85,5.8.17,8.1-2.06,8.48-4.52Z"></path><path class="cls-84" d="M246.78,239.33c.64-.54,1.47-.8,2.31-.71,2.52,0,5.03.46,7.38,1.36,1.3.46,2.49,1.21,3.47,2.18,1.02.99,1.5,2.41,1.3,3.82-.43,2.04-2.6,3.31-3.31,5.28-.33,1.53-.38,3.1-.14,4.64.02,1.29-.08,2.57-.28,3.84-.4,2.46-2.68,4.64-8.53,4.54-4.72-.12-7.45-2.79-8.14-5.85-.94-5.08-.7-10.31.71-15.28,2.54.59,5.13.88,7.74.87,2.76.03,5.52-.29,8.2-.96.43,3.97.54,7.96.31,11.95"></path><path class="cls-88" d="M232.37,269.21c-1.43.11-2.81.59-4.01,1.38-2.04,1.55-2.2,4.64-2.17,7.23-.07,3.63.18,7.25.76,10.84.6,3.28,1.73,6.44,2.65,9.64,1.44,5.23,2.19,10.63,2.23,16.05,0,2.99,0,6.27,1.81,8.59,1.81,2.32,5.65,3.1,8.89,3.22,4.61.27,9.23.3,13.84.11,3.1-.14,6.36-.45,8.81-2.34,1.95-1.55,6.52-52.55,2.97-53.84-3.6-1.13-7.34-1.78-11.11-1.93-8.41-.71-16.35-1.27-24.66,1.05Z"></path><path class="cls-34" d="M258.03,375.41c-.45,5.79-1.55,26.87-1.55,26.87l-2.74-.09c-1.89-10.14,1.13-21.67,0-34.84-.7-8.06-3.89-23.64-5.97-23.73.63-5.2,4.13-4.43,4.13-4.43,2.56,3.82,4.76,7.86,6.58,12.07,2.12,5.48.02,18.31-.45,24.15Z"></path><path class="cls-88" d="M206.41,402.33c-.43.32-.76.76-.94,1.27-.1.41-.06.85.11,1.24.49.99,1.41,1.7,2.49,1.93,1.07.2,2.17.24,3.25.11l3.47-.23c.88-.03,1.76-.17,2.6-.43.85-.26,1.55-.86,1.93-1.66.2-.59.28-1.21.23-1.83,0-2.88-1.01-5.2-4.15-4.5-3.29.62-6.37,2.03-8.99,4.1Z"></path><path class="cls-88" d="M263.99,403.41c.37.29.66.67.82,1.11.09.36.05.74-.09,1.08-.42.88-1.23,1.51-2.18,1.7-.94.19-1.9.22-2.85.09l-3.02-.2c-.77-.02-1.54-.14-2.28-.37-.73-.23-1.34-.76-1.67-1.46-.17-.5-.25-1.02-.22-1.55,0-2.51.87-4.64,3.64-3.95,2.86.53,5.55,1.74,7.85,3.53Z"></path><path class="cls-88" d="M268.17,270.09s13.23,7.97,17.2,18.06c3.96,10.09-13,34.38-13,34.38l-3.64-3.79s8.87-18.34,7.49-22.92c-1.38-4.58-6.73-8.85-6.73-8.85l-1.32-16.87Z"></path><path class="cls-88" d="M229.3,286s-18.79,8.42-26.44,4.29c-7.65-4.13.23-24.86.23-24.86l5.11,1.73s-4.27,10.57.62,12.14,19.53-8.73,19.53-8.73l.94,15.43Z"></path><path class="cls-83" d="M264.69,321.57c-.52.37-.95.86-1.24,1.42-.17.5-.24,1.02-.19,1.55-.03,1.25.49,2.44,1.44,3.25.66.38,1.4.61,2.17.65.47.08.95.08,1.42,0,.47-.1.87-.42,1.05-.87.04-.29.04-.58,0-.87.26-1.42.92-2.73,1.9-3.78.2-.23.33-.51.37-.8-.01-.33-.13-.65-.33-.91-.57-.8-1.97-2.31-3.1-2.18-1.13.12-2.65,1.83-3.51,2.54Z"></path><path class="cls-83" d="M211.32,262.78c.23-.34.4-.73.48-1.13.05-.42-.16-.84-.54-1.04-.59-.23-1.3.39-1.89.12-.2-.11-.37-.27-.5-.46-.69-1.01-1.09-2.2-1.15-3.42.03-.65-.03-1.3-.17-1.93-.19-.68-.85-1.12-1.55-1.02-.54.14-.87.7-1.21,1.15-.34.45-1.04.99-1.55,1.55-.78,1.15-1.22,2.5-1.28,3.89-.23,1.73-.39,3.71.82,4.97.93.96,3.79,2.09,5.09,1.55,1.3-.54,2.71-2.96,3.44-4.21Z"></path></g></svg>