<svg xmlns="http://www.w3.org/2000/svg" fill="none" viewBox="-0.5 -0.5 100 100" id="Collaboration-2--Streamline-Brooklyn.svg" height="100" width="100"><desc>Collaboration 2 Streamline Illustration: https://streamlinehq.com</desc><g id="collaboration-2--work-collaboration-job"><g id="hand6"><g id="vector"><path fill="#191919" d="M51.150330000000004 28.602882c0.148005 -0.052965 0.28957499999999997 -0.10395 0.42372 -0.152955 0.572715 1.0455884999999998 1.325115 2.2423005 2.323035 3.5228655l-0.429165 0.27165599999999995c-0.792495 -1.0181655 -1.5741 -2.1982455 -2.31759 -3.6415665Z" stroke-width="1"></path><path fill="#191919" d="M42.8526945 30.596247c0.04257 1.4949 -0.02079 3.275415 -0.315315 5.15196 0 0.002673 -0.13662000000000002 0.852291 -0.31665150000000003 2.1296385h-0.5752889999999999l0.006633 -0.041778c0.3557565 -2.245815 0.7166115 -4.5237555 0.6977025 -7.2046755 0.149985 -0.009405 0.317295 -0.02079 0.50292 -0.035144999999999996Z" stroke-width="1"></path></g><path id="vector_2" fill="#38a1ff" d="M34.7782545 6.711903c0.49549499999999996 1.149885 0.508365 2.40768 0.880605 3.58182 0.491535 -0.5642999999999999 1.044945 -1.016235 1.77705 -1.19196 2.21463 -0.530145 2.4997499999999997 0.5341049999999999 2.8853549999999997 0.04158 1.14345 -1.46025 3.76794 -2.204235 5.540534999999999 -1.296405 0.1584 0.08118 0.268785 0.07078499999999999 0.3762 -0.07325999999999999 0.752895 -1.00881 2.958615 -1.2860099999999999 4.2128955 -0.54351 -0.126225 -1.219185 -0.47420999999999996 -2.4695451 -0.41480999999999996 -3.6516051 0.002475 -0.0495 0.30888 -0.8632799999999999 0.501435 -0.089595 0.9038700000000001 3.6327951 2.74527 23.6486151 1.3246200000000001 24.2926101 -3.4723755 1.574595 -6.2730855 2.288385 -10.275655500000001 2.404215 -0.28214999999999996 0.008415 -0.36530999999999997 -0.209385 -0.439065 -0.40787999999999996 -2.198295 -5.912775 -5.6345849999999995 -14.394599999999999 -6.7112099999999995 -22.93533 0 -0.51579 0.15939 -0.5573699999999999 0.34253999999999996 -0.132165l-0.000495 0.001485Zm16.2681255 7.28244c0.09405 -0.11484000000000001 -0.27324000000000004 -3.646665 -0.418275 -3.7634849999999997 -0.358875 -0.288585 -0.721215 -0.555885 -1.2127005 -0.57519 -2.613105 -0.102465 -2.57895 1.637955 -3.261555 1.01376 -0.77022 -0.7038899999999999 -2.52846 -0.41480999999999996 -3.4704450000000002 0 -1.29393 0.5692499999999999 -1.180575 1.9646549999999998 -1.7354699999999998 1.27512 -0.866745 -1.077615 -3.2882849999999997 -0.112365 -4.348575 1.693395 -0.135135 0.23017500000000002 -0.17226 0.116325 0.647955 3.03138 0.17671499999999998 0.62766 0.18612 0.594495 0.44946 0.250965 0.74745 -0.97614 2.33838 -1.414215 3.4704450000000002 -0.91971 0.364815 0.15939 0.51282 0.094545 0.752895 -0.177705 1.15137 -1.305315 2.634885 -1.768635 4.2966 -1.369665 0.606375 0.14553 0.95931 0.195525 1.505295 -0.23017500000000002 0.9994050000000001 -0.77913 2.1744855 -0.752895 3.3243705 -0.23017500000000002v0.001485Zm0.54351 7.129485c0.09405 -0.136125 -0.15741 -3.7214099999999997 -0.1881 -4.024845 -0.06435 -0.63756 -2.2685355 -1.0246499999999998 -3.3555555 0.14651999999999998 -0.679635 0.73161 -0.59598 0.209385 -1.23354 -0.02079 -1.390455 -0.501435 -3.12939 0.16533 -3.8258550000000002 1.4637149999999999 -0.1683 0.313335 -0.35936999999999997 0.33759 -0.585585 0.062865 -0.7657649999999999 -0.9306 -2.9046600000000002 -0.135135 -3.86793 1.5889499999999999 -0.146025 0.26136000000000004 -0.097515 0.13365000000000002 0.909315 3.167505 0.294525 0.88803 0.9558450000000001 -1.7453699999999999 3.62736 -0.59598 0.241065 0.10345499999999999 0.326205 -0.019305 0.459855 -0.177705 0.997425 -1.1795849999999999 2.8021949999999998 -1.69488 4.160475 -1.1186999999999998 0.90981 0.3861 0.54549 -0.048015 1.3800599999999998 -0.44946 0.8384805 -0.403425 1.6829505 -0.39699 2.5195005 -0.04158v-0.000495Zm0.198495 3.21948c-0.012375 -0.63756 -0.1881 -0.814275 -0.8469450000000001 -0.8469450000000001 -0.82566 -0.04059 -1.5473205 0.17720999999999998 -2.1012255 0.815265 -0.544005 0.62667 -0.335115 -0.6623100000000001 -2.425005 -0.31383 -0.805365 0.13464 -1.574595 0.384615 -1.89189 1.2860099999999999 -0.11731499999999999 0.33363000000000004 -0.34402499999999997 0.36530999999999997 -0.57519 0.09405 -0.62469 -0.73359 -1.965645 -0.261855 -2.832885 0.5227200000000001 -0.88902 0.804375 -0.36333 1.19394 0.40787999999999996 3.4288649999999996 0.07524 0.21879 0.198495 0.33462000000000003 0.439065 0.31383 4.317885 -0.38115 8.017960500000001 -1.505295 9.4811805 -2.236905 0.439065 -0.219285 0.39996000000000004 -0.198495 0.34501499999999996 -3.0630599999999997Zm-15.4711755 -11.31075c0.679635 -1.129095 2.88981 -2.59083 4.5579600000000005 -1.7037900000000001 0.136125 0.07227 0.22869 0.05148 0.30294 -0.062865 0.52569 -0.80982 1.317195 -1.19196 2.236905 -1.369665 2.65518 -0.51282 2.715075 0.6870599999999999 3.115035 0.31383 2.32551 -2.170575 4.1817105 -0.136125 4.0767705 -0.909315 -0.198 -1.4637149999999999 0.052469999999999996 -1.67409 -0.8677349999999999 -1.913175 -3.0407355 -0.78903 -3.2214105 1.747845 -4.0455855000000005 0.888525 -0.44005500000000003 -0.458865 -3.459555 -0.817245 -5.17473 1.411245 -0.14553 0.18909 -0.303435 0.28214999999999996 -0.54351 0.11484000000000001 -1.275615 -0.88803 -3.3971850000000003 -0.31383 -4.066425 1.08702 -0.156915 0.40787999999999996 0.11484000000000001 0.9929699999999999 0.40787999999999996 2.142855l0.000495 0.000495Zm1.90278 6.8260499999999995c0.961785 -1.40085 2.7749699999999997 -2.51064 4.066425 -1.7037900000000001 0.135135 0.08464500000000001 0.28462499999999996 0.13711500000000001 0.39699 -0.08365500000000001 0.747945 -1.465695 3.46302 -1.83942 4.630725 -1.0454400000000001 0.155925 0.10593 0.25146 0.073755 0.3762 -0.052469999999999996 0.953865 -0.95931 2.0700404999999997 -1.1820599999999999 3.3243705 -0.73161 0.5227200000000001 0.187605 0.23265 -0.21978 0.219285 -1.19196 -0.01782 -1.32759 -2.9724255 -1.22562 -3.7634355 0.031185 -0.367785 0.5841 -0.553905 0.010395 -1.076625 -0.14651999999999998 -1.599345 -0.48014999999999997 -3.479355 0.19305 -4.380255 1.599345 -0.12672 0.198 -0.28363499999999997 0.315315 -0.491535 0.136125 -0.85239 -0.73557 -3.12543 -0.553905 -3.84714 1.1394900000000001 -0.08365500000000001 0.16731000000000001 -0.08365500000000001 0.07325999999999999 0.54351 2.048805l0.001485 0.000495Zm13.4852355 2.268585c-0.04059 -0.564795 -0.16681500000000002 -0.734085 -0.73161 -0.80487 -0.950895 -0.119295 -1.8398655 -0.02079 -2.4566355 0.8469450000000001 -0.33462000000000003 0.47025 -0.41778 -0.126225 -1.3483800000000001 -0.30294 -1.379565 -0.26235 -2.7423 0.30789 -3.5333099999999997 1.47411 -0.11385 0.167805 -0.20740499999999998 0.28017 -0.40787999999999996 0.104445 -1.471635 -1.2899699999999998 -3.666465 0.490545 -3.4288649999999996 1.1186999999999998 0.45441000000000004 1.200375 0.47767499999999996 1.68102 0.78408 1.25433 0.528165 -0.73557 2.202255 -1.75131 3.376395 -0.961785 0.187605 0.126225 0.23017500000000002 -0.010395 0.292545 -0.125235 0.7029 -1.29492 3.008115 -1.5642 4.03524 -0.8677349999999999 0.636075 0.431145 0.7830900000000001 -1.2078 2.9689604999999997 -0.73161 0.533115 0.116325 0.525195 0.051975 0.44946 -1.003365v-0.00099Z" stroke-width="1"></path></g><g id="hand5"><g id="vector_3"><path fill="#191919" d="M44.5757895 64.150515c0.34551 0.07078499999999999 0.35590499999999997 0.05544 2.15325 -0.24056999999999998 0.321057 -0.052469999999999996 0.6343920000000001 -0.114345 0.9405 -0.177705l0.4939605 0.375705c-1.240173 0.301455 -2.4661395 0.709335 -3.4733655 0.5860799999999999 -1.8612 -0.22671 -0.9602999999999999 -2.215125 0.125235 -3.7422 0.0717255 -0.100485 0.14354999999999998 -0.20146499999999998 0.2153745 -0.30244499999999996l0.30724650000000003 0.41035499999999997c-1.1624085 1.73349 -1.6351829999999998 2.912085 -0.762201 3.0907799999999996Z" stroke-width="1"></path><path fill="#191919" d="M27.2017845 67.997655c0.50193 -0.22968000000000002 0.993465 0.7637849999999999 1.317195 0.31383 0.387387 -0.538065 0.74052 -1.065735 1.0647449999999998 -1.584495l0.28967400000000004 0.687555c-0.1882485 0.35194499999999995 -0.370953 0.667755 -0.5084639999999999 0.843975 -1.02564 1.3167 0.17077499999999998 0.19107 4.066425 5.26878 0.353925 0.46134000000000003 0.429165 0.188595 1.19196 -0.386595 0.2878425 -0.21681 0.569646 -0.42372 0.8457075 -0.6212249999999999l0.4811895 0.308385c-0.7869510000000001 0.56826 -1.359072 1.0419749999999999 -1.734282 1.3266 -0.113355 0.08613 -0.14454 0.229185 -0.07325999999999999 0.34501499999999996 1.167705 1.89585 1.6651799999999999 0.62964 -1.9443599999999999 5.111865 -3.13335 3.8907000000000003 -7.758135 9.101565 -11.603295 12.460635 -0.261855 0.22869 -0.627165 -0.156915 -0.365805 -0.40787999999999996l0.0267795 -0.025244999999999997c2.359467 -2.264625 6.8476815 -6.57261 14.002015499999999 -15.372720000000001 1.0454400000000001 -1.285515 -6.533505 -7.505685 -6.5439 -7.51608 -0.5642999999999999 -0.47025 -0.3663 -0.387585 -0.742005 -0.177705 -6.552315 3.6634949999999997 -17.371035000000003 12.32352 -19.521810000000002 13.42935 -2.62004985 1.3473899999999999 12.480435 -10.673684999999999 19.75149 -14.004045Z" stroke-width="1"></path><path fill="#191919" d="M32.898244500000004 61.129034999999995c-0.9825750000000001 2.7076499999999997 -1.2167100000000002 3.008115 -2.15325 4.57875 -0.0280665 0.047025 -0.07380450000000001 0.13464 -0.13241250000000002 0.250965h-0.56529c2.528262 -4.34808 3.1439925 -8.095229999999999 5.1096375 -12.10473 0.153252 -0.312345 0.3111075 -0.63657 0.4720815 -0.96426l0.3513015 0.492525c-1.5773175000000001 3.523905 -3.082068 7.74081 -3.082068 7.7467500000000005Z" stroke-width="1"></path><path fill="#191919" d="M48.652114499999996 66.81609c0.5893965 -0.242055 1.1399355 -0.41877 1.6304805 -0.5578649999999999l0.3168 0.45738c-2.0125214999999996 0.61875 -2.602512 1.105335 -4.8742155 1.65825 -3.929607 0.95733 -6.793924499999999 2.468565 -8.742591 3.7436849999999997l-0.13711500000000001 -0.537075c5.1571575 -3.34125 8.2253655 -3.2932349999999997 11.806641 -4.764375Z" stroke-width="1"></path><path fill="#191919" d="m39.937986 52.40664 -0.3049695 -0.399465c0.5408865 -0.860805 1.1188485 -1.773585 1.680228 -2.5825635l0.5181165 0.14864850000000002c-0.6086025 0.859815 -1.2660615 1.877535 -1.893375 2.83338Z" stroke-width="1"></path><path fill="#191919" d="m44.0001045 50.192505 -0.457281 -0.20740499999999998c-0.715176 1.24938 -1.807146 2.7497249999999998 -2.6355285 3.9956399999999994l0.3019995 0.48906c0.8650125000000001 -1.3563 2.029698 -2.922975 2.79081 -4.277295Z" stroke-width="1"></path><path fill="#191919" d="M44.836654499999995 52.25418c-0.671814 0.7261650000000001 -2.0140065 2.218095 -3.1511204999999998 3.261555l-0.18305100000000002 -0.46134000000000003c1.4779214999999999 -1.5250949999999999 2.9347065 -3.1803749999999997 4.2098265 -4.5129150000000005l0.5898915 0.184635c-0.4353525 0.43461 -0.9225315 0.9414899999999999 -1.4655465 1.528065Z" stroke-width="1"></path><path fill="#191919" d="M47.6695395 51.606224999999995c0.1254825 -0.133155 0.24685649999999998 -0.26928 0.363231 -0.40639499999999995l0.600138 0.15543c-1.1918115 1.4548050000000001 -3.058803 3.244725 -4.692946500000001 5.664285l-0.6605775 -0.012375c1.119195 -1.7577450000000001 3.2604165000000003 -4.19958 4.390155 -5.400945Z" stroke-width="1"></path><path fill="#191919" d="M50.50386 52.007175c-0.7088399999999999 0.552915 -1.8233325 1.597365 -3.4827705 3.35214 -0.7159679999999999 0.75735 -1.259973 1.351845 -1.683099 1.82061l-0.501336 -0.16038c1.4381730000000001 -1.628055 3.5467739999999996 -4.0575149999999995 5.1019155000000005 -5.27967l0.56529 0.26730000000000004Z" stroke-width="1"></path><path fill="#191919" d="M46.86957 58.10805c1.0884555 -1.471635 2.2122539999999997 -2.91753 3.4130249999999998 -4.3065 0.21483 -0.247995 0.419265 -0.513315 0.59994 -0.7722l0.178695 0.556875c-1.31175 1.68795 -2.653101 3.353625 -3.8025404999999997 4.846545l-0.3891195 -0.32472Z" stroke-width="1"></path></g><path id="vector_4" fill="#38a1ff" d="M30.4489845 65.74491c0.5642999999999999 0.009405 1.0721699999999998 0.5123249999999999 1.06623 1.055835 -0.005444999999999999 0.48113999999999996 -0.480645 1.003365 -0.909315 1.003365 -1.47411 0 -1.620135 -2.083455 -0.156915 -2.0592Zm0.031185 1.63053c0.9929699999999999 0.010889999999999999 0.742005 -1.296405 -0.07325999999999999 -1.3068 -0.87813 -0.010889999999999999 -0.87813 1.296405 0.07325999999999999 1.3068Z" stroke-width="1"></path><path id="vector_5" fill="#38a1ff" d="M31.4191845 68.32386c0.010395 -1.3800599999999998 2.11167 -1.21275 2.0908800000000003 0.104445 -0.021285 1.337985 -2.1012750000000002 1.264725 -2.0908800000000003 -0.104445Zm0.9929699999999999 -0.63756c-0.888525 -0.03069 -0.87813 1.3003649999999998 0.062865 1.337985 0.888525 0.03564 0.8677349999999999 -1.30581 -0.062865 -1.337985Z" stroke-width="1"></path><path id="vector_6" fill="#38a1ff" d="M34.2461295 69.220305c0.5642999999999999 0.009405 1.0721699999999998 0.5123249999999999 1.06623 1.055835 -0.005444999999999999 0.48113999999999996 -0.480645 1.003365 -0.909315 1.003365 -1.47411 0 -1.620135 -2.083455 -0.156915 -2.0592Zm0.031185 1.63053c0.9929699999999999 0.010889999999999999 0.742005 -1.296405 -0.07325999999999999 -1.3068 -0.87813 -0.010889999999999999 -0.87813 1.296405 0.07325999999999999 1.3068Z" stroke-width="1"></path><path id="vector_7" fill="#38a1ff" d="M35.0623845 71.91756000000001c0.010395 -1.3800599999999998 2.11167 -1.21275 2.0908800000000003 0.104445 -0.021285 1.337985 -2.1012750000000002 1.264725 -2.0908800000000003 -0.104445Zm0.9929699999999999 -0.63756c-0.888525 -0.03069 -0.87813 1.3003649999999998 0.062865 1.337985 0.888525 0.03564 0.8677349999999999 -1.30581 -0.062865 -1.337985Z" stroke-width="1"></path></g><g id="hand4"><g id="vector_8"><path fill="#191919" d="M30.830530500000002 37.102527c5.59548 1.131075 9.553004999999999 0.198 14.351040000000001 0.611325 0.8011575 0.068112 1.6690905 0.1373625 2.5051455000000002 0.226215l-0.9362925 0.4244625c-4.0096485 -0.259578 -9.1621035 -0.1175625 -9.168588 -0.1175625 -2.685375 0.06682500000000001 -5.115825 -0.29997 -6.80922 -0.68013 0.028710000000000003 -0.19404000000000002 0.04653 -0.34748999999999997 0.057915 -0.46430999999999994Z" stroke-width="1"></path><path fill="#191919" d="M38.522335500000004 50.540985c-0.459855 -1.8193229999999998 1.714185 -1.703988 3.5333099999999997 -1.244133 2.1235995 0.542223 4.247199 1.095633 6.3421875 1.746063l1.466982 0.99396 -1.0188585 -0.297c-5.415696 -1.64835 -10.140471 -3.1628024999999997 -9.842975999999998 -1.51272 0.06237 0.35541 0.07325999999999999 0.34501499999999996 1.003365 1.92357 1.264725 2.13246 2.832885 3.658545 1.672605 6.031575 -0.313335 0.63756 -1.285515 0.78408 -1.9651500000000002 -0.198495 -1.9542599999999999 -2.780415 -2.60271 -2.84328 -4.21245 -5.153445 -2.9021850000000002 -4.155723 -5.99742 -6.450048 -7.968015 -7.690022999999999 0.06831000000000001 -0.09999000000000001 0.14354999999999998 -0.212355 0.221265 -0.33016500000000004 5.942475 3.54024 7.381935 7.210368 10.224225 10.194228 1.3899599999999999 1.4637149999999999 2.0384100000000003 2.791305 2.48787 3.0630599999999997 0.39748500000000003 0.24056999999999998 0.6900299999999999 0.12573 0.8677349999999999 -0.292545 1.118205 -2.8017 -2.25819 -5.0386050000000004 -2.812095 -7.23393Z" stroke-width="1"></path><path fill="#191919" d="M43.7802255 46.735721999999996c-0.22968000000000002 -0.03168 -0.28214999999999996 0.11484000000000001 -0.11484000000000001 0.28214999999999996 0.201564 0.1977525 1.707948 0.7199774999999999 3.500145 1.385109l-0.277893 0.4523805c-2.834964 -1.1185019999999999 -3.1709699999999996 -1.114047 -3.514797 -1.5974145 -0.545391 -0.778635 -0.1138995 -1.0203929999999999 0.8067015 -0.955746v0.49381200000000003c-0.13211550000000002 -0.021285 -0.26522100000000004 -0.041431499999999996 -0.39931649999999996 -0.060291000000000004Z" stroke-width="1"></path><path fill="#191919" d="m46.317744000000005 41.2223625 0.5698934999999999 -0.316305c0.7266104999999999 0.146124 1.5624675 0.3010095 2.411937 0.46826999999999996l-0.45361799999999997 0.41188949999999996 -0.005247 -0.0011385c-0.897435 -0.190179 -1.7770005 -0.376596 -2.5229654999999998 -0.562716Z" stroke-width="1"></path><path fill="#191919" d="M50.397435 40.4053155c-0.162855 0.0130185 -0.34056 0.0185625 -0.53262 0.0156915 -0.64647 -0.009108 -1.243044 -0.0511335 -1.7983845 -0.09909899999999999l0.7795259999999999 -0.446094c0.8164035 0.0439065 1.5584084999999999 0.058212 2.0291535 -0.028017l-0.47767499999999996 0.5575185Z" stroke-width="1"></path><path fill="#191919" d="M51.068655 38.6008425c0.21581999999999998 0.0907335 0.392535 0.191664 0.52074 0.3044745 0.16929000000000002 0.14864850000000002 0.27571500000000004 0.31942349999999997 0.30789 0.491535h-0.51678c-0.06633 -0.192753 -0.339075 -0.355014 -0.7637849999999999 -0.491535l0.45193500000000003 -0.3044745Z" stroke-width="1"></path><path fill="#191919" d="m51.380505 44.5747005 0.41778 -0.42768c-0.597465 -0.09009 -1.25928 -0.225621 -1.93347 -0.3762495l-0.567765 0.3762495c0.713295 0.16280550000000002 1.423125 0.317295 2.083455 0.42768Z" stroke-width="1"></path><path fill="#191919" d="m45.1815705 46.982578499999995 0.7615575 -0.363528c0.6928515 0.1714185 1.452924 0.39609900000000003 2.2058685 0.6388965l-0.4622805 0.3932775c-0.7865055 -0.250371 -1.6220160000000001 -0.4825755 -2.5051455000000002 -0.668646Z" stroke-width="1"></path></g><path id="vector_9" fill="#38a1ff" d="M3.9733551 38.1944475c2.1532598999999997 0.14651999999999998 2.2606749 1.667655 20.531124900000002 6.89931 1.57806 0.45193500000000003 1.5889499999999999 0.418275 1.7354699999999998 0.24056999999999998 1.4340149999999998 -1.74438 2.967525 -6.063255 3.522915 -8.25858 0.187605 -0.7424999999999999 0.19701000000000002 -0.969705 -3.2407649999999997 -3.1778999999999997 -5.6895299999999995 -3.654585 -5.56281 -3.6907200000000002 -5.822685 -3.020985 -0.231165 0.595485 -1.02564 0.75537 -1.714185 0.42867 -0.52371 -0.24849 -0.76527 -1.08801 -0.480645 -1.66221 0.248985 -0.50292 0.242055 -0.48361499999999996 -0.250965 -0.76329 -4.30353 -2.4393599999999998 -4.130775 -2.57301 -4.4847 -2.069595 -0.63063 0.8969400000000001 -2.552715 0.03069 -2.0908800000000003 -1.19196 0.245025 -0.64845 -0.28462499999999996 -0.6172650000000001 -1.4513399999999999 -1.444905 -0.049005 -0.03465 0.025244999999999997 -0.18711 0.14156999999999997 -0.1584 2.10771 0.523215 16.00632 8.451135 19.896525 11.941875 0.68904 0.618255 -1.243935 5.561325 -2.425005 7.725465 -1.243935 2.2789800000000002 -1.36917 2.497275 -1.9443599999999999 2.32056 -1.5775649999999999 -0.48411 -14.52033 -3.4184699999999997 -21.7750599 -7.599735 -0.04158 -0.031185 -0.11484000000000001 -0.04158 -0.14651999999999998 -0.20889h-0.000495ZM20.364794999999997 30.6466875c0.250965 -0.5642999999999999 -0.1683 -0.698445 -0.8469450000000001 -1.06623 -0.34551 -0.18711 -0.48213 -0.14701499999999998 -0.647955 0.219285 -0.51579 1.138005 1.035045 1.8814950000000001 1.4949 0.8469450000000001Zm-6.857729999999999 -4.1085c0.32373 -0.33462000000000003 0.021285 -0.38709 -0.940995 -0.95139 -1.159785 -0.68013 -0.282645 2.21562 0.940995 0.95139Z" stroke-width="1"></path><path id="vector_10" fill="#38a1ff" d="M7.7472449999999995 36.207913500000004c0.6900299999999999 -0.062865 1.217205 0.61677 1.23354 1.3068 0.014355000000000001 0.61677 -0.606375 1.25433 -1.19196 1.23354 -1.745865 -0.06237 -1.77705 -2.5611300000000004 -0.04158 -2.5403399999999996Zm-0.08365500000000001 0.3762c-1.1186999999999998 0.010395 -1.0454400000000001 1.82556 0.104445 1.79784 1.035045 -0.02475 1.06623 -1.80873 -0.104445 -1.79784Z" stroke-width="1"></path><path id="vector_11" fill="#38a1ff" d="M25.204904999999997 42.982038c-0.010395 1.7354699999999998 -2.493315 1.505295 -2.498265 -0.07325999999999999 -0.00495 -1.51569 2.509155 -1.7037900000000001 2.498265 0.07325999999999999Zm-0.39699 -0.02079c-0.00198 -0.47025 -0.44946 -0.91971 -0.89892 -0.91971 -0.418275 0 -0.804375 0.459855 -0.7944749999999999 0.95139 0.02277 1.149885 1.69884 1.19196 1.693395 -0.031185v-0.000495Z" stroke-width="1"></path><path id="vector_12" fill="#38a1ff" d="M14.071860000000001 34.253307c-0.6692400000000001 0.062865 -1.243935 -0.57519 -1.243935 -1.2860099999999999 0 -0.63756 0.5642999999999999 -1.19493 1.21275 -1.2023549999999998 1.693395 -0.01881 1.7354699999999998 2.48787 0.031185 2.48787v0.000495Zm-0.836055 -1.25433c0 1.19196 1.677555 1.25433 1.693395 0.062865 0.015345 -1.149885 -1.693395 -1.2860099999999999 -1.693395 -0.062865Z" stroke-width="1"></path><path id="vector_13" fill="#38a1ff" d="M25.675105499999997 36.0408015c-0.010395 1.714185 -2.4611400000000003 1.620135 -2.48787 -0.031185 -0.02574 -1.5889499999999999 2.49876 -1.7354699999999998 2.48787 0.031185Zm-1.223145 0.888525c1.1083049999999999 -0.005444999999999999 1.097415 -1.79784 -0.07325999999999999 -1.79784 -1.055835 0 -1.076625 1.8032849999999998 0.07325999999999999 1.79784Z" stroke-width="1"></path><path id="vector_14" fill="#38a1ff" d="M18.075370500000002 39.542778c-0.015345 1.620135 -2.50866 1.54737 -2.498265 -0.09405 0.010395 -1.63053 2.5146 -1.620135 2.498265 0.09405Zm-1.296405 -0.940995c-1.08702 -0.0198 -1.0454400000000001 1.7577450000000001 0 1.79784 1.1394900000000001 0.043559999999999995 1.223145 -1.775565 0 -1.79784Z" stroke-width="1"></path><path id="vector_15" fill="#38a1ff" d="M8.0610255 30.594267000000002c0 1.725075 -2.48292 1.5889499999999999 -2.477475 -0.09405 0.004455 -1.4949 2.477475 -1.63053 2.477475 0.09405Zm-0.39748500000000003 0.031185c0.015345 -1.2023549999999998 -1.67706 -1.2860099999999999 -1.683 0 -0.005444999999999999 1.09791 1.66716 1.21275 1.683 0Z" stroke-width="1"></path></g><g id="hand3"><g id="vector_16"><path fill="#191919" d="m53.465939999999996 70.371675 -0.000495 -0.000495c-0.16384500000000002 0.048015 -0.324225 0.09702000000000001 -0.48262499999999997 0.14651999999999998 -1.120185 -1.93842 -2.825955 -4.319865 -5.4588105 -6.723585 -2.080485 -1.902285 -2.0596949999999996 -2.550735 -4.5579600000000005 -4.850505 -0.87813 -0.80487 -0.606375 -1.7453699999999999 0.062865 -1.975545 2.50866 -0.8464499999999999 3.805065 0.90981 5.7598199999999995 2.435895 1.4423805 1.1186999999999998 1.4319855 1.1394900000000001 1.7770005 1.243935 1.318185 0.41728499999999996 0.9489150000000001 -2.8442700000000003 0.25641 -7.140375000000001 -0.081675 -0.50787 -0.167805 -1.030095 -0.25641 -1.5622200000000002l0.72666 0.55539v0.49104c0.236115 1.58301 0.43163999999999997 3.172455 0.6212249999999999 4.761405 0.21978 1.8607049999999998 0.052469999999999996 4.045635 -1.693395 3.34521 -2.1012255 -0.836055 -3.8782755 -4.474305 -6.805210499999999 -3.731805 -0.44946 0.11484000000000001 -0.59598 0.39699 -0.40787999999999996 0.815265 0.20889 0.480645 1.45332 1.29591 2.7180449999999996 2.86407 2.271951 2.81754 5.2098255 4.62528 7.7402655000000005 9.325304999999998 0.000495 0 0.00099 0 0.001485 -0.000495l-0.00099 0.00099Z" stroke-width="1"></path><path fill="#191919" d="M61.96212 69.087645c-0.06237 -1.555785 -0.014355000000000001 -3.451635 0.300465 -5.459849999999999 0.002475 -0.002475 0.11484000000000001 -0.69102 0.268785 -1.760715h0.563805c-0.35590499999999997 2.250765 -0.698445 4.553999999999999 -0.6385500000000001 7.278975 -0.15147 -0.02574 -0.3168 -0.045045 -0.494505 -0.05841Z" stroke-width="1"></path><path fill="#191919" d="M54.35991 56.435444999999994c0.13563 0.177705 0.292545 0.14651999999999998 0.292545 -0.08365500000000001 -0.00693 -0.814275 -0.063855 -1.5998400000000002 -0.15245999999999998 -2.35323l0.584595 0.32274c0.215325 1.981485 0.07622999999999999 3.3605549999999997 -0.97515 2.3967899999999998 -0.42273 -0.386595 -0.38907 -0.7192350000000001 -1.05633 -3.41154l0.554895 0.20097c0.34452 1.53054 0.6053850000000001 2.73141 0.7519049999999999 2.927925Z" stroke-width="1"></path></g><path id="vector_17" fill="#38a1ff" d="M54.47079 95.614695c-0.5865750000000001 -1.9993049999999999 -2.23443 -9.368865 -2.43144 -20.048985 -0.07425 -4.013955 -0.40689 -4.158989999999999 0.35541 -4.421835 4.969304999999999 -1.714185 10.27521 -1.9963350000000002 10.683584999999999 -1.32759 2.553705 4.18077 7.26066 20.368260000000003 7.539345 22.868505 0.034155000000000005 0.305415 -0.183645 0.31779 -0.297 0.13068000000000002 -0.8395199999999999 -1.383525 -2.37897 -8.293725 -6.48945 -19.96731 -0.939015 -2.666565 -1.0454400000000001 -2.7799199999999997 -1.651815 -2.759625 -3.33432 0.10989 -1.4038199999999998 -2.0408850000000003 4.871295 22.631894999999997 0.040095 0.15741 0.136125 0.3663 -0.125235 0.439065 -0.41778 0.11583 -0.0396 0.0099 -3.15711 -10.45341 -3.75012 -12.58686 -3.4704450000000002 -12.562605000000001 -4.003559999999999 -12.502709999999999 -2.141865 0.241065 -2.339865 0.051975 -2.2057200000000003 0.721215 1.279575 6.37362 4.598055 18.586755 4.84011 22.485870000000002 0.028710000000000003 0.46430999999999994 -0.094545 0.722205 -0.25888500000000003 0.16632 -0.60588 -2.048805 -2.31858 -10.472714999999999 -4.037715 -17.749215 -1.22265 -5.17473 -0.845955 -5.3163 -1.369665 -5.2371 -0.87714 0.13266 -1.73745 0.33610500000000004 -2.60271 0.54351 -0.293535 0.07028999999999999 -0.14701499999999998 0.03168 1.714185 11.90673 1.3582800000000002 8.665965 2.3418449999999997 11.65725 1.9651500000000002 11.749815 -0.30294 0.07425 -0.3366 -0.0099 -0.888525 -2.7388350000000004 -4.417875 -21.844845 -2.208195 -21.206295 -4.233735 -20.415779999999998 -0.34551 0.13464 -0.256905 0.051975 -0.052469999999999996 4.536675 0.568755 12.47499 2.327985 18.035325 2.1641399999999997 19.495575 -0.011385 0.101475 -0.215325 0.333135 -0.328185 -0.052469999999999996v-0.00099Z" stroke-width="1"></path></g><g id="hand2"><g id="vector_18"><path fill="#191919" d="M57.01509 62.425439999999995c3.82239 -0.271755 7.168095 -1.793385 13.082355 -0.88209 -0.030195 0.148005 -0.057915 0.29303999999999997 -0.08514 0.43758 -2.3265000000000002 -0.293535 -5.63211 -0.395505 -9.693584999999999 0.527175 -2.7497249999999998 0.627165 -3.27195 0.22968000000000002 -6.5859749999999995 0.9721799999999999 -1.1706750000000001 0.26136000000000004 -1.7874450000000002 -0.501435 -1.5889499999999999 -1.18107 0.73161 -2.5403399999999996 2.9165400000000004 -2.603205 5.28957 -3.334815 1.745865 -0.53361 1.75626 -0.523215 2.0384100000000003 -0.7424999999999999 1.546875 -1.181565 -4.766850000000001 -3.7738799999999997 -10.767140999999999 -6.700815 -0.59598 -0.292545 -1.3068 -0.742005 -1.4637149999999999 -1.358775 -0.679635 -2.7808604999999997 10.118691 2.566575 10.944846 2.550735 0.22968000000000002 -0.00396 0.292545 -0.146025 0.104445 -0.28214999999999996 -3.335805 -2.27997 -6.7810049999999995 -3.1483485 -8.768429999999999 -4.1709195l0.55044 -0.3374415c0.33363000000000004 0.1673595 0.6949799999999999 0.32605649999999997 1.0682099999999999 0.46426049999999996 2.7076499999999997 1.01376 9.94158 4.0663755 7.11909 4.7039355 -0.65835 0.14651999999999998 -0.888525 -0.16681500000000002 -4.871295 -1.63053 -8.143640999999999 -2.9902455 -5.9062410000000005 -0.90981 -3.616965 0.051975 2.77002 1.16028 5.435595 2.550735 8.08038 3.9619799999999996 1.651815 0.87813 3.34521 2.257695 1.77705 3.2927400000000002 -1.892385 1.243935 -5.895944999999999 0.627165 -6.95178 3.449655 -0.156915 0.439065 -0.010395 0.71082 0.439065 0.80487 0.51183 0.104445 1.89189 -0.449955 3.8991149999999997 -0.59598Z" stroke-width="1"></path><path fill="#191919" d="M72.88330500000001 53.684729999999995c-1.3068 -0.8350650000000001 -2.8244700000000003 -1.94931 -4.28571 -3.343725 -0.00495 -0.00495 -2.336895 -2.2529925 -4.866345 -4.4345565l0.229185 -0.605583c3.14919 2.5548930000000003 5.341545 5.3841645 9.185715 7.960144499999999 -0.08860499999999999 0.13563 -0.17622 0.2772 -0.262845 0.42372Z" stroke-width="1"></path><path fill="#191919" d="M58.049640000000004 43.650634499999995c-0.21581999999999998 -0.18983250000000002 -0.394515 -0.3712995 -0.539055 -0.543015l0.539055 -0.13879799999999998c0.558855 0.5564790000000001 1.44342 1.2432915 2.2690799999999998 1.90179l-0.062865 0.5318775c-0.660825 -0.5025735 -1.413225 -1.0487069999999998 -2.206215 -1.7518544999999999Z" stroke-width="1"></path><path fill="#191919" d="m59.83758 46.4830245 0.10493999999999999 -0.465201c-1.105335 -0.663201 -2.476485 -1.532322 -3.750615 -2.2505669999999998l-0.42075 0.3776355c1.32264 0.728739 2.8294200000000003 1.6540920000000001 4.066425 2.3381325Z" stroke-width="1"></path><path fill="#191919" d="m53.732745 45.432683999999995 0.449955 -0.28115999999999997c1.6255799999999998 1.073952 4.024845 2.2438845 5.289075 3.1084515v0.6449355c-1.39689 -1.0642005 -4.003064999999999 -2.278683 -5.73903 -3.4722269999999997Z" stroke-width="1"></path><path fill="#191919" d="M59.471775 49.519800000000004c-1.4612399999999999 -0.2210175 -4.28472 -1.3480335 -5.498460000000001 -1.8126405 -0.91674 -0.348777 -1.70478 -0.6269669999999999 -2.3769899999999997 -0.8444205l0.63558 -0.3797145c2.0908800000000003 0.7466085 4.654485 1.8196695 7.06266 2.6136l0.17720999999999998 0.4231755Z" stroke-width="1"></path><path fill="#191919" d="M47.836898999999995 46.4830245c-0.11568149999999999 -0.8949105 0.6493905 -1.0289565 1.934361 -0.75042l-0.5536575 0.5154930000000001c-1.0878615 -0.15755850000000002 -1.1894354999999999 0.1554795 -0.7387874999999999 0.6146415000000001l-0.2926935 0.415008c-0.190179 -0.238788 -0.310266 -0.500049 -0.3492225 -0.7947225Z" stroke-width="1"></path></g><path id="vector_19" fill="#38a1ff" d="M93.027825 72.753615c-0.909315 -0.031185 -5.85288 -1.6854749999999998 -7.11909 -2.142855 -5.0034600000000005 -1.808235 -8.906535 -3.7629900000000003 -12.157695 -5.373225000000001 -3.522915 -1.7453699999999999 -3.574395 -1.693395 -3.49173 -2.25819 0.6311249999999999 -4.285215 2.287395 -8.197199999999999 3.4184699999999997 -9.784665 1.04346 -1.464705 18.031859999999998 2.364615 19.788614999999997 2.7388350000000004 3.60558 0.767745 3.5333099999999997 0.7944749999999999 3.449655 1.21275 -0.104445 0.5227200000000001 -10.746450000000001 -2.559645 -22.475475 -3.8258550000000002 -0.20889 -0.02277 -0.291555 0.105435 -0.365805 0.250965 -1.39689 2.730915 -2.82645 6.273135 -3.21948 9.314415 -0.05148 0.39748500000000003 -0.014849999999999999 0.248985 3.1778999999999997 1.82952 0.481635 0.23859 0.29205 -0.12573 1.651815 -3.43926 2.40273 -5.8548599999999995 2.29284 -5.64201 2.4566850000000002 -5.822685 0.940005 -1.038015 -1.66221 5.822685 -1.7037900000000001 5.937525 -1.221165 3.38382 -1.733985 3.666465 -1.1186999999999998 3.9515849999999997 13.880295 6.428565 17.112645 6.37659 17.708624999999998 7.411635v-0.000495Z" stroke-width="1"></path></g><g id="hand1"><path id="vector_20" fill="#191919" d="M92.860515 19.2938625c-2.01762 0.87813 -3.076425 3.42936 -18.42984 13.47489 -1.295415 0.847935 -1.2944250000000002 0.834075 -2.41461 -0.26136000000000004 -2.014155 -1.9691100000000001 -3.710025 -4.18869 -5.205915 -6.564690000000001 -0.2178 -0.34600499999999995 -0.18711 -0.552915 0.04158 -0.85734 4.656465 -6.19047 10.221255000000001 -11.83545 12.209670000000001 -14.081265 8.90604 -10.05541515 -2.78982 1.21374 -9.596565 9.763875 -4.044645 5.081175 -3.670425 4.5584549999999995 -2.759625 6.136515 2.19186 3.79665 6.1048350000000005 6.9413849999999995 6.1152299999999995 6.95178 0.434115 0.42372 0.6791400000000001 0.051975 1.5889499999999999 -0.5123249999999999 12.300255 -7.626465 18.61794 -13.620915 18.45063 -14.049584999999999l0.000495 -0.000495Z" stroke-width="1"></path><path id="vector_21" fill="#191919" d="M71.06121 32.843002500000004c-6.30333 6.010785 -6.27462 10.28709 -8.317485 14.383215 -0.8969400000000001 1.79883 -1.12266 3.2682375 -1.47411 3.6587924999999997 -0.3069 0.34154999999999996 -0.6261749999999999 0.323235 -0.909315 -0.031185 -1.884465 -2.3584275 0.6736949999999999 -5.4784125 0.5642999999999999 -7.7465025 -0.09009 -1.8715950000000001 -2.1443399999999997 -1.121175 -3.7422 -0.14651999999999998 -2.563605 1.563705 -5.11137 3.14721 -7.526475 4.944555 -1.9963350000000002 1.4849999999999999 -4.922280000000001 2.3539725 1.7874450000000002 -3.13632 3.2828399999999998 -2.68587 3.66894 -2.7180449999999996 3.878325 -3.366 0.88803 -2.7497249999999998 -5.42322 1.91565 -7.6626 3.7422 -2.63142 2.1463200000000002 -6.130574999999999 2.79873 0.8469450000000001 -2.78091 1.5275699999999999 -1.22166 6.22017 -4.82328 4.26492 -4.777245 -1.546875 0.036135 -8.20017 5.281155 -8.927325 3.616965 -0.48361499999999996 -1.1068200000000001 6.7513049999999994 -4.235715 8.310555 -5.68656 0.43857 -0.408375 0.219285 -0.87912 -0.365805 -0.836055 -1.54737 0.11286 -6.474105000000001 2.7388350000000004 -6.439455 1.578555 0.048015 -1.610235 12.847724999999999 -5.153445 12.85812 -5.153445 4.871295 -1.369665 8.296695 -3.83526 8.223435 -3.9713849999999997 -0.04158 -0.09405 -0.104445 -0.177705 -0.156915 -0.26136000000000004 -6.031575 3.9515849999999997 -10.417275 3.901095 -15.498944999999999 5.94693 -2.28888 0.921195 -5.162355 2.0394 -5.770215 3.020985 -0.479655 0.77418 0.126225 1.580535 2.0908800000000003 0.940995 2.112165 -0.687555 3.5437049999999997 -1.5577649999999998 4.95495 -1.7037900000000001 -0.480645 0.89892 -9.004545 4.38075 -8.749619999999998 5.94792 0.494505 3.0432599999999996 6.39738 -1.8711 9.335205 -2.906145 0.04158 -0.031185 0.104445 0.052469999999999996 0.09405 0.08365500000000001 -4.36986 3.8887199999999997 -10.705364999999999 7.8111 -8.37342 8.80209 2.1210750000000003 0.9009 4.986135 -3.47391 10.43262 -5.9796 0.208395 -0.09603 0.307395 0.03366 0.198495 0.24056999999999998 -0.382635 0.7291350000000001 -10.50192 7.29432 -7.75665 8.13285 0.607365 0.1858725 1.358775 -0.198495 1.913175 -0.5642999999999999 5.57172 -3.67983 11.014245 -7.79922 11.247885 -5.864265 0.043065 0.35541 0.028710000000000003 0.354915 -0.39699 2.13246 -0.578655 2.414115 -1.6300350000000001 4.3272900000000005 0.177705 6.2516025 0.48113999999999996 0.51183 1.45332 0.365805 1.8191249999999999 -0.76329 1.045935 -3.2301225000000002 1.65132 -3.4815825 2.50866 -6.1575525 2.580435 -8.04969 7.063155 -11.205315 6.759720000000001 -11.434994999999999 -0.052469999999999996 -0.062865 -0.125235 -0.11484000000000001 -0.198495 -0.156915h-0.000495Z" stroke-width="1"></path><path id="vector_22" fill="#38a1ff" d="M68.75451 31.451607c-0.28214999999999996 0.78408 0.156915 0.89892 0.439065 1.2860099999999999 0.6172650000000001 0.8464499999999999 0.62766 0.83655 -0.07325999999999999 1.5889499999999999 -0.42867 0.46035000000000004 -0.44154 0.461835 -0.773685 -0.04158 -0.157905 -0.23958 -0.3762 -0.418275 -0.54351 -0.647955 -0.28214999999999996 -0.38709 -0.61677 -0.59598 -1.129095 -0.627165 -1.0246499999999998 -0.062865 -1.73844 -1.12959 -1.47411 -2.13246 0.082665 -0.31383 0.08811 -0.277695 -0.8677349999999999 -1.578555 -0.25245 -0.34352999999999995 -0.113355 -0.31086 0.91971 -0.909315 0.7538849999999999 -0.437085 0.64845 1.07118 2.1012750000000002 1.16028 0.80487 0.0495 1.505295 1.0454400000000001 1.40085 1.90278l0.000495 -0.00099Zm-0.54351 0.031185c0.1683 -1.79784 -2.4111450000000003 -1.9963350000000002 -2.58192 -0.33462000000000003 -0.18414 1.78794 2.4264900000000003 1.9968299999999999 2.58192 0.33462000000000003Z" stroke-width="1"></path><path id="vector_23" fill="#38a1ff" d="M66.88341 31.315977c0.01782 0.32373 -0.57519 -0.11484000000000001 -0.836055 -0.30294 -0.062865 -0.052469999999999996 -0.07325999999999999 -0.14651999999999998 0.02079 -0.198495 0.11484000000000001 -0.06336 0.8078399999999999 0.365805 0.815265 0.50193v-0.000495Z" stroke-width="1"></path><path id="vector_24" fill="#38a1ff" d="M67.14477 31.315977c-0.136125 -0.39699 0.16731000000000001 -0.888525 0.34501499999999996 -0.78408 0.177705 0.104445 -0.177705 0.63756 -0.34501499999999996 0.78408Z" stroke-width="1"></path></g></g></svg>