<svg viewBox="-0.5 -0.5 100 100" xmlns="http://www.w3.org/2000/svg" id="Coworking-Space-1--Streamline-Brooklyn.svg" height="100" width="100"><desc>COWORKING Space 1 Streamline Illustration: https://streamlinehq.com</desc><path d="M31.502295 45.057375c0.335115 0.6281549999999999 1.29294 0.9652499999999999 1.18107 1.4849999999999999a1.7127 1.7127 0 0 1 -0.39897000000000005 0.6331049999999999c-0.58707 0.73755 -1.191465 1.46322 -1.814175 2.17008a7.235415000000001 7.235415000000001 0 0 1 -0.86724 0.95238c-0.297 0.23462999999999998 -0.50985 -0.05841 -0.537075 -0.34056a3.3432299999999997 3.3432299999999997 0 0 1 0.02673 -0.65934 5.47371 5.47371 0 0 1 0.808335 -2.376c0.11187 -0.17028 0.27126 -0.49995 0.48411 -0.5445a1.40976 1.40976 0 0 0 0.4455 -0.09603 1.24443 1.24443 0 0 0 0.5692499999999999 -0.81378 0.1485 0.1485 0 0 0 -0.265815 -0.11187 3.00663 3.00663 0 0 1 -0.30888 0.52668c-0.17176499999999997 0.195525 -0.36283499999999996 0.16731000000000001 -0.5741999999999999 0.27126 -0.358875 0.17622 -0.594 0.7019099999999999 -0.7821 1.032075a5.0732550000000005 5.0732550000000005 0 0 0 -0.7449749999999999 2.79279c0.03069 0.372735 0.26631 0.776655 0.686565 0.75537 0.436095 -0.021285 0.75537 -0.537075 1.01574 -0.8296199999999999 0.766755 -0.8613 1.5161850000000001 -1.739925 2.2275 -2.643795 0.781605 -0.99 0.16533 -1.3538249999999998 -0.38313 -1.825065a2.828925 2.828925 0 0 0 -0.693 -0.48411c-0.05445 -0.02574 -0.10296 0.05346 -0.07524 0.10593Z" fill="#ffffff" stroke-width="1"></path><path d="M46.189935 48.924809999999994a1.881 1.881 0 0 0 -0.154935 0.6331049999999999 7.665570000000001 7.665570000000001 0 0 0 -0.09603 0.845955c-0.016335000000000002 1.02861 1.159785 0.97416 2.178 1.11177 0.590535 0.079695 2.3190749999999998 0.27225 2.601225 0.297a2.220075 2.220075 0 0 0 0.749925 0.010395 0.61875 0.61875 0 0 0 0.40441499999999997 -0.8296199999999999 2.2275 2.2275 0 0 0 -0.8296199999999999 -0.9202049999999999 5.73705 5.73705 0 0 0 -2.793285 -1.18107c-0.26037 -0.027225 -0.366795 0.111375 -0.594 0.18612a1.4577749999999998 1.4577749999999998 0 0 1 -0.8617950000000001 -0.15939c-0.165825 -0.0495 -0.244035 0.17423999999999998 -0.11187 0.265815a1.27116 1.27116 0 0 0 0.978615 0.20740499999999998 1.1345399999999999 1.1345399999999999 0 0 0 0.35441999999999996 -0.206415c0.181665 -0.12078 0.45193500000000003 -0.020295 0.648945 0.02673a5.537565 5.537565 0 0 1 2.21265 1.148895c0.23958 0.202455 0.764775 0.568755 0.686565 0.936045 -0.067815 0.318285 -0.4455 0.229185 -1.3246200000000001 0.1386 -0.973665 -0.099 -1.94733 -0.221265 -2.9155499999999996 -0.37224 -0.436095 -0.06831000000000001 -1.046925 -0.08019 -1.0583099999999999 -0.64944a6.98841 6.98841 0 0 0 0.052965 -1.45728 0.067815 0.067815 0 0 0 -0.12771 -0.032175Z" fill="#ffffff" stroke-width="1"></path><path d="M31.29489 55.33506c0.62469 -0.657855 1.6399350000000001 -0.571725 2.2661100000000003 0.61182 0.441045 0.83358 0.4356 1.661715 1.05336 2.76111a0.516285 0.516285 0 0 0 -0.175725 0.9840599999999999c0.40391999999999995 0.219285 1.02168 -0.12771 0.8568450000000001 -0.622215a0.5291549999999999 0.5291549999999999 0 0 0 -0.21284999999999998 -0.26631c-0.830115 -1.297395 -0.7424999999999999 -2.54826 -1.5320250000000002 -3.500145a1.759725 1.759725 0 0 0 -1.2771000000000001 -0.68607 1.218195 1.218195 0 0 0 -1.14345 0.594c-0.044055 0.09850500000000001 0.07425 0.219285 0.164835 0.12375Z" fill="#ffffff" stroke-width="1"></path><path d="M31.949279999999998 57.4101c-0.063855 -0.021285 -0.112365 -0.14354999999999998 -0.14354999999999998 -0.198a2.808135 2.808135 0 0 1 -0.1386 -0.25542c-0.0495 -0.11088 -0.195525 -0.021285 -0.180675 0.07474499999999999 0.0396 0.254925 0.18612 0.718245 0.521235 0.7073550000000001 0.44946 -0.014849999999999999 0.53361 -1.037025 0.23413499999999998 -1.0692000000000002 -0.1485 -0.01584 -0.15147 0.1485 -0.1485 0.25542 0.001485 0.080685 0.00495 0.5445 -0.14404499999999998 0.4851Z" fill="#ffffff" stroke-width="1"></path><path d="M33.210044999999994 56.691855c-0.059399999999999994 -0.111375 -0.20740499999999998 -0.0495 -0.218295 0.05841 -0.029699999999999997 0.294525 0.303435 0.64845 0.516285 0.6172650000000001 0.31927500000000003 -0.047025 0.29402999999999996 -0.594 0.138105 -0.776655a0.129195 0.129195 0 0 0 -0.2178 0.05841c-0.021779999999999997 0.122265 0.03366 0.257895 0.00495 0.37224 -0.10097999999999999 -0.05048999999999999 -0.18216 -0.25245 -0.223245 -0.32967Z" fill="#ffffff" stroke-width="1"></path><path d="M30.624660000000002 55.836c-0.607365 0.50094 -0.86229 1.7730899999999998 -0.718245 2.6705249999999996 0.089595 0.55836 0.33016500000000004 1.07415 0.40986 1.6335a2.6319150000000002 2.6319150000000002 0 0 1 -0.229185 1.6117199999999998c-0.58905 1.05534 -1.884465 0.45045 -1.85625 -0.8350650000000001 0.02475 -1.12266 0.8276399999999999 -2.0537549999999998 0.97317 -3.1600800000000002a10.580625 10.580625 0 0 1 0.186615 -1.79784 1.110285 1.110285 0 0 1 1.3137299999999998 -0.8726849999999999 0.099 0.099 0 0 0 0.07474499999999999 -0.180675 1.08009 1.08009 0 0 0 -1.2662099999999998 0.198 2.11167 2.11167 0 0 0 -0.58509 1.3884750000000001c-0.07821 0.71577 0.036135 1.1825549999999998 -0.31927500000000003 2.0908800000000003 -0.32521500000000003 0.830115 -1.22364 2.328975 -0.45738 3.43134a1.432035 1.432035 0 0 0 1.1969100000000001 0.65934c1.191465 -0.05544 1.46718 -1.617165 1.3508550000000001 -2.5428149999999996 -0.12969 -1.032075 -0.7326 -1.782 -0.297 -3.1383a8.30115 8.30115 0 0 1 0.47322 -0.96822 0.1584 0.1584 0 0 0 -0.25047 -0.1881Z" fill="#ffffff" stroke-width="1"></path><path d="M34.002539999999996 59.77719a5.97168 5.97168 0 0 0 -2.941785 0.579645 0.077715 0.077715 0 0 0 0.037125 0.14404499999999998c0.79596 -0.0396 1.554795 -0.484605 2.86209 -0.372735 0.781605 0.06732 1.916145 0.44154 2.10672 1.3246200000000001a0.715275 0.715275 0 0 1 -0.594 0.9152549999999999 2.9076299999999997 2.9076299999999997 0 0 1 -1.292445 -0.420255 12.35223 12.35223 0 0 0 -2.686365 -0.89892 0.17028 0.17028 0 0 0 -0.08514 0.31383c0.570735 0.28313999999999995 1.0197 0.211365 2.673 0.95733 0.618255 0.27967499999999995 1.4785650000000001 0.72864 2.063655 0.14354999999999998 0.831105 -0.836055 0.049995000000000005 -2.4893549999999998 -2.142855 -2.686365Z" fill="#ffffff" stroke-width="1"></path><path d="M34.034715000000006 62.45811c-0.33115500000000003 0.24354 -0.532125 0.7707149999999999 -1.02168 0.6969599999999999a0.7118099999999999 0.7118099999999999 0 0 1 -0.552915 -0.4455 1.3973849999999999 1.3973849999999999 0 0 1 0.037125 -0.776655 0.10593 0.10593 0 0 0 -0.175725 -0.099 1.04643 1.04643 0 0 0 0.436095 1.628055 1.103355 1.103355 0 0 0 1.42065 -0.9202049999999999 0.09504 0.09504 0 0 0 -0.14354999999999998 -0.08365500000000001Z" fill="#ffffff" stroke-width="1"></path><path d="M36.449819999999995 59.2614c-0.35936999999999997 -0.5672699999999999 -0.6504300000000001 -0.5445 -1.11177 -1.83546a8.795654999999998 8.795654999999998 0 0 0 -0.771705 -1.9042649999999999c-0.16384500000000002 -0.250965 -0.887535 -1.1523599999999998 -1.148895 -0.52668a0.094545 0.094545 0 0 0 0.138105 0.10642499999999999c0.35689499999999996 -0.2574 0.89397 0.936045 0.99 1.17018 0.396 0.962775 0.52767 1.9404 1.2771000000000001 2.7982349999999996a1.382535 1.382535 0 0 1 0.436095 0.718245c0.036135 0.402435 -0.18315 0.35590499999999997 -0.27670500000000003 0.579645 -0.031185 0.07474499999999999 0.036629999999999996 0.1485 0.095535 0.175725 0.35095499999999996 0.149985 0.812295 -0.5880599999999999 0.37224 -1.28205Z" fill="#ffffff" stroke-width="1"></path><path d="M27.621 64.256445c-0.622215 -0.5004449999999999 -1.4849999999999999 -0.61281 -2.23443 -0.803385 -0.882585 -0.22423500000000002 -1.771605 -0.435105 -2.6705249999999996 -0.594 -2.555685 -0.45688500000000004 -5.1088949999999995 -0.669735 -6.25581 -3.234825 -0.073755 -0.164835 -0.320265 -0.042075 -0.28214999999999996 0.11731499999999999 0.33115500000000003 1.3746150000000001 1.69092 2.279475 2.941785 2.73438 1.51965 0.551925 3.150675 0.602415 5.35689 1.15434a24.979185 24.979185 0 0 1 -4.07979 -0.473715c-7.86753 -1.98 -6.1647300000000005 -9.760905000000001 -0.5692499999999999 -10.607354999999998 3.534795 -0.535095 7.133445 2.4928199999999996 10.097999999999999 2.1384000000000003 0.090585 -0.010889999999999999 0.133155 -0.15543 0.021285 -0.17523a15.09354 15.09354 0 0 1 -3.3194700000000004 -0.8246699999999999c-2.00673 -0.698445 -4.241655000000001 -1.81368 -6.53796 -1.590435 -3.39273 0.329175 -5.820705 3.155625 -5.415299999999999 6.3300600000000005 0.308385 2.4156 2.0908800000000003 3.834765 4.351545 4.734674999999999 2.9101049999999997 1.158795 5.713785 0.5172749999999999 8.38926 1.446885 0.193545 0.06732 0.368775 -0.21978 0.20592 -0.35244Z" fill="#ffffff" stroke-width="1"></path><path d="M22.320539999999998 61.580475a0.188595 0.188595 0 0 0 0.04257 0.34056c0.71775 0.1485 1.4355 0.282645 2.159685 0.42569999999999997 0.95634 0.188595 1.278585 0.16632 1.431045 0.936045a0.11879999999999999 0.11879999999999999 0 0 0 0.198 0.05346 0.594 0.594 0 0 0 -0.079695 -0.7821c-0.32472 -0.396 -0.715275 -0.43758 -3.1600800000000002 -0.89892a2.951685 2.951685 0 0 0 1.05336 -3.1655249999999997c-0.396 -1.22859 -1.884465 -2.3057100000000004 -3.1813649999999996 -1.8404099999999999a0.08118 0.08118 0 0 0 0.021285 0.15939c1.197405 0.016335000000000002 2.4324299999999996 0.5865750000000001 2.80863 1.814175a2.5611300000000004 2.5611300000000004 0 0 1 -1.293435 2.9576249999999997Z" fill="#ffffff" stroke-width="1"></path><path d="M27.837315 61.596315a6.22512 6.22512 0 0 0 -0.9405 0.159885 8.934750000000001 8.934750000000001 0 0 0 -0.891 0.03168 0.099 0.099 0 0 0 -0.021285 0.175725 2.507175 2.507175 0 0 0 1.9304999999999999 -0.175725 0.11187 0.11187 0 0 0 -0.077715 -0.191565Z" fill="#ffffff" stroke-width="1"></path><path d="M87.80112 35.098965c0.5662799999999999 -0.35145 0.97911 -0.29056499999999996 1.32957 -1.244925a4.959405 4.959405 0 0 0 0.2475 -1.047915 1.5023250000000001 1.5023250000000001 0 0 0 -0.0495 -0.99 0.089595 0.089595 0 0 0 -0.15444 0 2.0364299999999997 2.0364299999999997 0 0 0 -0.14354999999999998 0.845955 6.149385 6.149385 0 0 1 -0.20195999999999997 0.973665c-0.262845 0.89496 -0.662805 0.868725 -1.14939 1.3246200000000001 -0.06435 0.064845 0.03465 0.191565 0.12177 0.1386Z" fill="#ffffff" stroke-width="1"></path><path d="M93.95595 46.057770000000005c-0.8316 -0.2475 -2.55321 -0.19206 -3.3303599999999998 0.366795 -0.1485 0.10692 -0.062865 0.4059 0.1386 0.32472a4.433715 4.433715 0 0 1 2.475 -0.41480999999999996c1.0687049999999998 0.064845 1.43946 0.43461 1.40976 1.4523300000000001 -0.02475 0.8415 -0.13761 1.952775 -0.7424999999999999 2.59578 -0.6692400000000001 0.708345 -1.642905 0.37719 -2.16513 -0.32967a5.05197 5.05197 0 0 1 -0.6331049999999999 -1.29294 6.29838 6.29838 0 0 1 -0.32967 -1.62756 0.12276 0.12276 0 0 0 -0.239085 -0.032175 2.8571400000000002 2.8571400000000002 0 0 0 0.20195999999999997 1.65429 5.6925 5.6925 0 0 0 0.67023 1.4355c0.5148 0.72963 1.47312 1.24443 2.329965 0.76626 0.9256500000000001 -0.51678 1.1384999999999998 -1.7235900000000002 1.2375 -2.681415 0.110385 -1.067715 0.01584 -1.9067399999999999 -1.023165 -2.217105Z" fill="#ffffff" stroke-width="1"></path><path d="M91.70023499999999 47.504655a3.63033 3.63033 0 0 0 1.04247 0.138105 2.19186 2.19186 0 0 0 1.117215 -0.12276 0.46035000000000004 0.46035000000000004 0 0 0 0.15444 -0.67023c-0.20690999999999998 -0.25047 -0.58509 -0.23067000000000001 -0.8776349999999999 -0.24453a3.8115 3.8115 0 0 0 -1.188 0.05841c-0.769725 0.21284999999999998 -0.720225 0.735075 -0.24849 0.841005Z" fill="#ffffff" stroke-width="1"></path><path d="M95.902785 47.41407c-0.30888 -0.12672 -0.7524 -0.01584 -0.7712100000000001 0.372735a0.11385 0.11385 0 0 0 0.191565 0.079695c0.47272499999999995 -0.5004449999999999 0.8513999999999999 0.388575 0.749925 0.7979400000000001 -0.052965 0.21284999999999998 -0.2475 0.495 -0.5053949999999999 0.45193500000000003 -0.122265 -0.02079 -0.28808999999999996 -0.198 -0.40441499999999997 -0.0495 -0.25344 0.326205 0.43659 0.747945 0.9840599999999999 0.27126a1.200375 1.200375 0 0 0 -0.24453 -1.924065Z" fill="#ffffff" stroke-width="1"></path><path d="M23.61843 40.61574c-2.2953149999999996 2.1938400000000002 -6.93792 7.53489 -8.9595 9.94257a123.279255 123.279255 0 0 0 -12.148785 16.847324999999998 0.2475 0.2475 0 0 0 0.212355 0.36729c2.6017200000000003 0.229185 5.18166 0.62271 7.756155000000001 1.037025 3.564 0.5741999999999999 26.17065 3.946635 31.721580000000003 4.33026 0.22374 0.015345 0.28214999999999996 -0.3663 0.05346 -0.39897000000000005 -2.4428249999999996 -0.3465 -4.904955 -0.59004 -7.352234999999999 -0.89892 -2.65419 -0.335115 -29.327265 -4.293135 -32.17896 -4.564395 0.0693 0.122265 0.1386 0.2475 0.21284999999999998 0.36729 7.7715 -13.10859 17.42895 -22.675455 20.858805 -26.854245a0.124245 0.124245 0 0 0 -0.175725 -0.17523Z" fill="#ffffff" stroke-width="1"></path><path d="M60.590475 33.9768c-0.191565 0.811305 0 1.540935 -0.6331049999999999 2.9630699999999996 -0.3465 0.77715 -0.962775 1.6335 -1.9304999999999999 1.4355 -1.6434 -0.333135 -2.27403 -3.07296 -2.356695 -4.71339a6.414705 6.414705 0 0 0 4.532715 -0.239085c0.1485 -0.07425 0.04257 -0.29205 -0.10642499999999999 -0.25542 -1.6731 0.409365 -2.93436 0.553905 -4.591125 0.005444999999999999a0.210375 0.210375 0 0 0 -0.265815 0.20195999999999997c0.0495 1.541925 0.51579 3.90654 1.691415 4.894065a1.9988100000000002 1.9988100000000002 0 0 0 2.042865 0.40441499999999997 2.9699999999999998 2.9699999999999998 0 0 0 1.40976 -1.7127c0.33115500000000003 -0.7979400000000001 0.67617 -2.208195 0.420255 -2.984355a0.111375 0.111375 0 0 0 -0.213345 0.000495Z" fill="#ffffff" stroke-width="1"></path><path d="M59.281695 26.151345000000003a1.151865 1.151865 0 0 0 0.52173 0.40441499999999997 17.941274999999997 17.941274999999997 0 0 0 -1.744875 5.00544 0.104445 0.104445 0 0 0 0.20195999999999997 0.05346 28.812465 28.812465 0 0 1 1.37808 -4.000590000000001c0.28512 -0.62568 0.37719 -0.7623 0.441045 -0.89892a0.03069 0.03069 0 0 0 0.021285 -0.005444999999999999 2.7819 2.7819 0 0 0 1.287 -1.079595 2.04336 2.04336 0 0 0 0.521235 -1.782c-0.009405 -0.111375 -0.14354999999999998 -0.23413499999999998 -0.254925 -0.1485a4.819815 4.819815 0 0 0 -1.5800400000000001 1.8032849999999998c-0.162855 -1.22166 -1.558755 -2.578455 -1.6335 -1.9151550000000002a2.6334 2.6334 0 0 0 0.841005 2.563605Zm2.298285 -1.96317a1.7325 1.7325 0 0 1 -0.489555 1.22364 2.89773 2.89773 0 0 1 -0.9999 0.88308 3.6040949999999996 3.6040949999999996 0 0 1 1.4874749999999999 -2.10672Zm-2.484405 0.079695a3.006135 3.006135 0 0 1 0.73953 1.910205 4.105035 4.105035 0 0 1 -0.81378 -0.9365399999999999 2.13246 2.13246 0 0 1 -0.24453 -1.345905c0.11682 0.11731499999999999 0.22720500000000002 0.265815 0.31878 0.37224Z" fill="#ffffff" stroke-width="1"></path><path d="M57.81897 33.08283c0.032175 0.099 0.06336 0.202455 0.09603 0.303435a0.12969 0.12969 0 0 0 0.2475 -0.0693c-0.310365 -2.193345 -1.6255799999999998 -5.71329 -2.51658 -7.708139999999999a2.772 2.772 0 0 0 -2.233935 -3.0591 0.1881 0.1881 0 0 0 -0.23413499999999998 0.175725 2.861595 2.861595 0 0 0 1.287 2.612115c0.214335 0.162855 0.5103449999999999 0.44154 0.792 0.41480999999999996a0.0891 0.0891 0 0 0 0.0495 -0.01584 37.35666 37.35666 0 0 1 1.888425 5.192055000000001 3.38976 3.38976 0 0 0 -3.1284 -1.4523300000000001 0.172755 0.172755 0 0 0 -0.164835 0.2178 4.56489 4.56489 0 0 0 1.628055 2.0161350000000002c0.484605 0.403425 1.62954 1.3637249999999999 2.289375 1.372635Zm-3.7342799999999996 -8.60211a2.376 2.376 0 0 1 -0.558855 -1.5161850000000001 2.553705 2.553705 0 0 1 1.771605 1.90476 1.438965 1.438965 0 0 0 -0.28709999999999997 -0.388575 0.08860499999999999 0.08860499999999999 0 0 0 -0.1485 0.063855 2.51559 2.51559 0 0 0 0.265815 0.8088299999999999 3.564 3.564 0 0 1 -1.0429650000000001 -0.8726849999999999Zm0.22869 5.341049999999999a3.2011649999999996 3.2011649999999996 0 0 1 1.89882 0.5692499999999999 4.03623 4.03623 0 0 1 1.2375 1.65429c0.021285 0.03762 0.0495 0.05346 0.079695 0.0495 0.05841 0.198 0.11682 0.39897000000000005 0.17523 0.594a6.40827 6.40827 0 0 1 -1.92555 -1.218195 4.609439999999999 4.609439999999999 0 0 1 -1.465695 -1.648845Z" fill="#ffffff" stroke-width="1"></path><path d="M61.569585 29.105999999999998a4.193145 4.193145 0 0 0 -3.14424 2.46312c-0.0495 0.133155 0.15444 0.20740499999999998 0.22374 0.09603A4.25106 4.25106 0 0 1 61.38 29.50794c0.05841 -0.014849999999999999 0.143055 -0.057420000000000006 0.198 -0.01584 0.042075 0.032670000000000005 -0.026234999999999998 0.260865 -0.04257 0.30294 -0.27918 0.9771299999999999 -1.6290449999999999 2.04633 -2.861595 2.10177a1.4355 1.4355 0 0 0 -0.495 0.03168 0.159885 0.159885 0 0 0 -0.037125 0.28709999999999997 1.3563 1.3563 0 0 0 0.90981 0.03762c2.34927 -0.39154500000000003 3.550635 -3.231855 2.518065 -3.14721Z" fill="#ffffff" stroke-width="1"></path><path d="M57.10617 28.24173a2.29284 2.29284 0 0 1 0.6435 -1.89882 1.06722 1.06722 0 0 1 0.005444999999999999 1.09593c-0.24156 0.535095 -0.550935 0.792 -0.532125 1.106325a0.099 0.099 0 0 0 0.1485 0.08514c0.23958 -0.111375 0.36234 -0.41480999999999996 0.489555 -0.6331049999999999a2.795265 2.795265 0 0 0 0.341055 -0.7722 1.174635 1.174635 0 0 0 -0.35095499999999996 -1.18107 0.1485 0.1485 0 0 0 -0.198 0 2.356695 2.356695 0 0 0 -0.7424999999999999 2.22354c0.03069 0.10196999999999999 0.205425 0.080685 0.195525 -0.02574Z" fill="#ffffff" stroke-width="1"></path><path d="M53.680274999999995 33.35409c-0.257895 -0.1881 -0.566775 -0.208395 -2.10672 -0.31927500000000003 -0.366795 -0.026234999999999998 -0.73953 -0.037125 -1.106325 -0.0495a4.04118 4.04118 0 0 0 -1.085535 0.0495 0.11385 0.11385 0 0 0 0 0.218295 4.81734 4.81734 0 0 0 1.032075 0.122265c2.8497149999999998 0.21483 2.875455 0.340065 3.239775 0.198a0.126225 0.126225 0 0 0 0.02673 -0.219285Z" fill="#ffffff" stroke-width="1"></path><path d="M69.72471 34.040655c-0.307395 -0.11879999999999999 -0.157905 -0.08316 -4.000590000000001 -0.23413499999999998 -1.3563 -0.05346 -2.7126 -0.112365 -4.069395 -0.058905a0.12276 0.12276 0 0 0 0 0.245025c1.94832 0.22374 3.96 0.23759999999999998 7.064145 0.38313a2.90565 2.90565 0 0 0 1.00584 -0.04257 0.15245999999999998 0.15245999999999998 0 0 0 0 -0.292545Z" fill="#ffffff" stroke-width="1"></path><path d="M92.81745 41.5305c0.11979 0.629145 0.2475 1.14543 0.55836 2.48985a1.20087 1.20087 0 0 0 0.25542 0.6380549999999999 0.08711999999999999 0.08711999999999999 0 0 0 0.14354999999999998 -0.037125c0.07325999999999999 -0.205425 0.044055 -0.30987 -0.27621 -1.5161850000000001 -0.14553 -0.54747 -0.297 -1.093455 -0.48411 -1.62756a0.10196999999999999 0.10196999999999999 0 0 0 -0.19701000000000002 0.052965Z" fill="#ffffff" stroke-width="1"></path><path d="M94.7925 51.084c0.46826999999999996 3.819915 0.51876 3.935745 0.7821 5.5642949999999995a6.11325 6.11325 0 0 0 0.420255 1.7928899999999999 0.118305 0.118305 0 0 0 0.21284999999999998 -0.02673 5.45688 5.45688 0 0 0 -0.1485 -1.7325c-0.156915 -0.936045 -0.35441999999999996 -2.376 -1.0429650000000001 -5.62815 -0.02574 -0.123255 -0.241065 -0.096525 -0.22374 0.030195Z" fill="#ffffff" stroke-width="1"></path><path d="M85.348395 19.62378a1.80477 1.80477 0 0 0 -1.744875 0.17028 4.019895 4.019895 0 0 0 -0.579645 0.771705 1.593405 1.593405 0 0 0 -0.265815 0.99 0.03861 0.03861 0 0 0 0.010395 0.026234999999999998 0.10642499999999999 0.10642499999999999 0 0 0 0.15939 0.07474499999999999 2.22156 2.22156 0 0 1 3.521925 1.462725 0.094545 0.094545 0 0 0 0.138105 0.05841 0.45342 0.45342 0 0 1 0.46826999999999996 -0.052965c0.058905 0.02574 0.12276 -0.037125 0.122265 -0.09603 -0.00891 -1.372635 -0.39798 -2.8967400000000003 -1.830015 -3.405105Z" fill="#38a1ff" stroke-width="1"></path><path d="M87.38086499999999 24.023339999999997c0.043559999999999995 -0.37224 -0.31779 -1.020195 -0.7236899999999999 -0.622215 -0.05346 0.052469999999999996 -0.01584 0.165825 0.063855 0.15939 0.540045 -0.04455 0.402435 1.06128 -0.431145 0.946935a0.17176499999999997 0.17176499999999997 0 0 0 -0.16978500000000002 0.133155 1.44342 1.44342 0 0 0 0.20195999999999997 1.164735 0.14404499999999998 0.14404499999999998 0 0 0 0.24453 -0.099 4.94208 4.94208 0 0 1 -0.11682 -0.8350650000000001 0.96822 0.96822 0 0 0 0.931095 -0.847935Z" fill="#ffffff" stroke-width="1"></path><path d="M83.295135 25.839000000000002a1.092465 1.092465 0 0 0 0.8246699999999999 0.111375c0.010395 0.1485 0.00792 0.297 0.00495 0.4455 0 0.032175 0.01386 0.026234999999999998 -0.07425 -0.02673s-0.21284999999999998 0.063855 -0.1485 0.1485c0.594 0.792 2.5641 0.47420999999999996 2.5641 -0.335115a0.114345 0.114345 0 0 0 -0.17028 -0.099c-0.255915 0.16632 -0.3267 0.50688 -1.0107899999999999 0.547965a2.36016 2.36016 0 0 1 -0.9256500000000001 -0.11187 0.11385 0.11385 0 0 0 0.058905 -0.09009 0.964755 0.964755 0 0 0 -0.0693 -0.5534100000000001c0.538065 -0.211365 1.36323 -0.870705 1.27116 -1.39887a0.099 0.099 0 0 0 -0.14354999999999998 -0.058905c-0.216315 0.16137 -0.252945 0.538065 -0.792 0.931095 -0.40689 0.297 -0.962775 0.48906 -1.37808 0.10642499999999999 -0.669735 -0.61776 -0.34352999999999995 -2.288385 -0.409365 -3.2175a0.081675 0.081675 0 0 0 -0.15939 -0.021285 5.08167 5.08167 0 0 0 -0.133155 2.170575 1.7325 1.7325 0 0 0 0.690525 1.4513399999999999Z" fill="#ffffff" stroke-width="1"></path><path d="M83.252565 23.507550000000002a0.17325 0.17325 0 0 0 0 -0.3465 0.17325 0.17325 0 0 0 0 0.3465Z" fill="#ffffff" stroke-width="1"></path><path d="M84.417795 23.688225a0.172755 0.172755 0 0 0 0 -0.3465 0.172755 0.172755 0 0 0 0 0.3465Z" fill="#ffffff" stroke-width="1"></path><path d="M83.23128 22.390334999999997c0.02673 -0.021285 0.05841 -0.02673 0.090585 -0.0495a0.80091 0.80091 0 0 1 0.11682 -0.063855c0.08514 -0.037125 0.18612 -0.01584 0.249975 -0.090585a0.127215 0.127215 0 0 0 0 -0.180675c-0.136125 -0.126225 -0.396 0 -0.52668 0.133155a0.473715 0.473715 0 0 0 -0.07425 0.17028c-0.02673 0.08613 0.08514 0.13414500000000001 0.14354999999999998 0.08118Z" fill="#ffffff" stroke-width="1"></path><path d="M85.002885 22.19877c-0.288585 -0.2475 -0.5222249999999999 -0.06435 -0.415305 0.05841 0.064845 0.073755 0.159885 0.11187 0.23413499999999998 0.18612s0.129195 0.17968499999999998 0.20740499999999998 0.25542c0.099 0.09405 0.29056499999999996 0 0.23958 -0.138105a0.91278 0.91278 0 0 0 -0.265815 -0.36184499999999997Z" fill="#ffffff" stroke-width="1"></path><path d="M83.44413 23.932754999999997a0.72072 0.72072 0 0 0 0.27670500000000003 0.133155c0.08464500000000001 0.01188 0.18562499999999998 -0.07425 0.12771 -0.164835a0.49104 0.49104 0 0 0 -0.1386 -0.138105 1.41669 1.41669 0 0 0 0.23958 -0.803385c-0.00495 -0.08514 -0.143055 -0.11682 -0.159885 -0.021285a2.1285 2.1285 0 0 1 -0.393525 0.7979400000000001 0.14057999999999998 0.14057999999999998 0 0 0 0.048015 0.196515Z" fill="#ffffff" stroke-width="1"></path><path d="M83.67282 24.56091a0.23710499999999998 0.23710499999999998 0 0 0 -0.292545 0.212355c-0.005444999999999999 0.016335000000000002 -0.005444999999999999 0.02673 -0.010889999999999999 0.04257 -0.046035 0.634095 0.625185 0.693 0.792 0.260865a0.44946 0.44946 0 0 0 -0.133155 -0.532125 0.30294 0.30294 0 0 0 -0.35541 0.016335000000000002Z" fill="#ffffff" stroke-width="1"></path><path d="M87.4665 17.628929999999997a1.303335 1.303335 0 0 0 -0.7449749999999999 0.7449749999999999c-0.380655 -0.099 -0.8415 0.18414 -0.8617950000000001 0.96822 -0.02079 0.8118 1.2672 0.420255 1.505295 -0.335115a1.00683 1.00683 0 0 0 0.771705 -0.21284999999999998 1.56024 1.56024 0 0 0 0.65934 1.1221649999999999 2.70369 2.70369 0 0 0 0.489555 2.51658 2.204235 2.204235 0 0 0 0.0495 2.244825c-0.5692499999999999 0.5534100000000001 -0.9405 1.7235900000000002 -0.287595 2.29284a2.4136200000000003 2.4136200000000003 0 0 0 -0.38808000000000004 1.188c-0.015345 0.287595 0.02673 1.144935 0.52668 0.946935 0.51876 -0.20493 0.9405 -1.28304 0.478665 -2.1285a1.623105 1.623105 0 0 0 0.606375 -1.058805 1.322145 1.322145 0 0 0 -0.37224 -1.2375 1.683 1.683 0 0 0 0.489555 -1.34046 1.6533 1.6533 0 0 0 -0.5534100000000001 -1.058805 1.86813 1.86813 0 0 0 -0.436095 -2.574 1.23354 1.23354 0 0 0 -1.12266 -1.83546 0.750915 0.750915 0 0 0 -0.80982 -0.24304499999999998Z" fill="#ffffff" stroke-width="1"></path><path d="M88.49758499999999 25.135109999999997a1.528065 1.528065 0 0 0 -0.052965 -1.4949 1.31967 1.31967 0 0 0 0.07425 -1.63845 2.9205 2.9205 0 0 1 0.12771 -0.265815 1.4399549999999999 1.4399549999999999 0 0 0 -0.38808000000000004 -1.356795 0.699435 0.699435 0 0 0 -0.36184499999999997 -0.994455 0.811305 0.811305 0 0 0 -0.9840599999999999 0.36184499999999997 0.333135 0.333135 0 0 0 -0.099 0.366795 0.63558 0.63558 0 0 0 0.48411 0.558855 1.157805 1.157805 0 0 0 0.35095499999999996 1.1384999999999998 1.2345300000000001 1.2345300000000001 0 0 0 0.090585 1.6597350000000002 1.47015 1.47015 0 0 0 -0.12771 1.53747 1.242945 1.242945 0 0 0 -0.5004449999999999 0.814275 1.41867 1.41867 0 0 0 0.33561 1.0692000000000002 1.7092349999999998 1.7092349999999998 0 0 0 -0.28214999999999996 1.10088c0.02772 0.31383 0.198 1.0395 0.61182 1.02663 0.495 -0.012375 0.99 -1.29294 0.45738 -2.292345 0.47619 -0.783585 0.27670500000000003 -1.12068 0.11682 -1.356795a1.47906 1.47906 0 0 0 0.14701499999999998 -0.23462999999999998Z" fill="#ffffff" stroke-width="1"></path><path d="M86.61460500000001 26.555760000000003c-0.254925 0.03366 -0.409365 0.335115 -0.5053949999999999 0.55836a1.3365 1.3365 0 0 0 -0.23958 1.159785c0.0495 0.198 0.181665 0.42223499999999997 0.420255 0.34056 0.25641 -0.08811 0.41085 -0.46233 0.51084 -0.686565a2.31264 2.31264 0 0 0 0.26631 -0.909315 0.432135 0.432135 0 0 0 -0.45243 -0.46282500000000004Z" fill="#ffffff" stroke-width="1"></path><path d="M81.246825 27.236385000000002a2.76111 2.76111 0 0 1 2.03247 -0.55836c0.122265 0.004455 0.18562499999999998 -0.18562499999999998 0.063855 -0.23958a2.2690799999999998 2.2690799999999998 0 0 0 -2.011185 0.30888c-0.9801 0.584595 -1.37709 1.48896 -1.8404099999999999 2.686365a7.5913200000000005 7.5913200000000005 0 0 0 -0.27126 0.808335 1.2107700000000001 1.2107700000000001 0 0 0 -0.090585 0.594c0.25641 0.6172650000000001 0.8296199999999999 -2.6992350000000003 2.117115 -3.59964Z" fill="#ffffff" stroke-width="1"></path><path d="M81.74182499999999 32.19975a0.07722 0.07722 0 0 0 0.133155 0 2.995245 2.995245 0 0 0 0.17523 -0.65439c0.15147 -0.6331049999999999 0.5395500000000001 -1.3444200000000002 0.335115 -2.117115 -0.03069 -0.11731499999999999 -0.223245 -0.09603 -0.21284999999999998 0.02673 0.08613 1.0083149999999999 -0.806355 2.089395 -0.43065 2.7447749999999997Z" fill="#ffffff" stroke-width="1"></path><path d="m84.45492 19.13967 0 0.058905a0.226215 0.226215 0 0 0 0.223245 0.223245c0.218295 0.0099 0.514305 0.08316 0.693 -0.07425a0.99396 0.99396 0 0 0 0.17028 -0.26631c0.064845 -0.111375 0.159885 -0.138105 0.23958 -0.2178 0.09009 -0.090585 0.10493999999999999 -0.23562 0.20195999999999997 -0.335115 0.22572 -0.23215499999999997 0.7608149999999999 -0.396 0.830115 -0.7979400000000001 0.13266 -0.773685 -1.34541 -0.800415 -1.80873 0.35095499999999996 -0.578655 0.263835 -0.7227 0.88506 -0.54945 1.0583099999999999Z" fill="#ffffff" stroke-width="1"></path><path d="M87.20514 17.560125a2.273535 2.273535 0 0 1 0.52668 -0.1386 0.23413499999999998 0.23413499999999998 0 0 0 0 -0.46826999999999996 1.2276 1.2276 0 0 0 -0.659835 0.12771 0.2475 0.2475 0 1 0 0.133155 0.47916Z" fill="#ffffff" stroke-width="1"></path><path d="M91.48194000000001 36.247859999999996a3.4852950000000003 3.4852950000000003 0 0 0 0.792 -2.08494c0.09207 -2.6235 -1.420155 -6.6924 -2.027025 -7.272045 -0.043559999999999995 -0.04158 -0.13662000000000002 -0.016335000000000002 -0.12771 0.052965a8.451630000000002 8.451630000000002 0 0 0 0.5534100000000001 1.4849999999999999 18.18432 18.18432 0 0 1 1.191465 4.9203c0.108405 1.1424599999999998 -0.022275 2.010195 -0.866745 2.883375 -1.3998599999999999 1.44639 -4.204035 1.433025 -4.846545 1.5800400000000001 -0.203445 0.04653 -0.06534000000000001 0.27225 0.09603 0.38313a17.99721 17.99721 0 0 0 1.55331 0.936045 24.89157 24.89157 0 0 0 -6.984945000000001 3.78774c0.07425 0.130185 -0.0693 -0.123255 0.594 0.96822a0.16978500000000002 0.16978500000000002 0 0 1 -0.02673 0.20195999999999997c-0.253935 0.225225 -0.5053949999999999 0.45243 -0.749925 0.68112 0.037125 0.099 0.080685 0.198 0.122265 0.292545a0.206415 0.206415 0 0 0 0.23413499999999998 0.09603c1.37709 -0.25443 2.733885 -0.5865750000000001 4.09068 -0.9256500000000001 2.338875 -0.58509 4.932675 -1.287 6.910200000000001 -2.80368a3.96 3.96 0 0 0 1.744875 -2.8353599999999997c0.07722 -1.469655 -1.22463 -2.509155 -2.252745 -2.3467949999999997Z" fill="#ffffff" stroke-width="1"></path><path d="M38.79018 23.927805c-0.08563499999999999 -0.754875 -0.38808000000000004 -1.121175 -0.781605 -2.71854 -0.38709 -1.569645 -0.7880400000000001 -3.96 -1.96317 -5.0985000000000005a2.94525 2.94525 0 0 0 -2.7076499999999997 -0.6380549999999999A1.51668 1.51668 0 0 0 32.2245 16.978499999999997c-1.159785 0.89892 -0.88506 2.584395 -0.53757 3.8303100000000003a11.18304 11.18304 0 0 1 0.45738 2.4151049999999996 5.241555 5.241555 0 0 0 0.44154 2.213145 2.20077 2.20077 0 0 0 1.441935 1.21275 1.22463 1.22463 0 0 0 1.292445 -0.9256500000000001 2.950695 2.950695 0 0 0 -0.254925 -1.9468349999999999c-0.7029 -1.6691399999999998 -2.16216 -2.876445 -2.410155 -4.665375a5.590034999999999 5.590034999999999 0 0 0 0.292545 0.72864c0.297 0.62271 0.75042 1.504305 1.5345 1.56915 0.910305 0.07722 1.204335 -1.1147399999999998 1.3063049999999998 -2.0196 0.010395 1.176615 -0.6039 3.159585 0.01584 4.8886199999999995 0.26136000000000004 0.72864 0.97911 1.589445 1.840905 1.489455 0.8845649999999999 -0.102465 1.23354 -1.063755 1.144935 -1.8404099999999999Zm-3.3511499999999996 -4.447575c-0.069795 0.51084 -0.239085 1.717155 -0.99 1.574595 -0.622215 -0.11781 -0.9984149999999999 -0.97416 -1.234035 -1.4849999999999999a4.22334 4.22334 0 0 1 -0.415305 -1.899315 4.97772 4.97772 0 0 0 1.2983850000000001 0.558855 3.741705 3.741705 0 0 0 1.36719 0.13266 5.091075 5.091075 0 0 1 -0.026234999999999998 1.118205Z" fill="#ffffff" stroke-width="1"></path><path d="M33.593174999999995 18.96444a0.16236 0.16236 0 0 0 0 0.324225 0.16236 0.16236 0 0 0 0 -0.324225Z" fill="#ffffff" stroke-width="1"></path><path d="M34.832655 18.95355a0.17028 0.17028 0 0 0 0 0.34056 0.17028 0.17028 0 0 0 0 -0.34056Z" fill="#ffffff" stroke-width="1"></path><path d="M34.454969999999996 19.687635c-0.0693 -0.03168 -0.1386 -0.05841 -0.20740499999999998 -0.08514a0.9296099999999999 0.9296099999999999 0 0 0 0.04257 -0.693 0.09009 0.09009 0 0 0 -0.175725 0.021285 1.38303 1.38303 0 0 1 -0.18612 0.67023 0.13464 0.13464 0 0 0 0.079695 0.198c0.11731499999999999 0.03069 0.23462999999999998 0.060885 0.3564 0.08514s0.2178 -0.13761 0.090585 -0.196515Z" fill="#ffffff" stroke-width="1"></path><path d="M34.619805 20.129175c0.00396 0.06435 0.037125 0.15444 -0.037125 0.191565 -0.063855 0.032175 -0.13959 -0.03069 -0.18117 -0.07425 -0.05445 -0.057420000000000006 -0.17671499999999998 -0.01584 -0.164835 0.0693a0.26037 0.26037 0 0 0 0.15939 0.223245 0.3465 0.3465 0 0 0 0.4455 -0.49995 0.130185 0.130185 0 0 0 -0.22176 0.09009Z" fill="#ffffff" stroke-width="1"></path><path d="M38.433780000000006 20.826135a4.103549999999999 4.103549999999999 0 0 1 2.1864149999999998 0.9365399999999999 7.8705 7.8705 0 0 1 2.6235 6.426089999999999c-0.13711500000000001 1.39293 -0.67518 1.736955 -0.904365 2.376 -0.032670000000000005 0.09009 0.0792 0.158895 0.153945 0.11682a1.926045 1.926045 0 0 0 0.734085 -0.9405 5.746455 5.746455 0 0 0 0.26631 -3.638745c-0.87615 -4.183245 -3.92634 -5.81823 -5.0489999999999995 -5.45787 -0.09603 0.03168 -0.10593 0.1584 -0.010889999999999999 0.181665Z" fill="#ffffff" stroke-width="1"></path><path d="M28.826325 31.194405a2.6626049999999997 2.6626049999999997 0 0 0 0.819225 0.95733c0.123255 0.073755 0.308385 -0.08464500000000001 0.21284999999999998 -0.21284999999999998a4.499055 4.499055 0 0 1 -1.117215 -1.834965 9.08127 9.08127 0 0 1 0.7236899999999999 -6.4845A5.6489400000000005 5.6489400000000005 0 0 1 31.284000000000002 21.7305c0.08019 -0.052469999999999996 0.032175 -0.20592 -0.0693 -0.164835 -3.153645 1.282545 -3.9006 7.02603 -2.388375 9.62874Z" fill="#ffffff" stroke-width="1"></path><path d="M40.1841 27.018584999999998c0.015345 0.0693 0.099 0.063855 0.138105 0.01584 0.26235 -0.33610500000000004 0.16731000000000001 -1.2805650000000002 -0.01584 -1.683a0.10593 0.10593 0 0 0 -0.198 0.052965 8.4546 8.4546 0 0 1 0.095535 0.845955 3.75507 3.75507 0 0 0 -0.0198 0.76824Z" fill="#ffffff" stroke-width="1"></path><path d="M31.1355 26.507745c-0.017325 -0.095535 -0.165825 -0.0693 -0.17028 0.021285a1.6731 1.6731 0 0 0 0.138105 0.7424999999999999c0.08019 0.191565 0.165825 0.455895 0.36184499999999997 0.558855a0.099 0.099 0 0 0 0.1485 -0.08514c0.01683 -0.26482500000000003 -0.363825 -0.6053850000000001 -0.47817 -1.2375Z" fill="#ffffff" stroke-width="1"></path><path d="M28.980764999999998 36.918585a8.65854 8.65854 0 0 1 2.16513 -1.4355 0.15939 0.15939 0 0 0 0.063855 -0.218295 8.415 8.415 0 0 1 -0.62766 -1.920105 1.76814 1.76814 0 0 0 -0.12771 -0.5053949999999999c-0.128205 -0.198 -0.297 -0.0495 -0.7875449999999999 -0.292545 -0.40441499999999997 -0.20047500000000001 -0.63657 -0.625185 -0.8415 -0.5053949999999999 -1.90377 1.1157299999999999 -4.39461 2.420055 -4.7718 4.851a6.421635 6.421635 0 0 0 0.5642999999999999 3.372435c1.0246499999999998 2.46015 2.86506 4.125825000000001 4.8015 5.86773a0.192555 0.192555 0 0 0 0.265815 0c0.48312 -0.48014999999999997 0.973665 -0.95733 1.4577749999999998 -1.44144 0.16434 -0.16434 0.131175 -0.06682500000000001 -2.1968099999999997 -4.154535 -0.8796149999999999 -1.548855 -1.251855 -2.397285 0.03465 -3.6179550000000003Z" fill="#ffffff" stroke-width="1"></path><path d="M48.073409999999996 47.477925000000006a45.327645 45.327645 0 0 0 -2.8353599999999997 -9.26145c-1.0593000000000001 -2.5715250000000003 -1.8612 -3.3075900000000003 -3.591225 -5.42619a0.198 0.198 0 0 0 -0.3465 0.08514 3.82635 3.82635 0 0 1 -0.180675 0.44154c-0.81477 1.62063 -0.792 1.683 -2.6334 1.760715a0.18315 0.18315 0 0 0 -0.12771 0.308385 19.08126 19.08126 0 0 1 3.46896 4.42629c1.16523 2.284425 2.518065 6.074145000000001 4.058999999999999 8.252144999999999a0.21087 0.21087 0 0 0 0.17028 0.101475 10.328175 10.328175 0 0 0 1.877535 -0.420255 0.23166 0.23166 0 0 0 0.13909500000000002 -0.267795Z" fill="#ffffff" stroke-width="1"></path><path d="M80.96517 43.91937c-0.495 -1.2063149999999998 -1.26126 -2.251755 -2.4522299999999997 -4.091175000000001 -0.539055 -0.8316 -0.448965 -0.5662799999999999 -1.71864 -0.7657649999999999 -0.17523 -0.02772 -0.59004 -0.03762 -0.7019099999999999 -0.18117 -0.05841 -0.07474499999999999 -0.05445 -0.28709999999999997 -0.07474499999999999 -0.377685 -0.022275 -0.099 -0.037125 -0.20195999999999997 -0.05841 -0.30294a2.683395 2.683395 0 0 1 -0.891 -0.16533 0.49104 0.49104 0 0 1 -0.20195999999999997 -0.7657649999999999c-0.01584 -0.010889999999999999 -0.03168 -0.016335000000000002 -0.0495 -0.02673a0.47916 0.47916 0 0 1 0.021285 -0.8350650000000001c-0.3267 -0.327195 -0.300465 -0.51579 -0.18612 -0.7424999999999999a0.75537 0.75537 0 0 1 0.377685 -1.3563c0.175725 0 0.28709999999999997 0 0.31927500000000003 0.1485 -0.02673 -0.191565 -0.05346 -0.388575 -0.079695 -0.58014a0.15543 0.15543 0 0 0 0.052965 -0.26037 1.4879699999999998 1.4879699999999998 0 0 0 -2.15424 0.478665c-0.594 0.904365 -0.36135 2.063655 -0.0693 3.026925 1.007325 3.322935 3.530835 5.906835 6.101865 8.181855a0.20493 0.20493 0 0 0 0.281655 0q0.705375 -0.58707 1.40976 -1.188a0.18216 0.18216 0 0 0 0.07325999999999999 -0.19701000000000002Z" fill="#ffffff" stroke-width="1"></path><path d="M75.006855 34.69949999999999c-0.36333 0.08811 -0.42273 0.63657 0.2475 0.9202049999999999a2.9205 2.9205 0 0 0 0.891 0.18117 1.5478649999999998 1.5478649999999998 0 0 0 0.957825 -0.079695 0.14156999999999997 0.14156999999999997 0 0 0 -0.0693 -0.260865c-0.35095499999999996 -0.0396 -0.7128 0.00891 -1.0692000000000002 -0.02673 -0.17028 -0.01683 -1.2345300000000001 -0.23413499999999998 -0.8568450000000001 -0.563805a0.10395 0.10395 0 0 0 -0.10097999999999999 -0.17028Z" fill="#ffffff" stroke-width="1"></path><path d="M74.959335 35.9865a1.366695 1.366695 0 0 0 1.10088 0.532125c0.40986 0.047025 1.1983949999999999 0.218295 1.50579 -0.14404499999999998a0.107415 0.107415 0 0 0 -0.0495 -0.17523 2.0294999999999996 2.0294999999999996 0 0 0 -0.590535 0.021285 5.778135 5.778135 0 0 1 -0.7128 -0.032175 2.2616549999999997 2.2616549999999997 0 0 1 -1.1330550000000001 -0.32967c-0.073755 -0.050984999999999996 -0.16978500000000002 0.0495 -0.12078 0.12771Z" fill="#ffffff" stroke-width="1"></path><path d="M75.00190500000001 36.934425a2.061675 2.061675 0 0 0 1.089 0.281655c0.297 -0.004455 0.7712100000000001 -0.026234999999999998 0.9405 -0.30294a0.102465 0.102465 0 0 0 -0.05841 -0.1485c-0.357885 -0.095535 -0.46629 0.28709999999999997 -1.89387 -0.021285a0.105435 0.105435 0 0 0 -0.07722 0.19107Z" fill="#ffffff" stroke-width="1"></path><path d="M75.1905 37.70019c0.441045 0.17126999999999998 1.32561 0.26532 1.63845 -0.19107a0.076725 0.076725 0 0 0 -0.0495 -0.11187c-0.37521 -0.0495 -0.6152850000000001 0.23166 -1.56915 0.11187 -0.113355 -0.014355000000000001 -0.11879999999999999 0.153945 -0.0198 0.19107Z" fill="#ffffff" stroke-width="1"></path><path d="M85.60381500000001 33.801075a19.018394999999998 19.018394999999998 0 0 0 -3.143745 -1.117215 17.186895 17.186895 0 0 0 -5.141069999999999 -0.67023c-1.41075 0.0495 -2.19285 0.365805 -2.079 2.3265000000000002 0.0693 0.021285 0.10593 0.07474499999999999 0.11187 0.198a1.8166499999999999 1.8166499999999999 0 0 1 0.04257 0.40441499999999997 6.672104999999999 6.672104999999999 0 0 0 1.6701300000000001 0.14354999999999998 0.518265 0.518265 0 0 1 0.431145 0.72864c0.59004 0.08464500000000001 0.70092 0.815265 -0.0693 1.08009a0.5573699999999999 0.5573699999999999 0 0 1 -0.239085 0.409365 0.4455 0.4455 0 0 1 -0.04257 0.40986 1.40085 1.40085 0 0 1 -1.30878 0.49995 3.93426 3.93426 0 0 0 0.223245 0.845955c6.35778 0.993465 8.570925 2.36709 9.293624999999999 0.547965 0.65241 -1.6414199999999999 1.75032 -4.865355 0.250965 -5.806845Zm-5.192055000000001 2.6492400000000003a0.72171 0.72171 0 0 1 -0.324225 -0.2475 0.40391999999999995 0.40391999999999995 0 0 1 0.590535 -0.51084c0.320265 0.21384 0.159885 0.857835 -0.26631 0.75834Z" fill="#38a1ff" stroke-width="1"></path><path d="M31.178069999999998 33.870374999999996c-0.02673 0 0.00495 0.026234999999999998 0 0Z" fill="#38a1ff" stroke-width="1"></path><path d="M41.39685 29.540115a1.3365 1.3365 0 0 0 -0.7712100000000001 -1.19196 5.188095 5.188095 0 0 0 -2.0002950000000004 -0.20740499999999998 53.017469999999996 53.017469999999996 0 0 0 -6.772094999999999 0.436095c-1.15137 0.1881 -1.39788 0.65439 -1.3563 1.59093a15.104925 15.104925 0 0 0 0.68112 3.697155c0.27918 0.9607950000000001 0.68013 1.1568150000000001 1.5478649999999998 1.1384999999999998a52.476929999999996 52.476929999999996 0 0 0 6.4953899999999996 -0.377685c0.303435 -0.036135 0.6791400000000001 -0.02277 0.891 -0.292545 0.329175 -0.42569999999999997 1.368675 -3.680325 1.2845250000000001 -4.793085Zm-5.61231 2.38293a0.47322 0.47322 0 0 1 -0.292545 -0.6969599999999999c0.17028 -0.335115 0.662805 -0.13761 0.75042 0.159885a0.435105 0.435105 0 0 1 -0.45787500000000003 0.537075Z" fill="#38a1ff" stroke-width="1"></path><path d="M76.342365 66.72995999999999c1.9592100000000001 -0.928125 5.530635 -2.0002950000000004 7.708139999999999 -2.0002950000000004a5.515785 5.515785 0 0 0 -1.18107 -1.864665 10.1178 10.1178 0 0 0 -2.73933 -2.244825c-0.22968000000000002 -0.12672 -0.260865 -0.07474499999999999 -0.5004449999999999 0.0495a12.77397 12.77397 0 0 0 -1.5424200000000001 0.9405 0.07028999999999999 0.07028999999999999 0 0 0 -0.02673 0.095535c0.2277 0.527175 0.45243 1.058805 0.68112 1.584 -1.670625 -0.2178 -4.085235 0.62667 -5.5593449999999995 1.44144 -2.5913250000000003 1.4355 -4.469355 3.8115 -4.8886199999999995 6.6231a39.517334999999996 39.517334999999996 0 0 0 -4.8782250000000005 -4.158c-0.236115 -0.17126999999999998 -0.18216 -0.2772 -0.9365399999999999 0.02673a3.71646 3.71646 0 0 0 -1.46817 1.101375 0.05643 0.05643 0 0 0 -0.01584 0.063855c0.9405 2.4032250000000004 2.48886 5.16285 4.36194 6.952769999999999 2.178 2.079 4.59954 2.2616549999999997 6.958215 0.39897000000000005a13.12839 13.12839 0 0 0 1.1384999999999998 -1.02168c-0.13414500000000001 -3.35214 -0.710325 -6.283530000000001 2.88882 -7.988310000000001Z" fill="#38a1ff" stroke-width="1"></path><path d="M45.8865 79.672725c-0.07128 -0.9038700000000001 -0.8157599999999999 -10.17522 -0.95238 -11.208285 -0.022275 -0.17028 -0.30987 -0.18117 -0.308385 0 0.01584 1.814175 0.2178 3.627855 0.3564 5.436585 0.62568 8.158095000000001 0.6034050000000001 7.969500000000001 0.78705 8.415 0.032670000000000005 0.0792 0.174735 0.095535 0.198 0 0.11731499999999999 -0.51084 0.040095 -1.11078 -0.080685 -2.6433Z" fill="#ffffff" stroke-width="1"></path><path d="M95.599845 60.755805c-0.11879999999999999 1.8315000000000001 -0.06039 2.83833 -0.1485 7.149780000000001a9.273330000000001 9.273330000000001 0 0 0 0.05841 2.3463000000000003 0.133155 0.133155 0 0 0 0.25542 0 8.543700000000001 8.543700000000001 0 0 0 0.17523 -2.29284c0.039105 -1.9012950000000002 0.09306 -5.325209999999999 -0.079695 -7.20324a0.130185 0.130185 0 0 0 -0.260865 0Z" fill="#ffffff" stroke-width="1"></path><path d="M77.95953 58.915395a2.020095 2.020095 0 0 0 -0.96822 -2.159685c-1.406295 -0.749925 -2.93634 0.02772 -5.516775 -1.840905a0.23661 0.23661 0 0 0 -0.3465 0.14404499999999998 3.898125 3.898125 0 0 0 2.2661100000000003 4.95792c0.33561 0.132165 0.693 0.16929000000000002 1.02663 0.28709999999999997 0.59004 0.2079 0.5712299999999999 0.669735 0.27126 0.7236899999999999a0.22869 0.22869 0 0 0 -0.15939 0.281655 5.53905 5.53905 0 0 0 0.5053949999999999 1.191465c0.15444 0.272745 0.407385 -0.054945 2.06415 -0.0495a0.233145 0.233145 0 0 0 0.22869 -0.22869c-0.009405 -0.191565 -0.010889999999999999 -0.388575 -0.010889999999999999 -0.58014a24.262919999999998 24.262919999999998 0 0 0 0.63954 -2.7269550000000002Z" fill="#ffffff" stroke-width="1"></path><path d="M74.16634499999999 63.19764a1.0919699999999999 1.0919699999999999 0 0 0 0.606375 -0.38808000000000004 0.138105 0.138105 0 0 0 -0.11682 -0.20740499999999998 1.317195 1.317195 0 0 0 -0.60093 0.18612c-0.720225 0.274725 -1.295415 0.1683 -1.59093 -0.590535a4.66092 4.66092 0 0 1 -0.239085 -1.2023549999999998c-0.05346 -0.51084 -0.10395 -1.032075 -0.14354999999999998 -1.542915a0.09603 0.09603 0 0 0 -0.191565 0c-0.099 0.952875 -0.099 2.4636150000000003 0.366795 3.22938 0.359865 0.59004 1.016235 0.85536 1.90971 0.51579Z" fill="#ffffff" stroke-width="1"></path><path d="M62.782334999999996 67.00122c0.03168 0.159885 0.26037 0.11187 0.27126 -0.037125a16.99434 16.99434 0 0 0 0.010889999999999999 -2.46807 1.0731600000000001 1.0731600000000001 0 0 0 -0.2079 -0.670725 0.138105 0.138105 0 0 0 -0.22869 0.058905 2.004255 2.004255 0 0 0 0.079695 0.7073550000000001c0.099 0.862785 -0.07128 1.6731 0.07474499999999999 2.40966Z" fill="#ffffff" stroke-width="1"></path><path d="M59.21784 64.245555a0.099 0.099 0 0 0 -0.15939 0.021285c-0.1485 0.28462499999999996 0.042075 0.7424999999999999 0.12771 1.032075a6.498855 6.498855 0 0 0 1.032075 2.0537549999999998 2.9942550000000003 2.9942550000000003 0 0 0 0.7712100000000001 0.80289c0.099 0.058905 0.23265 -0.062865 0.164835 -0.164835a8.985735 8.985735 0 0 1 -1.25532 -1.76616c-0.611325 -1.21275 -0.44946 -1.7176500000000001 -0.68112 -1.9790100000000002Z" fill="#ffffff" stroke-width="1"></path><path d="M59.803425 63.245655a1.0756350000000001 1.0756350000000001 0 0 0 -0.18117 -0.6172650000000001 0.09108 0.09108 0 0 0 -0.138105 0.016335000000000002 1.0706849999999999 1.0706849999999999 0 0 0 0.021285 0.6331049999999999 5.238585 5.238585 0 0 0 0.81378 2.2661100000000003 0.095535 0.095535 0 0 0 0.164835 -0.09603 7.845255 7.845255 0 0 1 -0.680625 -2.202255Z" fill="#ffffff" stroke-width="1"></path><path d="M60.46821 61.67106a0.080685 0.080685 0 0 0 -0.099 -0.010889999999999999c-0.18612 0.1386 -0.13167 0.36184499999999997 -0.122265 0.574695a6.2998650000000005 6.2998650000000005 0 0 0 0.579645 2.50569c0.05346 0.111375 0.22968000000000002 0.03168 0.198 -0.079695 -0.72171 -2.444805 -0.27423000000000003 -2.76309 -0.5563800000000001 -2.9898Z" fill="#ffffff" stroke-width="1"></path><path d="M61.548300000000005 61.875c-0.01188 -0.122265 -0.19206 -0.164835 -0.22869 -0.03168 -0.28462499999999996 1.0197 0.157905 3.1407749999999997 0.53163 3.484305a0.10196999999999999 0.10196999999999999 0 0 0 0.17028 -0.0693 2.074545 2.074545 0 0 0 -0.17028 -0.7424999999999999 10.748925 10.748925 0 0 1 -0.30294 -2.640825Z" fill="#ffffff" stroke-width="1"></path><path d="M78.938145 59.330205c-0.158895 -0.128205 -0.43956 -0.368775 -0.648945 -0.24453a0.09405 0.09405 0 0 0 -0.04257 0.099c0.037125 0.198 0.34154999999999996 0.297 0.495 0.39897000000000005a3.481335 3.481335 0 0 1 0.590535 0.52668c0.08415 0.09108 0.222255 -0.02574 0.164835 -0.12771a2.241855 2.241855 0 0 0 -0.558855 -0.65241Z" fill="#ffffff" stroke-width="1"></path><path d="M60.148935 60.86223c0.08019 0.138105 0.26977500000000004 0.01683 0.20740499999999998 -0.122265a19.65645 19.65645 0 0 1 -1.7127 -5.89941c-0.259875 -2.370555 0.188595 -3.3254099999999998 2.984355 -4.48965 2.8853549999999997 -1.20186 5.736555 -2.5244999999999997 8.756055 -3.0378149999999997 1.080585 -0.184635 1.90575 -0.26433 2.3834250000000003 0.749925 0.46579499999999996 0.99 1.08603 5.971185 1.2023549999999998 6.969105 0.032175 0.27670500000000003 0.46332 0.281655 0.436095 0 -0.16434 -1.70478 -0.745965 -5.777145 -1.08009 -6.787934999999999a1.952775 1.952775 0 0 0 -1.8404099999999999 -1.489455 14.058 14.058 0 0 0 -3.2026499999999998 0.5741999999999999 52.458615 52.458615 0 0 0 -6.22908 2.38887 9.238185 9.238185 0 0 0 -2.772 1.51074 3.3377850000000002 3.3377850000000002 0 0 0 -1.08504 2.63835 16.107795 16.107795 0 0 0 1.95228 6.99534Z" fill="#ffffff" stroke-width="1"></path><path d="M65.378115 65.511765c1.821105 0.66132 2.66607 0.2475 4.308975 -0.792a21.558239999999998 21.558239999999998 0 0 0 2.181465 -1.420155c0.154935 -0.127215 -0.04257 -0.335115 -0.202455 -0.260865 -1.184535 0.549945 -2.7967500000000003 1.873575 -3.97386 2.244825 -1.451835 0.45787500000000003 -2.899215 -0.455895 -4.170375 -1.04247 -0.099 -0.047025 -0.2277 0.07821 -0.12771 0.164835a6.3855 6.3855 0 0 0 1.98396 1.10583Z" fill="#ffffff" stroke-width="1"></path><path d="M66.07507500000001 63.02241a6.031079999999999 6.031079999999999 0 0 0 -1.175625 0.850905c-0.06336 0.06435 0 0.195525 0.09603 0.159885a8.266499999999999 8.266499999999999 0 0 0 1.462725 -0.8246699999999999c0.1485 0.07425 0.93555 0.458865 1.18107 0.5741999999999999a1.60182 1.60182 0 0 0 0.7019099999999999 0.25542 0.1485 0.1485 0 0 0 0.101475 -0.24453 1.6928999999999998 1.6928999999999998 0 0 0 -0.65439 -0.36729c-0.25047 -0.116325 -0.88308 -0.420255 -0.95238 -0.45193500000000003 0.4455 -0.27126 0.891 -0.5445 1.3365 -0.81378 0.165825 0.082665 0.785565 0.41480999999999996 0.8350650000000001 0.44154a2.136915 2.136915 0 0 0 0.606375 0.28709999999999997 0.16681500000000002 0.16681500000000002 0 0 0 0.15939 -0.27670500000000003 1.98693 1.98693 0 0 0 -0.5692499999999999 -0.35095499999999996c-0.214335 -0.11385 -0.425205 -0.22869 -0.6435 -0.34056 0.45243 -0.27670500000000003 0.904365 -0.547965 1.356795 -0.819225 0.14354999999999998 0.090585 0.29205 0.18117 0.436095 0.27126 0.153945 0.096525 0.718245 0.61182 0.88308 0.308385 0.0693 -0.127215 -0.03762 -0.228195 -0.12771 -0.297 -0.16384500000000002 -0.126225 -0.76428 -0.47718 -0.81378 -0.5053949999999999 0.164835 -0.09603 0.324225 -0.198 0.48906 -0.292545a2.75715 2.75715 0 0 0 0.7821 -0.52173 0.15147 0.15147 0 0 0 -0.14354999999999998 -0.2475c-0.27522 0.04059 -0.34154999999999996 0.14553 -1.500345 0.830115 -0.37521 -0.225225 -0.9320849999999999 -0.5415300000000001 -1.446885 -0.8088299999999999 0.11731499999999999 -0.052965 1.6013249999999999 -0.7424999999999999 1.718145 -0.792a6.41718 6.41718 0 0 0 1.08009 0.5534100000000001c0.198 0.063855 0.2772 -0.203445 0.133155 -0.31383a4.43619 4.43619 0 0 0 -0.8088299999999999 -0.45243 1.188 1.188 0 0 0 0.22869 -0.180675 0.142065 0.142065 0 0 0 -0.095535 -0.23958 1.64439 1.64439 0 0 0 -0.606375 0.191565c-0.372735 -0.18612 -0.7424999999999999 -0.358875 -1.128105 -0.521235a0.11088 0.11088 0 0 0 -0.111375 0.191565c0.27967499999999995 0.1782 0.563805 0.3465 0.850905 0.5103449999999999 -0.39303 0.17423999999999998 -1.67508 0.77814 -1.7394299999999998 0.8088299999999999 -0.40441499999999997 -0.198 -0.81873 -0.384615 -1.2375 -0.558855 -0.11682 -0.0495 -0.198 0.14454 -0.08514 0.2079 0.31284 0.17671499999999998 0.62766 0.3564 0.9405 0.53163 -0.297 0.1386 -1.462725 0.686565 -1.744875 0.814275q-0.5984550000000001 -0.271755 -1.218195 -0.516285c-0.133155 -0.052469999999999996 -0.217305 0.157905 -0.095535 0.223245 0.29997 0.16137 0.60093 0.32472 0.904365 0.48411 -0.5004449999999999 0.23413499999999998 -1.000395 0.473715 -1.4899499999999999 0.7236899999999999a10.496474999999998 10.496474999999998 0 0 0 -1.2607650000000001 -0.6385500000000001c-0.111375 -0.04257 -0.212355 0.127215 -0.11682 0.202455a7.389855 7.389855 0 0 0 0.9949499999999999 0.6331049999999999c-0.30888 0.15939 -0.611325 0.320265 -0.9152549999999999 0.48906 -0.10593 0.059399999999999994 -0.03168 0.2475 0.08514 0.202455 0.40540499999999996 -0.150975 0.7979400000000001 -0.31927500000000003 1.1969100000000001 -0.48411 1.000395 0.54747 1.826055 0.969705 2.12058 1.11375Zm1.99485 -3.00069c0.3564 0.202455 1.345905 0.771705 1.47906 0.8513999999999999 -0.45738 0.27670500000000003 -0.9202049999999999 0.55836 -1.3775849999999998 0.8415 -0.303435 -0.15444 -1.50579 -0.75537 -1.80378 -0.89892 0.052469999999999996 -0.02376 -0.14454 0.0693 1.702305 -0.79398Zm-2.1384000000000003 0.9949499999999999c0.396 0.198 1.62261 0.8246699999999999 1.845855 0.9405 -0.96129 0.594 -1.291455 0.816255 -1.319175 0.830115 -0.297 -0.1485 -1.683 -0.8617950000000001 -2.074545 -1.0746449999999999 0.51579 -0.222255 1.032075 -0.45639 1.55034 -0.69597Z" fill="#ffffff" stroke-width="1"></path><path d="M64.95786 75.310785a6.933465 6.933465 0 0 0 -1.521135 0.51084c-1.1384999999999998 -0.68112 -2.37303 -1.21176 -3.569445 -1.77705Q53.074889999999996 70.83449999999999 45.1935 67.87935a31.16025 31.16025 0 0 1 5.148 -2.6235c3.42144 -1.517175 7.5923099999999994 -3.3561 9.5535 -4.3461 0.138105 -0.069795 0.043065 -0.30789 -0.10642499999999999 -0.2475 -2.079 0.804375 -4.11246 1.7325 -6.15483 2.627955 -4.609439999999999 2.020095 -7.163145 3.039795 -9.050085000000001 4.450545a0.23958 0.23958 0 0 0 0.05841 0.431145 196.645185 196.645185 0 0 1 18.35757 7.86555c-0.05445 1.913175 0.054945 3.84021 0.096525 5.75289 0.114345 5.290064999999999 -0.005444999999999999 5.3286750000000005 0.15444 5.893965a0.161865 0.161865 0 0 0 0.297 0 5.841 5.841 0 0 0 0.0693 -1.4523300000000001c-0.00891 -1.646865 -0.073755 -7.8507 -0.280665 -10.058895000000001a8.716455000000002 8.716455000000002 0 0 0 1.6691399999999998 -0.67617c0.049005 -0.058905 0.043065 -0.17374499999999998 -0.04752 -0.18612Z" fill="#ffffff" stroke-width="1"></path><path d="M74.88459 54.549a35.645444999999995 35.645444999999995 0 0 0 4.569839999999999 -1.7874450000000002 0.17919 0.17919 0 0 0 -0.1386 -0.32472c-0.396 0.122265 -0.2475 0.10790999999999999 -2.29284 0.96327a23.311035 23.311035 0 0 0 -2.218095 0.962775c-0.102465 0.054945 -0.02673 0.211365 0.079695 0.18612Z" fill="#ffffff" stroke-width="1"></path><path d="M95.96119499999999 59.93163c-4.755465 -2.21265 -9.6426 -5.4336150000000005 -14.453999999999999 -7.085925a7.97346 7.97346 0 0 0 -1.861695 -0.49995 0.1287 0.1287 0 0 0 -0.063855 0.239085 15.369254999999999 15.369254999999999 0 0 0 1.598355 0.574695c4.95 1.7325 9.207 4.63122 14.123835 6.952769999999999 -1.4949 0.6172650000000001 -2.9699999999999998 1.2696749999999999 -4.420845 1.98 -0.722205 0.352935 -4.091175000000001 2.0215799999999997 -4.7025 2.55321a0.17968499999999998 0.17968499999999998 0 0 0 0.17028 0.297c1.1231550000000001 -0.376695 1.971585 -1.31967 9.5535 -4.6035 0.153945 -0.064845 0.248985 -0.318285 0.056925 -0.407385Z" fill="#ffffff" stroke-width="1"></path><path d="M81.78984 48.105585000000005a2.4938100000000003 2.4938100000000003 0 0 0 0.7979400000000001 0.7875449999999999 0.6553800000000001 0.6553800000000001 0 0 0 0.76032 -0.18612c0.436095 -0.48608999999999997 0.09207 -1.393425 -0.2178 -1.968615a5.21829 5.21829 0 0 1 -0.58509 -1.079595c-0.057420000000000006 -0.1485 -0.30491999999999997 -0.186615 -0.3465 0a0.971685 0.971685 0 0 0 0.24453 0.7424999999999999c0.311355 0.448965 0.8276399999999999 1.3003649999999998 0.713295 1.83546 -0.032175 0.1485 -0.1386 0.311355 -0.30888 0.308385 -0.318285 -0.00495 -0.9489150000000001 -1.0395 -1.6597350000000002 -1.664685a5.86674 5.86674 0 0 1 -1.2662099999999998 -1.244925c-0.0495 -0.079695 -0.18513 -0.027225 -0.153945 0.063855 0.343035 1.00881 0.89298 1.03653 2.022075 2.406195Z" fill="#ffffff" stroke-width="1"></path><path d="M76.5765 46.637415a0.99 0.99 0 0 0 1.0053450000000002 -0.17028 7.035435 7.035435 0 0 1 0.96822 -0.7657649999999999c0.11682 -0.052965 0.02673 -0.20097 -0.079695 -0.18612 -0.709335 0.099 -0.925155 0.62172 -1.40976 0.75537 -0.180675 0.0495 -0.305415 0.021285 -0.32472 -0.18612 -0.05445 -0.594 0.568755 -1.113255 0.7875449999999999 -1.42065 0.10593 -0.1485 -0.101475 -0.33561 -0.2475 -0.24453 -0.83556 0.533115 -1.31868 1.87209 -0.699435 2.218095Z" fill="#ffffff" stroke-width="1"></path><path d="M74.076255 82.764c-0.61182 -0.372735 -2.92941 -0.73161 -7.6725 -2.8215 -0.681615 -0.29997 -2.00772 -0.7306199999999999 -1.995345 -1.40976a0.89892 0.89892 0 0 1 0.547965 -0.70785 2.70666 2.70666 0 0 1 1.7290349999999999 -0.063855c3.128895 0.6331049999999999 5.22126 1.508265 6.46866 1.825065 0.14404499999999998 0.036135 0.24453 -0.174735 0.10642499999999999 -0.2475 -1.46421 -0.74646 -5.076225 -1.749825 -6.58053 -2.042865a3.22245 3.22245 0 0 0 -1.792395 0.0495 1.34244 1.34244 0 0 0 -0.9405 1.3300649999999998 1.6335 1.6335 0 0 0 1.021185 1.12761c0.39897000000000005 0.20195999999999997 0.808335 0.388575 1.218195 0.574695a8.340255 8.340255 0 0 0 0.9405 4.394115 3.00564 3.00564 0 0 0 0.931095 1.25532 0.10989 0.10989 0 0 0 0.15939 -0.122265c-0.194535 -0.66528 -0.77022 -1.089 -1.2607650000000001 -2.686365a8.82684 8.82684 0 0 1 -0.409365 -2.68686c0.2475 0.10642499999999999 0.49995 0.21284999999999998 0.749925 0.314325 -0.271755 1.683 0.9226800000000001 4.28967 1.713195 4.7237849999999995a0.12078 0.12078 0 0 0 0.17523 -0.133155c-0.21681 -0.6786449999999999 -1.089 -1.225125 -1.46817 -3.441735 -0.057915 -0.34056 -0.079695 -0.68607 -0.11187 -1.02663 1.69191 0.672705 3.33333 1.27215 5.15493 1.82457a4.017915 4.017915 0 0 0 1.234035 0.27670500000000003 0.16681500000000002 0.16681500000000002 0 0 0 0.081675 -0.305415Z" fill="#ffffff" stroke-width="1"></path><path d="M88.63073999999999 75.640455a0.119295 0.119295 0 0 0 -0.090585 0.218295 2.2275 2.2275 0 0 1 1.0548449999999998 1.47906 0.85239 0.85239 0 0 1 -0.85635 1.08504 0.5346000000000001 0.5346000000000001 0 0 0 -0.366795 0.11682 0.126225 0.126225 0 0 0 0 0.18117c0.297 0.239085 0.888525 0.021779999999999997 1.164735 -0.175725 0.9989099999999999 -0.71478 0.286605 -2.58192 -0.90585 -2.9046600000000002Z" fill="#ffffff" stroke-width="1"></path><path d="M85.60381500000001 82.368c-0.594 -0.00495 -2.012175 1.12365 -6.420645 2.3141249999999998 -1.796355 0.4851 -1.808235 0.41184 -2.1492899999999997 0.58509 -0.095535 0.0495 -0.04257 0.184635 0.052965 0.191565a4.1431499999999994 4.1431499999999994 0 0 0 1.12266 -0.175725 33.831765 33.831765 0 0 0 6.59637 -2.218095 2.247795 2.247795 0 0 0 0.89892 -0.5445c0.03762 -0.059895 -0.03168 -0.149985 -0.10097999999999999 -0.15245999999999998Z" fill="#ffffff" stroke-width="1"></path><path d="M87.52986 67.82044499999999c-0.46430999999999994 -1.395405 -1.1558249999999999 -2.3834250000000003 -2.6017200000000003 -2.643795 -2.157705 -0.38808000000000004 -6.439455 0.9503999999999999 -8.43183 1.89387a4.4277750000000005 4.4277750000000005 0 0 0 -2.5215300000000003 2.67597c-0.40639499999999995 1.32561 -0.2475 2.7769500000000003 -0.180675 4.14414a96.79774499999999 96.79774499999999 0 0 0 1.09593 10.910295c0.02574 0.15444 0.297 0.12276 0.27670500000000003 -0.037125q-0.58707 -4.61637 -0.8726849999999999 -9.266895c-0.183645 -3.0576149999999997 -0.636075 -6.053355 1.55331 -7.524a14.077304999999999 14.077304999999999 0 0 1 3.697155 -1.52658 16.341435 16.341435 0 0 1 4.298579999999999 -0.845955c1.51272 -0.04257 2.38293 0.41778 2.984355 1.782a12.375 12.375 0 0 1 0.776655 4.266405c0.297 4.921785 -0.27027 7.468559999999999 -0.5692499999999999 10.296 -0.022275 0.21284999999999998 0.31383 0.25047 0.36729 0.0495 0.935055 -3.562515 1.094445 -11.267685 0.12771 -14.17383Z" fill="#ffffff" stroke-width="1"></path><path d="M69.48513 52.90956a2.6532 2.6532 0 0 1 0.478665 -0.27670500000000003 5.40837 5.40837 0 0 0 -0.377685 -0.41480999999999996 1.84734 1.84734 0 0 0 -0.10097999999999999 0.691515Z" fill="#ffffff" stroke-width="1"></path><path d="M73.767375 55.15983c-0.21581999999999998 -1.6335 -0.5860799999999999 -4.680225 -1.079595 -6.048405 -0.25938 -0.7187399999999999 -0.75537 -1.345905 -1.59093 -1.282545a9.77229 9.77229 0 0 0 -1.462725 0.287595 31.2246 31.2246 0 0 0 -7.043354999999999 2.574c-1.87011 0.9484199999999999 -3.352635 1.64043 -3.3462 3.750615a10.059389999999999 10.059389999999999 0 0 0 0.6385500000000001 3.016035c0.3465 1.0593000000000001 1.0989 1.99287 1.2662099999999998 3.096225 0.0198 0.133155 0.128205 0.28313999999999995 0.265815 0.22869 1.5112349999999999 -0.597465 3.001185 -1.2424499999999998 4.4847 -1.89387 1.4478749999999998 -0.636075 2.736855 -1.8315000000000001 4.30353 -2.0215799999999997 0.125235 -0.014849999999999999 0.28957499999999997 -0.04257 0.27670500000000003 -0.19107 -0.072765 -0.8469450000000001 -0.178695 -2.1285 0.622215 -2.309175 0.8613 -0.195525 1.529055 0.85239 2.399265 0.9949499999999999 0.11731499999999999 0.0198 0.286605 -0.047025 0.265815 -0.20146499999999998Zm-12.59676 -0.20740499999999998c0.01386 -0.06039 0.135135 -0.11682 0.18612 0.021285 0.047025 0.127215 -0.22968000000000002 0.162855 -0.18612 -0.021285Zm0.61182 1.446885a0.10642499999999999 0.10642499999999999 0 0 1 0 -0.21284999999999998 0.10642499999999999 0.10642499999999999 0 0 1 0 0.21284999999999998Zm1.324125 -0.27670500000000003a0.07078499999999999 0.07078499999999999 0 0 1 -0.138105 -0.01584c0 -0.32769000000000004 0.291555 -2.034945 0.335115 -2.26116a0.05445 0.05445 0 0 1 0.10642499999999999 0.01584c-0.01683 0.2079 -0.20987999999999998 1.92852 -0.303435 2.26116Zm1.069695 -0.260865a0.08811 0.08811 0 0 1 -0.175725 0 13.381829999999999 13.381829999999999 0 0 1 0.218295 -2.260665c0.0099 -0.058905 0.11088 -0.0495 0.10642499999999999 0.01584 -0.052469999999999996 0.74943 -0.07425 1.505295 -0.148995 2.244825Zm3.23433 -1.622115a14.201550000000001 14.201550000000001 0 0 1 -1.489455 0.78705c-0.127215 0.06534000000000001 -0.369765 0.126225 -0.4455 0.2475a0.05544 0.05544 0 0 1 -0.099 -0.04257c0.04059 -0.13563 0.067815 -0.123255 0.8415 -0.537075 0.37124999999999997 -0.198 0.752895 -0.41134499999999996 1.1384999999999998 -0.58014 0.082665 -0.03564 0.11187 0.08316 0.053954999999999996 0.125235Zm1.5478649999999998 0a2.57796 2.57796 0 0 1 -0.90981 -2.479455c0.010395 -0.05841 0.09108 -0.037125 0.09603 0.010889999999999999 0.061875 0.6350849999999999 0 1.69884 0.89892 2.31957 0.094545 0.06534000000000001 0.00891 0.216315 -0.08514 0.148995Zm1.53747 -0.9152549999999999c-0.145035 -0.20097 -0.205425 -0.52866 -0.44154 -0.58509a1.32957 1.32957 0 0 0 -0.5692499999999999 0.292545c-0.099 0.1584 0.00396 0.37323 -0.02673 0.547965 -0.009405 0.05346 -0.08563499999999999 0.032175 -0.09009 -0.010889999999999999a6.048900000000001 6.048900000000001 0 0 1 0.00495 -0.891 1.6255799999999998 1.6255799999999998 0 0 1 0.12771 -0.6172650000000001 0.07078499999999999 0.07078499999999999 0 0 1 0.11187 -0.01584 4.475295 4.475295 0 0 1 1.021185 1.2078c0.04752 0.082665 -0.08019 0.151965 -0.138105 0.07177499999999999Zm0.648945 0.175725c-0.0495 0.021285 -0.12276 -0.016335000000000002 -0.099 -0.07474499999999999 0.26433 -0.70488 -0.12969 -1.46322 -0.516285 -2.02653 -0.032175 -0.0495 0.038114999999999996 -0.08613 0.07474499999999999 -0.058905 0.7623 0.57717 0.7994249999999999 2.04336 0.54054 2.16018Z" fill="#ffffff" stroke-width="1"></path><path d="M46.216665 16.028100000000002c-1.8404099999999999 -2.3463000000000003 -4.675275 -3.72735 -7.524 -4.42629a16.009785 16.009785 0 0 0 -10.88406 1.4256A15.945435 15.945435 0 0 0 21.631500000000003 19.27827c-3.45015 6.204825 -2.172555 13.087305 2.1012750000000002 17.29431 0.478665 -2.1968099999999997 2.584395 -3.46995 4.2980849999999995 -4.50054 0.21284999999999998 -0.12771 0.6435 -0.38808000000000004 0.66528 -0.39897000000000005 -1.907235 -2.787345 -1.0355400000000001 -9.107999999999999 2.3938200000000003 -10.469249999999999a0.45787500000000003 0.45787500000000003 0 0 1 0.335115 0c-0.02673 -0.099 -0.054945 -0.20146499999999998 -0.08514 -0.30294 -0.21483 -0.725175 -0.8088299999999999 -2.88882 0.51579 -4.10157a1.94238 1.94238 0 0 1 1.3884750000000001 -1.69686 3.32838 3.32838 0 0 1 3.07494 0.72864c1.0355400000000001 1.0008899999999998 1.599345 3.0591 1.888425 4.5045a0.891 0.891 0 0 1 0.396 -0.11731499999999999A2.08296 2.08296 0 0 1 39.120345 19.305c0.771705 -0.975645 1.920105 -2.069595 3.1185 -2.410155 0.186615 -0.052965 0.31878 0.238095 0.133155 0.31927500000000003a7.09137 7.09137 0 0 0 -2.05326 1.319175 6.784965000000001 6.784965000000001 0 0 0 -1.386 1.67607c2.052765 0.14256 4.814865 2.9526749999999997 5.096025 7.00029a5.11434 5.11434 0 0 1 -0.7019099999999999 3.591225c-0.57717 0.8588250000000001 -1.09593 1.0093050000000001 -1.51074 1.6062750000000001 0.099 0.06732 0.087615 0.07128 0.68607 0.7875449999999999a16.727040000000002 16.727040000000002 0 0 1 2.6235 3.78774c6.023655 -5.239575 5.6845799999999995 -15.098985 1.09098 -20.95434ZM28.879785000000002 21.624075c-0.40194 -0.1485 -0.45936000000000005 -0.5623199999999999 -1.42065 -1.361745a4.23522 4.23522 0 0 0 -1.92555 -1.021185 0.12573 0.12573 0 0 1 0 -0.23958c0.72765 -0.1485 1.51074 0.41480999999999996 2.058705 0.8350650000000001a7.20621 7.20621 0 0 1 0.89892 0.814275c0.2079 0.223245 0.53757 0.53163 0.5445 0.85635a0.12771 0.12771 0 0 1 -0.155925 0.11682Z" fill="#38a1ff" stroke-width="1"></path><path d="M37.854135 35.327655c-0.563805 -0.338085 -2.37006 0.026234999999999998 -4.021875 0.021285a7.5735 7.5735 0 0 0 -2.1438450000000002 0.26631c-0.08316 0.09207 -2.673 1.21275 -3.0957299999999996 2.4626249999999996a2.208195 2.208195 0 0 0 0.340065 1.63845c3.718935 1.2078 8.60112 0.7380450000000001 12.155714999999999 -0.4455a23.991660000000003 23.991660000000003 0 0 0 -3.23433 -3.94317Zm0.34056 1.93644c-0.848925 0.45837 -2.981385 0.611325 -3.94218 0.594a9.560925000000001 9.560925000000001 0 0 1 -3.883275 -0.776655c-0.127215 -0.059895 -0.03168 -0.229185 0.090585 -0.20740499999999998 1.881 0.33165 3.5055899999999998 0.71478 5.79843 0.377685 0.61677 -0.09108 1.22364 -0.300465 1.845855 -0.35145 0.18612 -0.01287 0.25839 0.27423000000000003 0.090585 0.363825Z" fill="#38a1ff" stroke-width="1"></path></svg>