<svg transform="scale(1)" id="_0463_information_carousel" xmlns="http://www.w3.org/2000/svg" xmlns:xlink="http://www.w3.org/1999/xlink" viewBox="0 0 500 500" class="show_show__wrapper__graphic__5Waiy "><title>React</title><defs><style>.cls-1{opacity:.29;}.cls-1,.cls-2,.cls-3,.cls-4,.cls-5,.cls-6,.cls-7,.cls-8,.cls-9,.cls-10,.cls-11,.cls-12,.cls-13,.cls-14,.cls-15,.cls-16,.cls-17,.cls-18{stroke-width:0px;}.cls-1,.cls-2,.cls-4{fill:#020202;}.cls-1,.cls-2,.cls-4,.cls-5,.cls-6,.cls-7{isolation:isolate;}.cls-2{opacity:.1;}.cls-3{fill:url(#linear-gradient);}.cls-4{opacity:.62;}.cls-5{opacity:.18;}.cls-5,.cls-18{fill:#47acff;}.cls-6{opacity:.47;}.cls-6,.cls-7,.cls-16{fill:#fff;}.cls-7{opacity:.33;}.cls-8{fill:url(#linear-gradient-4);}.cls-9{fill:url(#linear-gradient-2);}.cls-10{fill:url(#linear-gradient-3);}.cls-11{fill:url(#linear-gradient-5);}.cls-12{fill:url(#linear-gradient-6);}.cls-13{fill:#282328;}.cls-14{fill:#e0a194;}.cls-15{fill:#c14834;}.cls-17{fill:#ffbbab;}</style><linearGradient id="linear-gradient" x1="98.78" y1="33.76" x2="107.57" y2="117.81" gradientUnits="userSpaceOnUse"><stop offset="0" stop-color="#231f20"></stop><stop offset=".13" stop-color="#231f20" stop-opacity=".69"></stop><stop offset=".25" stop-color="#231f20" stop-opacity=".32"></stop><stop offset="1" stop-color="#231f20" stop-opacity="0"></stop></linearGradient><linearGradient id="linear-gradient-2" x1="121.33" y1="-136.52" x2="131.76" y2="400.38" xlink:href="#linear-gradient"></linearGradient><linearGradient id="linear-gradient-3" x1="377.18" y1="14.11" x2="381.09" y2="134.33" xlink:href="#linear-gradient"></linearGradient><linearGradient id="linear-gradient-4" x1="345.84" y1="-140.88" x2="356.26" y2="396.02" xlink:href="#linear-gradient"></linearGradient><linearGradient id="linear-gradient-5" x1="557.2" y1="3160.61" x2="183.52" y2="2989.9" gradientTransform="translate(-41.97 3353.68) scale(1 -1)" xlink:href="#linear-gradient"></linearGradient><linearGradient id="linear-gradient-6" x1="577.91" y1="3114.66" x2="296.38" y2="3117.2" gradientTransform="translate(-41.97 3353.68) scale(1 -1)" xlink:href="#linear-gradient"></linearGradient></defs><g id="background"><path class="cls-5" d="M39.75,288.42c14.54-24.41,28.98-48.84,35.66-76.31,7.81-32.13,3.31-67.43,15.68-98.45,10.24-25.64,25.45-55.84,50.31-70.06,15.57-8.94,34.06-11.13,51.98-12.05,41.9-2.02,85.03,2.36,124.05,18.49,39.31,16.27,59.27,39.77,71.12,80.96,7.86,27.35,12.95,56.39,29.29,79.68,11.94,17,29.01,29.64,43.09,44.92,50.12,54.37,55.45,160.5-21.09,194.67-30.54,13.66-65.1,14.2-98.55,14.53l-174.75,1.67c-22.56.21-48.1,5.6-69.96.94-23.12-4.97-44.8-15.13-63.42-29.72-8.15-6.35-15.74-13.68-21.02-22.6-17.31-29.27-5.72-66.94,10.39-96.9,5.41-10.01,11.3-19.91,17.2-29.76Z"></path><ellipse class="cls-6" cx="245.28" cy="416.6" rx="182.17" ry="42.61"></ellipse><polygon class="cls-18" points="332.93 438.69 285.05 438.69 240.33 393.97 162.48 393.97 173.24 413.15 119.45 413.15 119.45 411.81 170.95 411.81 160.2 392.63 240.87 392.63 285.62 437.35 329.46 437.35 305.79 415.93 348.26 415.93 334.6 402.27 335.54 401.33 351.5 417.27 309.26 417.27 332.93 438.69"></polygon><polygon class="cls-18" points="273.93 450.58 243.66 420.31 268.29 420.31 268.29 421.65 246.89 421.65 274.88 449.63 273.93 450.58"></polygon><polygon class="cls-18" points="225.1 441.72 217.93 430.7 168.33 430.7 157.38 412.83 158.51 412.12 169.08 429.36 218.65 429.36 226.23 440.98 225.1 441.72"></polygon><polygon class="cls-18" points="128.62 430.7 106.62 430.7 106.62 429.36 126.53 429.36 116.21 406.8 117.43 406.26 128.62 430.7"></polygon><path class="cls-18" d="M335.27,402.53c-2.45,0-6.61-.51-6.61-2.42s4.16-2.44,6.61-2.44,6.61.51,6.61,2.44-4.15,2.42-6.61,2.42ZM335.27,399.01c-3.13,0-5.1.74-5.36,1.14.19.31,2.16,1.04,5.36,1.04s4.98-.68,5.26-1.08c-.28-.4-2.24-1.1-5.26-1.1Z"></path><path class="cls-18" d="M274.89,454.3c-2.45,0-6.61-.51-6.61-2.44s4.16-2.44,6.61-2.44,6.61.52,6.61,2.44-4.15,2.44-6.61,2.44ZM274.89,450.77c-3.13,0-5.1.74-5.27,1.14.17.32,2.14,1.06,5.27,1.06s4.98-.7,5.26-1.1c-.28-.46-2.22-1.1-5.26-1.1Z"></path><path class="cls-18" d="M226.87,445.55c-2.46,0-6.61-.52-6.61-2.44s4.15-2.44,6.61-2.44,6.61.52,6.61,2.44-4.16,2.44-6.61,2.44ZM226.87,442.01c-3.13,0-5.1.74-5.36,1.14.19.32,2.16,1.06,5.36,1.06s4.98-.7,5.26-1.1c-.28-.4-2.28-1.07-5.26-1.07v-.03Z"></path><path class="cls-18" d="M101.87,432.45c-2.46,0-6.61-.51-6.61-2.44s4.15-2.42,6.61-2.42,6.61.51,6.61,2.42-4.16,2.44-6.61,2.44ZM101.87,428.93c-3.13,0-5.1.74-5.36,1.12.19.32,2.16,1.06,5.36,1.06s4.98-.68,5.26-1.1c-.28-.4-2.22-1.08-5.26-1.08Z"></path><path class="cls-18" d="M117.09,407.23c-2.45,0-6.61-.52-6.61-2.44s4.16-2.44,6.61-2.44,6.61.51,6.61,2.44-4.15,2.44-6.61,2.44ZM117.09,403.7c-3.13,0-5.1.74-5.27,1.14.17.31,2.14,1.06,5.27,1.06s4.98-.7,5.26-1.1c-.28-.46-2.28-1.15-5.26-1.15v.05Z"></path><path class="cls-2" d="M179.13,413.14c-1.17.47-2.12,1.36-2.68,2.49-1.34,3.53,4.44,6.57,3.64,10.27-.98,4.39-8.68,2.46-11.34,6.09-1.71,2.32-.25,5.85,2.21,7.35s5.52,1.5,8.39,1.47c32.52-.37,65.03-1.47,97.52-3.29,20.86-1.16,42.24-2.74,61.22-11.46,1.58-.52,2.92-1.6,3.78-3.04.57-1.73.3-3.62-.72-5.13-4.83-8.61-16.44-10.01-26.31-10.4,1.62-4.42-1.34-9.45-5.49-11.75s-9.01-2.52-13.72-2.68l-14.47-.55c-5.94-.23-12.33-.32-17.24,3-4.02,2.68-6.36,7.24-10.05,10.32-8.62,7.16-21.42,4.55-32.28,1.93-7.24-1.75-15.46-3.28-22.76-1.19-3.13.9-5.45,3.17-8.39,4.18-3.76,1.23-7.62.51-11.3,2.4Z"></path></g><g id="character"><path class="cls-17" d="M207.91,385.97c-1.42,3.11-2.88,6.32-2.85,9.73.17,3.37,1.36,6.61,3.41,9.29,4.28,5.99,10.7,10.1,17.94,11.46.94.27,1.95.19,2.84-.21.6-.41,1.07-.99,1.34-1.67,1.62-3.53.79-7.7-.44-11.39-1.23-3.7-2.89-7.36-2.84-11.26.09-7.31,10.13-21.78-2.14-24.87-10.24-2.65-14.19,12.3-17.26,18.93Z"></path><path class="cls-17" d="M274.62,374.67c-1,3.25-2.01,6.69-1.54,10.01.62,3.32,2.24,6.37,4.63,8.76,5.03,5.37,11.95,8.58,19.29,8.97.97.14,1.96-.07,2.8-.59.55-.49.94-1.13,1.11-1.85,1.14-3.72-.24-7.72-1.95-11.22-1.71-3.49-3.84-6.92-4.31-10.79-.88-7.26,7.15-22.93-5.44-24.37-10.51-1.26-12.44,14.08-14.59,21.07Z"></path><path class="cls-13" d="M254.98,248.59c8.39,7.64,16.57,15.57,24.39,23.8,4.76,5.09,9.26,10.43,13.48,15.98,6.4,8.25,8.77,14.89,9.13,25.54.55,15.8,1.07,31.78-2.21,47.25-.78,3.64-1.98,7.55-5.09,9.6-4.58,3.03-11.15.17-14.11-4.46s-3.32-10.39-3.75-15.88c-.94-11.85-2.22-24.1-5.17-35.7-1.69-6.61-7.34-8.65-12.73-12.22-10.21-6.69-27.2-15.76-32.22-27.61-3.42-8.67-6.24-17.56-8.43-26.61l36.71.31Z"></path><path class="cls-13" d="M238.33,249.98c3.28,11.27,6.35,22.61,9.22,34,2.22,8.77,4.36,17.58,6.16,26.44,1.51,7.54,4.85,18.66,3.24,26.08-.86,3.2-2.18,6.26-3.92,9.08l-17.19,30.94c-.9,1.95-2.24,3.68-3.9,5.05-3.57,2.5-11.54-1.41-14.49-3.87s-3.78-5.86-3.59-9.61c.95-18.66,10.48-27,11.94-45.64,0,0-35.92-31.96-31.5-72.29,4.42-40.34,44.02-.17,44.02-.17Z"></path><path class="cls-16" d="M287.74,186.62c-.23,3.9-1.49,7.3-4.87,8.42-.28.1-.57.18-.87.24-6.23,1.25-14.39-3.49-20.08-7.63-2.37-1.71-4.64-3.56-6.8-5.53v-41.68l30.28,31.01s2.77,8.33,2.34,15.17Z"></path><path class="cls-16" d="M261.99,187.51c-1.44,7.57-2.33,15.23-2.68,22.92-.74,12.79-2.52,25.44-4.3,38.14-12.05,2.52-24.45,1.55-36.71-.31-4.28-.66-8.54-1.41-12.77-2.17-1.43-.25-2.68-.96-4.15-1.34-7.04-1.75-9.88-36.31-10.52-47.14-.62-10.31-.83-20.62-.63-30.94.15-7.48.74-15.57,5.62-21.22,6.51-7.52,19.08-12.5,28.62-14.26,3.08-.63,6.24-.81,9.37-.52,4.46.71,8.76,2.17,12.73,4.32,4.74,2.34,8.96,4.32,11.29,9.01,2.55,5.41,4.33,11.16,5.29,17.07,1.51,8.82.52,17.75-1.16,26.43Z"></path><path class="cls-2" d="M218.28,248.28c-4.28-.66-8.54-1.41-12.77-2.17-1.43-.25-2.68-.96-4.15-1.34-7.04-1.75-9.88-36.31-10.52-47.14l16.98-19.51s-4.73,56.27,10.47,70.15Z"></path><path class="cls-17" d="M240.14,122.32c-1.15,1.24-2.71,2.02-4.39,2.2-1.4.15-2.82.18-4.23.08h-.79c-.2-.03-.4,0-.58.11-.16.17-.26.39-.25.63-.31,2.81-.36,5.65-.16,8.47h0c0,.51.08,1.02.13,1.53.1.53.06,1.08-.13,1.59-.4.59-1.02.99-1.71,1.12-1.23.42-2.53.64-3.83.66-2.78,0-5.36-1.41-7.79-2.74.19-4.83-.07-9.66-.76-14.45-.9-6.13-2.52-12.38-1.85-18.58.15-2.44,1.04-4.77,2.54-6.69,2.24-2.5,5.84-3.32,9.2-3.31,4.45-.08,8.83,1.12,12.62,3.45,1.34.95,1.55,2.16,1.87,3.74.48,2.44.87,4.9,1.14,7.36.31,2.81.49,5.64.52,8.47.03,2.2-.11,4.65-1.55,6.36Z"></path><path class="cls-15" d="M235.21,97.79c-3.17.54-6.69,0-9.61,1.2-4.18,1.7-5.96,7.12-4.57,11.41-1.2.44-1.42-1.74-2.36-2.68-.94-.94-3.04.29-3.19,1.81.08,1.52.54,3,1.34,4.3,1.14,2.67,1.34,5.65.56,8.45-.19.66-.67,1.43-1.34,1.26s-1.12-1.34-1.53-1.78c-.64-.77-1.34-1.49-2.1-2.14-1.47-1.34-3.09-2.42-4.59-3.68-2.68-2.24-5.15-5.26-4.99-8.74.06-1.44.53-2.83,1.34-4.02.69-1.01,1.57-1.87,2.6-2.53.43-.27.91-.56,1-1.04.03-.28,0-.55-.09-.82-.92-3.53,1.04-7.32,3.95-9.52,3.06-2,6.55-3.24,10.19-3.63,2.33-.42,4.69-.75,7.03-1.02,1.95-.1,3.86-.55,5.64-1.34-.46-1.28-1.09-2.49-1.86-3.6,1.66.52,3.25,1.27,4.7,2.24-.08-.81-.29-1.6-.63-2.34,2.56.87,5.25,1.85,6.93,4.02,2,2.78,2.1,6.5.24,9.37-1.81,2.85-4.66,4.02-7.81,4.75l-.86.08Z"></path><path class="cls-14" d="M231.52,124.59h-.79c-.2-.03-.4,0-.58.11-.16.17-.26.39-.25.63-.31,2.81-.36,5.65-.16,8.47h0s-8.03-2.06-7.82-12.05c3.07,1.28,6.27,2.23,9.55,2.84h.05Z"></path><path class="cls-17" d="M329.01,152.4c-1.71,1.08-4.02,1.34-5.13,3.13-1.27,2.02,0,4.61.28,6.97.3,2.61-.44,5.24-2.06,7.31-.49.65-1.05,1.25-1.66,1.78-2.66,2.16-5.95,3.38-9.37,3.47,0,0-1.89-7.58-1.83-8.35.23-2.68,2.06-5.11,2.36-7.89.12-2.94.39-5.87.8-8.78,1.23-5.7,5.07-10.49,10.38-12.92.66-.29,1.59-.47,1.95.16.12.27.16.57.09.86h0c-.4,3.04-2.38,5.61-4.3,8.03,1.73-.99,3.59-1.74,5.52-2.24.86-.23,2.13-.09,2.14.79-.07.42-.3.8-.66,1.04l-5.17,4.63c2.1-.68,4.31-.92,6.51-.71.37,0,.72.13,1.02.35.64.68-.05,1.85-.87,2.36Z"></path><path class="cls-14" d="M329.01,152.4c-1.71,1.08-4.02,1.34-5.13,3.13-1.27,2.02,0,4.61.28,6.97.3,2.61-.44,5.24-2.06,7.31-.61.37-1.25.67-1.93.9-.47.21-.99.25-1.49.12-.81-.44-1.18-1.4-.9-2.28.31-.84.7-1.64,1.15-2.41.63-1.37.71-2.93.23-4.36-.61-1.1-.98-2.31-1.11-3.56.13-.78.42-1.52.87-2.17l1.57-2.68c.28-.4.46-.86.54-1.34.08-.47-.15-.95-.58-1.18-.52-.12-1.07.02-1.46.39-.87.63-2.95,3.29-2.68.82.32-1.68.93-3.29,1.81-4.75,1.68-3,3.65-5.83,5.88-8.45.23-.29.49-.56.78-.8h0c-.4,3.04-2.38,5.61-4.3,8.03,1.73-.99,3.59-1.74,5.52-2.24.86-.23,2.13-.09,2.14.79-.07.42-.3.8-.66,1.04l-5.17,4.63c2.1-.68,4.31-.92,6.51-.71.37,0,.72.13,1.02.35.68.76-.01,1.93-.83,2.44Z"></path><path class="cls-17" d="M120.57,150.7c1.71,1.08,4.02,1.41,5.13,3.13,1.34,2.02,0,4.61-.28,6.97-.3,2.61.44,5.24,2.06,7.31.49.65,1.05,1.25,1.66,1.78,2.66,2.16,5.95,3.38,9.37,3.47,0,0,1.89-7.58,1.83-8.35-.23-2.68-2.06-5.11-2.36-7.89-.12-2.94-.39-5.87-.8-8.78-1.23-5.68-5.05-10.45-10.32-12.88-.66-.29-1.59-.47-1.95.16-.12.27-.16.57-.09.86h0c.4,3.04,2.38,5.61,4.3,8.03-1.73-.99-3.59-1.74-5.52-2.24-.84-.23-2.18-.12-2.18.79.07.42.3.8.66,1.04l5.17,4.63c-2.1-.68-4.31-.92-6.51-.71-.37,0-.72.13-1.02.35-.66.64.04,1.81.86,2.32Z"></path><path class="cls-14" d="M120.57,150.7c1.71,1.08,4.02,1.41,5.13,3.13,1.34,2.02,0,4.61-.28,6.97-.3,2.61.44,5.24,2.06,7.31.61.37,1.25.67,1.93.9.47.21.99.25,1.49.12.81-.44,1.18-1.4.9-2.28-.31-.84-.7-1.64-1.15-2.41-.63-1.37-.71-2.93-.23-4.36.61-1.1.98-2.31,1.11-3.56-.13-.78-.42-1.52-.87-2.17l-1.57-2.68c-.28-.4-.46-.86-.54-1.34-.08-.47.15-.95.58-1.18.52-.12,1.07.02,1.46.39.87.63,2.95,3.29,2.68.82-.32-1.68-.93-3.29-1.81-4.75-1.68-3-3.65-5.83-5.88-8.45-.23-.29-.49-.56-.78-.8h0c.4,3.04,2.38,5.61,4.3,8.03-1.73-.99-3.59-1.74-5.52-2.24-.83-.11-2.17,0-2.17.91.07.42.3.8.66,1.04l5.17,4.63c-2.1-.68-4.31-.92-6.51-.71-.37,0-.72.13-1.02.35-.66.64.04,1.81.86,2.32Z"></path><path class="cls-16" d="M312.99,175.85c-3.97,5.64-8.89,10.54-14.54,14.5-4.08,2.77-8.8,4.46-13.71,4.9-.65.06-1.3-.02-1.91-.21-1.07-.3-2-.94-2.68-1.82-2.04-2.44-3.27-5.46-3.51-8.64-.33-8.3,8.66-13.13,8.66-13.13,0,0,20.48-6.53,22.92-5.46,1.34.58,2.6,3.45,3.48,5.96.82,2.09,1.29,3.91,1.29,3.91Z"></path><path class="cls-16" d="M215.6,146.39h0c6.32,5.67,6.86,15.39,1.19,21.72l-27.79,31.02c-5.67,6.33-15.39,6.86-21.72,1.2h0c-6.32-5.67-6.86-15.39-1.19-21.72l27.79-31.02c5.67-6.33,15.39-6.86,21.72-1.2Z"></path><path class="cls-16" d="M172.88,178.72l-29.73-18.47-11.46,14.82s28.88,32.95,39.91,31.25,14.95-4.97,14.95-4.97c0,0,4.16-14.35-13.67-22.63Z"></path><path class="cls-2" d="M312.99,175.85c-3.97,5.64-8.89,10.54-14.54,14.5-4.08,2.77-8.8,4.46-13.71,4.9-.65.06-1.3-.02-1.91-.21-.28.1-.57.18-.87.24-6.23,1.25-14.39-3.49-20.08-7.63v-.13l1.93-12.45c3.73,3.85,8.07,7.07,12.84,9.52,3.37,1.81,7.21,2.52,11,2.03,1.02-.16,2.02-.47,2.96-.9,7.6-3.65,14.7-8.28,21.1-13.78.82,2.09,1.29,3.91,1.29,3.91Z"></path><path class="cls-18" d="M269.11,385.26s-3.08,3.49-1.87,6.59c1.2,3.09,17.58,23.44,35.34,17.89,17.77-5.56-14.98-18.57-14.98-18.57l-18.49-5.9Z"></path><path class="cls-16" d="M273.25,376.07c1.56-.19,3.01.79,3.43,2.3.8,2.68,4.83,7.43,9.81,7.94s8.66-4.14,10.96-3.36,10.86,15.41,9.97,20.08c-.88,4.67-8.25,5.8-15.29,3.83-7.04-1.97-20.95-12.21-22.65-16.87s1.37-12.21,3.76-13.92Z"></path><path class="cls-7" d="M239.99,84.04c-.19.51-.75.76-1.26.57-.03-.01-.05-.02-.08-.03-.47-.22-.87-.56-1.18-.98-.46,1.29-.51,2.69-.15,4.02.35,1.31.17,2.71-.5,3.9-.35.47-.83.8-1.2,1.25-.43.4-.64.99-.55,1.57.23.91,1.41,1.18,2.33,1.03,1.56-.24,2.95-1.1,3.87-2.38.92-1.55,1.44-3.3,1.53-5.1.19-1.57.48-2.99-.6-4.22-.29-.33-1.47-1.42-1.94-1.2-.66.25-.12.99-.27,1.59Z"></path><path class="cls-7" d="M239.37,112.25c-.08.09-.17.19-.25.29-.28.51-.28,1.13,0,1.63.27.5.63.96,1.06,1.34.11.09.21.2.35.19s.28-.19.35-.35c.4-1.36.5-2.79.28-4.19-.19-2.14-.44-4.23-.76-6.32-.08-1.94-.53-3.85-1.34-5.62-.57-.89-1.7-1.24-2.68-.84-1.5.64-.52,2.3-.11,3.39.39,1.34.63,2.72.72,4.11.09,1.41.63,2.75,1.55,3.82.34.28.67.59.96.92.3.35.39.83.23,1.26-.1.14-.22.27-.36.37Z"></path><path class="cls-7" d="M288.03,175.72c-.62.17-1.27.23-1.91.2-.83-.15-1.62-.45-2.33-.9-1.71-.85-3.33-1.89-4.81-3.11-1.48-1.22-2.51-2.9-2.93-4.78,3.69,1.03,6.69,4.47,10.51,4.44,1.23-.07,2.44-.33,3.59-.76l5.64-1.81c3.84-1.22,7.85-2.46,11.82-1.87.16,0,.31.08.43.19.09.13.12.29.08.44-.25,1.55-1.98,1.82-3.19,2.26-1.87.7-3.67,1.62-5.54,2.33-3.7,1.39-7.49,2.52-11.35,3.36Z"></path><path class="cls-7" d="M245.33,153.51c4.05,5.69,6.85,12.17,8.22,19.01.87,4.38,1.22,9.05,3.74,12.72,1.75-1.07,2.05-3.45,2.06-5.5-.16-6.83-.89-13.64-2.21-20.35-.42-3.24-1.2-6.43-2.33-9.49-2.89-6.83-9.02-11.75-16.31-13.09-.82-.45-1.84-.14-2.29.68-.24.44-.27.97-.08,1.44.61,4.26,2.78,8.14,6.09,10.88"></path><path class="cls-18" d="M201.35,393.3s-3.64,2.89-3,6.16c.64,3.27,13.16,26.17,31.64,23.84,18.47-2.33-11.47-20.87-11.47-20.87l-17.16-9.13Z"></path><path class="cls-16" d="M207.1,384.98c1.56.09,2.82,1.31,2.97,2.86.32,2.76,3.44,8.17,8.25,9.55s9.26-2.54,11.39-1.34,7.97,17.1,6.27,21.55c-1.7,4.46-9.13,4.24-15.72,1.06-6.59-3.19-18.47-15.7-19.32-20.59s3.48-11.82,6.16-13.09Z"></path></g><g id="screen"><path class="cls-3" d="M140.4,44.43v69.72c-46.76-7.71-77.3-20.44-77.3-34.81s30.54-27.18,77.3-34.92Z"></path><path class="cls-9" d="M193.94,120.2v266.95c-19.39-1.34-37.42-3.39-53.55-6.05-46.76-7.71-77.3-20.44-77.3-34.81V79.3c0,14.41,30.54,27.14,77.3,34.81,16.13,2.7,34.17,4.77,53.55,6.09Z"></path><path class="cls-10" d="M341.21,44.43v69.72c46.76-7.71,77.3-20.44,77.3-34.81s-30.54-27.18-77.3-34.92Z"></path><path class="cls-8" d="M287.68,120.2v266.95c19.39-1.34,37.42-3.39,53.55-6.05,46.76-7.71,77.3-20.44,77.3-34.81V79.3c0,14.41-30.54,27.14-77.3,34.81-16.13,2.7-34.17,4.77-53.55,6.09Z"></path><path class="cls-11" d="M324.16,174.61v190.65c13.84-.95,26.78-2.42,38.24-4.32,33.4-5.5,55.21-14.59,55.21-24.89v-190.65c0,10.3-21.81,19.39-55.21,24.89-11.5,1.9-24.39,3.37-38.24,4.32Z"></path><path class="cls-16" d="M341.21,156.96v190.65c13.84-.94,26.78-2.41,38.24-4.31,33.4-5.52,55.21-14.61,55.21-24.9V127.75c0,10.3-21.81,19.39-55.21,24.9-11.51,1.9-24.39,3.37-38.24,4.31Z"></path><path class="cls-12" d="M341.21,156.96v190.65c13.84-.94,26.78-2.41,38.24-4.31,33.4-5.52,55.21-14.61,55.21-24.9V127.75c0,10.3-21.81,19.39-55.21,24.9-11.51,1.9-24.39,3.37-38.24,4.31Z"></path><ellipse class="cls-18" cx="86.88" cy="229.97" rx="28.02" ry="58.5" transform="translate(-16.03 6.71) rotate(-4.05)"></ellipse><ellipse class="cls-18" cx="86.88" cy="229.97" rx="28.02" ry="58.5" transform="translate(-16.03 6.71) rotate(-4.05)"></ellipse><ellipse class="cls-1" cx="86.88" cy="229.97" rx="28.02" ry="58.5" transform="translate(-16.03 6.71) rotate(-4.05)"></ellipse><path class="cls-18" d="M104.41,259.49c-3.72,17.1-11.78,28.89-21.88,29.61-15.44,1.1-29.8-24.1-32.13-56.38-2.33-32.28,8.38-59.25,23.82-60.35,15.44-1.1,29.81,24.1,32.13,56.39.8,10.28.15,20.63-1.94,30.72Z"></path><path class="cls-18" d="M418.13,180.34l-.47-1.25c3.29-1.16,6.44-2.7,9.37-4.59l.76,1.11c-3.03,1.94-6.27,3.53-9.67,4.73Z"></path><path class="cls-18" d="M398.15,185.81l-.27-1.34c2.77-.59,5.46-1.2,8.03-1.83l.33,1.34c-2.6.64-5.3,1.26-8.1,1.83Z"></path><path class="cls-18" d="M362.96,191.01l-.12-1.34c.07,0,6.79-.59,15.92-1.87l.19,1.34c-9.17,1.22-15.92,1.86-15.98,1.87Z"></path><path class="cls-18" d="M375.33,209.82l-.11-1.34s3.94-.31,9.64-1.08c11.02-1.53,31.15-5.19,42.2-12.68l.76,1.1c-11.27,7.64-31.64,11.37-42.77,12.91-5.76.79-9.68,1.1-9.72,1.1Z"></path><path class="cls-18" d="M414.38,193.03l-.4-1.34c4.61-1.31,9.01-3.27,13.08-5.8l.76,1.1c-4.17,2.64-8.7,4.67-13.44,6.04Z"></path><path class="cls-18" d="M393.4,197.78l-.15-1.34c5.21-.71,10.38-1.76,15.45-3.16l.33,1.34c-5.14,1.39-10.36,2.45-15.64,3.16Z"></path><path class="cls-18" d="M365.69,201.06l-.08-1.34c.09,0,8.74-.54,19.69-2.03l.17,1.34c-11.03,1.51-19.69,2.03-19.79,2.03Z"></path><path class="cls-18" d="M377.12,229.78l-.11-1.34c.33,0,33.94-2.61,50.02-13.52l.76,1.11c-16.36,11.1-49.25,13.64-50.67,13.75Z"></path><path class="cls-18" d="M377.12,220.5l-.11-1.34c.33,0,33.94-2.68,50.02-13.53l.76,1.11c-16.36,11.11-49.25,13.66-50.67,13.76Z"></path><path class="cls-18" d="M362.93,251.63v-1.34c.35,0,35.96-2.06,53.7-10.17l.56,1.2c-18.05,8.23-53.9,10.28-54.26,10.31Z"></path><path class="cls-18" d="M378.89,269.96l-.09-1.34c.32,0,32.13-2.38,48.26-13.28l.76,1.1c-16.39,11.11-48.61,13.49-48.93,13.52Z"></path><path class="cls-18" d="M378.89,260.14l-.09-1.34c.32,0,32.13-2.37,48.26-13.28l.76,1.11c-16.39,11.11-48.61,13.49-48.93,13.51Z"></path><path class="cls-18" d="M362.93,288.19v-1.34c.35,0,35.96-2.05,53.7-10.17l.56,1.22c-18.05,8.23-53.9,10.28-54.26,10.3Z"></path><path class="cls-18" d="M378.89,306.52l-.09-1.34c.32,0,32.13-2.37,48.26-13.28l.76,1.11c-16.39,11.14-48.61,13.48-48.93,13.51Z"></path><path class="cls-18" d="M378.89,296.72l-.09-1.34c.32,0,32.13-2.38,48.26-13.28l.76,1.1c-16.39,11.11-48.61,13.49-48.93,13.52Z"></path><path class="cls-18" d="M104.41,259.49l-30.15-33.28v-53.83c15.44-1.1,29.81,24.1,32.13,56.39.79,10.28.12,20.63-1.98,30.72Z"></path><path class="cls-16" d="M104.41,259.49l-30.15-33.28v-53.83c15.44-1.1,29.81,24.1,32.13,56.39.79,10.28.12,20.63-1.98,30.72Z"></path><path class="cls-18" d="M104.41,259.49l-30.15-33.28v-53.83c15.44-1.1,29.81,24.1,32.13,56.39.79,10.28.12,20.63-1.98,30.72Z"></path><path class="cls-1" d="M104.41,259.49l-30.15-33.28v-53.83c15.44-1.1,29.81,24.1,32.13,56.39.79,10.28.12,20.63-1.98,30.72Z"></path><path class="cls-18" d="M74.26,172.37l10.88-.71s18.01-.67,27,38.21c4.07,16.75,4.11,34.22.11,50.98l-7.85-1.34s7.35-79.27-30.15-87.14Z"></path><path class="cls-4" d="M74.26,172.37l10.88-.71s18.01-.67,27,38.21c4.07,16.75,4.11,34.22.11,50.98l-7.85-1.34s7.35-79.27-30.15-87.14Z"></path></g></svg>