<svg transform="scale(1)" id="_0689_Artificial_Intelligence_4" xmlns="http://www.w3.org/2000/svg" xmlns:xlink="http://www.w3.org/1999/xlink" viewBox="0 0 500 500" class="show_show__wrapper__graphic__5Waiy "><title>React</title><defs><style>.cls-1{fill:url(#linear-gradient);}.cls-1,.cls-2,.cls-3,.cls-4,.cls-5,.cls-6,.cls-7{stroke-width:0px;}.cls-2{isolation:isolate;opacity:.18;}.cls-2,.cls-7{fill:#24a3ff;}.cls-3{fill:url(#linear-gradient-4);}.cls-4{fill:url(#linear-gradient-2);}.cls-5{fill:url(#linear-gradient-3);}.cls-6{fill:#fff;}</style><linearGradient id="linear-gradient" x1="-102.88" y1="243.49" x2="440.17" y2="278.81" gradientTransform="translate(468.82) rotate(-180) scale(1 -1)" gradientUnits="userSpaceOnUse"><stop offset="0" stop-color="#221f20"></stop><stop offset=".2" stop-color="#221f20" stop-opacity=".69"></stop><stop offset=".23" stop-color="#221f20" stop-opacity=".6"></stop><stop offset=".35" stop-color="#221f20" stop-opacity=".25"></stop><stop offset=".52" stop-color="#221f20" stop-opacity=".06"></stop><stop offset="1" stop-color="#221f20" stop-opacity="0"></stop></linearGradient><linearGradient id="linear-gradient-2" x1="59.2" y1="195.82" x2="624.94" y2="428.66" gradientTransform="translate(-120.75 265.25) rotate(-45)" xlink:href="#linear-gradient"></linearGradient><linearGradient id="linear-gradient-3" x1="201.01" y1="224.93" x2="447.96" y2="449.43" gradientTransform="translate(-120.75 265.25) rotate(-45)" xlink:href="#linear-gradient"></linearGradient><linearGradient id="linear-gradient-4" x1="-58.34" y1="243.49" x2="484.71" y2="278.81" gradientTransform="matrix(1,0,0,1,0,0)" xlink:href="#linear-gradient"></linearGradient></defs><path class="cls-2" id="background" d="M456.27,366.38c10.4-15.13,18.22-32.03,22.8-49.82,24.74-95.99-50.93-178.61-128.42-223.61-40.86-23.73-92.07-33.94-135.94-16.38-27.22,10.89-49.33,31.25-73.3,48.12-24.51,17.25-51.37,31.09-75.06,49.46-40.19,31.18-57.3,70.19-52.39,120.68,4.04,41.6,21.64,81.3,48.35,113.3,24.38,29.23,72.3,36.98,108.54,30.58,29.52-5.21,57.02-20.27,86.93-22.28,38.96-2.62,77.83,17.22,116.13,9.6,12.93-2.57,25.1-8.21,36.27-15.22,18.21-11.43,33.92-26.71,46.09-44.42Z"></path><g id="brain"><path class="cls-7" d="M259.81,84.5v343.31c.56,9.61,6.98,18.31,15.37,23.03,8.38,4.71,18.46,5.79,27.99,4.53,13.25-1.75,25.95-8,35.1-17.74,5.39-5.72,9.7-13.41,8.32-21.15,8.64,3.16,18.28,3.55,27.17,1.09,4.42-1.22,8.81-3.25,11.7-6.83,5.61-6.96,2.75-16.11.69-24.81,8.88-.75,16.99-4.8,23.61-10.78,6.6-5.93,11.75-13.78,14.74-22.12,6.03-16.74,4.96-35.19,2.23-52.77-1.63-10.46-3.72-23.01-7.65-32.76-3.87-9.62-12.12-17.38-21.96-20.66,5.99-5.48,12.17-11.26,15.07-18.86,2.44-6.4,2.28-13.53,1.08-20.28-3.83-21.56-18.39-40.94-38.04-50.6,3.45-12.73.74-26.98-7.13-37.58-7.86-10.6-20.72-17.31-33.91-17.7-1.45-16.01-9.49-31.33-21.87-41.59-7.25-6.01-16.39-10.41-25.78-9.72-9.39.69-18.65,7.61-19.8,16.96l-.55,1.37-6.37,15.68Z"></path><path class="cls-1" d="M259.81,84.5v343.31c.56,9.61,6.98,18.31,15.37,23.03,8.38,4.71,18.46,5.79,27.99,4.53,13.25-1.75,25.95-8,35.1-17.74,5.39-5.72,9.7-13.41,8.32-21.15,8.64,3.16,18.28,3.55,27.17,1.09,4.42-1.22,8.81-3.25,11.7-6.83,5.61-6.96,2.75-16.11.69-24.81,8.88-.75,16.99-4.8,23.61-10.78-4.83,1.26-9.78,2-14.74,2.17-5.63.2-11.76-.51-15.86-4.36-3.49-3.28-4.82-8.17-6.79-12.53-1.98-4.36-5.42-8.79-10.2-9.04,8.49-13.02,4.91-32.44-7.68-41.56,1.77,9.26,2.96,18.85,1.05,28.08-1.92,9.23-7.45,18.13-16.03,22.02,5.54,3.07,12.83,2.62,17.95-1.09,3.05,11.5,8.08,22.49,14.81,32.3-14.23,5.55-32.18-1.77-38.45-15.69-5.46,15.57,12.17,34.36,2.78,47.93-5.99,8.65-20.38,7.75-27.51.01-7.14-7.73-8.02-19.59-5.37-29.78,3.18,9.73,10.69,17.96,20.09,22.02-10.72-11.99-11.08-31.93-.77-44.28-8.42-.92-17.19,3.56-21.39,10.92-6.67-18.03-10.3-37.18-10.69-56.4,1.99,1.74,3.25,4.26,3.45,6.88,5.92-6.39,8.76-15.53,7.5-24.15-.77,1.6-1.54,3.18-2.3,4.77-16.43-27.49-20.8-61.92-11.73-92.64,10.78,13.48,28.57,21.01,45.75,19.33-31.04-15.99-50.14-52.47-45.6-87.09-3.84,10.96-7.69,21.94-11.53,32.91,1.22-3.42-1.59-11.84-2.01-15.57-.64-5.71-1.2-11.45-1.64-17.18-.85-10.95-1.36-21.93-1.49-32.91-.22-17.64-3.77-33.9-5.16-51.42l-6.37,15.68Z"></path><path class="cls-7" d="M253.54,84.5v343.31c-.56,9.61-6.98,18.31-15.37,23.03-8.38,4.71-18.46,5.79-27.99,4.53-13.25-1.75-25.95-8-35.1-17.74-5.39-5.72-9.7-13.41-8.32-21.15-8.64,3.16-18.28,3.55-27.17,1.09-4.42-1.22-8.81-3.25-11.7-6.83-5.61-6.96-2.75-16.11-.69-24.81-8.88-.75-16.99-4.8-23.61-10.78-6.6-5.93-11.75-13.78-14.74-22.12-6.03-16.74-4.96-35.19-2.23-52.77,1.63-10.46,3.72-23.01,7.65-32.76,3.87-9.62,12.12-17.38,21.96-20.66-5.99-5.48-12.17-11.26-15.07-18.86-2.44-6.4-2.28-13.53-1.08-20.28,3.83-21.56,18.39-40.94,38.04-50.6-3.45-12.73-.74-26.98,7.13-37.58,7.86-10.6,20.72-17.31,33.91-17.7,1.45-16.01,9.49-31.33,21.87-41.59,7.25-6.01,16.39-10.41,25.78-9.72,9.39.69,18.65,7.61,19.8,16.96l.55,1.37,6.37,15.68Z"></path><rect class="cls-7" x="221.45" y="240.03" width="76.72" height="76.72" transform="translate(272.95 -102.18) rotate(45)"></rect><rect class="cls-4" x="221.45" y="240.03" width="76.72" height="76.72" transform="translate(272.95 -102.18) rotate(45)"></rect><rect class="cls-5" x="234.78" y="253.36" width="50.06" height="50.06" transform="translate(272.95 -102.18) rotate(45)"></rect><path class="cls-6" d="M250.85,264.05h3.94l9.41,21.64h-5.38l-1.87-4.58h-8.4l-1.8,4.58h-5.26l9.35-21.64ZM252.68,270.34l-2.63,6.73h5.29l-2.66-6.73Z"></path><path class="cls-6" d="M266.31,264.05h4.77v21.64h-4.77v-21.64Z"></path><path class="cls-3" d="M253.54,84.5v343.31c-.56,9.61-6.98,18.31-15.37,23.03-8.38,4.71-18.46,5.79-27.99,4.53-13.25-1.75-25.95-8-35.1-17.74-5.39-5.72-9.7-13.41-8.32-21.15-8.64,3.16-18.28,3.55-27.17,1.09-4.42-1.22-8.81-3.25-11.7-6.83-5.61-6.96-2.75-16.11-.69-24.81-8.88-.75-16.99-4.8-23.61-10.78,4.83,1.26,9.78,2,14.74,2.17,5.63.2,11.76-.51,15.86-4.36,3.49-3.28,4.82-8.17,6.79-12.53,1.98-4.36,5.42-8.79,10.2-9.04-8.49-13.02-4.91-32.44,7.68-41.56-1.77,9.26-2.96,18.85-1.05,28.08,1.92,9.23,7.45,18.13,16.03,22.02-5.54,3.07-12.83,2.62-17.95-1.09-3.05,11.5-8.08,22.49-14.81,32.3,14.23,5.55,32.18-1.77,38.45-15.69,5.46,15.57-12.17,34.36-2.78,47.93,5.99,8.65,20.38,7.75,27.51.01,7.14-7.73,8.02-19.59,5.37-29.78-3.18,9.73-10.69,17.96-20.09,22.02,10.72-11.99,11.08-31.93.77-44.28,8.42-.92,17.19,3.56,21.39,10.92,6.67-18.03,10.3-37.18,10.69-56.4-1.99,1.74-3.25,4.26-3.45,6.88-5.92-6.39-8.76-15.53-7.5-24.15.77,1.6,1.54,3.18,2.3,4.77,16.43-27.49,20.8-61.92,11.73-92.64-10.78,13.48-28.57,21.01-45.75,19.33,31.04-15.99,50.14-52.47,45.6-87.09,3.84,10.96,7.69,21.94,11.53,32.91-1.22-3.42,1.59-11.84,2.01-15.57.64-5.71,1.2-11.45,1.64-17.18.85-10.95,1.36-21.93,1.49-32.91.22-17.64,3.77-33.9,5.16-51.42l6.37,15.68Z"></path><polygon class="cls-6" points="162.75 189.4 160.17 187.1 177.45 167.71 177.45 101.81 180.9 101.81 180.9 169.03 162.75 189.4"></polygon><path class="cls-6" d="M157.68,197.53c-3.03,0-5.5-2.47-5.5-5.5s2.47-5.5,5.5-5.5,5.5,2.47,5.5,5.5-2.47,5.5-5.5,5.5ZM157.68,189.97c-1.13,0-2.05.92-2.05,2.05s.92,2.05,2.05,2.05,2.05-.92,2.05-2.05-.92-2.05-2.05-2.05Z"></path><path class="cls-6" d="M224.45,132.32c-3.03,0-5.5-2.47-5.5-5.5s2.47-5.5,5.5-5.5,5.5,2.47,5.5,5.5-2.47,5.5-5.5,5.5ZM224.45,124.77c-1.13,0-2.05.92-2.05,2.05s.92,2.05,2.05,2.05,2.05-.92,2.05-2.05-.92-2.05-2.05-2.05Z"></path><path class="cls-6" d="M157.68,302.67c-3.03,0-5.5-2.47-5.5-5.5s2.47-5.5,5.5-5.5,5.5,2.47,5.5,5.5-2.47,5.5-5.5,5.5ZM157.68,295.12c-1.13,0-2.05.92-2.05,2.05s.92,2.05,2.05,2.05,2.05-.92,2.05-2.05-.92-2.05-2.05-2.05Z"></path><path class="cls-6" d="M212.87,342.56c-3.03,0-5.5-2.47-5.5-5.5s2.47-5.5,5.5-5.5,5.5,2.47,5.5,5.5-2.47,5.5-5.5,5.5ZM212.87,335c-1.13,0-2.05.92-2.05,2.05s.92,2.05,2.05,2.05,2.05-.92,2.05-2.05-.92-2.05-2.05-2.05Z"></path><polygon class="cls-6" points="221.59 124.54 212.38 116.33 212.38 52.48 215.83 52.48 215.83 114.79 223.88 121.97 221.59 124.54"></polygon><polygon class="cls-6" points="159.41 292.07 155.96 292.07 155.96 277.94 115.23 248.22 117.26 245.44 159.41 276.19 159.41 292.07"></polygon><polygon class="cls-6" points="168.49 415.87 165.04 417.07 165.04 358.91 208.27 335.54 209.91 338.57 168.49 360.97 168.49 415.87"></polygon><polygon class="cls-6" points="353.35 189.4 355.92 187.1 338.64 167.71 338.64 101.81 335.19 101.81 335.19 169.03 353.35 189.4"></polygon><path class="cls-6" d="M352.91,192.03c0-3.03,2.47-5.5,5.5-5.5s5.5,2.47,5.5,5.5c0,3.03-2.47,5.5-5.5,5.5s-5.5-2.47-5.5-5.5ZM356.36,192.03c0,1.13.92,2.05,2.05,2.05s2.05-.92,2.05-2.05-.92-2.05-2.05-2.05-2.05.92-2.05,2.05Z"></path><path class="cls-6" d="M286.15,126.82c0-3.03,2.47-5.5,5.5-5.5s5.5,2.47,5.5,5.5c0,3.03-2.47,5.5-5.5,5.5s-5.5-2.47-5.5-5.5ZM289.6,126.82c0,1.13.92,2.05,2.05,2.05s2.05-.92,2.05-2.05c0-1.13-.92-2.05-2.05-2.05s-2.05.92-2.05,2.05Z"></path><path class="cls-6" d="M352.91,297.17c0-3.03,2.47-5.5,5.5-5.5,3.03,0,5.5,2.47,5.5,5.5,0,3.03-2.47,5.5-5.5,5.5-3.03,0-5.5-2.47-5.5-5.5ZM356.36,297.17c0,1.13.92,2.05,2.05,2.05s2.05-.92,2.05-2.05-.92-2.05-2.05-2.05-2.05.92-2.05,2.05Z"></path><path class="cls-6" d="M297.72,337.06c0-3.03,2.47-5.5,5.5-5.5s5.5,2.47,5.5,5.5c0,3.03-2.47,5.5-5.5,5.5s-5.5-2.47-5.5-5.5ZM301.17,337.06c0,1.13.92,2.05,2.05,2.05s2.05-.92,2.05-2.05c0-1.13-.92-2.05-2.05-2.05s-2.05.92-2.05,2.05Z"></path><polygon class="cls-6" points="294.51 124.54 303.71 116.33 303.71 52.48 300.27 52.48 300.27 114.79 292.21 121.97 294.51 124.54"></polygon><polygon class="cls-6" points="356.69 292.07 360.13 292.07 360.13 277.94 400.86 248.22 398.83 245.44 356.69 276.19 356.69 292.07"></polygon><polygon class="cls-6" points="347.61 416.84 351.05 417.84 351.05 358.91 307.82 335.54 306.18 338.57 347.61 360.97 347.61 416.84"></polygon><path class="cls-7" d="M446.42,218.82s-4.47,18.1-19.44,19.44c0,0,16.98,2.68,21.23,19.66,0,0,1.56-18.55,17.65-19.55,0,0-14.52-3.02-19.44-19.55Z"></path><path class="cls-7" d="M53.58,334.64s-4.47,18.1-19.44,19.44c0,0,16.98,2.68,21.23,19.66,0,0,1.56-18.55,17.65-19.55,0,0-14.52-3.02-19.44-19.55Z"></path><path class="cls-7" d="M66.35,183.25s-2.94,11.89-12.77,12.77c0,0,11.16,1.76,13.95,12.92,0,0,1.03-12.19,11.6-12.85,0,0-9.54-1.98-12.77-12.85Z"></path><path class="cls-7" d="M436.4,373.82s-2.94,11.89-12.77,12.77c0,0,11.16,1.76,13.95,12.92,0,0,1.03-12.19,11.6-12.85,0,0-9.54-1.98-12.77-12.85Z"></path></g></svg>