<svg xmlns="http://www.w3.org/2000/svg" fill="none" viewBox="0 0 500 500" id="Texture-Retro-Circle-Halftone--Streamline-Textures.svg" height="500" width="500"><desc>Texture Retro Circle Halftone Streamline Element: https://streamlinehq.com</desc><path fill="#2e3120" d="M334.1 155.275c0.3 0.4 0.7 0.7 1.2 0.7 4.8 0.8 7.8 3.8 9.5 8 1.6 4 1.2 8.1 -1 12 -2 3.5 -5 5.6 -9 6.3 -0.9 0.2 -1.8 0.6 -3.1 1 3 1.9 5.8 3.3 7.5 6.3 1.7 3 1.6 6.2 2.2 9.4 0.4 -1.4 1.2 -2.6 1.8 -3.8 0.9 -1.7 2.1 -3.2 3.8 -4.1 1.7 -0.9 3.3 -2 5.3 -2.5 4.5 -0.9 8.1 0.5 11.6 3.3 5.4 4.2 6.1 12.9 2.2 18 -2 2.7 -4.5 5 -8.2 5.5 -1.1 0.1 -2.1 0.6 -3.8 1 8 3.4 11 9.5 9.4 17.2 -1 5 -3.5 8.8 -13.5 11.1 3.4 1.7 6.1 3.8 7.6 7 1.6 3.3 1.8 7 1 10.3 -0.6 2.8 -2.2 5.6 -4.8 7.4 -2.4 1.6 -5 3.1 -8.2 3 0.9 0.8 1.5 1.7 2.5 2.3 2.1 1.3 3.5 3.3 4.6 5.6 1 2 1.3 4 1.4 6.2 0.2 3.9 -1.7 6.8 -4 9.5s-5.2 4.3 -8.9 4.4c-0.3 0 -0.6 0 -0.8 0.4 5.7 2.9 9.3 7.3 9.6 14 1.8 -3.4 4 -6.1 7.5 -7.6 3.6 -1.5 7.4 -1.6 10.9 0.2 6.2 3.2 8.4 8.7 6.9 15.1 -1.4 6.1 -6.5 10.2 -14.1 9.6 -3.5 -0.3 -6.4 -1.9 -8.6 -4.5 -2.2 -2.5 -3.2 -5.6 -3.2 -9.1 -1.4 2.6 -2.9 4.9 -5.2 6.7 -2.4 1.8 -5.1 2.7 -8.4 3.4 3.7 2 6.5 4.4 7.6 8 1.1 3.6 1.3 7.6 -0.8 10.9 -3.8 6 -8.2 8.5 -16.1 6.5 -6 -1.5 -9.3 -6.7 -9.1 -13.2 0.2 -6.4 4.1 -12.3 12.7 -12.9 0 -0.7 -0.3 -1.2 -0.9 -1.5 -4.3 -2 -6.3 -5.7 -7.5 -10 -0.1 -0.3 -0.2 -0.6 -0.4 -1.3 -1.3 2.5 -3.1 4.2 -5 5.9 -2 1.9 -4.8 1.9 -7.2 3.4 4.1 2.4 6.5 5.7 7.3 10 0.9 4.3 -0.1 8.2 -2.8 11.5 -2.7 3.5 -6.6 4.9 -11 5.5 3.9 1.9 6.7 4.7 7.8 8.8 0.7 2.7 0.8 5.6 -0.3 8.3 -2.8 7.3 -8.7 9.7 -16 8.5 -4.9 -0.8 -9.3 -6.6 -9.7 -12.3 -0.4 -6 2.8 -12.5 12.6 -14.2 -1.7 -2 -4.3 -2.8 -5.8 -5.1 -1.4 -2.2 -2.3 -4.6 -3 -7.7 -0.9 2.3 -2.2 3.7 -3.5 4.9 -1.7 1.7 -3.8 2.9 -6.2 3.6 -1.2 0.4 -1.4 1 -0.5 1.8 0.9 0.8 1.8 1.6 2.5 2.5 2.8 3.6 3.8 7.4 2.5 12 -1.1 4.2 -3.7 7 -7.3 9 -4.8 2.5 -9.5 1.9 -14 -0.9 -1.6 -1 -2.8 -2.7 -3.9 -4.3 -1.5 -2.1 -1.9 -4.6 -2.6 -7.6 -2.6 7.2 -7.6 10.2 -14.6 10.7 2.2 1.6 4.8 2.5 6.3 4.7s2.5 4.5 2.7 7.2c0.2 2.8 -0.5 5.4 -2 7.7 -3.1 4.7 -8.8 7.5 -14.1 5.8 -7 -2.2 -10.6 -7.5 -9.8 -14.5 0.6 -4.9 3.5 -10.3 14 -11.7 -3.1 -1.6 -6 -2.9 -7.7 -5.8 -1.7 -2.8 -2.4 -5.9 -2.7 -9.3 -1.3 3 -2.7 5.9 -5.5 7.7 -2.8 1.7 -5.7 2.9 -9.2 3.1 6.7 3.2 10 8.2 8.8 15.6 -3.6 9.3 -9.6 10.7 -15.2 9.8 -5.9 -0.9 -9.9 -6.2 -10.6 -11.2 -0.6 -4.2 1.1 -7.7 3.9 -10.7 2.9 -3.1 6.8 -3.7 10.8 -4.2 -3.6 -1 -6.4 -3 -8.3 -5.9 -2 -2.9 -2.5 -6.4 -2.3 -9.9 -0.8 -0.2 -0.8 0.2 -0.8 0.5 -0.8 3.9 -3.3 6.5 -6.5 8.6 -3.4 2.1 -7.1 2.5 -10.8 1.2 -3.3 -1.2 -6.1 -3.2 -7.8 -6.5 -1 -1.8 -1.3 -3.7 -1.8 -5.6 -0.2 -0.6 -0.1 -1.3 -0.8 -2.1 -1.4 4.8 -4.8 7.5 -9.1 8.8 -2.8 0.8 -5.9 0.8 -8.6 -0.7 -6.1 -3.3 -8.6 -7.5 -7.6 -14.6 0.9 -6.1 6.7 -10.2 12 -10.5 4.3 -0.3 7.8 1.4 10.6 4.3 2.9 3 3.4 7 3.5 11.1 2.2 -6.8 6.8 -10.4 13.8 -11.5 -5.1 -2.5 -8.3 -6.2 -9.3 -11.7 -1.1 0.2 -1.6 1.1 -2.1 1.8 -2.9 3.9 -10 5.8 -14.5 4.5 -6.8 -2.1 -11 -9.1 -9.8 -15.6 0.9 -5.2 3.8 -9.1 9.1 -10.7 0.8 -0.3 1.6 -0.8 2.5 -0.8 0.3 0 0.6 -0.2 0.7 -0.6 0 -0.4 -0.2 -0.6 -0.6 -0.7 -3.9 -1.3 -5.9 -4.4 -7.7 -7.8 -0.5 -1 -0.2 -2.2 -0.8 -3.2 -0.6 0.1 -1.1 0.4 -1.4 0.9 -2.4 3.7 -6 5.3 -10.1 6 -2.9 0.5 -5.6 -0.7 -8.1 -2.1 -4.2 -2.3 -6.2 -6.2 -6.5 -10.7 -0.3 -4.4 1.1 -8.3 4.8 -11.3 2.4 -2 5.1 -2.8 7.9 -3.4 0.5 -0.1 1 0 1.4 -0.7 -7.3 -2.1 -10 -7.6 -10.9 -15.2 -1.7 4.1 -3.8 7 -7.5 8.6 -3.7 1.5 -7.5 1.5 -10.9 -0.2 -5.2 -2.7 -8.4 -7.9 -7.1 -14.3 1.3 -6.2 5.9 -9.9 12.2 -10.4 2.5 -0.2 4.8 0.7 7 1.8 2.5 1.2 3.9 3.2 5.1 5.5 1.1 2.2 1.4 4.7 1.7 7.2 1.4 -3 2.7 -6.1 5.7 -7.8 2.8 -1.6 5.7 -3.1 9.2 -3.1 -2.8 -1.4 -5.4 -2.6 -7.2 -5.3 -1.7 -2.5 -3 -5.2 -3.4 -8.3 -1.4 3.2 -3.3 5.8 -6.5 7.4 -3.1 1.6 -6.3 2.3 -9.6 1.1 -8.2 -2.9 -10.1 -9.1 -9.4 -14.6 0.9 -6.3 6.5 -10.2 11.3 -10.9 4 -0.6 7.4 0.9 10.3 3.3 3 2.5 4 6.1 4.6 9.9 1.1 -2.8 2.9 -5.1 4.9 -7 2.1 -2 5.1 -2.3 7.9 -3.5 -5.7 -3.8 -9.1 -8.5 -7.6 -15.4 1.7 -7.7 8 -10.8 12.8 -11.1 3.7 -0.3 6.9 1.3 9.7 3.6 2.9 2.4 3.8 5.8 5 9.1 0.9 0.2 0.7 -0.5 1 -0.8 1.9 -3 4.4 -5.3 7.6 -6.7 0.7 -0.3 1.4 -0.3 2.1 -0.4 0.6 -0.1 1.2 -0.1 1.3 -0.8 0.2 -0.8 -0.4 -0.9 -0.9 -1.2 -2.6 -1.9 -4.6 -4.2 -5.5 -7.5 -1.1 -3.8 -0.9 -7.4 0.8 -10.9 1.6 -3.2 4.2 -5.1 7.4 -6.6 2.6 -1.3 5.3 -1 7.9 -0.9 1.2 0.1 2.4 1 3.6 1.6 4.1 2 6.4 5.5 7.5 9.8 0.1 0.4 0.1 0.8 0.5 1.1 1.5 -2.1 3.3 -3.9 5.2 -5.7 2 -1.9 4.9 -1.6 7 -3.2 -7.2 -4.9 -8.7 -10.8 -7.3 -15.6 2.3 -8.2 8.6 -11.4 14.9 -10.8 5.7 0.6 11.4 3.7 13.2 14.3 3.4 -7.6 9.2 -10.4 17 -9.6 6.1 2.6 10.6 6.6 10.9 14 3.3 -6 7.8 -9.5 14.8 -9 7.2 0.5 10.9 4.9 13.1 11.5 3.3 -4.4 7.1 -7.5 12.8 -7.6 -1.7 -1.1 -3.1 -2.3 -4.5 -3.6 -2.1 -1.8 -3.1 -4.2 -3.5 -6.8 -0.2 -1.7 -0.2 -3.4 0 -5 0.3 -2.1 1.3 -4.1 2.7 -5.7 4.6 -5.5 12.4 -6.1 18 -2.3 4.7 3.2 6.4 9.8 4.6 15 -1.4 4.2 -4.4 6.7 -8.3 8.4 -0.7 0.3 -1.4 0.2 -2.1 0.3 -0.7 0.1 -1.5 -0.2 -2.1 0.6 3.2 1.3 5.5 3.5 7.3 6.4 1.8 2.9 2.2 6 2.3 9.3 0.8 -1.1 0.9 -2.5 1.4 -3.6 2.5 -5 6.7 -6.9 11.9 -7.4 1.3 -0.4 2.1 -0.3 2.9 -0.4Zm-144.9 176.3c4.1 1.4 7.2 4 9.2 7.8 1 1.9 1 4 1.5 6 0.1 0.4 0 1 0.9 1 0.3 -3 2.4 -4.9 4.3 -6.9 2 -2.1 5.1 -2.2 7.8 -3.7 -2.2 -0.9 -3.6 -2.3 -4.9 -3.7 -1.6 -1.7 -2.9 -3.6 -3.1 -6 -0.1 -0.7 -0.5 -1.5 -1.2 -1.6 -0.7 -0.2 -0.8 0.7 -1 1.1 -2.5 3.6 -5.9 5.5 -10.3 5.7 -1.1 0 -2.2 -0.1 -3.2 0.3Zm148.1 -108.2c1.9 -2.7 3.9 -4.8 6.4 -6.1 2.6 -1.4 5.5 -1.1 8.3 -1.6 -1.4 -0.3 -2.6 -0.9 -3.6 -1.6 -3.2 -2.1 -5.8 -4.6 -6.4 -8.6 -0.2 -1.1 -0.9 -2.1 -1.5 -3.7 -2.2 5.6 -6.1 8.4 -11.3 9.6 4.2 3 6.9 6.6 8.1 12Zm-178.1 26.6c2.6 -3.7 5.1 -6.9 9.5 -8 0.6 -0.1 1.1 -0.3 1.2 -1 0.1 -0.6 -0.5 -0.7 -0.8 -1 -2.6 -2.1 -4.5 -4.6 -5.3 -7.9 -0.2 -0.9 -0.6 -1.8 -1 -2.9 -3.1 5.2 -7.4 7.9 -13.3 7.9 -0.4 0 -1 0 -1 0.9 6.3 1.3 9.3 6 10.7 12Zm-15.9 15.2c0.6 0.5 0.7 0.7 0.8 0.7 3.7 0.7 6.4 2.9 8.4 6 0.8 1.3 1.4 2.6 1.6 4.2 0.2 1 1 1.2 1.7 0.4 0.2 -0.2 0.3 -0.6 0.5 -0.8 1.8 -2.1 3.5 -4.1 6.4 -5 1 -0.3 2.1 -0.4 3.2 -1 -1.8 -2 -3.8 -3.6 -5.4 -5.5 -1.7 -2 -1.4 -4.8 -3 -7 -3 5.4 -7.6 7.9 -14.2 8Zm163.7 -86.7c0.1 0.5 0.3 0.6 0.5 0.7 3.2 1.8 5.5 4.4 6.6 8 0.4 1.3 1 1.3 2 0.4 3.1 -2.7 6.3 -4.9 10.7 -4.7 0.5 0 1.1 0 1.7 -0.4 -1.7 -0.3 -3 -1.5 -4.4 -2.2 -1.4 -0.7 -2.3 -1.8 -3.1 -3.1 -1.6 -2.4 -2.3 -5 -2.7 -7.8 -0.1 -0.4 -0.2 -0.9 -0.6 -0.9 -0.5 0 -0.6 0.4 -0.7 0.8 -1.2 3.6 -3.7 6.1 -7.1 7.5 -1.1 0.4 -2 1 -2.9 1.7Zm-86.8 158.9c2.7 1.3 4.4 3.4 5.8 5.8 1.4 2.4 1.9 5 2.6 7.8 1.9 -5.8 6.2 -8.6 11.6 -10 -0.1 -0.3 0 -0.4 -0.1 -0.5 -3.6 -2.3 -6.3 -5.2 -7.5 -9.3 -0.1 -0.5 -0.5 -1 -1.3 -1 -2.4 4.2 -6.5 5.9 -11.1 7.2Zm36.1 17.9c2 -4.2 4.4 -7.7 9.1 -9.1 1.9 -0.6 2 -1.3 0.5 -2.7 -2.4 -2 -4.4 -4.3 -4.9 -7.5 -0.1 -0.3 -0.1 -0.7 -0.5 -0.7 -0.5 -0.1 -0.9 0.1 -1.2 0.5 -2.1 2.6 -4.5 4.7 -7.9 5.6 -0.9 0.3 -2 0.3 -2.9 1.1 2.4 1.4 4.2 3.1 5.6 5.3 1.2 2.4 1.7 4.9 2.2 7.5Zm-92.1 -133.6c0.7 -0.3 0.8 -0.6 0.9 -0.9 1.7 -3.4 4.5 -5.3 7.9 -6.6 0.5 -0.2 1.2 0 1.3 -0.8 0 -0.7 -0.3 -1.1 -0.9 -1.5 -1.6 -1.2 -2.8 -2.8 -3.6 -4.8 -0.5 -1.2 -0.7 -2.4 -1 -3.6 -0.1 -0.6 -0.4 -1.3 -1.1 -1.3 -0.7 0 -0.6 0.6 -0.8 1 -2.1 3 -4.5 5.4 -8.3 6.1 -0.8 0.2 -1.7 0.4 -2.2 1.3 4.3 2.5 6.8 6.3 7.8 11.1Zm76.7 -54.8c-2.2 -1.7 -3.6 -3.5 -4.7 -5.6 -1.1 -2.1 -1 -4.5 -1.4 -7.1 -1.5 2.8 -3 4.9 -4.9 6.8 -2 2 -4.9 2.2 -7.5 3.5 3.5 2.7 6.9 5.2 8 10.2 2.8 -4.1 6.2 -6.4 10.5 -7.8Zm-52.3 135.6c-4.6 -2.4 -6.6 -6.3 -7.9 -10.7 -3.8 4 -5.7 5.6 -11.3 6.9 1.7 1.9 4.1 2.7 5.6 4.6 1.5 2 2 4.5 3.3 6.8 2.2 -3.5 4.7 -5.3 10.3 -7.6Zm127.1 -6.2c1 0.8 1.6 1.5 2.3 2.1 2 1.8 3.6 3.9 4 6.8 0.1 1 0.6 1.9 1.5 2.8 2.4 -4.9 6.4 -7.1 11.7 -8.1 -3.4 -1.8 -6.1 -3.8 -7.8 -6.8 -0.4 -0.7 -0.3 -1.6 -0.8 -2.2 -0.5 -0.6 -0.9 -1.1 -1.6 -0.1 -2.3 2.8 -5.4 4.4 -9.3 5.5Zm-32.4 23c0.6 0.7 0.9 1.2 1.3 1.6 1.9 2.4 4.4 4.4 4.6 7.7 0 0.6 0.3 1.4 1.4 1.6 2.4 -4.3 6.3 -6.5 11.4 -7.5 -4.4 -2.5 -7.2 -5.7 -8.4 -10.3 -2 1.3 -2.8 3.3 -4.4 4.3 -1.7 1.3 -3.5 2.1 -5.9 2.6Zm-76.6 -129.5c-1.3 -1.6 -2.5 -3.1 -3.7 -4.5 -1.2 -1.5 -0.8 -3.9 -2.4 -5.4 -1.3 2.2 -3 3.8 -4.9 5.2 -1.9 1.4 -4.3 1.8 -7 2.4 4.6 2.1 7 5.6 8.9 10.3 1.7 -4.8 5.5 -6.2 9.1 -8Zm129 42c-2.3 3.6 -4.7 6.2 -8.2 7.5 -0.9 0.3 -0.6 0.8 -0.3 1.3 0.2 0.3 0.6 0.5 0.9 0.8 1.9 1.6 3.4 3.5 4.2 5.8 0.2 0.7 0.7 1.3 1.2 2.1 1.5 -1.9 3.3 -2.9 5.1 -4 1.8 -1.1 4 -1.2 6.1 -1.7 -4.9 -2.4 -7.6 -6.3 -9 -11.8Zm-45.9 -65.1c-2.4 3.9 -5.5 5.9 -9.4 7.7 4.1 2.2 5.1 6.1 7 9.6 1.9 -2.9 4.3 -4.9 7.5 -5.7 1 -0.3 1.6 -0.9 2.5 -1.8 -3.9 -2.1 -6 -5.4 -7.6 -9.8Zm-27.1 -6.5c-2.2 3.2 -3.9 5.9 -6.9 7.4 -0.6 0.3 -1.4 0.4 -2 0.8 -0.6 0.4 -1.1 0.9 -0.2 1.6 1.4 1.2 2.3 2.7 3.5 4.1 1 1.2 1.1 2.9 2.6 4.1 0.8 -1.8 2.2 -2.9 3.7 -3.9s3.5 -1.4 5.1 -2.7c-3.4 -2.9 -5.5 -6.4 -5.8 -11.4Zm-47.9 147.5c-0.5 -0.6 -0.8 -1 -1.3 -1.3 -2.1 -1.5 -3.1 -3.9 -4.5 -5.9 -1 -1.4 -0.9 -1.5 -2.2 -0.4 -1.5 1.3 -3.1 2.3 -4.9 3.2 -1.1 0.5 -2.3 0.8 -3.4 1.5 3.7 2.6 5.9 6 6.8 10.3 1.7 -1.3 2.5 -3.2 4.2 -4.3 1.8 -1.1 3.2 -2.5 5.3 -3.1Zm-32.4 -25.9c2 -3.2 4.3 -5.1 7.1 -6.5 1.8 -0.9 1.9 -1.2 0.5 -2.6 -1.7 -1.7 -3.1 -3.5 -3.8 -5.9 -0.5 -1.8 -1.1 -2 -2.5 -0.5 -1.8 1.9 -3.8 3.5 -6.5 4 -0.7 0.1 -1.3 0.5 -1.7 1.2 3.2 2.5 6 5.4 6.9 10.3Zm145.8 -4.2c3.4 -3 6.4 -5.8 11 -6 -0.9 -0.4 -1.2 -1.1 -1.9 -1.5 -2 -1 -3.3 -2.6 -4.4 -4.4 -0.5 -0.9 -0.7 -2 -1.4 -2.7 -0.4 -0.3 -0.6 -0.8 -1.1 -0.2 -2.3 2.5 -5.2 4.2 -8.7 5.9 3.7 1.9 4.8 5.5 6.5 8.9Zm-56.9 40.3c-0.1 -0.4 0 -0.5 -0.1 -0.5 -2.1 -2.1 -4.4 -4 -5.5 -6.9 -0.2 -0.6 -1 -0.8 -1.8 -0.1 -1.9 1.6 -3.7 3.4 -6.3 4 -1.1 0.3 -1.2 1.2 -0.3 1.9 1.9 1.7 3.4 3.7 3.9 6.3 0.1 0.7 0.6 1.3 1.3 1.6 2.4 -2.8 4.8 -5.7 8.8 -6.3Zm-83.7 -65.8c2 -3 4.9 -4.7 7.9 -6.3 -1.8 -2.4 -3.8 -4.4 -4.7 -7.1 -0.3 -1 -1.1 -1.1 -1.9 -0.2 -1.8 1.8 -3.9 3.1 -6.4 3.7 -0.6 0.1 -1.1 0.3 -1.3 1 -0.3 0.8 0.5 0.9 0.8 1.2 2.4 2 4.5 4.3 5.6 7.7Zm125.1 -51.8c-2.3 3 -4.9 5.1 -8.6 6.1 2.5 2.7 5.2 5 6.2 9 2.7 -3.3 6 -4.6 9.9 -5.7 -4.1 -2.1 -5.8 -5.6 -7.5 -9.4Zm-70.1 112.4c-2.4 -2.4 -4.5 -4.5 -5.7 -7.4 -0.3 -0.7 -1 -0.2 -1.4 0.1 -1.7 1.7 -3.7 2.9 -6 3.6 -1 0.3 -1.2 1.3 -0.5 2.1 2 1.9 3.4 4.1 4 6.8 0.3 1.1 1.3 1.2 1.9 0.3 1.9 -2.6 4.3 -4.3 7.7 -5.5Zm-47 -103.7c-2.6 3 -5.3 5.3 -9.3 6.6 3.1 2.1 4.6 5.2 6.3 8.2 2.5 -2.6 4.9 -5 8.4 -6.1 -2.2 -2.8 -4.3 -5.3 -5.4 -8.7Zm109.3 85.8c-2.5 -2.7 -4.9 -5.1 -6.4 -8.3 -2.2 1.9 -4.1 3.8 -6.8 4.8 -0.9 0.3 -1 1.2 -0.3 2.1 1.7 2.2 3.5 4.4 4 7.5 1.5 -1.4 2.7 -2.8 4.1 -3.9 1.5 -1.1 3.1 -2 5.4 -2.2Zm-21.6 -85.9c0.7 0 0.9 -0.5 1.1 -0.8 1.4 -1.5 3.1 -2.4 5 -3 1.4 -0.5 1.5 -0.7 0.5 -1.9 -1.6 -1.9 -3.3 -3.6 -4 -6.1 -0.3 -1.2 -1 -1.3 -1.8 -0.3 -1.5 1.7 -3.3 2.9 -5.2 4 -1.3 0.8 -1.4 1 -0.3 2.2 1.5 1.6 3.1 3.1 3.9 5.3 0 0.4 0.4 0.6 0.8 0.6Zm-49 -15.3c-3.3 -1.7 -3.6 -5.1 -5.6 -7.6 -2.4 2.6 -4.7 5.2 -8.4 6.5 2.5 1.4 3.5 3.5 4.7 5.5 0.7 1.2 0.9 1.3 1.9 0.5 2.2 -1.8 4.5 -3.4 7.4 -4.9Zm27.7 4.9c-3.1 -1.7 -3.1 -5.4 -5.6 -7.3 -1.9 2.6 -4.4 4.1 -7.1 5.6 1.9 1.9 3.9 3.7 4.9 6.1 0.3 0.8 1.1 0.4 1.6 -0.1 1.3 -1.5 3 -2.4 4.8 -3.2 0.3 -0.2 0.6 -0.6 1.4 -1.1Zm45.7 31.7c-1.8 1.5 -3.2 3.1 -5.2 4 -1.1 0.5 -1.1 1.1 -0.4 2.1 0.9 1.2 1.9 2.4 2.5 3.7 0.5 1 1.1 1.8 2 2.4 1.8 -1.3 3.2 -2.8 5.3 -3.4 1.5 -0.4 1.5 -1.3 0.3 -2.3 -2 -1.7 -3.5 -3.8 -4.5 -6.5Zm-4.2 28.7c-0.9 0.3 -1.3 0.8 -1.8 1.3 -1.1 1.1 -2.4 2 -3.7 2.9 -1.2 0.8 -1.3 0.9 -0.4 2.1 1 1.4 2 2.8 2.7 4.3 0.2 0.5 0.5 1.2 1.3 1.4 1.7 -2.6 5 -3.1 7.2 -5.2 -2.2 -2.1 -4.2 -4 -5.3 -6.8Zm-86.6 20c0.2 -0.6 -0.5 -0.8 -0.9 -1.1 -1.3 -1.2 -2.2 -2.6 -2.9 -4.2 -0.4 -0.9 -1.2 -1.1 -1.7 -0.3 -1.1 1.6 -2.9 1.9 -4.3 2.7 -1.4 0.8 -1.5 0.8 -0.4 2 1.4 1.5 2.5 3.2 3.5 4.9 0.7 1.1 0.9 1.2 1.9 0.3 1.3 -1.2 2.5 -2.6 4.3 -3.2 0.5 -0.1 0.5 -0.5 0.5 -1.1Zm9.8 -57.3c-0.5 -0.7 -1.2 -1.3 -1.4 -2.1 -0.3 -0.9 -1 -1.6 -1.3 -2.5 -0.3 -1 -1 -1.2 -2 -0.5 -1.3 0.9 -2.6 2 -4.2 2.6 -1.3 0.6 -1.4 1.3 -0.4 2.4 0.9 1 1.9 1.9 2.5 3.1 0.5 1.3 1.2 1 2 0.4 1.6 -1 3.1 -2.2 4.8 -3.4Zm37.3 65.9c1.3 2.2 2.7 4 3.3 6.2l0.4 0c2.1 -1 3.5 -3.1 5.8 -4 0.7 -0.2 0.5 -1 -0.1 -1.6 -0.9 -1 -2 -1.9 -2.5 -3.3 -0.5 -1.2 -1.2 -1.1 -2.4 -0.2 -1.3 1.1 -2.5 2.4 -4.5 2.9Zm-46.5 -42.6c-1.9 1.4 -3.9 2.5 -5.9 3.5 0.7 1.9 2.3 3 3.2 4.6 0.8 1.4 0.9 1.4 2.2 0.3 0.9 -0.7 1.7 -1.4 2.6 -2 1.2 -0.8 1.3 -1 0.5 -2.2 -0.8 -1.3 -1.8 -2.6 -2.6 -4.2Zm62.1 -18.6c-1.3 1.1 -2.2 2.2 -3.5 2.9 -1.3 0.7 -1.2 0.8 -0.2 2.2 0.7 0.9 1.4 1.9 1.9 3 0.4 0.8 1 0.9 1.5 0.5 1.2 -0.8 2.4 -1.5 3.7 -2.1 0.4 -0.2 1.3 -0.8 0.6 -1.5 -1.5 -1.5 -2.5 -3.4 -4 -5Zm-39 53c-1.3 1.1 -2.7 1.9 -4.1 2.7 -0.7 0.4 -0.8 0.9 -0.4 1.3 1.2 1.3 1.8 2.9 2.7 4.4 0.5 0.8 0.9 0.6 1.5 0.1 1 -1 2 -2 3.2 -2.7 0.9 -0.6 0.8 -1.3 0.3 -1.8 -1.2 -1.2 -1.7 -3 -3.2 -4Zm10.9 -57.3c-1 -0.1 -1.4 0.6 -2 1 -3.1 2.4 -3 2.4 -0.6 5.5 0.7 0.9 1.4 0.9 1.9 0.3 1 -1.1 3.3 -0.7 3.2 -2.9l0 -0.2c-0.7 -1.2 -1.3 -2.3 -2 -3.4 -0.2 -0.2 -0.5 -0.3 -0.5 -0.3Zm22 41.6c1.4 -0.7 2.8 -1.5 4.1 -2.6 0.5 -0.4 0.6 -0.7 0.2 -1.2 -0.9 -1.1 -1.6 -2.3 -2.7 -3.2 -0.3 -0.2 -0.5 -0.5 -0.8 -0.3 -1 0.7 -2 1.5 -2.9 2.3 -0.4 0.4 -0.4 1.1 -0.1 1.5 0.8 1.1 1.1 2.5 2.2 3.5Zm-29 -5.9c1.1 -0.4 2 -1 3 -1.6 0.7 -0.5 0.8 -1.2 0.5 -1.6 -0.5 -0.8 -0.8 -1.8 -1.6 -2.3 -0.3 -0.2 -0.6 -0.7 -1 -0.4 -1.1 0.6 -2.4 1.1 -2.9 2.3 -0.3 0.8 0.5 1.5 1.1 2.2 0.3 0.4 0.3 1 0.9 1.4Z" stroke-width="1"></path><path fill="#2e3120" d="M192.8 158.275c-7.5 0.3 -13.2 -6.1 -13.1 -13.5 0.1 -7.6 5.8 -13.2 13.3 -13.2 7.9 0 13.5 6.1 13.4 13.6 -0.1 7.7 -6.2 13.6 -13.6 13.1Z" stroke-width="1"></path><path fill="#2e3120" d="M295.3 132.375c0.6 6.5 -6.5 13.1 -13.6 13.1 -6.9 -0.1 -13.4 -7 -13.1 -13.8 0.3 -6.9 6.2 -13 13.6 -12.9 7.3 0.1 13.7 6.5 13.1 13.6Z" stroke-width="1"></path><path fill="#2e3120" d="M359.8 262.475c-0.3 -7.2 6.2 -12.7 13.3 -12.6 7.4 0.1 13.2 6 13.1 13.6 -0.1 6.9 -6.6 13.2 -13.8 13 -6.6 -0.2 -13.3 -6.4 -12.6 -14Z" stroke-width="1"></path><path fill="#2e3120" d="M354.9 290.575c-0.4 -7 6.5 -13.1 13.7 -12.9 6.5 0.2 13 6.5 12.7 14 -0.3 6.8 -6.8 12.9 -13.6 12.6 -7 -0.1 -13.5 -6 -12.8 -13.7Z" stroke-width="1"></path><path fill="#2e3120" d="M364.7 234.875c-0.4 -6.5 6.4 -13.2 13.4 -13.1 6.9 0.1 13.4 6.8 13.3 13.6 -0.1 6.2 -6.2 13 -13.6 12.9 -7 -0.1 -13.6 -6.6 -13.1 -13.4Z" stroke-width="1"></path><path fill="#2e3120" d="M267.1 127.275c0.6 6.7 -5.8 13.1 -13.4 12.9 -7.1 -0.1 -13.1 -6.3 -13 -13.5 0.1 -6.6 6.1 -13.1 13.5 -13 6.4 0.2 13.7 6.2 12.9 13.6Z" stroke-width="1"></path><path fill="#2e3120" d="M173 168.075c0.6 7.1 -5.9 13.3 -13 13.3 -6.7 0.1 -13.2 -6.6 -13.3 -13.1 -0.1 -7 6.4 -13.4 13.1 -13.4 7.5 0 13.7 6.1 13.2 13.2Z" stroke-width="1"></path><path fill="#2e3120" d="M149 307.275c0.4 6.6 -5.5 13 -13.3 12.9 -6.5 -0.1 -13 -6.4 -12.9 -13.4 0.1 -6.4 6.5 -13.2 13.6 -13 6.8 0.3 13.2 6.4 12.6 13.5Z" stroke-width="1"></path><path fill="#2e3120" d="M213 122.175c-0.5 -6.9 6.2 -13.2 12.9 -13.2 7.2 0 13.1 5.9 13.1 13 -0.1 7.5 -5.5 12.9 -12.8 13 -7.3 0.2 -13.5 -5.9 -13.2 -12.8Z" stroke-width="1"></path><path fill="#2e3120" d="M373 174.075c0.5 6 -5.6 13.1 -13.1 13 -7.4 -0.1 -13 -6.5 -13 -12.9 0 -7 5.7 -13 13 -13.1 7.4 -0.1 13.4 6.5 13.1 13Z" stroke-width="1"></path><path fill="#2e3120" d="M396 207.075c-0.2 7.3 -5.8 12.9 -12.9 13.1 -7.2 0.2 -13.2 -6.3 -13.2 -13 -0.1 -6.7 6.4 -13.2 13.2 -13.1 6.6 0 12.9 5.9 12.9 13Z" stroke-width="1"></path><path fill="#2e3120" d="M264.9 374.075c6.5 -0.2 13.1 5.7 13.1 12.9 -0.1 7.6 -6.2 13.1 -12.9 13 -7.4 -0.1 -12.7 -5.1 -12.9 -12.7 -0.3 -7.6 5.9 -13.1 12.7 -13.2Z" stroke-width="1"></path><path fill="#2e3120" d="M334.1 155.375c-0.2 -0.3 -0.3 -0.7 -0.5 -0.8 -1.6 -0.2 -2.7 -1.3 -3.9 -2.1 -2.5 -1.5 -3.9 -3.8 -4.8 -6.5 -1.3 -3.6 -0.6 -6.8 0.9 -10.1 1.3 -2.9 3.7 -4.5 6.4 -5.6 1.7 -0.7 3.5 -1.7 5.5 -1.3 2.5 0.6 5 1.4 7.1 3 2 1.6 3.4 3.6 4.3 6 2.1 5.2 -0.4 11.7 -5.2 14.7 -2.3 1.5 -4.8 2.3 -7.6 2.3 -0.7 0.2 -1.5 0.2 -2.2 0.4Z" stroke-width="1"></path><path fill="#2e3120" d="M114.3 190.875c0.6 -7.4 5.4 -12.4 12.9 -12.4s12.8 5.9 12.7 12.9c-0.1 7.1 -6.1 12.8 -13 12.7 -7.1 -0.3 -12.4 -5.7 -12.6 -13.2Z" stroke-width="1"></path><path fill="#2e3120" d="M198 130.075c-2.8 -0.7 -5.7 -1.4 -8 -3.2 -1.9 -1.5 -3.2 -3.5 -3.8 -5.8 -0.2 -0.6 -0.4 -1.2 -0.7 -1.8 -0.5 -0.8 -0.6 -1.7 -0.4 -2.6 0.9 -3.7 1.9 -7.4 5.3 -9.7 2 -1.4 4.2 -2.5 6.7 -2.8 2.9 -0.3 5.6 0.7 8 2.4 3.5 2.4 5.5 5.8 5.8 9.9 0.4 4.8 -3.2 10.9 -8.5 12.4 -1.5 0.3 -2.7 1.5 -4.4 1.2Z" stroke-width="1"></path><path fill="#2e3120" d="M113.1 286.975c-6.9 -0.6 -12.5 -5.5 -12.9 -12.8 -0.2 -3.4 1.4 -6.4 3.8 -8.9 2.5 -2.6 5.8 -4 9.1 -4 3.2 0 6.5 1.4 8.9 3.9 2.5 2.5 3.8 5.7 3.8 8.9s-1.3 6.5 -3.9 8.9c-2.1 2.2 -6.1 4 -8.8 4Z" stroke-width="1"></path><path fill="#2e3120" d="M338.8 369.675c-0.3 2.5 -1.1 5.4 -3.2 7.7 -2.6 2.8 -6 4.5 -9.6 4.5 -3.5 0 -6.8 -1.6 -9.3 -4.2 -2.4 -2.4 -3.5 -5.5 -3.4 -8.6 0.2 -7.7 5.8 -12.7 12.7 -12.9 6.4 -0.1 12.6 5.3 12.8 13.5Z" stroke-width="1"></path><path fill="#2e3120" d="M165.1 152.775c-7.2 -0.4 -12.7 -5.1 -12.8 -12.6 -0.1 -7.1 5.5 -12.8 12.6 -12.8 6.8 -0.1 12.7 4.9 12.8 12.6 0 7.4 -4.8 12.1 -12.6 12.8Z" stroke-width="1"></path><path fill="#2e3120" d="M182.1 360.275c7.2 0.4 12.7 5.6 12.6 12.8 -0.1 7.5 -5.4 12.8 -12.7 12.6 -7.6 -0.1 -12.5 -5 -12.6 -12.7 -0.1 -7.3 5.3 -12.2 12.7 -12.7Z" stroke-width="1"></path><path fill="#2e3120" d="M370.6 345.975c-0.4 8 -6.2 12.8 -12.7 12.8 -7 0 -12.7 -6 -12.6 -13 0 -3.4 1.5 -6.3 4 -8.8 2.5 -2.4 5.6 -3.6 8.8 -3.6 3.4 0 6.6 1.4 9.1 3.9 2.4 2.4 3 5.6 3.4 8.7Z" stroke-width="1"></path><path fill="#2e3120" d="M280.5 392.075c-0.3 -6.2 5.7 -12.6 12.4 -12.5 7.3 0.1 12.6 5.6 12.4 12.5 -0.2 7.8 -4.7 12.3 -12.4 12.4 -7.1 0.2 -12.4 -5.4 -12.4 -12.4Z" stroke-width="1"></path><path fill="#2e3120" d="M131.1 347.375c-6.6 0.6 -12.5 -6 -12.4 -12.2 0.1 -6.8 5.2 -12.4 12.5 -12.3 7.2 0.1 11.9 5.4 12.1 12.1 0.1 6.8 -5.8 12.9 -12.2 12.4Z" stroke-width="1"></path><path fill="#2e3120" d="M144.3 163.175c0.2 6.4 -5.4 12.2 -12.4 12.1 -7 -0.1 -12.1 -5.7 -12 -12.5 0.1 -6.3 5.5 -12.2 12.6 -12.1 6.3 0.2 12.3 6.3 11.8 12.5Z" stroke-width="1"></path><path fill="#2e3120" d="M388.6 268.175c-0.3 -6.6 5.6 -12.4 12.2 -12.3 7 0.1 12.2 4.9 12.3 12.2 0 7.4 -5.7 12.3 -12.2 12.4 -6.5 0.1 -12.6 -5.8 -12.3 -12.3Z" stroke-width="1"></path><path fill="#2e3120" d="M286 116.075c-6.5 0.6 -12.2 -5.5 -12.2 -12.2 0 -6 6.2 -12.2 12.3 -12.2 6.2 0.1 12.3 5.8 12.2 12.5 -0.3 6.6 -5.4 12.4 -12.3 11.9Z" stroke-width="1"></path><path fill="#2e3120" d="M406.1 228.075c6.7 -0.4 12 5.6 12 12.2 0 6.1 -5.5 12.1 -12.3 12.1 -6.2 0 -12.2 -6.3 -12.1 -12.4 0.1 -6.1 5.8 -12.6 12.4 -11.9Z" stroke-width="1"></path><path fill="#2e3120" d="M259 86.875c6 -0.6 12.5 5.7 12.4 12.2 -0.1 6.1 -5.6 12.2 -12.3 12.1 -6.8 -0.1 -12.1 -5.2 -12.2 -12 -0.1 -6.9 5.5 -12.6 12.1 -12.3Z" stroke-width="1"></path><path fill="#2e3120" d="M395.9 308.075c-6.8 0.4 -12 -5.3 -12.1 -12.1 -0.1 -6.6 6 -12.2 12.2 -12.3 6.4 0 12.3 6.3 12.2 12.2 0 6.7 -5.5 12.8 -12.3 12.2Z" stroke-width="1"></path><path fill="#2e3120" d="M376.9 146.275c0.3 6.7 -5.3 12 -12.2 12 -6.4 0 -12.1 -5.9 -12.1 -12.3 0 -5.8 5.8 -12.2 12.4 -12.1 6.2 0.1 12.5 5.5 11.9 12.4Z" stroke-width="1"></path><path fill="#2e3120" d="M120.2 302.375c0.1 6.3 -5.4 12.1 -12.4 11.9 -6.6 -0.2 -11.9 -5.5 -11.8 -12.5 0.1 -6.3 5.7 -12 12.4 -11.9 6 0 12.4 6 11.8 12.5Z" stroke-width="1"></path><path fill="#2e3120" d="M399.9 178.975c0.7 6.6 -5.9 12.2 -11.9 12.4 -6.2 0.1 -12.4 -6.3 -12.4 -12.1 0 -6.4 5.8 -12.4 12.3 -12.4 6.7 0.2 12.4 5.5 12 12.1Z" stroke-width="1"></path><path fill="#2e3120" d="M154.1 379.975c-6.6 0.6 -12.2 -5.9 -12.2 -12.1 0 -5.8 6.1 -12.2 12.1 -12.2 6.1 0 12.3 5.7 12.2 12.3 -0.1 6.6 -5.4 12.4 -12.1 12Z" stroke-width="1"></path><path fill="#2e3120" d="M313.9 97.075c6.2 -0.8 12.2 6 12.3 11.9 0 6.3 -5.9 12.4 -12.2 12.3 -6.4 0 -12.1 -5.8 -12.1 -12.1 -0.1 -6.5 6 -12.7 12 -12.1Z" stroke-width="1"></path><path fill="#2e3120" d="M391 311.175c6.6 -0.4 12.2 6.2 12.1 12 0 5.8 -6.2 12.2 -12.2 12.1 -5.7 -0.1 -12.1 -5.6 -11.9 -12.3 0.1 -6.4 5.5 -12.1 12 -11.8Z" stroke-width="1"></path><path fill="#2e3120" d="M243 93.975c0.5 6.9 -6.3 12.2 -11.9 12.2 -5.4 0.1 -12.2 -5.2 -12.2 -12.1 0.1 -6.7 6.1 -12.1 12.2 -12 6.1 0.1 12.2 5.3 11.9 11.9Z" stroke-width="1"></path><path fill="#2e3120" d="M182 111.975c0.3 7 -6.1 12.1 -12 12.1 -5.8 0 -12 -5 -12 -12 0 -6.9 5.7 -11.9 11.9 -11.9 6.6 -0.1 12.2 5.4 12.1 11.8Z" stroke-width="1"></path><path fill="#2e3120" d="M411 223.875c-6.7 0.1 -12 -5.7 -12 -11.9 0 -6.5 6.2 -12 12 -12 5.6 0 11.9 5.3 11.9 11.9 0 6.6 -5.6 12.1 -11.9 12Z" stroke-width="1"></path><path fill="#2e3120" d="M342.2 373.975c0 -7 6.2 -12 11.9 -11.9 6.8 0.1 12.1 6.1 11.8 12.1 -0.3 6.4 -4.6 11.6 -11.9 11.7 -6.8 0.1 -11.7 -5.1 -11.8 -11.9Z" stroke-width="1"></path><path fill="#2e3120" d="M243.8 410.275c-0.4 6.8 -5.2 11.6 -11.9 11.6 -6.9 0.1 -11.9 -5.9 -11.9 -11.9 0 -6.1 5.8 -12 12.1 -11.8 5.8 0.1 11.8 5 11.7 12.1Z" stroke-width="1"></path><path fill="#2e3120" d="M321 385.175c6.5 0.1 12 5.4 11.8 12 -0.1 6.7 -5.2 11.7 -11.8 11.7 -6.6 0.1 -11.7 -5.4 -11.8 -11.7 -0.2 -6.4 5.4 -11.9 11.8 -12Z" stroke-width="1"></path><path fill="#2e3120" d="M148.8 134.975c-0.5 7.5 -4.8 11.4 -11.7 11.8 -3.1 0.2 -6 -1 -8.3 -3.4 -2.3 -2.3 -3.6 -5.2 -3.7 -8.2 -0.1 -3.1 1.3 -6 3.5 -8.3 2.2 -2.4 5.2 -3.9 8.4 -3.7 6.7 0.5 11.3 4.4 11.8 11.8Z" stroke-width="1"></path><path fill="#2e3120" d="M107 214.375c-0.6 2.7 -1.1 5.7 -3.6 7.9 -2.3 2.2 -5.2 3.6 -8.2 3.6 -3.1 0 -6 -1.3 -8.3 -3.5 -2.4 -2.3 -3.9 -5.3 -3.7 -8.4 0.5 -6.7 4.4 -11.6 11.8 -11.6 7.6 0.1 11.2 4.9 12 12Z" stroke-width="1"></path><path fill="#2e3120" d="M203.9 416.875c-7.4 -0.6 -11.3 -5 -11.6 -11.9 -0.1 -3.1 1.1 -6.1 3.5 -8.3 2.3 -2.1 5.2 -3.6 8.3 -3.6 3.2 0.1 6.1 1.4 8.4 3.8 2.2 2.3 3.7 5.2 3.4 8.3 -0.7 6.7 -4.4 11.2 -12 11.7Z" stroke-width="1"></path><path fill="#2e3120" d="M90.6 229.175c2.5 0.5 5.3 1.1 7.6 3.4 2.4 2.4 3.6 5.3 3.8 8.4 0.4 5.9 -6 12.2 -12 11.9 -6.8 -0.4 -11.5 -4.8 -11.5 -11.9 -0.1 -6.8 4.9 -11.4 12.1 -11.8Z" stroke-width="1"></path><path fill="#2e3120" d="M342.3 125.975c-7.3 -0.5 -12.1 -5.1 -11.9 -11.9 0.2 -7.4 4.9 -11.4 11.7 -11.7 2.7 -0.1 5.5 0.8 7.6 2.8 2.5 2.4 4.3 5.6 4.1 9 -0.1 3.2 -1.5 6.2 -3.9 8.6 -2.3 2.1 -5 2.7 -7.6 3.2Z" stroke-width="1"></path><path fill="#2e3120" d="M260 426.875c-6.9 -0.5 -11.7 -5 -11.7 -11.8 0 -6.7 5.1 -11.7 11.8 -11.6 6.5 0 11.6 5.3 11.5 11.6 0.1 6.7 -5 11.3 -11.6 11.8Z" stroke-width="1"></path><path fill="#2e3120" d="M111.8 186.075c-0.5 6.8 -4.7 11.5 -11.6 11.7 -6.4 0.2 -11.6 -5 -11.7 -11.5 -0.1 -6 4.5 -11.9 11.6 -11.8 7.2 0.2 11 4.9 11.7 11.6Z" stroke-width="1"></path><path fill="#2e3120" d="M103.2 318.575c6.6 0 11.4 5.4 11.5 11.4 0.1 6.4 -5 11.8 -11.5 11.7 -6.9 -0.1 -11.6 -4.6 -11.6 -11.6 0 -6.5 4.2 -11.3 11.6 -11.5Z" stroke-width="1"></path><path fill="#2e3120" d="M203.4 77.675c6.9 0.2 11.1 5.3 11 11.8 -0.2 7.5 -6 11.1 -11.4 11.2 -3.2 0.1 -6.1 -1.4 -8.4 -3.8 -2.2 -2.2 -2.5 -5.2 -3.2 -8 1.3 -6.7 4.2 -11.1 12 -11.2Z" stroke-width="1"></path><path fill="#2e3120" d="M385.7 362.375c-6.8 -0.1 -11.3 -5.3 -11.1 -11.6 0.1 -2.8 0.8 -5.5 2.9 -7.6 2.4 -2.4 5.5 -3.9 8.7 -3.6 7.1 0.7 11.3 4.6 11.3 11.6 0 6.4 -4.6 11.4 -11.8 11.2Z" stroke-width="1"></path><path fill="#2e3120" d="M177.3 388.775c6.8 0.1 11.4 5.3 11.1 11.6 -0.1 2.8 -0.8 5.5 -2.9 7.6 -2.4 2.4 -5.5 3.9 -8.7 3.6 -7 -0.7 -11.3 -4.5 -11.3 -11.6 -0.1 -6.3 4.6 -11.4 11.8 -11.2Z" stroke-width="1"></path><path fill="#2e3120" d="M73.8 269.175c-0.3 -6.5 4.8 -11.4 11.3 -11.4 6.9 0 11.5 5.5 11.5 11.4 0 6.3 -5 11.3 -11.3 11.4 -5.9 0 -11.8 -4.5 -11.5 -11.4Z" stroke-width="1"></path><path fill="#2e3120" d="M393.2 139.775c5.3 -0.6 11.3 5.5 11.1 11.4 -0.1 5.5 -5.3 11.2 -11.5 11.2 -5.8 0 -11.3 -5.6 -11.2 -11.6 0.1 -5.3 5.8 -11.8 11.6 -11Z" stroke-width="1"></path><path fill="#2e3120" d="M299.1 420.075c0.6 5.9 -5.2 11.4 -11 11.4 -5.6 0 -11.3 -5.4 -11.3 -11.3s5 -11.3 11.2 -11.3c6.5 -0.1 11.6 5.5 11.1 11.2Z" stroke-width="1"></path><path fill="#2e3120" d="M126 374.275c-6.4 0.2 -11.2 -4.8 -11.1 -11.3 0.1 -6.7 5.1 -11.1 11.4 -11 6.2 0.1 11 4.5 11 11.2 -0.1 6.4 -4.8 11.4 -11.3 11.1Z" stroke-width="1"></path><path fill="#2e3120" d="M105.1 146.975c5 -0.6 11.4 5.2 11.3 11.2 -0.1 5.4 -5.6 11.2 -11.3 11.2 -5.7 0 -11.2 -5.9 -11.3 -11.1 -0.1 -6 6.2 -12 11.3 -11.3Z" stroke-width="1"></path><path fill="#2e3120" d="M358.9 118.975c-0.4 -4.9 4.8 -11.1 11.2 -11 5.7 0.1 11.1 5.4 11.1 11.2 0 6 -6.2 11.2 -11.3 11.1 -5.5 -0.1 -11.5 -5.5 -11 -11.3Z" stroke-width="1"></path><path fill="#2e3120" d="M405 183.975c-0.3 -6 5.5 -10.9 11 -10.9 6.1 0 11.3 5.9 11.1 11.2 -0.1 5.3 -5.1 10.9 -11.3 10.8 -5.2 -0.1 -11.3 -4.7 -10.8 -11.1Z" stroke-width="1"></path><path fill="#2e3120" d="M302 75.975c0.3 6.4 -5.4 11 -10.9 11.1 -6.4 0 -11.2 -5.6 -11.2 -10.9 0 -5.3 4.8 -11 11 -11 5.7 -0.1 11.2 4.7 11.1 10.8Z" stroke-width="1"></path><path fill="#2e3120" d="M434.9 299.975c0.5 6.1 -5.8 11.2 -10.8 11.2 -6.1 0.1 -11.1 -5.7 -11.3 -10.9 -0.2 -5 4.8 -11.3 11 -11.3 5.7 0 11.4 5.3 11.1 11Z" stroke-width="1"></path><path fill="#2e3120" d="M429.3 262.175c5.3 -0.3 11.1 5 10.8 11.4 -0.2 5.3 -5.4 10.7 -11.5 10.5 -5.8 -0.2 -10.9 -5.9 -10.7 -11.3 0.1 -5.3 5.1 -11.1 11.4 -10.6Z" stroke-width="1"></path><path fill="#2e3120" d="M80 307.975c-5.6 0.3 -11 -4.9 -10.9 -11 0 -6.2 5.6 -10.9 11.1 -10.8 6.1 0 11.1 5.7 11 11 0 5 -4.9 11.2 -11.2 10.8Z" stroke-width="1"></path><path fill="#2e3120" d="M348.8 413.075c-5.2 0.1 -10.9 -4.9 -10.8 -11.2 0.1 -5.9 5.5 -10.9 11.2 -10.8 6.2 0.1 11 6 10.8 11.3 -0.2 5.5 -5.1 10.9 -11.2 10.7Z" stroke-width="1"></path><path fill="#2e3120" d="M263.2 60.175c6.3 0.1 10.9 5.1 10.8 11.1 -0.1 6.4 -5.2 11 -11.2 10.8 -5.8 -0.2 -10.6 -4.3 -10.6 -11 -0.1 -6 4.4 -11 11 -10.9Z" stroke-width="1"></path><path fill="#2e3120" d="M138.2 395.075c-0.2 -5.6 4.4 -11 10.9 -11 6.2 0 10.9 5.2 10.9 11 0 6.4 -5.3 11 -10.9 11 -5.7 0.1 -11 -4.5 -10.9 -11Z" stroke-width="1"></path><path fill="#2e3120" d="M142.3 96.175c6.2 0.3 10.7 5 10.6 11.1 -0.1 6.6 -5.3 10.5 -11.2 10.8 -2.8 0.1 -5.5 -1.4 -7.5 -3.5 -2 -2.2 -3.5 -4.8 -3.1 -7.9 0.7 -5.8 4.5 -10.4 11.2 -10.5Z" stroke-width="1"></path><path fill="#2e3120" d="M444.8 245.175c-0.4 6.4 -5.3 10.9 -11.1 10.7 -6.1 -0.3 -10.7 -4.2 -10.7 -10.8 0 -6.2 4.6 -10.8 10.9 -10.8 6.4 -0.1 10.7 5.2 10.9 10.9Z" stroke-width="1"></path><path fill="#2e3120" d="M381 389.975c-6.3 0 -11 -5.6 -10.9 -10.9 0.1 -5.8 5 -10.8 10.7 -10.9 5.5 -0.1 10.9 4.4 11 10.8 0.1 5.9 -4.7 10.7 -10.8 11Z" stroke-width="1"></path><path fill="#2e3120" d="M318.9 91.875c-6.2 -0.3 -10.8 -4.6 -10.7 -10.9 0.1 -6.4 4.7 -10.8 11 -10.6 7 0.2 9.7 4.6 10.9 10.7 -1.2 6.1 -4.1 10.4 -11.2 10.8Z" stroke-width="1"></path><path fill="#2e3120" d="M164.3 84.075c0.3 -6.2 5 -10.7 10.8 -10.8 2.6 0 5.1 0.9 7.1 2.8 2.3 2.2 3.7 5 3.8 8 0.1 2.7 -1.2 5.4 -3.2 7.5 -2 2.1 -4.6 3.5 -7.5 3.4 -5.8 -0.2 -10.8 -4.4 -11 -10.9Z" stroke-width="1"></path><path fill="#2e3120" d="M429.8 327.975c0 5.6 -5.1 10.8 -10.8 10.9 -5.7 0 -10.8 -5 -10.8 -10.7 -0.1 -5.6 5.1 -11.2 10.7 -10.8 6.7 0.4 10 3.9 10.9 10.6Z" stroke-width="1"></path><path fill="#2e3120" d="M326.7 425.075c0 5.4 -5.1 10.9 -10.6 10.8 -2.7 -0.1 -5.4 -1.1 -7.5 -3.1 -2.2 -2.1 -3.2 -4.9 -3.3 -7.7 -0.2 -5.5 5.3 -10.8 10.7 -10.6 6.6 0.2 10.2 4.8 10.7 10.6Z" stroke-width="1"></path><path fill="#2e3120" d="M236 55.475c5.9 -0.2 10.6 5.3 10.6 10.6 0 6 -5.3 10.7 -10.5 10.7 -5.7 -0.1 -10.7 -4.6 -10.7 -10.8 0 -5.5 4.6 -10.5 10.6 -10.5Z" stroke-width="1"></path><path fill="#2e3120" d="M109.1 119.475c5.5 -0.1 10.6 4.7 10.5 10.4 0 2.6 -0.9 5.2 -2.8 7.3 -2.1 2.3 -4.8 3.3 -7.7 3.2 -5.6 -0.2 -10.4 -3.8 -10.5 -10.3 0 -6.2 4.6 -10.1 10.5 -10.6Z" stroke-width="1"></path><path fill="#2e3120" d="M87.7 357.975c-0.3 -5.3 4.5 -10.3 10.4 -10.3 6.6 0.1 10.4 5.2 10.4 10.4 0 5.4 -3.8 10.3 -10.4 10.3 -5.8 0.1 -10.8 -4.6 -10.4 -10.4Z" stroke-width="1"></path><path fill="#2e3120" d="M227 427.775c5.1 -0.6 10.4 4.7 10.4 10.2 0 5.9 -5.1 10.4 -10.2 10.4 -5.4 0 -10.3 -4.5 -10.4 -10.3 -0.1 -5.4 4.7 -10.8 10.2 -10.3Z" stroke-width="1"></path><path fill="#2e3120" d="M346.9 75.975c5.5 -0.3 10.3 4.1 10.4 10.1 0 5.5 -4.8 10.3 -10.1 10.3 -6 0.1 -10.5 -4.9 -10.5 -10.4 0.1 -5.7 4.4 -10.2 10.2 -10Z" stroke-width="1"></path><path fill="#2e3120" d="M438.8 227.375c-5.1 0.6 -10.3 -4.8 -10.2 -10.4 0.1 -5.8 5.3 -10.3 10.5 -10.2 5 0.1 10 4.1 10 10.4 0 5.6 -4.8 10.7 -10.3 10.2Z" stroke-width="1"></path><path fill="#2e3120" d="M199.8 443.275c-6 -0.1 -9.7 -4.4 -10 -10.6 -0.2 -5 5.2 -10.1 10.7 -10 4.5 0.1 10.1 5.2 10 10.6 -0.2 4.5 -5.2 10.9 -10.7 10Z" stroke-width="1"></path><path fill="#2e3120" d="M75 335.275c-5 0.8 -10.4 -5.5 -10.3 -10.3 0.1 -4.7 5.3 -10.3 10.4 -10.2 4.8 0.1 10.3 4.9 10.3 10.3 0 5.1 -5.4 11 -10.4 10.2Z" stroke-width="1"></path><path fill="#2e3120" d="M61.9 247.175c-5.4 0.6 -10.2 -5.3 -10.2 -10.2 0.1 -5 4.8 -10.1 10.6 -10 5.3 0.1 10.1 4.9 10 10.4 0 4.6 -4.4 10.5 -10.4 9.8Z" stroke-width="1"></path><path fill="#2e3120" d="M77.1 208.975c0.4 6 -4.4 10.2 -10 10.2 -5.1 0.1 -10.2 -4.2 -10.2 -10.1 0 -5.4 5.1 -10.3 10.1 -10.3 5.7 0 10.5 5 10.1 10.2Z" stroke-width="1"></path><path fill="#2e3120" d="M120.9 401.175c-4.8 0.6 -10.1 -4.9 -10.1 -10.3 0 -5.1 5.5 -10.4 10.6 -10.1 4.9 0.3 9.9 4.9 9.8 10.4 -0.1 4.8 -4.4 10.6 -10.3 10Z" stroke-width="1"></path><path fill="#2e3120" d="M408.1 124.275c0.1 5.2 -4.7 10 -10.2 10 -5.3 0 -10.1 -5.2 -10.1 -10.2 0 -4.6 4.8 -10.2 10.5 -10.1 5.1 0.1 10.1 5 9.8 10.3Z" stroke-width="1"></path><path fill="#2e3120" d="M420.9 145.975c5.6 -0.5 10.1 5.1 10.2 10 0 5.5 -4.8 10.1 -10 10.3 -4.7 0.2 -10.4 -4.9 -10.3 -10.2 -0.1 -5.1 5.3 -10.7 10.1 -10.1Z" stroke-width="1"></path><path fill="#2e3120" d="M265.1 443.175c0.6 5.1 -4.6 10 -10.3 10 -5.3 0 -10 -5.1 -10.1 -10 -0.1 -4.7 4.8 -10.4 10.4 -10.3 5.2 0.1 10.7 5.2 10 10.3Z" stroke-width="1"></path><path fill="#2e3120" d="M82.1 181.075c0.5 5.5 -5.3 10.2 -10 10.2s-10.2 -4.9 -10.1 -10.2c0.1 -5.6 5.1 -10.2 10.1 -10.1 5.2 0 10.3 4.6 10 10.1Z" stroke-width="1"></path><path fill="#2e3120" d="M404 356.175c-0.4 -5.9 4.7 -10 9.9 -10 5.6 0 9.9 4.2 10.1 9.7 0.2 5.4 -4.4 10.3 -10 10.4 -5.5 -0.1 -10.5 -5 -10 -10.1Z" stroke-width="1"></path><path fill="#2e3120" d="M57.2 254.075c4.5 -0.6 10.3 5.2 10.1 10.2 -0.2 5.2 -5.9 10.1 -10.2 10 -5 -0.2 -10 -4.8 -10.1 -10.3 0 -4.3 4.8 -10.4 10.2 -9.9Z" stroke-width="1"></path><path fill="#2e3120" d="M207.9 71.175c-5.1 0.2 -10 -5 -9.8 -10.3 0.2 -5.4 4.7 -9.8 10 -9.9 4.3 -0.1 10 4.4 10 10.2 0 5.1 -5.7 10.6 -10.2 10Z" stroke-width="1"></path><path fill="#2e3120" d="M172 438.075c-5.8 0.3 -9.9 -5.2 -9.8 -10 0.1 -5.6 4.3 -9.8 9.9 -9.9 4.7 -0.1 10 4 10.1 9.9 0 5.1 -5.1 10.5 -10.2 10Z" stroke-width="1"></path><path fill="#2e3120" d="M292.8 448.075c-0.3 5.9 -4.2 9.7 -9.8 9.9 -5.2 0.1 -9.9 -4.4 -9.9 -10 0 -4.9 4.5 -9.9 9.9 -9.8 5.8 0.1 9.6 4.5 9.8 9.9Z" stroke-width="1"></path><path fill="#2e3120" d="M377 416.775c-6 -0.5 -9.5 -4 -9.7 -9.7 -0.1 -5.4 4.2 -9.8 9.7 -9.9 5.2 0 9.9 4.5 9.7 9.9 -0.1 5.8 -4.2 9.3 -9.7 9.7Z" stroke-width="1"></path><path fill="#2e3120" d="M444 179.375c5.1 0.1 9.7 4.6 9.7 9.7 0.1 5.1 -4.8 10.1 -9.9 9.8 -5.9 -0.3 -9.6 -4.1 -9.6 -9.7 0 -5.8 3.7 -9.3 9.8 -9.8Z" stroke-width="1"></path><path fill="#2e3120" d="M384.8 90.975c-0.2 5.2 -4.7 9.8 -9.9 9.9 -2.6 0 -4.9 -1.2 -6.7 -3 -1.9 -1.9 -3 -4.3 -3 -6.8 0 -2.4 1.1 -4.9 2.9 -6.8 1.9 -2 4.4 -3.1 7 -3.1 2.4 0 4.9 1.1 6.8 3 1.6 1.8 2.9 4.7 2.9 6.8Z" stroke-width="1"></path><path fill="#2e3120" d="M344.2 420.275c2 0.4 4.3 0.7 6.1 2.5 2 2 3.4 4.5 3.5 7.3 0 2.5 -1.3 5 -3.1 7 -1.8 1.9 -4.2 2.8 -6.6 2.7 -5.7 -0.1 -9.6 -4.2 -9.9 -9.5 -0.2 -4.8 3.8 -9.7 10 -10Z" stroke-width="1"></path><path fill="#2e3120" d="M86.9 152.975c-0.3 5.6 -4 9.7 -9.6 9.8 -5.8 0.1 -9.7 -3.8 -9.8 -9.4 -0.1 -6 3.6 -9.8 9.6 -9.9 5.6 -0.1 9.2 3.7 9.8 9.5Z" stroke-width="1"></path><path fill="#2e3120" d="M156.9 78.975c-0.3 5.2 -4.3 9.6 -9.7 9.9 -4.8 0.3 -9.9 -4.7 -9.8 -9.7 0.1 -2.4 0.9 -4.7 2.7 -6.7 1.9 -2.1 4.4 -3 7 -3.2 4.7 -0.3 9.7 4.9 9.8 9.7Z" stroke-width="1"></path><path fill="#2e3120" d="M153.3 423.075c0.2 5.3 -3.8 9.4 -9.3 9.4 -5.2 0 -9.4 -4.1 -9.3 -9.5 0.1 -5.4 4 -9.2 9.3 -9.2 5.6 0 9.4 3.7 9.3 9.3Z" stroke-width="1"></path><path fill="#2e3120" d="M114.1 111.275c-5.4 0.1 -9.4 -3.5 -9.5 -9.3 -0.1 -5.4 4.5 -9.3 9.2 -9.4 5.3 0 9.7 4 9.5 9.5 0 5.7 -3.6 9.2 -9.2 9.2Z" stroke-width="1"></path><path fill="#2e3120" d="M52.1 301.275c-5.7 0.1 -9.1 -3.7 -9.1 -9.3 0 -5.3 3.6 -9.2 9.2 -9.3 5.3 -0.1 9.5 4.3 9.4 9.4 -0.2 5.5 -4.4 9.5 -9.5 9.2Z" stroke-width="1"></path><path fill="#2e3120" d="M418.1 384.175c0.2 5.3 -3.7 8.9 -9.1 9 -5 0.1 -9.4 -4 -9.4 -9.2 0 -4.9 4.9 -9.4 9.4 -9.3 4.7 0.2 9.6 4.1 9.1 9.5Z" stroke-width="1"></path><path fill="#2e3120" d="M466 278.175c0.5 4.3 -4.1 9.4 -9.1 9.1 -5.3 -0.3 -9 -4.1 -9.2 -9.4 -0.2 -4.6 4.7 -9.2 9.4 -9 4.9 0.2 9.2 4.1 8.9 9.3Z" stroke-width="1"></path><path fill="#2e3120" d="M189.2 56.175c0.6 4.3 -4.2 9.2 -9.3 9.1 -4.4 0 -9.3 -4.6 -9.1 -9.4 0.2 -4.9 4.3 -9.1 9.4 -9 5 0.2 9.3 4.2 9 9.3Z" stroke-width="1"></path><path fill="#2e3120" d="M460.9 305.175c0.3 5.3 -4.2 9 -8.9 9.1 -5 0.1 -9.5 -4.6 -9.3 -9.3 0.3 -5.1 4.2 -8.9 9.2 -9.2 4.6 -0.2 9.6 4.4 9 9.4Z" stroke-width="1"></path><path fill="#2e3120" d="M305 48.075c0.4 5.1 -4 8.9 -8.8 9.1 -5.3 0.1 -9.3 -4.8 -9.4 -8.9 -0.1 -4.6 4.9 -9.5 9.3 -9.4 4.3 0 9.5 4.2 8.9 9.2Z" stroke-width="1"></path><path fill="#2e3120" d="M102.3 386.175c0 4.8 -4.4 8.9 -9.3 9.1 -4.6 0.2 -9.2 -5 -9 -9.4 0.2 -4.9 4.3 -8.8 9.1 -9 4.6 -0.1 9.6 4.9 9.2 9.3Z" stroke-width="1"></path><path fill="#2e3120" d="M79.2 353.075c0.5 4.7 -4.9 9.3 -9.3 9.1 -4.9 -0.2 -8.8 -4.1 -9 -9.1 -0.1 -4.1 4.3 -9.4 9.3 -9.1 4.9 0.2 9 4.2 9 9.1Z" stroke-width="1"></path><path fill="#2e3120" d="M333 52.975c0.3 5.4 -4.6 9.1 -9.1 9.2 -4 0.1 -9.3 -3.8 -9.1 -9 0.2 -5 4 -8.9 8.9 -9.3 4.4 -0.3 9.9 4.7 9.3 9.1Z" stroke-width="1"></path><path fill="#2e3120" d="M277.1 43.275c0.8 4.3 -5.2 9.3 -9.3 9.1 -3.9 -0.2 -9 -4.1 -8.8 -9.4 0.2 -4.6 3.9 -9 9.2 -8.8 5.2 0.2 8.9 3.8 8.9 9.1Z" stroke-width="1"></path><path fill="#2e3120" d="M311 462.075c-4.9 0.3 -9.1 -4.4 -9.1 -8.9 0 -4.9 4.1 -8.9 9 -9 4.4 -0.1 9 4.1 9.1 9 0.2 4.4 -4.7 9.3 -9 8.9Z" stroke-width="1"></path><path fill="#2e3120" d="M470.9 250.275c0.3 4.5 -4.2 8.9 -9.1 8.9 -3.9 0 -9 -4.1 -8.9 -9.2 0 -4 4.6 -9 9.3 -8.9 4.3 0 9.2 4.5 8.7 9.2Z" stroke-width="1"></path><path fill="#2e3120" d="M82 133.975c-5.4 -0.5 -8.6 -3.5 -8.8 -9 -0.2 -4.8 4.1 -8.8 8.9 -9 4.2 -0.2 9.3 4.9 9 9.2 -0.2 4.8 -4.3 8.8 -9.1 8.8Z" stroke-width="1"></path><path fill="#2e3120" d="M438.1 333.075c-0.2 -4.3 3.6 -8.8 8.8 -9 5.2 -0.2 9.3 5.1 9.2 9.2 -0.2 4.8 -4.3 8.7 -9.2 8.8 -5.2 0.1 -9.2 -5 -8.8 -9Z" stroke-width="1"></path><path fill="#2e3120" d="M249.9 38.175c-0.3 5.1 -4.2 8.8 -9.1 8.9 -4.3 0.1 -9.1 -4.8 -8.8 -9.1 0.3 -4.8 4 -8.9 9 -8.7 5.6 0.2 8.3 3.2 8.9 8.9Z" stroke-width="1"></path><path fill="#2e3120" d="M426 119.175c5 0.2 8.7 3.7 8.8 9 0.1 5.1 -5 8.9 -9 8.9 -3.9 0 -9 -4.3 -8.8 -9.1 0.2 -5.1 4.5 -8.8 9 -8.8Z" stroke-width="1"></path><path fill="#2e3120" d="M360.7 57.975c-0.5 4.7 -3.4 8.5 -8.9 8.7 -4.5 0.2 -8.6 -4.2 -8.6 -8.7 0 -4.5 4.2 -8.8 8.7 -8.7 5.3 0.3 8.4 4.4 8.8 8.7Z" stroke-width="1"></path><path fill="#2e3120" d="M448.9 169.575c-5.7 -0.5 -8.4 -3.2 -8.6 -8.6 -0.2 -5 3.8 -8.5 8.6 -8.6 4.5 -0.1 8.8 3.7 8.6 8.6 -0.1 5.1 -3.2 8.3 -8.6 8.6Z" stroke-width="1"></path><path fill="#2e3120" d="M115.9 426.775c-1.9 -0.4 -4 -0.7 -5.6 -2.3 -1.7 -1.7 -2.8 -4 -2.9 -6.3 0 -2.4 1.2 -4.7 3 -6.5 1.6 -1.6 3.6 -2.1 5.6 -2.2 4.4 -0.3 8.7 4.1 8.7 8.6 0 4.6 -4.1 8.7 -8.8 8.7Z" stroke-width="1"></path><path fill="#2e3120" d="M55.6 320.275c0.2 5.3 -5 8.6 -8.5 8.4 -4 -0.1 -8.6 -3.2 -8.4 -8.8 0.2 -5.9 4 -8.3 8.5 -8.3s8.4 3 8.4 8.7Z" stroke-width="1"></path><path fill="#2e3120" d="M403.1 104.675c-5.4 -0.5 -8.4 -3.6 -8.8 -8.5 -0.2 -2.3 1 -4.4 2.6 -6.1 1.7 -1.8 4 -2.7 6.1 -2.6 2.2 0 4.4 1 6.1 2.7 1.7 1.7 2.3 3.9 2.4 6 0.2 4.5 -3.9 8.4 -8.4 8.5Z" stroke-width="1"></path><path fill="#2e3120" d="M475.4 221.975c0.2 5.2 -3.9 8.4 -8.3 8.4s-8.5 -2.7 -8.6 -8.2c-0.1 -4.8 3.7 -8.7 8.5 -8.7 4.4 0 8.3 4 8.4 8.5Z" stroke-width="1"></path><path fill="#2e3120" d="M230.4 466.075c-0.2 5.1 -3.3 8.3 -8.4 8.4 -4.8 0.1 -8.4 -3.6 -8.5 -8.4 -0.1 -4.6 3.8 -8.5 8.4 -8.5 4.8 0.1 8.4 3.6 8.5 8.5Z" stroke-width="1"></path><path fill="#2e3120" d="M34 223.775c4.9 0 8.2 3.5 8.5 8.3 0.2 4 -4 8.6 -8.4 8.4 -4.7 -0.1 -8.2 -4 -8.3 -8.2 -0.1 -4.5 3.8 -8.9 8.2 -8.5Z" stroke-width="1"></path><path fill="#2e3120" d="M203.2 461.075c0.2 4.3 -3 8.4 -8.3 8.3 -5.2 -0.1 -8.1 -3.7 -8.2 -8.3 -0.2 -4.6 3.6 -8.5 8.2 -8.6 4.6 0 8.8 4.4 8.3 8.6Z" stroke-width="1"></path><path fill="#2e3120" d="M380.1 435.075c0.6 4.1 -4.3 8.5 -8.2 8.3 -4.7 -0.3 -8 -3.5 -8.3 -8.2 -0.3 -4.1 4.2 -8.5 8.4 -8.4 4.2 0.1 8.6 3.9 8.1 8.3Z" stroke-width="1"></path><path fill="#2e3120" d="M39 195.975c4.7 -0.4 8.3 3.6 8.3 8.1 0 4.2 -2.9 8.3 -8.2 8.3 -4.9 0 -8.2 -3.2 -8.2 -8.1 -0.1 -5.4 4 -8.6 8.1 -8.3Z" stroke-width="1"></path><path fill="#2e3120" d="M450.2 361.075c0.5 4 -3.9 8.3 -8.3 8.2 -4.5 -0.1 -8.3 -3.4 -8.3 -8.1 0 -4.7 3.7 -8.1 8.3 -8.2 4.4 -0.3 8.8 4.2 8.3 8.1Z" stroke-width="1"></path><path fill="#2e3120" d="M249.9 479.275c-4.3 0.5 -8.2 -4.2 -8.1 -8.3 0.1 -4 3.5 -8.3 8.3 -8.1 4.6 0.2 8.1 3.6 8.1 8.3 0 4.4 -3.8 8.1 -8.3 8.1Z" stroke-width="1"></path><path fill="#2e3120" d="M127.2 74.275c0 4.4 -3.9 8.1 -8.4 8 -4.5 -0.1 -7.8 -3.7 -7.9 -8.5 -0.1 -4.5 4.1 -7.9 8.3 -7.9 3.7 0 8.6 3.8 8 8.4Z" stroke-width="1"></path><path fill="#2e3120" d="M411.9 412.175c0.4 4 -3.4 8.1 -8 8.1 -4.7 0.1 -8.2 -4.5 -8 -8.4 0.2 -4.6 3.5 -7.8 8.2 -8 4.1 -0.2 8.4 4.3 7.8 8.3Z" stroke-width="1"></path><path fill="#2e3120" d="M167.1 463.975c-4.1 0.3 -8.1 -3.3 -8.2 -7.9 -0.1 -4.7 4.4 -8.1 8.2 -8 4.6 0.1 8 3.5 8.2 8 0.1 4.3 -4.4 8.4 -8.2 7.9Z" stroke-width="1"></path><path fill="#2e3120" d="M220.9 32.975c0 4.9 -3.2 7.9 -7.9 8.2 -4.6 0.3 -8.2 -4.4 -8.2 -8.1 0 -4 3.3 -8.3 8 -8.2 5 0.3 8.1 3.3 8.1 8.1Z" stroke-width="1"></path><path fill="#2e3120" d="M43.8 184.175c-4.5 -0.1 -7.7 -3.6 -7.8 -8.3 0 -3.9 3.3 -8 8.3 -7.9 4.2 0.1 7.8 3.5 7.8 8.3 0.1 4.1 -4.1 8.4 -8.3 7.9Z" stroke-width="1"></path><path fill="#2e3120" d="M159.9 51.075c0.4 3.7 -3.5 8.1 -7.9 8.1 -4.5 0 -8.1 -4.5 -8 -8.1 0.2 -4.2 3.4 -8.1 8 -8.1 4.6 0.1 8 3.8 7.9 8.1Z" stroke-width="1"></path><path fill="#2e3120" d="M29.1 251.175c3.5 -0.3 7.9 3.2 8 7.7 0.1 4.8 -4.7 8.2 -8 8.1 -4 -0.2 -8 -3.2 -8 -7.8 0 -4.7 3.9 -8 8 -8Z" stroke-width="1"></path><path fill="#2e3120" d="M339 450.075c4.6 0.4 7.6 3.2 7.8 8 0.2 4.7 -4.1 8 -7.9 7.9 -3.8 -0.1 -7.9 -3.1 -7.7 -8 0.2 -4.8 3.2 -7.5 7.8 -7.9Z" stroke-width="1"></path><path fill="#2e3120" d="M464.1 194.775c0 -4.7 3.8 -8.6 7.7 -8.6 3.9 0 8 4 8 7.9 0 3.7 -4.4 8.2 -8 8 -2.1 -0.1 -3.9 -1.2 -5.4 -2.6 -1.5 -1.4 -2.2 -3.4 -2.3 -4.7Z" stroke-width="1"></path><path fill="#2e3120" d="M492.8 282.075c-0.2 4.3 -3.7 7.9 -7.9 7.7 -4.4 -0.2 -7.6 -3 -7.7 -7.7 -0.1 -4.7 3.8 -7.7 7.9 -7.8 4 0.1 7.6 3.7 7.7 7.8Z" stroke-width="1"></path><path fill="#2e3120" d="M87.1 104.775c-4.7 -0.5 -7.4 -3 -7.7 -7.7 -0.2 -4.1 3.6 -7.8 7.6 -7.8 4.1 0 7.9 3.8 7.9 7.9 -0.1 4 -3.7 7.6 -7.8 7.6Z" stroke-width="1"></path><path fill="#2e3120" d="M308.8 20.175c-0.1 3.9 -4.1 7.8 -7.8 7.8 -3.6 0 -7.9 -4.3 -7.8 -7.9 0 -3.7 4.2 -7.8 8 -7.7 3.8 0 7.7 3.9 7.6 7.8Z" stroke-width="1"></path><path fill="#2e3120" d="M387.7 62.975c-0.3 4.2 -3.2 7.8 -7.6 7.8 -4.3 0.1 -7.7 -3.2 -7.7 -7.7 0 -4.3 2.6 -7.5 7.5 -7.9 3.9 -0.1 7.7 3.8 7.8 7.8Z" stroke-width="1"></path><path fill="#2e3120" d="M270.3 476.175c-0.1 -4.1 3.6 -7.8 7.7 -7.8 4 0 7.7 3.7 7.7 7.7s-3.8 7.9 -7.6 7.9 -7.7 -3.9 -7.8 -7.8Z" stroke-width="1"></path><path fill="#2e3120" d="M429.1 389.075c0 -3.7 4.1 -7.8 7.8 -7.9 3.6 0 8 4.2 7.8 7.8 -0.2 4 -3.2 7.9 -7.9 7.7 -4.5 -0.1 -7.1 -3 -7.7 -7.6Z" stroke-width="1"></path><path fill="#2e3120" d="M65 373.275c4.3 0.2 7.6 3.8 7.8 7.7 0.1 3.9 -3.7 7.8 -7.7 7.8 -3.8 0 -7.8 -3.3 -7.8 -7.7 0.1 -4.2 3.3 -7.3 7.7 -7.8Z" stroke-width="1"></path><path fill="#2e3120" d="M487.6 309.975c-0.1 4.5 -3.5 7.7 -7.6 7.8 -4 0.1 -7.7 -3.6 -7.7 -7.7 -0.1 -4.1 4 -7.6 7.5 -7.7 3.3 -0.1 7.7 2.9 7.8 7.6Z" stroke-width="1"></path><path fill="#2e3120" d="M146.8 450.975c0.1 4 -3.3 7.6 -7.5 7.6 -1.9 0 -3.7 -0.4 -5.3 -1.8 -1.7 -1.5 -2.5 -3.7 -2.6 -5.6 -0.1 -1.8 0.7 -3.8 2.2 -5.3 1.6 -1.6 3.5 -2.3 5.5 -2.4 4 -0.2 7.6 3.5 7.7 7.5Z" stroke-width="1"></path><path fill="#2e3120" d="M272.9 22.575c-4.2 0.1 -7.5 -3.5 -7.3 -7.6 0.1 -4.2 2.9 -7.5 7.5 -7.4 4.1 0.1 7.7 3.6 7.4 7.5 -0.2 3.8 -2.9 7.7 -7.6 7.5Z" stroke-width="1"></path><path fill="#2e3120" d="M56.7 148.075c-0.3 4.5 -3.1 7.5 -7.7 7.6 -3.8 0.1 -7.9 -3.8 -7.6 -7.6 0.3 -3.9 3.1 -7.8 7.8 -7.7 3.9 0.2 7.4 3.2 7.5 7.7Z" stroke-width="1"></path><path fill="#2e3120" d="M42 340.875c3.5 -0.3 7.5 2.3 7.4 7.1 0 4.6 -3.2 7.2 -7.3 7.3 -4.2 0.1 -7.3 -3.1 -7.4 -7.1 -0.1 -4.4 3.7 -7.6 7.3 -7.3Z" stroke-width="1"></path><path fill="#2e3120" d="M31.4 287.075c0.3 4 -2.9 7.2 -7.2 7.3 -4.3 0.2 -7.4 -3.8 -7.5 -7.2 -0.2 -4.1 3.9 -7.4 7.3 -7.4 3.7 0.1 7.8 2.9 7.4 7.3Z" stroke-width="1"></path><path fill="#2e3120" d="M95.2 413.175c0.1 3.8 -2.6 7.4 -7.3 7.2 -4.1 -0.2 -7 -2.8 -7.1 -7.3 -0.1 -4.9 3.5 -7.1 7.4 -7.2 4.5 0 7.3 3.3 7 7.3Z" stroke-width="1"></path><path fill="#2e3120" d="M192.2 28.175c0 4.1 -3.1 7.1 -7.2 7.1 -4.3 0 -7.1 -3 -7.1 -7.4 0 -4.1 3.1 -7.1 7.3 -7 3.9 0 7 3.3 7 7.3Z" stroke-width="1"></path><path fill="#2e3120" d="M391.9 440.075c-0.2 -4.2 2.9 -7.1 7 -7.2 4.5 -0.1 7.1 3.5 7.2 7.1 0.1 4 -3.2 7.3 -7.1 7.2 -3.7 0 -7.4 -2.7 -7.1 -7.1Z" stroke-width="1"></path><path fill="#2e3120" d="M430.9 94.175c3.4 -0.6 7.4 3.5 7.3 7.1 -0.1 3.1 -3.7 7.2 -7.2 7.1 -3.7 -0.1 -7.5 -3.6 -7.3 -7.1 0.2 -4.3 2.9 -7.1 7.2 -7.1Z" stroke-width="1"></path><path fill="#2e3120" d="M117 46.075c-0.6 -3.8 3.8 -7.4 7.1 -7.2 3.9 0.2 6.9 3.1 7 7.1 0 4.3 -2.8 7 -7 7.2 -3.9 0.2 -7.5 -3.4 -7.1 -7.1Z" stroke-width="1"></path><path fill="#2e3120" d="M454.1 139.975c-3.1 0.3 -7.1 -2.7 -7.2 -6.7 0 -4.2 3.6 -7.1 7 -7.2 3.4 -0.2 6.9 3.1 7 6.9 0.1 3.9 -3.7 7.4 -6.8 7Z" stroke-width="1"></path><path fill="#2e3120" d="M496.7 255.075c0 3.6 -3.4 7.1 -6.9 7.1 -3.4 0 -6.9 -3.7 -7 -7.1 -0.1 -3.6 4.2 -7.2 7 -7.1 3.7 0.1 6.9 3.4 6.9 7.1Z" stroke-width="1"></path><path fill="#2e3120" d="M373.9 462.975c0.2 4.3 -3.8 6.9 -6.8 7 -3.6 0.1 -6.9 -2.9 -7 -6.9 -0.1 -3.8 3.1 -7 6.8 -7 3.1 0.1 7.1 2.8 7 6.9Z" stroke-width="1"></path><path fill="#2e3120" d="M306 487.975c-3.8 0.3 -7.1 -3.9 -7.1 -6.9 0.1 -3.2 3.3 -7 7 -7 3 0 7.1 3.1 7 6.9 0 3.8 -3.1 6.9 -6.9 7Z" stroke-width="1"></path><path fill="#2e3120" d="M329 31.875c-3.5 -0.1 -6.9 -3 -6.9 -6.8 0.1 -4 3.2 -6.8 7 -6.9 3.4 -0.1 7 3.5 6.8 6.9 -0.3 3.5 -2.8 6.6 -6.9 6.8Z" stroke-width="1"></path><path fill="#2e3120" d="M61 119.975c-0.3 3.7 -2.8 6.6 -6.8 6.8 -3.4 0.2 -6.9 -3.4 -6.9 -6.8 0 -3.3 3.4 -6.7 6.8 -6.8 3.2 0 6.8 3.4 6.9 6.8Z" stroke-width="1"></path><path fill="#2e3120" d="M482.7 166.075c-0.4 4 -3.1 6.7 -6.9 6.8 -3.4 0.1 -6.8 -3.6 -6.7 -7 0.1 -3.4 3.5 -6.8 6.8 -6.8 3.4 0.1 6.8 3.6 6.8 7Z" stroke-width="1"></path><path fill="#2e3120" d="M25.9 315.275c-0.1 3.1 -3.7 6.8 -6.8 6.8 -3.2 0 -6.9 -3.8 -6.8 -7.1 0.1 -3.4 3.7 -7.2 6.9 -6.8 3.8 0.4 6.6 3.2 6.7 7.1Z" stroke-width="1"></path><path fill="#2e3120" d="M104.3 446.075c0 -3.5 3.3 -6.9 6.8 -6.9 3.3 0 6.9 3.5 6.8 6.9 0 3.6 -3.3 6.8 -6.9 6.7 -3.6 -0.1 -6.7 -3.2 -6.7 -6.7Z" stroke-width="1"></path><path fill="#2e3120" d="M414.3 68.375c0.3 3.4 -3.3 6.2 -6.8 6 -3.5 -0.2 -6 -2.5 -5.8 -6.4 0.1 -3.9 2.2 -6.2 6.2 -6.3 3.7 -0.1 6.8 3.2 6.4 6.7Z" stroke-width="1"></path><path fill="#2e3120" d="M90.8 75.175c-3.2 0.3 -6.2 -2.7 -5.9 -6.5 0.3 -3.5 2.9 -6 6.5 -6 2.8 0 6.1 2.8 6 6.6 -0.1 3.7 -3.4 6.3 -6.6 5.9Z" stroke-width="1"></path><path fill="#2e3120" d="M245 3.975c3.5 -0.4 6.2 2.9 6.3 5.9 0.1 3.4 -2.9 6.6 -6.2 6.6 -3.1 0 -6.3 -3.3 -6.3 -6.3 -0.2 -3.4 3.1 -6.6 6.2 -6.2Z" stroke-width="1"></path><path fill="#2e3120" d="M481 338.175c0 3.6 -2.4 5.7 -6.2 6 -3.3 0.2 -6.3 -3 -6 -6.1 0.2 -3.7 2.6 -6.2 6.3 -6.1 3.4 0 5.9 2.7 5.9 6.2Z" stroke-width="1"></path><path fill="#2e3120" d="M488 227.075c-0.3 -3.4 2.8 -6 5.9 -6 3.3 0.1 6 2.6 6.1 6 0 2.6 -2.6 6.1 -6 6 -3.4 -0.1 -6 -2.6 -6 -6Z" stroke-width="1"></path><path fill="#2e3120" d="M357 24.175c3.6 0.4 5.6 2.3 5.8 5.9 0.1 3.2 -2.7 5.9 -5.9 5.9 -3 0 -6 -3 -5.9 -6 0.1 -3.1 2.8 -5.8 6 -5.8Z" stroke-width="1"></path><path fill="#2e3120" d="M469.2 372.375c-3.1 -0.1 -5.1 -2 -5.5 -5.7 -0.3 -2.6 1.3 -5.7 3.5 -6.4 3.6 -1.1 7.1 0 8.4 2.5 0.3 0.6 0.3 0.8 -0.1 1.4 -0.7 1.1 -1.2 2.2 -2.2 3.1 -0.6 0.6 -1.3 1.8 -1.5 3 -0.3 1.5 -1.3 2.1 -2.6 2.1Z" stroke-width="1"></path><path fill="#2e3120" d="M218.1 12.175c-4.3 0.2 -7 -3.9 -5.8 -8.2 0.4 -1.5 1 -1.8 2.6 -1.8l3.3 0c0.6 0 1.2 0 1.7 -0.5 0.8 -0.8 1.7 -0.5 2.4 0.3 1.7 1.8 2.1 3.9 1.4 6.2 -0.8 2.5 -2.9 3.9 -5.6 4Z" stroke-width="1"></path><path fill="#2e3120" d="M163 23.975c0.1 2.7 -3 6 -5.8 5.9 -3.6 -0.1 -5.4 -2.3 -5.9 -5.6 -0.2 -1.6 0.6 -2.9 1.5 -4.1 1.1 -1.5 3 -1.5 4.4 -1.8 2.5 -0.5 5.7 2.9 5.8 5.6Z" stroke-width="1"></path><path fill="#2e3120" d="M23.1 171.275c0 4.2 -4.3 7.7 -8.4 6.9 -1 -0.2 -1.4 -1 -2.2 -1.4 -0.2 -0.1 -0.2 -0.5 0 -0.6 0.8 -0.4 0.4 -1.3 0.7 -1.8 0.8 -1.4 0.9 -3 1.5 -4.5 0.5 -1.4 1.3 -2.8 1.4 -4.3 0.1 -1.6 0.8 -2 2.3 -1.3 2.4 0.9 5.1 4.4 4.7 7Z" stroke-width="1"></path><path fill="#2e3120" d="M2.1 229.575c0.1 -0.9 -0.1 -1.8 0.7 -2.6 0.7 -0.8 0.3 -2.2 0.3 -3.3 0.1 -2.3 0.3 -2.4 2.6 -2.7 2.9 -0.3 4.6 1.3 6.1 3.3 0.9 1.1 0.4 4.6 -0.4 5.9 -1.4 2.2 -3.2 3.3 -5.9 3 -2.8 -0.2 -3.4 -0.7 -3.4 -3.6Z" stroke-width="1"></path><path fill="#2e3120" d="M190.2 482.975c2.6 -0.3 4.1 1.5 5.4 3.5 1 1.6 0.5 5.2 -0.9 6.5 -0.4 0.4 -1 1.5 -1.8 0.3 -0.3 -0.4 -0.9 -0.2 -1.4 -0.2 -1 0 -2 0.2 -2.8 -0.8 -0.3 -0.3 -1.2 -0.2 -1.8 -0.2 -2.2 -0.1 -2.9 -0.8 -2.9 -3 -0.1 -3.3 2.6 -6.1 6.2 -6.1Z" stroke-width="1"></path><path fill="#2e3120" d="M67.2 409.075c0.1 2.5 -1.2 4.2 -3 5.6 -0.5 0.4 -0.8 0.3 -1.2 -0.2 -1.4 -1.7 -3.4 -2.8 -4.2 -5.1 -0.4 -1.1 -1.8 -1.9 -2.7 -2.9 -1.3 -1.4 -1.2 -2.5 0.3 -3.4 2.3 -1.3 4.6 -1.6 7 -0.2 2.3 1.5 3.7 3.4 3.8 6.2Z" stroke-width="1"></path><path fill="#2e3120" d="M431.9 422.475c-3.6 -0.1 -5.2 -2.4 -5.5 -5.4 -0.3 -2.6 3 -5.8 5.5 -5.8 2.6 0 5.8 3.3 5.6 5.8 -0.2 2.4 -2.4 5.5 -5.6 5.4Z" stroke-width="1"></path><path fill="#2e3120" d="m245.1 499.975 -5.8 0c-1 0 -1.4 -0.3 -1.4 -1.4 -0.2 -3.4 3.1 -6.2 5.7 -6.5 3.6 -0.5 6.3 0.8 8 4.1 0 0.1 0.1 0.1 0.1 0.2 0.3 1 0.6 2.1 0.2 3 -0.4 1 -1.5 0.5 -2.4 0.5 -1.4 0.2 -2.9 0.1 -4.4 0.1Z" stroke-width="1"></path><path fill="#2e3120" d="M217.5 488.775c2.9 -0.3 4.3 1.2 5.5 2.9 0.9 1.4 0.4 4.8 -0.7 5.8 -0.7 0.7 -1.3 1.8 -2.9 0.7 -0.8 -0.6 -2.3 -0.1 -3.5 -0.2 -2.1 0 -2.5 -0.4 -3 -2.6 -0.4 -2.2 0 -3.9 1.6 -5.6 1.2 -1 2.3 -0.8 3 -1Z" stroke-width="1"></path><path fill="#2e3120" d="M11.3 193.875c3 0.1 4.7 1.7 4.8 4.7 0.1 2 -0.2 3.7 -2 5 -2.2 1.5 -6.4 0.8 -7.5 -1.6 -0.5 -0.9 -0.7 -2.1 0.1 -2.9 0.6 -0.6 0.5 -1.1 0.5 -1.7 0.1 -2.6 0.8 -3.3 3.4 -3.5l0.7 0Z" stroke-width="1"></path><path fill="#2e3120" d="M39.6 382.075c-1.7 -1.7 -2.6 -3.5 -3.6 -5.4 -0.7 -1.2 -1.7 -2.4 -2.5 -3.7 -0.7 -1.1 -0.3 -2.2 0.9 -2.7 2.8 -1.2 6.8 0.1 8.4 2.7 1.4 2.2 0.7 6.2 -1.5 7.7 -0.6 0.4 -1.1 0.9 -1.7 1.4Z" stroke-width="1"></path><path fill="#2e3120" d="M64.9 92.075c-0.2 2 -1 3.8 -2.8 4.9 -1.9 1.2 -3.9 1.2 -5.9 0 -1.1 -0.6 -1.3 -1.7 -0.6 -2.8 0.1 -0.2 0.3 -0.4 0.5 -0.5 1.8 -1.8 3.1 -4.1 4.9 -6 0.6 -0.6 1 -0.8 1.5 -0.3 1.2 1.3 2.2 2.8 2.4 4.7Z" stroke-width="1"></path><path fill="#2e3120" d="M330.1 487.975c-2.2 0.1 -2.1 0.1 -2.2 -1.7 -0.2 -3 1.8 -5.1 4.4 -5.9 2.9 -0.9 6 0.6 7.2 3.2 0.4 0.7 0.6 1.2 -0.7 1.7 -1.9 0.8 -3.8 1.5 -5.8 1.8 -1.1 0.1 -1.8 1.7 -2.9 0.9Z" stroke-width="1"></path><path fill="#2e3120" d="M2.6 261.775c-0.6 -0.6 -0.5 -1.3 -0.5 -1.9l0 -9.5c0 -2.2 0.4 -2.3 2.2 -1.2 2.1 1.2 3.7 3.1 3.8 5.8 0.1 2.7 -1.3 4.6 -3.5 6 -0.6 0.2 -1.3 0.4 -2 0.8Z" stroke-width="1"></path><path fill="#2e3120" d="M156.3 481.675c2.6 -4.7 8.8 -5 11.5 -0.4 0.7 1.2 0.7 2.8 0.4 4.2 -0.3 1 -1.4 0.9 -1.7 0.5 -1.2 -1.2 -2.9 -0.8 -4.2 -1.7 -1.8 -1.3 -4.1 -1.5 -6 -2.6Z" stroke-width="1"></path><path fill="#2e3120" d="M460.6 111.775c-3.4 1.3 -6.2 0.5 -8 -2.4 -1.1 -1.8 -1.1 -5.4 0.2 -6.9 0.8 -0.9 1.7 -0.8 2 0.3 0.2 0.7 0.6 1 1 1.4 0.9 1 1.7 2.1 2.3 3.3 0.8 1.5 2 2.7 2.5 4.3Z" stroke-width="1"></path><path fill="#2e3120" d="M498.1 202.375c-0.1 0.6 0.3 1.6 -0.5 1.9 -0.9 0.3 -1.6 -0.1 -2.3 -0.8 -2.4 -2.1 -2.7 -5.9 -0.6 -8.3 0.3 -0.3 0.6 -0.7 1.2 -0.4 0.5 0.3 1 0.4 0.9 1.1l0 2.6c0 0.4 0 1 0.2 1.1 1.4 0.6 1 1.8 1.1 2.8Z" stroke-width="1"></path><path fill="#2e3120" d="M386.8 38.675c-0.1 0.6 -1.4 1.4 -2.1 1.2 -1.9 -0.6 -3.6 -1.5 -4.3 -3.6 -0.1 -0.3 -0.3 -0.6 0.1 -0.8 0.4 -0.2 0.9 -0.4 1.1 -0.1 1.2 1.6 3.1 2.1 4.8 2.8 0.3 0.1 0.4 0.3 0.4 0.5Z" stroke-width="1"></path><path fill="#2e3120" d="M21 343.075c-0.1 0.6 -0.1 1.1 -0.6 1 -0.4 0 -1.2 0 -1.1 -0.6 0.3 -1.4 -0.9 -2.3 -1 -3.5 0 -0.5 -0.2 -0.8 -0.8 -1 -0.7 -0.3 -0.6 -0.9 -0.2 -1.4 0.5 -0.6 0.7 0 1.1 0.3 2 1.2 1.9 3.5 2.6 5.2Z" stroke-width="1"></path><path fill="#2e3120" d="M88.6 439.875c-1.4 -1.6 -3.1 -2.6 -4.9 -3.7 -0.4 -0.2 -0.7 -0.4 -0.5 -0.9 0.1 -0.3 0.5 -0.3 0.8 -0.3 2.1 -0.1 4.6 2.4 4.6 4.9Z" stroke-width="1"></path><path fill="#2e3120" d="M270.3 499.275c1.2 -0.5 2.4 -0.9 3.7 -0.5 0.4 0.1 0.8 0.2 0.7 0.7 0 0.4 -0.4 0.4 -0.7 0.4l-3.7 0c0.1 -0.1 0 -0.4 0 -0.6Z" stroke-width="1"></path><path fill="#2e3120" d="M24.5 146.575c-0.2 -1.6 0.9 -2.8 0.9 -4.8 1 2.5 1 2.9 -0.9 4.8Z" stroke-width="1"></path><path fill="#2e3120" d="M191.9 7.475c-0.8 0.5 -1.7 0.5 -2.9 0.3 1 -1.2 2 -0.6 2.9 -0.3Z" stroke-width="1"></path><path fill="#2e3120" d="M459.8 390.275c0 0.4 -0.1 0.7 -0.5 0.7s-0.5 -0.3 -0.5 -0.6c0.1 -0.4 0.2 -0.9 0.7 -0.8 0.3 0 0.3 0.4 0.3 0.7Z" stroke-width="1"></path></svg>