<svg viewBox="-0.5 -0.5 100 100" xmlns="http://www.w3.org/2000/svg" id="Coding-1--Streamline-Brooklyn.svg" height="100" width="100"><desc>Coding 1 Streamline Illustration: https://streamlinehq.com</desc><path d="M37.35171 56.90074499999999c-1.37214 -0.24354 -1.89981 1.544895 -1.08405 2.412135a1.2469050000000002 1.2469050000000002 0 0 0 1.98792 -0.206415 1.46718 1.46718 0 0 0 -0.9038700000000001 -2.2057200000000003Zm-0.66528 2.157705a0.891 0.891 0 1 1 1.26819 -1.0583099999999999 0.86229 0.86229 0 0 1 -1.26819 1.0583099999999999Zm30.402404999999998 -9.572804999999999c-0.81972 0.037125 -1.65231 0.20443499999999998 -2.4255 -0.1584 -0.836055 -0.39105 -0.94941 -1.282545 -0.9602999999999999 -2.11068 -0.024255000000000002 -1.7919 -0.099 -3.60558 0.00693 -5.568255000000001 0.013365 -0.2475 -0.38709 -0.19404000000000002 -0.413325 0.02772a38.437245 38.437245 0 0 0 -0.06732 6.300854999999999 2.30373 2.30373 0 0 0 1.314225 1.906245 3.682305 3.682305 0 0 0 2.6601299999999997 0.03168 20.50389 20.50389 0 0 1 0.50391 2.964555 0.20889 0.20889 0 0 0 0.413325 0.006435c0.198 -1.18503 -0.396 -3.083355 -0.86229 -4.1877a0.198 0.198 0 0 0 -0.368775 0.14354999999999998c0.07177499999999999 0.21284999999999998 0.138105 0.42768 0.19899 0.643995Zm6.283035 -0.50688a0.208395 0.208395 0 0 0 -0.384615 0.15939 14.486175 14.486175 0 0 1 0.686565 2.836845 0.198 0.198 0 0 0 0.387585 -0.0495 7.89525 7.89525 0 0 0 -0.689535 -2.9467350000000003Zm-14.57379 26.999775c-3.44421 0.044055 -7.64973 0.025244999999999997 -10.96227 0.06633 -10.931085 0.135135 -21.862665 0.30195 -32.79375 0.42075 -4.018905 0.044055 -8.447669999999999 0.186615 -12.354705 0.22869 -0.26928 0.00297 -0.293535 0.339075 -0.009405 0.35244 3.5531099999999998 0.16681500000000002 7.3755 -0.028215 10.959795 -0.065835q16.39737 -0.17325 32.79573 -0.408375c3.709035 -0.0495 8.67141 -0.010889999999999999 12.354209999999998 -0.2277 0.2772 -0.01584 0.309375 -0.37026 0.010395 -0.3663ZM3.694185 79.71777c3.2521500000000003 0.229185 7.440345000000001 -0.063855 10.7316 -0.119295q11.349855 -0.192555 22.699215 -0.402435c6.9210899999999995 -0.12028499999999999 14.734169999999999 -0.2475 21.496365 -0.429165 0.26334 -0.007424999999999999 0.28512 -0.31977 0.00693 -0.31779 -6.8805000000000005 0.056925 -14.514389999999999 0.18612 -21.384 0.30096q-10.723185 0.178695 -21.44637 0.365805c-3.68874 0.06435 -8.577855 0.2475 -12.093839999999998 0.27225 -0.273735 0.00198 -0.301455 0.309375 -0.0099 0.32967Zm6.831 -11.53746a13.1175 13.1175 0 0 0 -0.01782 -1.55826c1.648845 0.029699999999999997 4.0392 0.153945 5.643 0.08563499999999999 0.10493999999999999 1.80873 0.32175 4.6232999999999995 0.30491999999999997 6.93396a14.256 14.256 0 0 1 -5.4296549999999995 0.317295c-0.21681 -0.0198 -0.300465 0.333135 -0.07722 0.383625a12.53241 12.53241 0 0 0 5.830605 -0.21483 0.282645 0.282645 0 0 0 0.22473 -0.251955 62.260110000000005 62.260110000000005 0 0 0 -0.35046 -6.638940000000001c-0.10593 -0.985545 -0.032670000000000005 -1.00287 -1.124145 -1.0682099999999999 -1.498365 -0.089595 -3.233835 -0.05346 -4.7124 -0.021779999999999997 -0.573705 0.01188 -0.825165 -0.099 -0.87417 0.50688a10.29996 10.29996 0 0 0 0.01188 1.2375c-1.119195 -1.287 -3.1976999999999998 -0.58509 -3.6565649999999996 1.026135 -0.57519 2.01564 1.188 4.02435 2.9155499999999996 3.0195 0.193545 -0.112365 0.02475 -0.43263 -0.198 -0.3465 -1.5117299999999998 0.5712299999999999 -2.687355 -1.39689 -2.11068 -2.6586450000000004 0.7424999999999999 -1.62954 2.574 -0.8811 3.069 -0.32373 0.032670000000000005 1.660725 0.0198 3.3402600000000002 0.15642 4.99455a0.198 0.198 0 0 0 0.39055500000000004 0.006435c0.09850500000000001 -1.7919 0.02277 -3.63033 0.00594 -5.4286650000000005Zm39.143115 6.024645c-4.30353 0.027225 -8.618445000000001 0.21087 -12.92445 0.297 -3.039795 0.06039 -6.06375 -0.08563499999999999 -8.447175000000001 -2.2373999999999996 -0.198 -0.178695 -0.449955 0.10790999999999999 -0.27670500000000003 0.300465 2.1339449999999998 2.367585 5.6499299999999995 2.5299449999999997 8.610029999999998 2.4769799999999997 4.52529 -0.07821 9.06345 -0.17720999999999998 13.588245 -0.305415 1.0429650000000001 -0.029699999999999997 1.4849999999999999 -0.58311 0.62667 -1.3365a10.277190000000001 10.277190000000001 0 0 0 -2.252745 -1.52559 9.83961 9.83961 0 0 0 -4.982670000000001 -1.1147399999999998c-4.6035 0.135135 -9.405 0.13909500000000002 -14.082749999999999 0.192555 -1.3508550000000001 0.014849999999999999 -2.4255 0 -3.14127 1.358775a5.11137 5.11137 0 0 0 -0.508365 2.1141449999999997 0.20295 0.20295 0 0 0 0.402435 0.0495 9.99207 9.99207 0 0 1 0.48856499999999997 -1.7537850000000001c0.63558 -1.4211449999999999 1.7874450000000002 -1.244925 3.095235 -1.26126 4.569839999999999 -0.055935 9.1575 -0.05445 13.72338 -0.15345a8.01009 8.01009 0 0 1 4.393619999999999 0.85536 11.35926 11.35926 0 0 1 2.124045 1.287c0.81675 0.62667 0.25641 0.7519049999999999 -0.43461 0.75636Zm-22.93038 -11.441925a0.214335 0.214335 0 0 0 -0.364815 -0.22423500000000002c-1.2597749999999999 1.84833 -4.028804999999999 6.601815 -3.96891 8.915445 0.042075 1.6290449999999999 1.37115 2.1087 2.753685 2.408175a0.198 0.198 0 0 0 0.11088 -0.382635c-1.128105 -0.33016500000000004 -2.3467949999999997 -0.7538849999999999 -2.31264 -2.136915 0.05544 -2.26809 2.7551699999999997 -6.6859649999999995 3.7817999999999996 -8.579835Zm8.777835 0.150975c-1.2696749999999999 1.71666 -2.01168 5.125725 -1.9453500000000001 7.250265a0.20295 0.20295 0 0 0 0.40441499999999997 0.02673c0.291555 -3.36105 0.84546 -4.22334 1.91862 -7.093845 0.08711999999999999 -0.23215499999999997 -0.23958 -0.369765 -0.377685 -0.18265499999999998Zm11.96514 1.79487a7.961084999999999 7.961084999999999 0 0 0 -4.684184999999999 -1.2206700000000001c-1.509255 0.04554 -3.443715 0.5247 -4.60053 1.584 -0.16632 0.15245999999999998 -0.00891 0.46233 0.215325 0.353925 1.498365 -0.725175 2.60964 -1.25532 4.369365 -1.33947a8.776845000000002 8.776845000000002 0 0 1 4.48668 1.00584 0.22176 0.22176 0 0 0 0.213345 -0.383625Zm-3.591225 0.04554a3.245715 3.245715 0 0 0 -2.80467 0.73755c-0.8513999999999999 0.90288 -0.713295 2.04633 -0.575685 3.168 0.03465 0.28017 0.431145 0.21087 0.42471 -0.057915 -0.020295 -0.883575 -0.027225 -2.0186100000000002 0.62667 -2.70567 0.64053 -0.6736949999999999 1.53054 -0.539055 2.33145 -0.734085a0.205425 0.205425 0 0 0 -0.002475 -0.40787999999999996Zm0.35936999999999997 1.16424c-0.7761600000000001 0.00891 -1.6562700000000001 0.495 -1.7730899999999998 1.323135 -0.1089 0.769725 0.47074499999999997 1.8092249999999999 0.8964449999999999 2.43045a0.20295 0.20295 0 0 0 0.35095499999999996 -0.203445 5.515785 5.515785 0 0 1 -0.614295 -1.9913849999999997c-0.05841 -0.80091 0.5712299999999999 -0.976635 1.196415 -1.16028a0.20393999999999998 0.20393999999999998 0 0 0 -0.05643 -0.398475Zm46.431 -12.660120000000001c-0.907335 -0.236115 -2.9640600000000004 -0.1485 -3.9892049999999997 -0.1485a32.75217 32.75217 0 0 0 -3.991185 0.177705 0.198 0.198 0 0 0 0.011385 0.387585c1.3246200000000001 0.07325999999999999 2.65914 0.04158 3.98574 0.0495 1.05435 0.00594 3.030885 0.096525 3.93426 0.030195 0.239085 -0.015345 0.31284 -0.42768 0.048510000000000005 -0.49648499999999995Zm0.7761600000000001 6.8755500000000005c-1.7176500000000001 0.0495 -3.212055 -0.052469999999999996 -4.8227850000000005 -0.02079 -1.62063 0.03168 -3.255615 0.0495 -4.870305 0.198 -0.23215499999999997 0.02079 -0.2475 0.40540499999999996 -0.007424999999999999 0.419265 1.6013249999999999 0.090585 3.2175 0.057420000000000006 4.820805 0.03366a42.65712 42.65712 0 0 0 4.872285 -0.184635c0.244035 -0.031185 0.26730000000000004 -0.45342 0.00693 -0.4455Zm0.5148 6.831c-1.5414299999999999 -0.198 -3.78576 0.027225 -5.415299999999999 0.05445 -1.82853 0.030195 -3.6630000000000003 0.009405 -5.48757 0.142065a0.208395 0.208395 0 0 0 0.00396 0.41629499999999997 44.8569 44.8569 0 0 0 5.49054 0.1485c1.5617249999999998 -0.025244999999999997 3.8115 -0.2079 5.411835 -0.29997 0.225225 -0.010395 0.23859 -0.429165 -0.003465 -0.46035000000000004Zm-1.0053450000000002 6.934455c-1.740915 0.00297 -4.34214 0.00792 -6.15384 0.06732 -2.0666249999999997 0.067815 -4.12434 0.174735 -6.183540000000001 0.3465 -0.22869 0.019305 -0.22374 0.40441499999999997 0.0099 0.40886999999999996 2.0517749999999997 0.03861 4.099095 0.012375 6.15186 -0.05346 1.825065 -0.058905 4.479254999999999 0.02277 6.1875 -0.334125 0.24007499999999998 -0.048015 0.241065 -0.43461 -0.012375 -0.434115ZM53.2125 33.075405c0.45342 0.377685 3.066525 21.650805 2.70468 22.14234s-40.339034999999996 0.68013 -40.98105 0.22671 -2.75913 -22.532400000000003 -2.5344 -22.904145c0.360855 -0.5915250000000001 40.354875 0.15741 40.808295 0.535095Zm-30.69 11.582999999999998a11.529045 11.529045 0 0 1 -1.1983949999999999 0.007424999999999999c-1.00287 -0.0792 -1.1246399999999999 -0.5103449999999999 -0.067815 -0.65142a12.004245000000001 12.004245000000001 0 0 1 1.287 -0.06534000000000001c0.92466 -0.02079 0.9949499999999999 0.6791400000000001 -0.022275 0.709335ZM20.500425 41.481a7.713585 7.713585 0 0 1 1.782 -0.02772c0.594 0.065835 0.6435 0.759825 -0.064845 0.7073550000000001 -0.520245 -0.039105 -0.993465 -0.024255000000000002 -1.4924250000000001 -0.019305 -1.131075 0.011385 -0.83556 -0.5360849999999999 -0.22374 -0.6603300000000001Zm-3.8411999999999997 -5.373225000000001a15.31728 15.31728 0 0 1 1.53054 -0.09009c0.9083249999999999 -0.025244999999999997 0.764775 0.6435 0.226215 0.697455a9.095625 9.095625 0 0 1 -1.843875 -0.0099c-0.33363000000000004 -0.053954999999999996 -0.396 -0.535095 0.08711999999999999 -0.597465Zm0.27225 2.9304a5.64795 5.64795 0 0 1 1.8468449999999998 -0.18909c0.25542 -0.007424999999999999 0.809325 -0.07028999999999999 0.814275 0.33066 0.00495 0.4158 -0.561825 0.37224 -0.82863 0.380655 -0.48708 0.014355000000000001 -1.15533 0.01287 -1.6335 -0.01782 -0.335115 -0.021285 -0.530145 -0.36333 -0.20097 -0.504405Zm3.4155 12.657645a12.40767 12.40767 0 0 1 -2.113155 0.04158 0.306405 0.306405 0 0 1 -0.042075 -0.58905 16.8795 16.8795 0 0 1 2.15919 -0.12028499999999999c0.8617950000000001 -0.04554 0.9969299999999999 0.5761799999999999 -0.00396 0.667755Zm0.875655 -5.4944999999999995a10.276695 10.276695 0 0 1 1.79487 -0.13761c0.98703 -0.03168 1.06524 0.6736949999999999 0 0.70983a9.31095 9.31095 0 0 1 -1.80972 -0.02673 0.282645 0.282645 0 0 1 0.01584 -0.5445Zm2.645775 2.78487a5.359859999999999 5.359859999999999 0 0 1 -1.844865 0.136125c-0.8217 -0.03168 -1.10088 -0.555885 -0.306405 -0.616275a16.8795 16.8795 0 0 1 1.884465 -0.07474499999999999c0.42669 0.026234999999999998 0.98604 0.273735 0.266805 0.55539Zm32.087385 12.102255000000001q-7.751205000000001 0.12078 -15.502905 0.202455c-7.1775 0.07524 -14.355 0.109395 -21.5325 0.157905 -6.610725 0.04455 -7.33392 -2.161665 -8.124435 -8.28828 -0.85437 -6.6211199999999995 -1.5444 -13.61943 -1.9304999999999999 -20.29995 -0.229185 -3.97584 1.6389449999999999 -3.974355 5.01039 -3.9208950000000002q9.980685 0.15741 19.961865 0.31185c5.66181 0.091575 11.290455 0.194535 16.98939 0.242055 4.2723450000000005 0.03564 5.076225 1.30779 5.82813 5.256405 0.57222 3.00564 0.9677250000000001 6.1003799999999995 1.329075 9.188685 0.495 4.2273 1.0721699999999998 8.917425 1.59489 12.87297 0.029699999999999997 0.225225 0.42223499999999997 0.20195999999999997 0.40491 -0.032175 -0.31581 -4.2471 -1.0345499999999999 -8.7318 -1.55925 -12.98781 -0.38907 -3.155625 -0.7227 -6.38055 -1.35036 -9.498555 -0.7944749999999999 -3.94416 -1.986435 -5.224724999999999 -6.1875 -5.23611 -6.133545 -0.01683 -12.27006 -0.231165 -18.402615 -0.32769000000000004q-9.590129999999998 -0.15147 -19.18125 -0.297c-3.554595 -0.051975 -5.0985000000000005 0.620235 -4.9430700000000005 4.43916 0.26631 6.565185 1.0692000000000002 13.891185 1.91664 20.41479 0.8415 6.47262 1.74438 8.61795 8.61894 8.613q6.4003499999999995 -0.00495 12.801195 -0.042075 12.11463 -0.06237 24.22629 -0.253935c0.332145 -0.00297 0.36530999999999997 -0.520245 0.032670000000000005 -0.514305Zm16.505775 -22.9878c1.60578 -0.737055 3.6461699999999997 -0.18909 3.098205 3.1185s-1.37907 6.877035 -2.852685 7.44381 -3.471435 -0.12573 -4.382235 -2.65716c1.05732 -0.1881 1.2459149999999999 -1.6691399999999998 1.02762 -2.355705a1.163745 1.163745 0 0 0 -2.0864249999999998 -0.20146499999999998 3.77487 3.77487 0 0 1 -0.9256500000000001 -2.21067c-2.5126199999999996 -0.341055 -5.950395 -1.531035 -4.118895 -5.27175s9.4842 -0.547965 10.240065000000001 2.134935Zm-3.921885 -1.29888a11.88495 11.88495 0 0 0 -2.8749599999999997 -0.72864c-0.911295 -0.052965 -2.0908800000000003 0.157905 -2.290365 1.22463 -0.046035 0.2475 -0.37966500000000003 0.130185 -0.396 -0.07227 -0.099 -1.2746250000000001 1.273635 -1.8315000000000001 2.330955 -1.8414000000000001 1.196415 -0.00891 2.6403299999999996 0.27918 3.575385 1.0692000000000002 0.25542 0.21581999999999998 0.04653 0.473715 -0.34501499999999996 0.348975Zm25.098975 10.692c-2.0186100000000002 -1.9745549999999998 -4.991085 -2.0884050000000003 -7.645275 -2.08296 -2.2666049999999998 0.00495 -4.887630000000001 0.03762 -6.722595 1.57212 -2.0002950000000004 1.672605 -2.03247 4.39659 -2.17404 6.78843a53.52633 53.52633 0 0 1 -1.15731 8.326889999999999 57.545235 57.545235 0 0 1 -7.1656200000000005 17.565569999999997c-0.1485 0.244035 0.198 0.51579 0.36184499999999997 0.27027a51.909165 51.909165 0 0 0 6.6859649999999995 -14.86485 57.615030000000004 57.615030000000004 0 0 0 1.962675 -11.974544999999999c0.1485 -2.376 0.388575 -4.94703 2.772 -6.161264999999999 1.9230749999999999 -0.9801 5.0237549999999995 -0.937035 7.158195 -0.853875 2.704185 0.105435 5.361345 0.796455 6.5934 3.465 1.287 2.78982 1.55727 9.289169999999999 1.5889499999999999 12.34926a70.47216 70.47216 0 0 1 -2.136915 17.453699999999998c-0.16434 0.697455 0.32868 0.95139 0.511335 0.318285a61.657695000000004 61.657695000000004 0 0 0 2.238885 -15.931575c0.067815 -3.9936599999999998 0.037125 -13.39272 -2.871495 -16.239465Z" fill="#ffffff" stroke-width="1"></path><path d="M80.94735 37.712070000000004a2.25918 2.25918 0 0 1 -1.898325 1.47906 2.40075 2.40075 0 0 1 -2.280465 -0.7811100000000001 1.449855 1.449855 0 0 1 0.41134499999999996 -1.9691100000000001 3.1709699999999996 3.1709699999999996 0 0 1 2.242845 -0.52668 1.563705 1.563705 0 0 1 1.5246 1.79784Zm-52.629884999999994 -1.0395c2.2443299999999997 -0.012375 4.903965 0.114345 7.092359999999999 -0.099a0.20295 0.20295 0 0 0 -0.01782 -0.400455c-2.28789 0.02574 -4.9005 -0.024255000000000002 -7.1661150000000005 -0.009405 -2.36214 0.015345 -4.732695 -0.01287 -7.092359999999999 0.09603 -0.23067000000000001 0.010889999999999999 -0.211365 0.396 0.01782 0.403425 2.3849099999999996 0.081675 4.77972 0.021285 7.1661150000000005 0.00792ZM37.341315 36.63c2.25126 0.175725 6.968115 -0.0495 9.575280000000001 -0.059399999999999994 0.27423000000000003 0 0.22968000000000002 -0.40292999999999995 -0.03366 -0.41480999999999996 -2.88486 -0.133155 -6.534 0.09504 -9.52281 0.073755 -0.22720500000000002 -0.002475 -0.2475 0.381645 -0.01881 0.400455Zm-8.796645 2.7601199999999997c0.25443 0 0.189585 -0.38511 -0.036629999999999996 -0.418275a28.639215 28.639215 0 0 0 -3.1051349999999998 -0.01188c-1.020195 0 -1.9983149999999998 0.030195 -3.0195 0a0.198 0.198 0 0 0 -0.016335000000000002 0.396c1.0395 0.05445 2.032965 0.06435 3.0744450000000003 0.07128 0.797445 0.00693 2.31264 -0.029699999999999997 3.103155 -0.037125Zm6.586469999999999 0.124245a38.009565 38.009565 0 0 0 3.9105000000000003 -0.037125c0.25938 -0.029699999999999997 0.24156 -0.45193500000000003 -0.01287 -0.452925 -1.253835 -0.004455 -2.75319 -0.02376 -3.974355 -0.016335000000000002 -1.29492 0.00792 -2.6136 -0.04653 -3.9040649999999997 0.06237 -0.229185 0.019305 -0.214335 0.383625 0.011385 0.401445 1.3102649999999998 0.10493999999999999 2.652705 0.041085 3.969405 0.04257Zm6.55875 -0.36432a0.198 0.198 0 0 0 -0.00693 0.396c1.4523300000000001 0.060885 2.9205 -0.029699999999999997 4.372335 -0.06237 1.331055 -0.029699999999999997 2.94822 -0.04257 4.297095 -0.154935 0.2475 -0.020295 0.17226 -0.4158 -0.0495 -0.40986 -1.346895 0.037125 -2.982375 0.032670000000000005 -4.3065 0.07028999999999999 -1.431045 0.042075 -2.87892 0.028710000000000003 -4.3065 0.160875Zm-15.894449999999999 2.33442c-0.272745 0.00495 -0.221265 0.40886999999999996 0.041085 0.4158 2.57004 0.06831000000000001 5.14206 0.07128 7.71309 0.086625 2.495295 0.014849999999999999 5.1975 0.06831000000000001 7.703685 -0.00297 0.24453 -0.00693 0.266805 -0.43659 0.013365 -0.437085 -2.5190550000000003 -0.005444999999999999 -5.20542 -0.067815 -7.701705 -0.076725 -2.589345 -0.00891 -5.180175 -0.030195 -7.76952 0.014355000000000001Zm22.986810000000002 0.45936000000000005c0.191565 0.00495 0.253935 -0.338085 0.053954999999999996 -0.396 -0.52074 -0.145035 -5.022270000000001 -0.072765 -5.480144999999999 -0.006435 -0.23710499999999998 0.034155000000000005 -0.25641 0.42471 0 0.437085 1.5523200000000001 0.078705 3.77685 -0.07722 5.42619 -0.03465ZM26.373105000000002 44.55c1.195425 0.06633 2.39976 0.07028999999999999 3.59667 0.08415 1.03158 0.01188 2.46015 -0.021779999999999997 3.527865 0.005444999999999999 0.265815 0.006435 0.23017500000000002 -0.41085 -0.015345 -0.447975a30.37716 30.37716 0 0 0 -3.599145 -0.057420000000000006c-1.172655 -0.00594 -2.35125 -0.02277 -3.52341 0.020295 -0.22671 0.010395 -0.20987999999999998 0.38511 0.013365 0.395505Zm22.032449999999997 -0.05643c0.23017500000000002 0 0.233145 -0.38115 -0.009405 -0.41381999999999997 -1.382535 -0.186615 -4.025835 -0.007424999999999999 -5.5840950000000005 0.00594q-2.7997199999999998 0.024255000000000002 -5.598945 0.04455c-0.2475 0 -0.30393 0.36927 -0.04455 0.392535 1.874565 0.1683 3.76992 0.086625 5.65092 0.08860499999999999 1.2167100000000002 0.00297 4.140675 -0.11484000000000001 5.586075 -0.11583Zm0.07474499999999999 1.70577c-1.03356 0.01386 -2.063655 0.029205 -3.0957299999999996 0.08365500000000001 -0.23017500000000002 0.01188 -0.23859 0.402435 -0.00396 0.408375 1.014255 0.028215 2.02554 0.02079 3.040785 0.009405 0.917235 -0.010395 2.1285 -0.136125 3.09771 -0.06435 0.2475 0.018314999999999998 0.26334 -0.41480999999999996 0.004455 -0.4455a26.591894999999997 26.591894999999997 0 0 0 -3.0432599999999996 0.010395Zm-5.212845000000001 2.83932a28.46844 28.46844 0 0 0 3.5531099999999998 -0.02475c0.973665 -0.023265 2.69379 0.06831000000000001 3.5882549999999998 -0.16632 0.267795 -0.069795 0.1386 -0.425205 -0.091575 -0.43659 -0.9989099999999999 -0.0495 -2.45124 0.062865 -3.5333099999999997 0.099 -1.171665 0.03861 -2.3190749999999998 0.10593 -3.4907399999999997 0.116325 -0.23215499999999997 0.00099 -0.26136000000000004 0.38808000000000004 -0.02574 0.41233499999999995Zm-6.54984 2.16711c-1.59687 -0.19404000000000002 -4.747545 -0.068805 -6.459255 -0.082665 -2.1285 -0.017325 -4.18077 0.029205 -6.309765 -0.03168 -0.25542 -0.007424999999999999 -0.30096 0.38016 -0.04059 0.399465 2.14335 0.157905 4.216905 0.11286 6.3656999999999995 0.133155 1.50084 0.014355000000000001 5.011875 0.261855 6.45777 -0.0099a0.20690999999999998 0.20690999999999998 0 0 0 -0.01386 -0.408375Zm13.724369999999999 0.08316c-1.542915 -0.18711 -3.8609999999999998 0.034155000000000005 -5.52222 0.02673s-3.864465 -0.11682 -5.453415 -0.06138c-0.25938 0.00891 -0.18612 0.374715 0.02574 0.41629499999999997 1.4548050000000001 0.28561499999999995 3.96297 0.21978 5.52123 0.22473 1.5315299999999998 0.005444999999999999 3.9501000000000004 -0.14553 5.455395 -0.180675 0.24849 -0.00594 0.21284999999999998 -0.39649500000000004 -0.028215 -0.42569999999999997Zm-23.24421 -4.569839999999999c2.583405 0.057420000000000006 5.1682950000000005 0.036135 7.7517 0.031185 2.4928199999999996 -0.004455 5.225715 0.10493999999999999 7.685865 -0.05346 0.25888500000000003 -0.01683 0.2277 -0.46134000000000003 -0.02475 -0.45243 -2.513115 0.09207 -5.1975 -0.01287 -7.6873499999999995 0 -2.5641 0.010889999999999999 -5.13018 0.006435 -7.69329 0.0792 -0.25245 0.00495 -0.292545 0.389565 -0.032175 0.395505Zm11.92455 1.793385c-1.41966 -0.15444 -4.3065 -0.01881 -5.841 -0.010889999999999999 -1.967625 0.010395 -3.92832 0.07078499999999999 -5.89545 0.0495 -0.222255 0 -0.2475 0.376695 -0.022275 0.396 1.937925 0.15345 3.87981 0.055935 5.82318 0.06138 1.28106 0.00396 4.6035 0.003465 5.908815 -0.04653 0.23265 -0.006435 0.306405 -0.419265 0.02673 -0.44946Zm18.633285 12.246795a20.02176 20.02176 0 0 0 -0.9489150000000001 1.816155 29.173814999999998 29.173814999999998 0 0 0 -1.5345 4.68468c-0.06336 0.23661 -0.42867 0.1485 -0.40986 -0.08514a11.96514 11.96514 0 0 1 0.5049 -2.5244999999999997c-1.8908999999999998 -0.669735 -4.356 -0.67815 -6.388965 -0.5712299999999999 -1.1246399999999999 0.47223 -2.796255 3.4763849999999996 -2.17305 5.932575 2.17404 1.8676350000000002 7.1413649999999995 4.284224999999999 12.045825 4.3332299999999995a10.221255000000001 10.221255000000001 0 0 0 1.84734 -0.37917 10.073744999999999 10.073744999999999 0 0 0 5.33115 -3.82041 10.82268 10.82268 0 0 0 1.91367 -6.286499999999999 0.20195999999999997 0.20195999999999997 0 0 1 0.40391999999999995 0 9.884655 9.884655 0 0 1 -0.5024249999999999 3.9753450000000004A10.308375 10.308375 0 0 1 63.65353499999999 73.26a10.5831 10.5831 0 0 1 -3.23433 1.3944150000000002 33.187275 33.187275 0 0 0 -0.5593499999999999 4.252545c1.190475 0.8415 6.573105 1.06722 7.65963 0.22671 3.93723 -3.04722 9.00207 -16.308765 9.00207 -26.52507 -10.00296 -0.36184499999999997 -15.727635 3.6842849999999996 -18.765945000000002 8.15067ZM95.88149999999999 31.392404999999997c-0.931095 2.9699999999999998 -5.010885 3.4961849999999997 -7.4868749999999995 0.910305 0.7424999999999999 5.254425 -8.71992 4.30155 -7.821000000000001 0.35739 -2.9244600000000003 2.778435 -5.9895 -1.347885 -2.8215 -3.1086 -3.1348350000000003 0.10989 -3.4848 -2.8076399999999997 -2.9457449999999996 -4.7025 0.60786 -2.1374099999999996 4.0718700000000005 -4.154039999999999 6.217695 -1.7325 0.054945 -4.164435 5.445 -5.171264999999999 9.683684999999999 -3.108105 3.9184200000000002 1.908225 3.5763749999999996 5.254919999999999 2.06316 6.712695 2.033955 -0.567765 4.0421700000000005 1.702305 3.1105799999999997 4.671315Zm-13.404599999999999 -5.43906a11.690415 11.690415 0 0 0 -2.695275 1.57311c-0.32175 0.27522 -0.226215 0.34154999999999996 0.03564 0.690525a7.8309 7.8309 0 0 0 2.017125 1.784475c0.7128 0.46282500000000004 1.08009 -0.12028499999999999 0.46134000000000003 -0.554895a21.90969 21.90969 0 0 1 -1.9404 -1.507275c0.807345 -0.5004449999999999 1.584 -0.891 2.3893649999999997 -1.354815 0.71775 -0.41085 0.58509 -0.926145 -0.26730000000000004 -0.6311249999999999Zm4.2624450000000005 -0.9365399999999999a24.904935000000002 24.904935000000002 0 0 0 -1.677555 2.7180449999999996c-0.36135 0.677655 -1.2469050000000002 2.2072049999999996 -1.365705 2.876445 -0.0495 0.291555 0.32175 0.389565 0.49104 0.20146499999999998 0.427185 -0.47420999999999996 1.1424599999999998 -2.090385 1.50183 -2.76309 0.495 -0.929115 0.9702 -1.87011 1.41273 -2.825955a0.211365 0.211365 0 0 0 -0.36184499999999997 -0.20690999999999998Zm3.5055899999999998 2.073555a5.250464999999999 5.250464999999999 0 0 0 -0.8964449999999999 -0.62469 4.446585 4.446585 0 0 0 -1.314225 -0.49797 0.22720500000000002 0.22720500000000002 0 0 0 -0.186615 0.40986 12.26313 12.26313 0 0 1 1.14939 0.6172650000000001 8.19324 8.19324 0 0 1 0.811305 0.594c-0.5341049999999999 0.45738 -1.39689 1.169685 -1.90377 1.656765 -0.5341049999999999 0.51282 -0.37521 1.1384999999999998 0.435105 0.495 0.372735 -0.297 1.81368 -1.49985 2.0062349999999998 -1.73646 0.277695 -0.342045 0.326205 -0.5514300000000001 -0.100485 -0.9137700000000001Z" fill="#38a1ff" stroke-width="1"></path></svg>