<svg xmlns="http://www.w3.org/2000/svg" fill="none" viewBox="-0.5 -0.5 100 100" id="Spoof-Website--Streamline-Brooklyn.svg" height="100" width="100"><desc>Spoof Website Streamline Illustration: https://streamlinehq.com</desc><g id="spoof-website--security-crime-spoof-website"><g id="laptop"><path id="vector" fill="#191919" d="M42.78582 28.846125c0.01287 0 0.02772 0.00297 0.041085 0.00495l-0.041085 -0.00495Z" stroke-width="1"></path><path id="vector_2" fill="#191919" d="M57.269025 76.77252c2.627955 -1.70082 2.7017100000000003 -1.82061 3.3986699999999996 -1.68102 10.604384999999999 2.122065 10.530135 1.9829700000000001 10.568745 2.364615 0.028215 0.2772 -0.25443 0.35541 -0.443025 0.439065 -3.2521500000000003 1.4379749999999998 -3.64419 2.0210850000000002 -4.428764999999999 1.8715950000000001 -1.268685 -0.24156 -8.08335 -1.7290349999999999 -8.990685000000001 -1.93743 -0.26829000000000003 -0.061875 -0.7038899999999999 -0.00891 -0.72765 -0.37124999999999997 -0.02376 -0.36234 0.62271 -0.695475 0.62271 -0.685575Z" stroke-width="1"></path><path id="vector_3" fill="#191919" d="M53.91243 81.74529c-10.077705 -2.484405 -10.01286 -2.3334300000000003 -10.044045 -2.614095 -0.025244999999999997 -0.22473 0.13167 -0.39501000000000003 0.33858000000000005 -0.525195 1.93941 -1.22265 2.21166 -1.8552600000000001 3.847635 -1.419165 7.7269499999999995 2.0596949999999996 10.24947 2.024055 8.872875 2.92347 -0.7187399999999999 0.46925999999999995 -2.767545 1.882485 -3.015045 1.634985Z" stroke-width="1"></path><path id="vector_4" fill="#191919" d="M66.436425 74.835585c-8.057609999999999 -1.5151949999999998 -10.04355 -1.5117299999999998 -8.621415 -2.390355 2.2270049999999997 -1.3760999999999999 2.70072 -1.81467 3.65805 -1.6389449999999999 8.17344 1.49985 9.575775 1.3335299999999999 8.464995 2.020095 -2.91456 1.801305 -3.166515 2.007225 -3.50163 2.009205Z" stroke-width="1"></path><path id="vector_5" fill="#191919" d="M54.424755 77.14476c-7.771005 -1.635975 -9.621315000000001 -1.8270449999999998 -8.490734999999999 -2.513115 2.539845 -1.5414299999999999 2.730915 -2.00475 3.9664349999999997 -1.69884 6.181559999999999 1.530045 8.98326 1.386 8.02989 2.07207 -0.36530999999999997 0.262845 -3.5055899999999998 2.620035 -3.5055899999999998 2.139885Z" stroke-width="1"></path><path id="vector_6" fill="#191919" d="M24.365879999999997 74.5767c-0.46826999999999996 -0.09999000000000001 -0.00297 0.005444999999999999 -9.230265 -2.231955 -1.9042649999999999 -0.461835 0.21681 -1.0607849999999999 2.10276 -1.632015 1.885455 -0.571725 1.10484 -0.433125 3.7629900000000003 0.18265499999999998 6.775065 1.56915 6.687944999999999 1.46025 6.757245 1.683 0.061875 0.198495 -0.3663 0.49896 -0.49599 0.573705 -0.43461 0.248985 -2.895255 1.7176500000000001 -2.897235 1.425105l0.000495 -0.000495Z" stroke-width="1"></path><path id="vector_7" fill="#191919" d="M27.30816 67.397715c0 -0.37719 1.60776 -0.58212 3.05118 -1.22265 1.48005 -0.6568649999999999 1.82556 -0.17622 8.524890000000001 0.83853 0.70587 0.10692 1.47015 0.307395 0.917235 0.76032 -0.5930099999999999 0.4851 -2.6769600000000002 1.651815 -3.0303899999999997 1.628055 0.0099 0.0099 -9.462915 -1.548855 -9.462915 -2.004255Z" stroke-width="1"></path><path id="vector_8" fill="#191919" d="M29.644065 71.65521000000001c-6.102855 -1.435995 -9.39213 -1.9943549999999999 -8.16057 -2.41758 1.4211449999999999 -0.48856499999999997 2.9853449999999997 -1.31274 3.698145 -1.168695 8.311545 1.680525 9.246599999999999 1.53549 8.225415 2.136915 -3.01257 1.773585 -2.9165400000000004 1.648845 -3.7629900000000003 1.44936Z" stroke-width="1"></path><path id="vector_9" fill="#191919" d="M32.938785 76.65669c-5.571225 -1.4300549999999999 -7.21413 -1.48302 -6.3251100000000005 -1.9993049999999999 2.5690500000000003 -1.49292 2.83041 -1.754775 3.40461 -1.6300350000000001 6.22314 1.35036 7.2012599999999996 1.47114 6.321149999999999 2.029995 -0.292545 0 -2.19186 1.910205 -3.40065 1.5998400000000002v-0.000495Z" stroke-width="1"></path><path id="vector_10" fill="#191919" d="M54.827685 72.72441c-0.668745 -0.12177 -0.00792 -0.00891 -6.2369505 -1.151865 -0.428175 -0.078705 -0.50292 -0.364815 -0.1386 -0.63459 2.1046905 -1.5577649999999998 2.3333805 -1.903275 3.5451405 -1.70478 6.266205 1.02564 6.888915 1.0192050000000001 6.1102799999999995 1.55727 -0.34947 0.24156 -2.853675 1.933965 -3.2798700000000003 1.933965Z" stroke-width="1"></path><path id="vector_11" fill="#191919" d="M42.361605 67.62294c0.9801 0.20740499999999998 6.920595 1.0008899999999998 6.9795 1.3582800000000002 0.058905 0.35739 -2.10474 1.54836 -2.409165 1.72161 -0.38016 0.21581999999999998 -0.75141 0.413325 -1.21572 0.332145 -6.69636 -1.174635 -6.96564 -1.147905 -6.2751149999999996 -1.637955 2.6244899999999998 -1.86219 2.976435 -1.82952 2.9205 -1.773585v-0.000495Z" stroke-width="1"></path><path id="vector_12" fill="#191919" d="M41.5830195 78.72876c-1.021185 -0.27324000000000004 -3.363525 -0.697455 -5.8598099999999995 -1.413225 -0.663795 -0.190575 -0.831105 -0.25047 1.93248 -2.19186 0.49599 -0.34847999999999996 0.282645 -0.294525 4.798035 0.76032 1.914165 0.446985 2.5403399999999996 0.513315 1.9681199999999999 0.98307 -0.53163 0.436095 -2.83932 2.165625 -2.83932 1.86219l0.000495 -0.000495Z" stroke-width="1"></path><path id="vector_13" fill="#191919" d="M73.136745 72.791235c5.0386050000000004 0.8464499999999999 5.004449999999999 0.805365 5.070285 1.1320649999999999 0.08217 0.407385 -0.50292 0.426195 -3.7050750000000003 2.129985 -0.566775 0.301455 -4.54707 -0.5811299999999999 -5.1742349999999995 -0.71973 -0.30244499999999996 -0.06682500000000001 -0.50193 -0.449955 -0.157905 -0.6499349999999999 2.69775 -1.57014 3.048705 -1.898325 3.9669299999999996 -1.892385Z" stroke-width="1"></path><path id="vector_14" fill="#191919" d="M34.43566499999999 72.73233c-1.70082 -0.36927 -2.014155 -0.418275 -2.0690999999999997 -0.682605 -0.040095 -0.192555 0.194535 -0.26532 0.34452 -0.35936999999999997 3.263535 -2.049795 1.80081 -1.7424 7.6621049999999995 -0.62667 0.174735 0.033165 0.398475 0.08365500000000001 0.421245 0.27423000000000003 0.01881 0.156915 -0.184635 0.25443 -0.316305 0.34748999999999997 -2.3849099999999996 1.690425 -2.46411 1.754775 -2.763585 1.7235900000000002 -0.0198 0.0198 -0.34253999999999996 -0.03861 -3.27888 -0.676665Z" stroke-width="1"></path><path id="vector_15" fill="#191919" d="M56.435444999999994 82.326915c-0.19948500000000002 -0.052965 -0.335115 -0.20740499999999998 -0.36729 -0.41134499999999996 -0.029699999999999997 -0.186615 -0.100485 -0.17028 2.58984 -1.7815050000000001 0.567765 -0.340065 0.36927 -0.369765 3.9996 0.594 0.299475 0.079695 0.75735 0.079695 0.786555 0.46134000000000003 0.027225 0.35541 -0.36333 0.546975 -0.660825 0.7038899999999999 -0.25443 0.13464 -2.368575 1.251855 -2.7388350000000004 1.262745 -1.2167100000000002 -0.22572 -2.41659 -0.51282 -3.609045 -0.8296199999999999v0.000495Z" stroke-width="1"></path><path id="vector_16" fill="#191919" d="M42.80265 71.574525c0.168795 0.00396 0.00693 -0.0198 3.9832650000000003 0.771705 0.25146 0.049995000000000005 0.37026 0.24651 0.035144999999999996 0.49698 -0.43659 0.326205 -2.871495 1.971585 -3.387285 1.863675 -3.671415 -0.76626 -4.064445 -0.754875 -3.54123 -1.24146 0.38709 -0.36036 2.3547149999999997 -1.90476 2.9096100000000003 -1.8913950000000002l0.000495 0.000495Z" stroke-width="1"></path><path id="vector_17" fill="#191919" d="M60.37218 85.860225c-0.49797 0.076725 -0.7326 -0.34847999999999996 0.078705 -0.75438 5.863275000000001 -2.93238 7.016625 -3.4833149999999997 8.27838 -4.101075 0.5459849999999999 -0.26730000000000004 0.72765 0.394515 0.39649500000000004 0.652905 -0.19948500000000002 0.155925 -8.759025 4.192155 -8.754074999999998 4.2020550000000005l0.000495 0.000495Z" stroke-width="1"></path><path id="vector_18" fill="#191919" d="M78.413445 77.11901999999999c-3.3575850000000003 1.70478 -4.2070050000000005 2.2745249999999997 -4.306005 1.6117199999999998 -0.058905 -0.39204 0.049005 -0.380655 3.27393 -1.92951 1.404315 -0.674685 1.47906 -0.63756 1.59291 -0.50589 0.30096 0.34847999999999996 -0.571725 0.8127899999999999 -0.560835 0.82368Z" stroke-width="1"></path><path id="vector_19" fill="#191919" d="M87.56847 26.98047c-0.04059 0.23166 -0.086625 0.479655 -0.13761 0.74448l1.26918 0.06633c7.53984 0.5930099999999999 7.407675 -1.0053450000000002 4.931685 13.06404 0.042075 0.32472 -4.156020000000001 26.784944999999997 -5.177700000000001 31.862655 -0.157905 0.78606 -0.53361 0.88308 -0.7073550000000001 0.18711 -0.786555 -1.09098 0.11583 -0.6568649999999999 -48.155085 -8.42292 -0.155925 0.07078499999999999 -2.46807 -0.313335 -2.5992450000000002 -0.42223499999999997 -0.642015 -0.047025 -0.8801100000000001 0.048015 -1.180575 -0.1485 -0.7756649999999999 -0.181665 -1.22859 -0.027225 -2.4943049999999998 -0.40639499999999995 -0.559845 -0.067815 -1.128105 -0.097515 -1.67706 -0.21879 -0.95832 -0.21186 -1.19493 -0.35145 0.11533500000000001 -5.76675l-0.78507 -0.13414500000000001c-0.733095 3.0640500000000004 -1.2196799999999999 5.36778 -1.13058 5.869215 0.24354 1.37313 -31.650285150000002 7.508159999999999 -25.884525149999998 11.418165 0.94743 0.64251 47.15269515 13.10166 49.94301015 13.794165 6.13008 1.5216299999999998 6.504795 0.46826999999999996 12.830895 -2.7982349999999996 0.00891 -0.0099 18.331335 -9.030285 18.6813 -9.25551 5.0791949999999995 -3.27294 2.82249 0.57717 6.71418 -19.733175 0.00198 -0.0099 2.72646 -17.55963 3.19671 -21.066705 1.11672 -8.33283 1.456785 -8.35659 -7.753185 -8.632800000000001Zm-23.943645 59.019344999999994c-1.06227 0.53064 -4.076325 2.039895 -5.2668 1.97406 -4.2070050000000005 -0.454905 -49.037175 -13.08483 -48.63028499999999 -12.678435 -3.56994 -0.933075 -7.59526515 -1.449855 -3.726855 -2.992275 1.507275 -0.60093 10.74447 -3.7456650000000002 11.380049999999999 -3.942675 14.468354999999999 -4.49163 12.430439999999999 -4.438665 15.548445000000001 -3.9006 22.349745000000002 3.856545 52.300214999999994 7.881885 53.661465 8.740215 1.62261 1.023165 0.225225 1.22265 -22.96602 12.799710000000001Z" stroke-width="1"></path><path id="vector_20" fill="#191919" d="M90.950805 32.436855c-0.14553 -0.684585 -0.551925 -0.435105 -1.08504 -0.537075 -0.039105 0.004455 -1.254825 -0.08613 -3.272445 -0.241065l-0.167805 0.74844 3.6248850000000004 0.299475c-0.12672 1.863675 -4.789125 32.671485 -5.36679 35.28063 -0.09999000000000001 0.45193500000000003 -48.170925 -7.10325 -48.319424999999995 -7.154235 -0.10196999999999999 0.010395 0.041085 -0.92367 0.34847999999999996 -2.50371l-0.819225 -0.131175c-0.172755 0.813285 -0.27324000000000004 1.27908 -0.27967499999999995 1.287495 -0.38115 1.71072 -0.60786 1.9245599999999998 0.686565 2.05425 0.0099 0.00099 48.423375 7.625475 48.95748 7.23888 -0.00693 -0.00099 1.786455 -11.193435 5.38164 -33.57486 -0.0099 -0.061875 0.2574 -2.6774549999999997 0.311355 -2.76705Z" stroke-width="1"></path><path id="vector_21" fill="#191919" d="m55.078155 85.921605 -47.594744999999996 -12.418560000000001c-0.132165 -0.03465 -0.211365 -0.16978500000000002 -0.17671499999999998 -0.30195 0.03465 -0.132165 0.16978500000000002 -0.210375 0.30195 -0.17671499999999998l47.53188 12.410639999999999c0.27918 0.07325999999999999 0.226215 0.48708 -0.06237 0.48708v-0.000495Z" stroke-width="1"></path></g><g id="details"><path id="vector_22" fill="#38a1ff" d="M30.659805 10.33065c0.17374499999999998 -0.46035000000000004 0.62073 -0.322245 0.6568649999999999 0.045045 0.3861 3.90258 -0.36333 4.25304 0.940995 3.964455 1.4221350000000001 -0.314325 2.104245 -0.5880599999999999 2.05623 1.257795 -0.019305 0.75141 0.052965 3.209085 -0.14651999999999998 3.629835 -0.19750500000000001 0.41728499999999996 -0.46381500000000003 0.313335 -0.571725 0.01782 -0.34501499999999996 -0.94644 -0.18612 -2.4690600000000003 -0.198495 -3.76893 -0.00495 -0.5291549999999999 0.050984999999999996 -0.61875 -0.453915 -0.49302 -2.6532 0.6603300000000001 -2.35026 0.178695 -2.35026 -2.4745049999999997 -0.0099 0 -0.055935 -1.85625 0.065835 -2.178l0.00099 -0.000495Z" stroke-width="1"></path><path id="vector_23" fill="#38a1ff" d="M38.90304 15.502905c-0.321255 -0.11385 -2.0988 0.073755 -1.518165 -1.279575 0.097515 -0.22671 0.00198 0 1.4612399999999999 -2.750715 0.162855 -0.307395 0.314325 -0.59895 0.63459 -0.46629 0.696465 0.288585 -1.12365 3.092265 -1.047915 3.475395 0.75042 0.168795 1.7622 0.24304499999999998 1.3122449999999999 1.187505 -0.097515 0.20443499999999998 -1.163745 2.41065 -1.4181750000000002 2.7086400000000004 -0.282645 0.33115500000000003 -0.658845 0.039105 -0.5910299999999999 -0.287595 0.160875 -0.7776449999999999 0.6667649999999999 -1.59192 1.167705 -2.58687l-0.000495 -0.000495Z" stroke-width="1"></path><path id="vector_24" fill="#38a1ff" d="M27.49824 20.407365c-0.38313 -0.63558 -2.023065 -3.63726 -1.277595 -3.89466 0.3861 -0.13365000000000002 0.60291 0.49797 0.800415 0.94743 1.19493 2.72151 1.025145 2.6769600000000002 1.71666 2.364615 0.94446 -0.426195 1.64736 -0.921195 2.10276 -0.25938 0.27126 0.394515 1.395405 1.9354500000000001 0.9999 2.2057200000000003 -0.395505 0.27027 -1.22958 -1.043955 -1.46421 -1.4483700000000002 -0.46282500000000004 -0.798435 -2.145825 1.2983850000000001 -2.8774349999999997 0.08464500000000001h-0.000495Z" stroke-width="1"></path></g><g id="window"><path id="vector_25" fill="#38a1ff" d="M54.90936 47.517525c-0.0099 0 -12.340845 -0.9721799999999999 -21.048885000000002 -2.387385 -0.58509 -0.09504 -0.577665 -0.053954999999999996 0.053954999999999996 -2.56608 0.25245 -1.0043549999999999 0.07821 -0.927135 21.697335 1.6537950000000001 0.813285 0.09702000000000001 0.803385 0.2178 -0.0099 2.843775 -0.13266 0.428175 -0.24849 0.48708 -0.692505 0.455895Zm-0.34352999999999995 -0.60885c0.579645 0.01782 0.47173499999999996 0.14701499999999998 0.8712 -1.740915 0.175725 -0.83061 0.343035 0.048510000000000005 -20.61477 -2.624985 -0.46826999999999996 -0.059895 -0.401445 0.135135 -0.73359 1.6176599999999999 -0.096525 0.430155 -0.09306 0.424215 0.3366 0.47817 20.109375 2.52549 17.70714 1.971585 20.14056 2.27007Z" stroke-width="1"></path><path id="vector_26" fill="#38a1ff" d="M36.603765 32.889285c23.482305 2.31759 21.782475 2.2557150000000004 21.676544999999997 2.895255 -0.13068000000000002 0.788535 -0.372735 1.549845 -0.63459 2.30274 -0.126225 0.36333 -0.24156 0.39897000000000005 -0.643995 0.36530999999999997 -8.166015 -0.6791400000000001 -16.475085 -1.73349 -20.966715 -2.372535 -0.667755 -0.09504 -0.683595 -0.029699999999999997 -0.0198 -2.655675 0.11484000000000001 -0.453915 0.242055 -0.539055 0.588555 -0.535095Zm20.072745 4.959405c0.59598 -0.031185 0.40639499999999995 0.19107 0.87912 -1.865655 0.09504 -0.413325 0.8934749999999999 -0.1287 -20.618730000000003 -2.495295 -0.447975 -0.0495 -0.38313 -0.161865 -0.785565 1.6790399999999999 -0.10296 0.47223 -0.38016 0.31185 4.083255 0.885555 15.76575 2.027025 13.46895 1.417185 16.44192 1.796355Z" stroke-width="1"></path><path id="vector_27" fill="#38a1ff" d="M54.576224999999994 49.003515c0.895455 0.097515 0.818235 0.159885 0.041085 2.8353599999999997 -0.191565 0.659835 -0.08563499999999999 0.5247 -4.4154 0.154935 -3.844665 -0.328185 -3.74814 -0.16731000000000001 -17.32599 -2.07009 -0.560835 -0.078705 -0.5865750000000001 -0.065835 0.09306 -2.733885 0.22374 -0.87912 0.04554 -0.528165 21.607245000000002 1.81368Zm-0.058905 0.672705c-0.167805 -0.10196999999999999 -22.418055 -2.521035 -20.792475 -2.34531 -0.307395 -0.033165 -0.30987 -0.036629999999999996 -0.63261 1.656765 -0.101475 0.532125 -0.10593 0.35739 2.22354 0.663795 13.30461 1.749825 11.032065 1.44045 17.752185 1.9750500000000002 1.22463 0.097515 0.906345 0.46728 1.44936 -1.9503Z" stroke-width="1"></path><path id="vector_28" fill="#38a1ff" d="M50.391 39.661379999999994c-0.029205 0.85734 -0.439065 1.93347 -0.551925 2.58984 -0.09702000000000001 0.564795 -0.029205 0.47420999999999996 -6.6383955 -0.41629499999999997 -2.653695 -0.35739 -3.27591 -0.3564 -8.348175 -1.0731600000000001 -0.653895 -0.092565 -0.60588 -0.09999000000000001 -0.010889999999999999 -2.5344 0.26631 -1.089 0.03861 -0.65637 15.069235500000001 0.87912 0.425205 0.043559999999999995 0.495 0.11682 0.48014999999999997 0.555885v-0.00099Zm-14.6049255 -1.4751c-0.50787 -0.161865 -0.42569999999999997 0.228195 -0.789525 1.68597 -0.12375 0.495 -1.164735 0.17374499999999998 13.953555 2.1141449999999997 0.421245 0.053954999999999996 0.34452 -0.038114999999999996 0.7553205000000001 -1.8404099999999999 0.13464 -0.59004 1.385505 -0.27621 -13.9193505 -1.959705Z" stroke-width="1"></path><path id="vector_29" fill="#38a1ff" d="M58.76838 43.4511c-7.950195 -0.604395 -7.545285 -0.61281 -7.42005 -1.0429650000000001 0.76032 -2.6195399999999998 0.62568 -3.08583 1.169685 -3.0224699999999998 0.0099 0.00099 6.901784999999999 0.769725 6.911684999999999 0.7707149999999999 0.7761600000000001 0.0792 0.780615 0.18265499999999998 -0.02079 2.8353599999999997 -0.12078 0.399465 -0.26829000000000003 0.48807 -0.64053 0.45936000000000005Zm-6.6849750000000006 -1.22859c6.44787 0.6237 4.37778 0.47718 6.4548 0.62469 0.427185 0.030195 0.335115 -0.075735 0.7776449999999999 -2.044845 -0.934065 -0.26136000000000004 -3.40164 -0.36036 -4.65795 -0.546975 -1.884465 -0.27967499999999995 -1.95228 -0.25839 -2.031975 0.045045 -0.161865 0.61776 -0.34501499999999996 1.2305700000000002 -0.54252 1.922085Z" stroke-width="1"></path><path id="vector_30" fill="#38a1ff" d="M79.022295 59.75244c-0.33759 1.54341 -0.5811299999999999 2.681415 -0.690525 3.2432399999999997 -0.076725 0.393525 -0.304425 0.29056499999999996 -0.701415 0.22374 -0.453915 -0.07622999999999999 -1.002375 -0.165825 -1.63053 -0.26631 -0.26730000000000004 0.24453 -0.53262 0.47668499999999997 -0.7944749999999999 0.6949799999999999 1.976535 0.28561499999999995 3.17394 0.44847000000000004 3.254625 0.4356 0.19948500000000002 0.048015 0.339075 -0.064845 0.413325 -0.23859 0.00495 -0.012375 0.485595 -2.159685 1.2162149999999998 -5.441535 -0.348975 0.461835 -0.70587 0.91278 -1.067715 1.348875h0.000495Z" stroke-width="1"></path><path id="vector_31" fill="#38a1ff" d="M28.769399999999997 55.48356c1.411245 -7.723485 -0.19404000000000002 -0.04455 5.476185 -25.00245l-0.6553800000000001 -0.07028999999999999c-0.796455 3.5555849999999998 -5.5588500000000005 24.59853 -5.693985 25.54497 -0.056925 0.39748500000000003 -0.037125 0.61083 0.87912 0.73854 3.795165 0.528165 21.49785 3.2274 34.699005 5.21136 -0.16038 -0.29650499999999996 -0.313335 -0.609345 -0.45837 -0.93555 -36.59139 -5.46876 -34.37676 -4.774274999999999 -34.246575 -5.48658Z" stroke-width="1"></path><path id="vector_32" fill="#38a1ff" d="M86.52204 24.22728c-0.0099 0 -47.575935 -3.376395 -50.120235 -3.358575 -0.43362 0.00297 -0.5816250000000001 -0.032175 -1.2835349999999999 2.8546650000000002l0.6504300000000001 0.048510000000000005c0.52569 -2.2185900000000003 0.6039 -2.20077 0.8613 -2.1943349999999997 4.52034 0.111375 49.72671 3.2769 50.08212 3.4105499999999997 -0.13563 0.894465 -1.81962 8.451630000000002 -3.64914 16.62804 0.23067000000000001 0.161865 0.444015 0.33016500000000004 0.6385500000000001 0.5049 1.7993249999999998 -8.145225 3.4684649999999997 -15.766245 3.7105200000000003 -17.0775 0.17523 -0.94941 -0.387585 -0.76923 -0.89001 -0.816255Z" stroke-width="1"></path></g><g id="box"><path id="vector_33" fill="#38a1ff" d="M44.810865 27.765539999999998c0.59004 0 0.5880599999999999 -0.00297 0.824175 -0.565785 0.288585 -0.688545 0.7236899999999999 -0.323235 0.667755 0.01188 -0.080685 0.48411 -0.09009 1.432035 -0.20146499999999998 1.8003149999999999 -0.20195999999999997 0.669735 -0.8217 0.560835 -0.791505 -0.15245999999999998 0.02376 -0.559845 -0.13167 -0.306405 -0.73359 -0.37422 -0.7726949999999999 -0.086625 -0.315315 0.894465 -0.8613 0.790515 -0.27868499999999996 -0.052965 -0.218295 -0.324225 -0.190575 -0.51876 0.090585 -0.63261 0.209385 -1.2597749999999999 0.37323 -1.878525 0.11682 -0.442035 0.51282 -0.314325 0.49104 0.067815 -0.052469999999999996 0.913275 -0.34452 0.81873 0.42223499999999997 0.819225Z" stroke-width="1"></path><path id="vector_34" fill="#38a1ff" d="M47.588805 26.94186c1.60182 0.16681500000000002 1.61073 0.161865 1.72062 0.19750500000000001 0.46579499999999996 0.149985 0.34056 0.573705 -0.090585 0.59004 -0.315315 0.01188 -0.428175 -0.13167 -0.550935 -0.021779999999999997 -0.161865 0.14553 -0.075735 0.24354 -0.402435 1.6998300000000002 -0.077715 0.34551 -0.36184499999999997 0.418275 -0.50391 -0.00891 -0.150975 -0.453915 0.017325 -0.892485 0.061875 -1.3345200000000002 0.046035 -0.455895 0.068805 -0.46134000000000003 -0.37917 -0.51579 -0.23364 -0.028215 -0.63657 -0.07474499999999999 -0.653895 -0.311355 -0.02475 -0.33759 0.47718 -0.306405 0.798435 -0.29551499999999997v0.000495Z" stroke-width="1"></path><path id="vector_35" fill="#38a1ff" d="M52.992225000000005 28.0368c0.29502 -1.3068 2.69379 0.22275 1.410255 1.10088 -0.5291549999999999 0.36234 -0.85734 -0.1386 -1.022175 0.694485 -0.049995000000000005 0.25344 -0.13464 0.5148 -0.37026 0.47420999999999996 -0.47025 -0.080685 -0.12276 -1.80378 -0.01782 -2.269575Zm0.5242049999999999 0.288585c-0.031185 0.23067000000000001 0.02772 0.359865 0.26532 0.34154999999999996 0.73557 -0.055935 0.14156999999999997 -0.69795 -0.13662000000000002 -0.648945 -0.202455 0.03564 -0.09999000000000001 0.21681 -0.1287 0.307395Z" stroke-width="1"></path><path id="vector_36" fill="#38a1ff" d="M52.153695 27.53883c0.15543 0.014355000000000001 0.273735 0.09702000000000001 0.27126 0.25839 -0.00891 0.48411 -0.811305 0.09405 -1.021185 0.29650499999999996 -0.286605 0.27621 -0.09603 1.9646549999999998 -0.63162 1.886445 -0.39154500000000003 -0.057420000000000006 -0.24354 -0.4994549999999999 -0.043065 -1.6716149999999999 0.06336 -0.36927 0.06682500000000001 -0.36828 -0.27423000000000003 -0.45936000000000005 -0.20443499999999998 -0.054945 -0.520245 -0.02277 -0.46332 -0.34847999999999996 0.07524 -0.433125 1.598355 -0.014355000000000001 2.16216 0.038114999999999996Z" stroke-width="1"></path><path id="vector_37" fill="#38a1ff" d="M60.981030000000004 28.63179c-0.13464 0.41035499999999997 -1.255815 2.5601399999999996 -1.68399 2.30274 -0.21879 -0.13167 -0.086625 -0.35441999999999996 -0.021779999999999997 -0.51579 0.31185 -0.77319 1.5661800000000001 -2.686365 1.70577 -1.7869499999999998Z" stroke-width="1"></path><path id="vector_38" fill="#38a1ff" d="M57.54969 30.832559999999997c-0.59895 -0.16978500000000002 0.8969400000000001 -2.1883950000000003 1.34244 -2.56509 0.062865 -0.052965 1.138005 -0.468765 -1.053855 2.375505 -0.07177499999999999 0.09306 -0.15245999999999998 0.192555 -0.288585 0.189585Z" stroke-width="1"></path><path id="vector_39" fill="#38a1ff" d="M56.509695 29.98215c-0.031185 0.5177700000000001 -0.7707149999999999 0.448965 -0.76131 -0.043065 0.009405 -0.49202999999999997 0.791505 -0.46035000000000004 0.76131 0.043065Z" stroke-width="1"></path><path id="vector_40" fill="#38a1ff" d="M56.603249999999996 28.774350000000002c-0.021779999999999997 0.45193500000000003 -0.62073 0.37124999999999997 -0.662805 -0.00495 -0.04752 -0.426195 0.63756 -0.5049 0.662805 0.00495Z" stroke-width="1"></path><path id="vector_41" fill="#38a1ff" d="M41.26023 25.59546c5.78259 0.58212 15.11829 1.46322 30.234105 2.615085 0.247005 -0.37818 0.70785 -0.71973 1.2107700000000001 -0.8207099999999999 -9.07731 -0.79893 -22.862565 -1.963665 -31.77009 -2.688345 0.12078 0.299475 0.22968000000000002 0.596475 0.32571 0.89397h-0.000495Z" stroke-width="1"></path><path id="vector_42" fill="#38a1ff" d="M81.13644000000001 28.163520000000002c-0.87021 -0.090585 -2.455695 -0.239085 -4.53915 -0.427185 -0.00495 0.804375 -0.124245 0.773685 -0.094545 0.8499150000000001l4.2471 0.30987c0.574695 0.041085 0.830115 -0.00396 0.657855 1.08999 -0.145035 0.921195 -0.47718 2.6299349999999997 -0.906345 3.458565 -0.33561 0.64845 -0.048015 0.5346000000000001 -25.52913 -2.142855 -23.775344999999998 -2.498265 -23.741190000000003 -2.08989 -23.740695 -2.79576 0 -0.5341049999999999 0.186615 -2.287395 0.424215 -3.243735 0.13761 -0.553905 0.159885 -0.63063 3.6684449999999997 -0.27670500000000003 0.12028499999999999 -0.20740499999999998 0.40540499999999996 -0.6830999999999999 0.415305 -0.699435 -1.9369349999999999 -0.150975 -3.186315 -0.241065 -3.45609 -0.24601499999999998 -1.23255 -0.02277 -1.455795 0.543015 -1.882485 3.7040849999999996 -0.12375 0.914265 -0.1386 1.772595 0.70587 1.890405 2.748735 0.38313 29.66832 3.0591 27.9477 2.890305 22.187385 2.18493 21.638925 2.57895 22.23144 1.56123 0.552915 -0.94941 0.926145 -3.230865 1.043955 -4.323824999999999 0.10395 -0.9672299999999999 -0.292545 -1.5048 -1.19394 -1.5988499999999999h0.000495Z" stroke-width="1"></path></g><g id="lock"><path id="vector_43" fill="#38a1ff" d="M76.11912000000001 27.365085c-0.033165 0.36333 0.020295 0.71577 -0.089595 1.0548449999999998 -0.03861 0.11879999999999999 -0.02772 0.24056999999999998 0.02079 0.3564 0.28561499999999995 0.687555 0.0099 2.613105 -0.048015 2.8274399999999997 -0.149985 0.554895 -0.47619 0.870705 -1.053855 0.913275 -0.88605 0.06534000000000001 -1.768635 0.028215 -2.6319150000000002 -0.20443499999999998 -0.810315 -0.218295 -1.29393 -0.60786 -0.59598 -3.3996600000000003 0.14404499999999998 -0.577665 0.51282 -0.88704 1.10187 -0.9320849999999999 2.609145 -0.19899 2.40966 0.902385 2.477475 -1.1528550000000002 0.00495 -0.153945 -0.054945 -0.27868499999999996 -0.212355 -0.318285 -2.54628 -0.63657 -1.9790100000000002 0.573705 -2.4893549999999998 0.33759 -0.434115 -0.20047500000000001 -0.383625 -1.84338 2.740815 -1.051875 0.8712 0.22077 0.779625 0.899415 0.779625 1.56915l0.000495 0.000495Zm-1.797345 4.51638c1.4340149999999998 0 0.9796050000000001 -0.315315 1.22265 -2.44629 0.028215 -0.24849 -0.101475 -0.46035000000000004 -0.38115 -0.547965 -0.814275 -0.25542 -2.69082 -0.561825 -2.8853549999999997 0.213345 -0.159885 0.63756 -0.294525 1.281555 -0.318285 1.93941 -0.021779999999999997 0.59994 0.079695 0.699435 2.3616449999999998 0.8415h0.000495Z" stroke-width="1"></path><path id="vector_44" fill="#38a1ff" d="M74.387115 30.165795c0.01683 0.83061 -1.2983850000000001 0.9909899999999999 -1.3167 0.01782 -0.01881 -0.97317 1.296405 -1.023165 1.3167 -0.01782Z" stroke-width="1"></path></g><g id="alert sign"><path id="vector_45" fill="#38a1ff" d="M39.801465 28.76346c-6.169185 -0.15939 -5.509845 -1.12365 -3.67092 -4.17582 0.36828 -0.61083 1.08009 -1.8908999999999998 1.865655 -2.08098 0.85833 -0.20740499999999998 1.36224 -0.010889999999999999 1.70676 0.681615 0.752895 1.514205 2.45025 5.46282 0.7726949999999999 5.572215 -0.22374 0.014355000000000001 -0.44946 0.00891 -0.6741900000000001 0.00297Zm0.665775 -1.10187c-0.00198 -0.47223 -0.48708 -2.56311 -1.3661999999999999 -4.223834999999999 -0.86427 -1.633005 -2.650725 1.5998400000000002 -3.372435 3.1907699999999997 -0.49104 1.0820699999999999 -0.40639499999999995 1.08405 4.24413 1.519155 0.3762 0.035144999999999996 0.49599 -0.11088 0.494505 -0.48608999999999997Z" stroke-width="1"></path><path id="vector_46" fill="#38a1ff" d="M37.75662 25.293015c0.02673 -0.155925 -0.209385 -1.19097 0.34352999999999995 -1.2805650000000002 0.552915 -0.089595 1.0390050000000002 0.058905 0.8984249999999999 0.5459849999999999 -0.479655 1.664685 -0.5148 1.993365 -0.930105 1.919115 -0.38016 -0.06831000000000001 -0.31185 -0.333135 -0.31185 -1.184535Z" stroke-width="1"></path><path id="vector_47" fill="#38a1ff" d="M38.412 27.254205c-0.02277 0.58707 -0.816255 0.46035000000000004 -0.802395 -0.038114999999999996 0.014849999999999999 -0.5291549999999999 0.82368 -0.5222249999999999 0.802395 0.038114999999999996Z" stroke-width="1"></path></g><g id="mask"><path id="vector_48" fill="#38a1ff" d="M62.84619 39.86829c3.88971 -2.5967700000000002 20.213325 -0.49599 21.553784999999998 4.113945 0.582615 2.003265 0.60291 2.991285 -0.054945 5.4643049999999995 -1.378575 5.180175 -8.626365 15.5232 -13.834755000000001 15.89742 -7.143344999999999 0.51282 -8.549639999999998 -7.778925 -9.533700000000001 -14.87178 -0.9840599999999999 -7.09335 -0.09850500000000001 -9.289169999999999 1.869615 -10.6029v-0.00099Zm7.703189999999999 16.21125c1.84635 0 3.718935 0.049005 5.37669 -1.1959199999999999 1.369665 -1.02861 1.1781 6.09642 -5.818725000000001 5.296995 -0.547965 -0.06237 -0.38016 -0.11484000000000001 -0.74052 2.4532200000000004 -0.282645 2.015145 -0.420255 1.955745 0.193545 1.9809899999999998 3.243735 0.13167 5.27175 -1.929015 8.544690000000001 -5.6133 3.486285 -3.92436 8.484794999999998 -12.92346 4.800014999999999 -16.08948 -1.900305 -1.633005 -6.422625 -2.5299449999999997 -8.63973 -2.92149 -0.38214 -0.06732 -0.42223499999999997 -0.01188 -0.86031 1.73052 -1.9408949999999998 7.7170499999999995 -1.4622300000000001 5.74101 -2.855655 14.359455v-0.00099Zm5.22819 -0.27126c-3.44223 2.31462 -7.2072 -0.795465 -10.14156 2.375505 -0.6098399999999999 0.658845 -1.1469150000000001 2.0413799999999998 -0.14651999999999998 1.83645 4.900995 -1.003365 7.765065 0.614295 9.927225 -2.6878499999999996 0.28115999999999997 -0.429165 0.48262499999999997 -0.918225 0.360855 -1.524105Zm-9.460935 -5.23611c4.114935 0.172755 4.76883 -5.813775 3.07098 -4.461435 -1.69785 1.35234 -3.9397049999999996 1.524105 -5.9395050000000005 1.755765 -0.58509 0.067815 -0.690525 0.25641 -0.447975 0.7825949999999999 0.13563 0.293535 1.496385 2.07207 3.3165 1.9230749999999999Zm-1.69884 -4.479254999999999c3.2828399999999998 0.168795 5.5840950000000005 -2.990295 5.0034600000000005 -3.362535 -0.580635 -0.37224 -1.10484 2.98683 -6.182055 2.734875 -0.45936000000000005 -0.02277 -0.61677 0.00297 -0.651915 0.164835 -0.104445 0.48213 1.420155 0.46678499999999995 1.8305099999999999 0.46282500000000004Z" stroke-width="1"></path><path id="vector_49" fill="#38a1ff" d="M77.73282 46.50327c1.794375 0.02673 3.343725 1.069695 3.8907000000000003 2.120085 0.445005 0.85437 -0.71973 1.0182149999999999 -1.6790399999999999 1.0989 -4.690125 0.394515 -6.209280000000001 0.995445 -6.2899650000000005 1.011285 -1.50183 0.29897999999999997 1.21275 -4.451040000000001 4.078305 -4.23027Zm-3.93327 3.52143c1.433025 -0.3564 -0.02376 -0.162855 7.242345 -1.056825 -1.022175 -2.17008 -4.845555 -3.14622 -7.242345 1.056825Z" stroke-width="1"></path><path id="vector_50" fill="#38a1ff" d="M76.96656 43.44417c-0.60885 -0.049005 -1.18899 0.23462999999999998 -2.005245 0.48411 -0.2574 0.078705 -0.443025 -0.16236 -0.188595 -0.39006 1.46619 -1.311255 5.221755 -0.90189 6.526575 1.900305 0.10097999999999999 0.217305 0.2475 0.72864 0.03069 0.817245 -0.570735 0.233145 -0.575685 -2.739825 -4.363424999999999 -2.8116Z" stroke-width="1"></path><path id="vector_51" fill="#38a1ff" d="M69.56680499999999 46.69434c0.12177 3.0001949999999997 -3.5343 4.938615 -5.97663 1.73646 2.10474 -0.24354 4.191165 -0.447975 5.97663 -1.73646Z" stroke-width="1"></path></g></g></svg>